M48
; DRILL file {KiCad (5.1.4)-1} date 9-9-2019 12:01:28
; FORMAT={-:-/ absolute / metric / decimal}
; #@! TF.CreationDate,2019-09-09T12:01:28+02:00
; #@! TF.GenerationSoftware,Kicad,Pcbnew,(5.1.4)-1
FMAT,2
METRIC
T1C0.800
T2C1.400
T3C1.520
T4C3.000
%
G90
G05
T1
X165.74Y-55.6
X115.74Y-88.6
X115.74Y-96.22
X165.74Y-121.6
X165.74Y-129.22
X165.74Y-88.6
X165.74Y-96.22
X115.74Y-121.6
X115.74Y-129.22
X115.74Y-55.6
X115.74Y-63.22
X165.74Y-63.22
T2
X170.78Y-121.6
X170.78Y-125.41
X170.78Y-129.22
X186.02Y-121.6
X186.02Y-129.22
X191.1Y-121.6
X191.1Y-129.22
X196.18Y-121.6
X196.18Y-129.22
X120.78Y-121.6
X120.78Y-125.41
X120.78Y-129.22
X136.02Y-121.6
X136.02Y-129.22
X141.1Y-121.6
X141.1Y-129.22
X146.18Y-121.6
X146.18Y-129.22
X170.78Y-88.6
X170.78Y-92.41
X170.78Y-96.22
X186.02Y-88.6
X186.02Y-96.22
X191.1Y-88.6
X191.1Y-96.22
X196.18Y-88.6
X196.18Y-96.22
X120.78Y-88.6
X120.78Y-92.41
X120.78Y-96.22
X136.02Y-88.6
X136.02Y-96.22
X141.1Y-88.6
X141.1Y-96.22
X146.18Y-88.6
X146.18Y-96.22
X120.78Y-55.6
X120.78Y-59.41
X120.78Y-63.22
X136.02Y-55.6
X136.02Y-63.22
X141.1Y-55.6
X141.1Y-63.22
X146.18Y-55.6
X146.18Y-63.22
X170.78Y-55.6
X170.78Y-59.41
X170.78Y-63.22
X186.02Y-55.6
X186.02Y-63.22
X191.1Y-55.6
X191.1Y-63.22
X196.18Y-55.6
X196.18Y-63.22
T3
X169.51Y-70.205
X174.59Y-70.205
X179.67Y-70.205
X169.51Y-103.205
X174.59Y-103.205
X179.67Y-103.205
X119.51Y-81.615
X124.59Y-81.615
X129.67Y-81.615
X134.75Y-70.205
X139.83Y-70.205
X144.91Y-70.205
X119.51Y-114.615
X124.59Y-114.615
X129.67Y-114.615
X169.51Y-114.615
X174.59Y-114.615
X179.67Y-114.615
X119.51Y-103.205
X124.59Y-103.205
X129.67Y-103.205
X169.51Y-81.615
X174.59Y-81.615
X179.67Y-81.615
X119.51Y-48.615
X124.59Y-48.615
X129.67Y-48.615
X119.51Y-70.205
X124.59Y-70.205
X129.67Y-70.205
X119.51Y-136.205
X124.59Y-136.205
X129.67Y-136.205
X169.51Y-136.205
X174.59Y-136.205
X179.67Y-136.205
X184.75Y-103.205
X189.83Y-103.205
X194.91Y-103.205
X184.75Y-136.205
X189.83Y-136.205
X194.91Y-136.205
X169.51Y-48.615
X174.59Y-48.615
X179.67Y-48.615
X134.75Y-103.205
X139.83Y-103.205
X144.91Y-103.205
X134.75Y-136.205
X139.83Y-136.205
X144.91Y-136.205
X184.75Y-70.205
X189.83Y-70.205
X194.91Y-70.205
T4
X203.71Y-112.41
X160.71Y-79.41
X160.71Y-72.41
X160.71Y-105.41
X203.71Y-138.41
X110.71Y-105.41
X153.71Y-46.41
X110.71Y-79.41
X153.71Y-72.41
X110.71Y-138.41
X153.71Y-112.41
X160.71Y-46.41
X203.71Y-72.41
X203.71Y-105.41
X110.71Y-72.41
X153.71Y-105.41
X110.71Y-112.41
X160.71Y-112.41
X203.71Y-79.41
X110.71Y-46.41
X203.71Y-46.41
X153.71Y-138.41
X153.71Y-79.41
X160.71Y-138.41
T0
M30
