G04 #@! TF.GenerationSoftware,KiCad,Pcbnew,(5.1.4)-1*
G04 #@! TF.CreationDate,2019-09-09T12:01:27+02:00*
G04 #@! TF.ProjectId,SwitchRelay_panel,53776974-6368-4526-956c-61795f70616e,1.0*
G04 #@! TF.SameCoordinates,Original*
G04 #@! TF.FileFunction,Soldermask,Top*
G04 #@! TF.FilePolarity,Negative*
%FSLAX46Y46*%
G04 Gerber Fmt 4.6, Leading zero omitted, Abs format (unit mm)*
G04 Created by KiCad (PCBNEW (5.1.4)-1) date 2019-09-09 12:01:27*
%MOMM*%
%LPD*%
G04 APERTURE LIST*
%ADD10C,0.100000*%
G04 APERTURE END LIST*
D10*
G36*
X154012585Y-136888802D02*
G01*
X154162410Y-136918604D01*
X154444674Y-137035521D01*
X154698705Y-137205259D01*
X154914741Y-137421295D01*
X155084479Y-137675326D01*
X155201396Y-137957590D01*
X155261000Y-138257240D01*
X155261000Y-138562760D01*
X155201396Y-138862410D01*
X155084479Y-139144674D01*
X154914741Y-139398705D01*
X154698705Y-139614741D01*
X154444674Y-139784479D01*
X154162410Y-139901396D01*
X154012585Y-139931198D01*
X153862761Y-139961000D01*
X153557239Y-139961000D01*
X153407415Y-139931198D01*
X153257590Y-139901396D01*
X152975326Y-139784479D01*
X152721295Y-139614741D01*
X152505259Y-139398705D01*
X152335521Y-139144674D01*
X152218604Y-138862410D01*
X152159000Y-138562760D01*
X152159000Y-138257240D01*
X152218604Y-137957590D01*
X152335521Y-137675326D01*
X152505259Y-137421295D01*
X152721295Y-137205259D01*
X152975326Y-137035521D01*
X153257590Y-136918604D01*
X153407415Y-136888802D01*
X153557239Y-136859000D01*
X153862761Y-136859000D01*
X154012585Y-136888802D01*
X154012585Y-136888802D01*
G37*
G36*
X161012585Y-136888802D02*
G01*
X161162410Y-136918604D01*
X161444674Y-137035521D01*
X161698705Y-137205259D01*
X161914741Y-137421295D01*
X162084479Y-137675326D01*
X162201396Y-137957590D01*
X162261000Y-138257240D01*
X162261000Y-138562760D01*
X162201396Y-138862410D01*
X162084479Y-139144674D01*
X161914741Y-139398705D01*
X161698705Y-139614741D01*
X161444674Y-139784479D01*
X161162410Y-139901396D01*
X161012585Y-139931198D01*
X160862761Y-139961000D01*
X160557239Y-139961000D01*
X160407415Y-139931198D01*
X160257590Y-139901396D01*
X159975326Y-139784479D01*
X159721295Y-139614741D01*
X159505259Y-139398705D01*
X159335521Y-139144674D01*
X159218604Y-138862410D01*
X159159000Y-138562760D01*
X159159000Y-138257240D01*
X159218604Y-137957590D01*
X159335521Y-137675326D01*
X159505259Y-137421295D01*
X159721295Y-137205259D01*
X159975326Y-137035521D01*
X160257590Y-136918604D01*
X160407415Y-136888802D01*
X160557239Y-136859000D01*
X160862761Y-136859000D01*
X161012585Y-136888802D01*
X161012585Y-136888802D01*
G37*
G36*
X111012585Y-136888802D02*
G01*
X111162410Y-136918604D01*
X111444674Y-137035521D01*
X111698705Y-137205259D01*
X111914741Y-137421295D01*
X112084479Y-137675326D01*
X112201396Y-137957590D01*
X112261000Y-138257240D01*
X112261000Y-138562760D01*
X112201396Y-138862410D01*
X112084479Y-139144674D01*
X111914741Y-139398705D01*
X111698705Y-139614741D01*
X111444674Y-139784479D01*
X111162410Y-139901396D01*
X111012585Y-139931198D01*
X110862761Y-139961000D01*
X110557239Y-139961000D01*
X110407415Y-139931198D01*
X110257590Y-139901396D01*
X109975326Y-139784479D01*
X109721295Y-139614741D01*
X109505259Y-139398705D01*
X109335521Y-139144674D01*
X109218604Y-138862410D01*
X109159000Y-138562760D01*
X109159000Y-138257240D01*
X109218604Y-137957590D01*
X109335521Y-137675326D01*
X109505259Y-137421295D01*
X109721295Y-137205259D01*
X109975326Y-137035521D01*
X110257590Y-136918604D01*
X110407415Y-136888802D01*
X110557239Y-136859000D01*
X110862761Y-136859000D01*
X111012585Y-136888802D01*
X111012585Y-136888802D01*
G37*
G36*
X204012585Y-136888802D02*
G01*
X204162410Y-136918604D01*
X204444674Y-137035521D01*
X204698705Y-137205259D01*
X204914741Y-137421295D01*
X205084479Y-137675326D01*
X205201396Y-137957590D01*
X205261000Y-138257240D01*
X205261000Y-138562760D01*
X205201396Y-138862410D01*
X205084479Y-139144674D01*
X204914741Y-139398705D01*
X204698705Y-139614741D01*
X204444674Y-139784479D01*
X204162410Y-139901396D01*
X204012585Y-139931198D01*
X203862761Y-139961000D01*
X203557239Y-139961000D01*
X203407415Y-139931198D01*
X203257590Y-139901396D01*
X202975326Y-139784479D01*
X202721295Y-139614741D01*
X202505259Y-139398705D01*
X202335521Y-139144674D01*
X202218604Y-138862410D01*
X202159000Y-138562760D01*
X202159000Y-138257240D01*
X202218604Y-137957590D01*
X202335521Y-137675326D01*
X202505259Y-137421295D01*
X202721295Y-137205259D01*
X202975326Y-137035521D01*
X203257590Y-136918604D01*
X203407415Y-136888802D01*
X203557239Y-136859000D01*
X203862761Y-136859000D01*
X204012585Y-136888802D01*
X204012585Y-136888802D01*
G37*
G36*
X195212585Y-134683802D02*
G01*
X195362410Y-134713604D01*
X195644674Y-134830521D01*
X195898705Y-135000259D01*
X196114741Y-135216295D01*
X196284479Y-135470326D01*
X196401396Y-135752590D01*
X196461000Y-136052240D01*
X196461000Y-136357760D01*
X196401396Y-136657410D01*
X196284479Y-136939674D01*
X196114741Y-137193705D01*
X195898705Y-137409741D01*
X195644674Y-137579479D01*
X195362410Y-137696396D01*
X195212585Y-137726198D01*
X195062761Y-137756000D01*
X194757239Y-137756000D01*
X194607415Y-137726198D01*
X194457590Y-137696396D01*
X194175326Y-137579479D01*
X193921295Y-137409741D01*
X193705259Y-137193705D01*
X193535521Y-136939674D01*
X193418604Y-136657410D01*
X193359000Y-136357760D01*
X193359000Y-136052240D01*
X193418604Y-135752590D01*
X193535521Y-135470326D01*
X193705259Y-135216295D01*
X193921295Y-135000259D01*
X194175326Y-134830521D01*
X194457590Y-134713604D01*
X194607415Y-134683802D01*
X194757239Y-134654000D01*
X195062761Y-134654000D01*
X195212585Y-134683802D01*
X195212585Y-134683802D01*
G37*
G36*
X145212585Y-134683802D02*
G01*
X145362410Y-134713604D01*
X145644674Y-134830521D01*
X145898705Y-135000259D01*
X146114741Y-135216295D01*
X146284479Y-135470326D01*
X146401396Y-135752590D01*
X146461000Y-136052240D01*
X146461000Y-136357760D01*
X146401396Y-136657410D01*
X146284479Y-136939674D01*
X146114741Y-137193705D01*
X145898705Y-137409741D01*
X145644674Y-137579479D01*
X145362410Y-137696396D01*
X145212585Y-137726198D01*
X145062761Y-137756000D01*
X144757239Y-137756000D01*
X144607415Y-137726198D01*
X144457590Y-137696396D01*
X144175326Y-137579479D01*
X143921295Y-137409741D01*
X143705259Y-137193705D01*
X143535521Y-136939674D01*
X143418604Y-136657410D01*
X143359000Y-136357760D01*
X143359000Y-136052240D01*
X143418604Y-135752590D01*
X143535521Y-135470326D01*
X143705259Y-135216295D01*
X143921295Y-135000259D01*
X144175326Y-134830521D01*
X144457590Y-134713604D01*
X144607415Y-134683802D01*
X144757239Y-134654000D01*
X145062761Y-134654000D01*
X145212585Y-134683802D01*
X145212585Y-134683802D01*
G37*
G36*
X140132585Y-134683802D02*
G01*
X140282410Y-134713604D01*
X140564674Y-134830521D01*
X140818705Y-135000259D01*
X141034741Y-135216295D01*
X141204479Y-135470326D01*
X141321396Y-135752590D01*
X141381000Y-136052240D01*
X141381000Y-136357760D01*
X141321396Y-136657410D01*
X141204479Y-136939674D01*
X141034741Y-137193705D01*
X140818705Y-137409741D01*
X140564674Y-137579479D01*
X140282410Y-137696396D01*
X140132585Y-137726198D01*
X139982761Y-137756000D01*
X139677239Y-137756000D01*
X139527415Y-137726198D01*
X139377590Y-137696396D01*
X139095326Y-137579479D01*
X138841295Y-137409741D01*
X138625259Y-137193705D01*
X138455521Y-136939674D01*
X138338604Y-136657410D01*
X138279000Y-136357760D01*
X138279000Y-136052240D01*
X138338604Y-135752590D01*
X138455521Y-135470326D01*
X138625259Y-135216295D01*
X138841295Y-135000259D01*
X139095326Y-134830521D01*
X139377590Y-134713604D01*
X139527415Y-134683802D01*
X139677239Y-134654000D01*
X139982761Y-134654000D01*
X140132585Y-134683802D01*
X140132585Y-134683802D01*
G37*
G36*
X136301000Y-137756000D02*
G01*
X133199000Y-137756000D01*
X133199000Y-134654000D01*
X136301000Y-134654000D01*
X136301000Y-137756000D01*
X136301000Y-137756000D01*
G37*
G36*
X171061000Y-137756000D02*
G01*
X167959000Y-137756000D01*
X167959000Y-134654000D01*
X171061000Y-134654000D01*
X171061000Y-137756000D01*
X171061000Y-137756000D01*
G37*
G36*
X174892585Y-134683802D02*
G01*
X175042410Y-134713604D01*
X175324674Y-134830521D01*
X175578705Y-135000259D01*
X175794741Y-135216295D01*
X175964479Y-135470326D01*
X176081396Y-135752590D01*
X176141000Y-136052240D01*
X176141000Y-136357760D01*
X176081396Y-136657410D01*
X175964479Y-136939674D01*
X175794741Y-137193705D01*
X175578705Y-137409741D01*
X175324674Y-137579479D01*
X175042410Y-137696396D01*
X174892585Y-137726198D01*
X174742761Y-137756000D01*
X174437239Y-137756000D01*
X174287415Y-137726198D01*
X174137590Y-137696396D01*
X173855326Y-137579479D01*
X173601295Y-137409741D01*
X173385259Y-137193705D01*
X173215521Y-136939674D01*
X173098604Y-136657410D01*
X173039000Y-136357760D01*
X173039000Y-136052240D01*
X173098604Y-135752590D01*
X173215521Y-135470326D01*
X173385259Y-135216295D01*
X173601295Y-135000259D01*
X173855326Y-134830521D01*
X174137590Y-134713604D01*
X174287415Y-134683802D01*
X174437239Y-134654000D01*
X174742761Y-134654000D01*
X174892585Y-134683802D01*
X174892585Y-134683802D01*
G37*
G36*
X186301000Y-137756000D02*
G01*
X183199000Y-137756000D01*
X183199000Y-134654000D01*
X186301000Y-134654000D01*
X186301000Y-137756000D01*
X186301000Y-137756000D01*
G37*
G36*
X179972585Y-134683802D02*
G01*
X180122410Y-134713604D01*
X180404674Y-134830521D01*
X180658705Y-135000259D01*
X180874741Y-135216295D01*
X181044479Y-135470326D01*
X181161396Y-135752590D01*
X181221000Y-136052240D01*
X181221000Y-136357760D01*
X181161396Y-136657410D01*
X181044479Y-136939674D01*
X180874741Y-137193705D01*
X180658705Y-137409741D01*
X180404674Y-137579479D01*
X180122410Y-137696396D01*
X179972585Y-137726198D01*
X179822761Y-137756000D01*
X179517239Y-137756000D01*
X179367415Y-137726198D01*
X179217590Y-137696396D01*
X178935326Y-137579479D01*
X178681295Y-137409741D01*
X178465259Y-137193705D01*
X178295521Y-136939674D01*
X178178604Y-136657410D01*
X178119000Y-136357760D01*
X178119000Y-136052240D01*
X178178604Y-135752590D01*
X178295521Y-135470326D01*
X178465259Y-135216295D01*
X178681295Y-135000259D01*
X178935326Y-134830521D01*
X179217590Y-134713604D01*
X179367415Y-134683802D01*
X179517239Y-134654000D01*
X179822761Y-134654000D01*
X179972585Y-134683802D01*
X179972585Y-134683802D01*
G37*
G36*
X121061000Y-137756000D02*
G01*
X117959000Y-137756000D01*
X117959000Y-134654000D01*
X121061000Y-134654000D01*
X121061000Y-137756000D01*
X121061000Y-137756000D01*
G37*
G36*
X124892585Y-134683802D02*
G01*
X125042410Y-134713604D01*
X125324674Y-134830521D01*
X125578705Y-135000259D01*
X125794741Y-135216295D01*
X125964479Y-135470326D01*
X126081396Y-135752590D01*
X126141000Y-136052240D01*
X126141000Y-136357760D01*
X126081396Y-136657410D01*
X125964479Y-136939674D01*
X125794741Y-137193705D01*
X125578705Y-137409741D01*
X125324674Y-137579479D01*
X125042410Y-137696396D01*
X124892585Y-137726198D01*
X124742761Y-137756000D01*
X124437239Y-137756000D01*
X124287415Y-137726198D01*
X124137590Y-137696396D01*
X123855326Y-137579479D01*
X123601295Y-137409741D01*
X123385259Y-137193705D01*
X123215521Y-136939674D01*
X123098604Y-136657410D01*
X123039000Y-136357760D01*
X123039000Y-136052240D01*
X123098604Y-135752590D01*
X123215521Y-135470326D01*
X123385259Y-135216295D01*
X123601295Y-135000259D01*
X123855326Y-134830521D01*
X124137590Y-134713604D01*
X124287415Y-134683802D01*
X124437239Y-134654000D01*
X124742761Y-134654000D01*
X124892585Y-134683802D01*
X124892585Y-134683802D01*
G37*
G36*
X129972585Y-134683802D02*
G01*
X130122410Y-134713604D01*
X130404674Y-134830521D01*
X130658705Y-135000259D01*
X130874741Y-135216295D01*
X131044479Y-135470326D01*
X131161396Y-135752590D01*
X131221000Y-136052240D01*
X131221000Y-136357760D01*
X131161396Y-136657410D01*
X131044479Y-136939674D01*
X130874741Y-137193705D01*
X130658705Y-137409741D01*
X130404674Y-137579479D01*
X130122410Y-137696396D01*
X129972585Y-137726198D01*
X129822761Y-137756000D01*
X129517239Y-137756000D01*
X129367415Y-137726198D01*
X129217590Y-137696396D01*
X128935326Y-137579479D01*
X128681295Y-137409741D01*
X128465259Y-137193705D01*
X128295521Y-136939674D01*
X128178604Y-136657410D01*
X128119000Y-136357760D01*
X128119000Y-136052240D01*
X128178604Y-135752590D01*
X128295521Y-135470326D01*
X128465259Y-135216295D01*
X128681295Y-135000259D01*
X128935326Y-134830521D01*
X129217590Y-134713604D01*
X129367415Y-134683802D01*
X129517239Y-134654000D01*
X129822761Y-134654000D01*
X129972585Y-134683802D01*
X129972585Y-134683802D01*
G37*
G36*
X190132585Y-134683802D02*
G01*
X190282410Y-134713604D01*
X190564674Y-134830521D01*
X190818705Y-135000259D01*
X191034741Y-135216295D01*
X191204479Y-135470326D01*
X191321396Y-135752590D01*
X191381000Y-136052240D01*
X191381000Y-136357760D01*
X191321396Y-136657410D01*
X191204479Y-136939674D01*
X191034741Y-137193705D01*
X190818705Y-137409741D01*
X190564674Y-137579479D01*
X190282410Y-137696396D01*
X190132585Y-137726198D01*
X189982761Y-137756000D01*
X189677239Y-137756000D01*
X189527415Y-137726198D01*
X189377590Y-137696396D01*
X189095326Y-137579479D01*
X188841295Y-137409741D01*
X188625259Y-137193705D01*
X188455521Y-136939674D01*
X188338604Y-136657410D01*
X188279000Y-136357760D01*
X188279000Y-136052240D01*
X188338604Y-135752590D01*
X188455521Y-135470326D01*
X188625259Y-135216295D01*
X188841295Y-135000259D01*
X189095326Y-134830521D01*
X189377590Y-134713604D01*
X189527415Y-134683802D01*
X189677239Y-134654000D01*
X189982761Y-134654000D01*
X190132585Y-134683802D01*
X190132585Y-134683802D01*
G37*
G36*
X196404549Y-128091116D02*
G01*
X196515734Y-128113232D01*
X196725203Y-128199997D01*
X196913720Y-128325960D01*
X197074040Y-128486280D01*
X197200003Y-128674797D01*
X197286768Y-128884266D01*
X197331000Y-129106636D01*
X197331000Y-129333364D01*
X197286768Y-129555734D01*
X197200003Y-129765203D01*
X197074040Y-129953720D01*
X196913720Y-130114040D01*
X196725203Y-130240003D01*
X196515734Y-130326768D01*
X196404549Y-130348884D01*
X196293365Y-130371000D01*
X196066635Y-130371000D01*
X195955451Y-130348884D01*
X195844266Y-130326768D01*
X195634797Y-130240003D01*
X195446280Y-130114040D01*
X195285960Y-129953720D01*
X195159997Y-129765203D01*
X195073232Y-129555734D01*
X195029000Y-129333364D01*
X195029000Y-129106636D01*
X195073232Y-128884266D01*
X195159997Y-128674797D01*
X195285960Y-128486280D01*
X195446280Y-128325960D01*
X195634797Y-128199997D01*
X195844266Y-128113232D01*
X195955451Y-128091116D01*
X196066635Y-128069000D01*
X196293365Y-128069000D01*
X196404549Y-128091116D01*
X196404549Y-128091116D01*
G37*
G36*
X121004549Y-128091116D02*
G01*
X121115734Y-128113232D01*
X121325203Y-128199997D01*
X121513720Y-128325960D01*
X121674040Y-128486280D01*
X121800003Y-128674797D01*
X121886768Y-128884266D01*
X121931000Y-129106636D01*
X121931000Y-129333364D01*
X121886768Y-129555734D01*
X121800003Y-129765203D01*
X121674040Y-129953720D01*
X121513720Y-130114040D01*
X121325203Y-130240003D01*
X121115734Y-130326768D01*
X121004549Y-130348884D01*
X120893365Y-130371000D01*
X120666635Y-130371000D01*
X120555451Y-130348884D01*
X120444266Y-130326768D01*
X120234797Y-130240003D01*
X120046280Y-130114040D01*
X119885960Y-129953720D01*
X119759997Y-129765203D01*
X119673232Y-129555734D01*
X119629000Y-129333364D01*
X119629000Y-129106636D01*
X119673232Y-128884266D01*
X119759997Y-128674797D01*
X119885960Y-128486280D01*
X120046280Y-128325960D01*
X120234797Y-128199997D01*
X120444266Y-128113232D01*
X120555451Y-128091116D01*
X120666635Y-128069000D01*
X120893365Y-128069000D01*
X121004549Y-128091116D01*
X121004549Y-128091116D01*
G37*
G36*
X191324549Y-128091116D02*
G01*
X191435734Y-128113232D01*
X191645203Y-128199997D01*
X191833720Y-128325960D01*
X191994040Y-128486280D01*
X192120003Y-128674797D01*
X192206768Y-128884266D01*
X192251000Y-129106636D01*
X192251000Y-129333364D01*
X192206768Y-129555734D01*
X192120003Y-129765203D01*
X191994040Y-129953720D01*
X191833720Y-130114040D01*
X191645203Y-130240003D01*
X191435734Y-130326768D01*
X191324549Y-130348884D01*
X191213365Y-130371000D01*
X190986635Y-130371000D01*
X190875451Y-130348884D01*
X190764266Y-130326768D01*
X190554797Y-130240003D01*
X190366280Y-130114040D01*
X190205960Y-129953720D01*
X190079997Y-129765203D01*
X189993232Y-129555734D01*
X189949000Y-129333364D01*
X189949000Y-129106636D01*
X189993232Y-128884266D01*
X190079997Y-128674797D01*
X190205960Y-128486280D01*
X190366280Y-128325960D01*
X190554797Y-128199997D01*
X190764266Y-128113232D01*
X190875451Y-128091116D01*
X190986635Y-128069000D01*
X191213365Y-128069000D01*
X191324549Y-128091116D01*
X191324549Y-128091116D01*
G37*
G36*
X186244549Y-128091116D02*
G01*
X186355734Y-128113232D01*
X186565203Y-128199997D01*
X186753720Y-128325960D01*
X186914040Y-128486280D01*
X187040003Y-128674797D01*
X187126768Y-128884266D01*
X187171000Y-129106636D01*
X187171000Y-129333364D01*
X187126768Y-129555734D01*
X187040003Y-129765203D01*
X186914040Y-129953720D01*
X186753720Y-130114040D01*
X186565203Y-130240003D01*
X186355734Y-130326768D01*
X186244549Y-130348884D01*
X186133365Y-130371000D01*
X185906635Y-130371000D01*
X185795451Y-130348884D01*
X185684266Y-130326768D01*
X185474797Y-130240003D01*
X185286280Y-130114040D01*
X185125960Y-129953720D01*
X184999997Y-129765203D01*
X184913232Y-129555734D01*
X184869000Y-129333364D01*
X184869000Y-129106636D01*
X184913232Y-128884266D01*
X184999997Y-128674797D01*
X185125960Y-128486280D01*
X185286280Y-128325960D01*
X185474797Y-128199997D01*
X185684266Y-128113232D01*
X185795451Y-128091116D01*
X185906635Y-128069000D01*
X186133365Y-128069000D01*
X186244549Y-128091116D01*
X186244549Y-128091116D01*
G37*
G36*
X136244549Y-128091116D02*
G01*
X136355734Y-128113232D01*
X136565203Y-128199997D01*
X136753720Y-128325960D01*
X136914040Y-128486280D01*
X137040003Y-128674797D01*
X137126768Y-128884266D01*
X137171000Y-129106636D01*
X137171000Y-129333364D01*
X137126768Y-129555734D01*
X137040003Y-129765203D01*
X136914040Y-129953720D01*
X136753720Y-130114040D01*
X136565203Y-130240003D01*
X136355734Y-130326768D01*
X136244549Y-130348884D01*
X136133365Y-130371000D01*
X135906635Y-130371000D01*
X135795451Y-130348884D01*
X135684266Y-130326768D01*
X135474797Y-130240003D01*
X135286280Y-130114040D01*
X135125960Y-129953720D01*
X134999997Y-129765203D01*
X134913232Y-129555734D01*
X134869000Y-129333364D01*
X134869000Y-129106636D01*
X134913232Y-128884266D01*
X134999997Y-128674797D01*
X135125960Y-128486280D01*
X135286280Y-128325960D01*
X135474797Y-128199997D01*
X135684266Y-128113232D01*
X135795451Y-128091116D01*
X135906635Y-128069000D01*
X136133365Y-128069000D01*
X136244549Y-128091116D01*
X136244549Y-128091116D01*
G37*
G36*
X141324549Y-128091116D02*
G01*
X141435734Y-128113232D01*
X141645203Y-128199997D01*
X141833720Y-128325960D01*
X141994040Y-128486280D01*
X142120003Y-128674797D01*
X142206768Y-128884266D01*
X142251000Y-129106636D01*
X142251000Y-129333364D01*
X142206768Y-129555734D01*
X142120003Y-129765203D01*
X141994040Y-129953720D01*
X141833720Y-130114040D01*
X141645203Y-130240003D01*
X141435734Y-130326768D01*
X141324549Y-130348884D01*
X141213365Y-130371000D01*
X140986635Y-130371000D01*
X140875451Y-130348884D01*
X140764266Y-130326768D01*
X140554797Y-130240003D01*
X140366280Y-130114040D01*
X140205960Y-129953720D01*
X140079997Y-129765203D01*
X139993232Y-129555734D01*
X139949000Y-129333364D01*
X139949000Y-129106636D01*
X139993232Y-128884266D01*
X140079997Y-128674797D01*
X140205960Y-128486280D01*
X140366280Y-128325960D01*
X140554797Y-128199997D01*
X140764266Y-128113232D01*
X140875451Y-128091116D01*
X140986635Y-128069000D01*
X141213365Y-128069000D01*
X141324549Y-128091116D01*
X141324549Y-128091116D01*
G37*
G36*
X146404549Y-128091116D02*
G01*
X146515734Y-128113232D01*
X146725203Y-128199997D01*
X146913720Y-128325960D01*
X147074040Y-128486280D01*
X147200003Y-128674797D01*
X147286768Y-128884266D01*
X147331000Y-129106636D01*
X147331000Y-129333364D01*
X147286768Y-129555734D01*
X147200003Y-129765203D01*
X147074040Y-129953720D01*
X146913720Y-130114040D01*
X146725203Y-130240003D01*
X146515734Y-130326768D01*
X146404549Y-130348884D01*
X146293365Y-130371000D01*
X146066635Y-130371000D01*
X145955451Y-130348884D01*
X145844266Y-130326768D01*
X145634797Y-130240003D01*
X145446280Y-130114040D01*
X145285960Y-129953720D01*
X145159997Y-129765203D01*
X145073232Y-129555734D01*
X145029000Y-129333364D01*
X145029000Y-129106636D01*
X145073232Y-128884266D01*
X145159997Y-128674797D01*
X145285960Y-128486280D01*
X145446280Y-128325960D01*
X145634797Y-128199997D01*
X145844266Y-128113232D01*
X145955451Y-128091116D01*
X146066635Y-128069000D01*
X146293365Y-128069000D01*
X146404549Y-128091116D01*
X146404549Y-128091116D01*
G37*
G36*
X171004549Y-128091116D02*
G01*
X171115734Y-128113232D01*
X171325203Y-128199997D01*
X171513720Y-128325960D01*
X171674040Y-128486280D01*
X171800003Y-128674797D01*
X171886768Y-128884266D01*
X171931000Y-129106636D01*
X171931000Y-129333364D01*
X171886768Y-129555734D01*
X171800003Y-129765203D01*
X171674040Y-129953720D01*
X171513720Y-130114040D01*
X171325203Y-130240003D01*
X171115734Y-130326768D01*
X171004549Y-130348884D01*
X170893365Y-130371000D01*
X170666635Y-130371000D01*
X170555451Y-130348884D01*
X170444266Y-130326768D01*
X170234797Y-130240003D01*
X170046280Y-130114040D01*
X169885960Y-129953720D01*
X169759997Y-129765203D01*
X169673232Y-129555734D01*
X169629000Y-129333364D01*
X169629000Y-129106636D01*
X169673232Y-128884266D01*
X169759997Y-128674797D01*
X169885960Y-128486280D01*
X170046280Y-128325960D01*
X170234797Y-128199997D01*
X170444266Y-128113232D01*
X170555451Y-128091116D01*
X170666635Y-128069000D01*
X170893365Y-128069000D01*
X171004549Y-128091116D01*
X171004549Y-128091116D01*
G37*
G36*
X115906823Y-128381313D02*
G01*
X116067242Y-128429976D01*
X116172579Y-128486280D01*
X116215078Y-128508996D01*
X116344659Y-128615341D01*
X116451004Y-128744922D01*
X116451005Y-128744924D01*
X116530024Y-128892758D01*
X116578687Y-129053177D01*
X116595117Y-129220000D01*
X116578687Y-129386823D01*
X116530024Y-129547242D01*
X116459114Y-129679906D01*
X116451004Y-129695078D01*
X116344659Y-129824659D01*
X116215078Y-129931004D01*
X116215076Y-129931005D01*
X116067242Y-130010024D01*
X115906823Y-130058687D01*
X115781804Y-130071000D01*
X115698196Y-130071000D01*
X115573177Y-130058687D01*
X115412758Y-130010024D01*
X115264924Y-129931005D01*
X115264922Y-129931004D01*
X115135341Y-129824659D01*
X115028996Y-129695078D01*
X115020886Y-129679906D01*
X114949976Y-129547242D01*
X114901313Y-129386823D01*
X114884883Y-129220000D01*
X114901313Y-129053177D01*
X114949976Y-128892758D01*
X115028995Y-128744924D01*
X115028996Y-128744922D01*
X115135341Y-128615341D01*
X115264922Y-128508996D01*
X115307421Y-128486280D01*
X115412758Y-128429976D01*
X115573177Y-128381313D01*
X115698196Y-128369000D01*
X115781804Y-128369000D01*
X115906823Y-128381313D01*
X115906823Y-128381313D01*
G37*
G36*
X165906823Y-128381313D02*
G01*
X166067242Y-128429976D01*
X166172579Y-128486280D01*
X166215078Y-128508996D01*
X166344659Y-128615341D01*
X166451004Y-128744922D01*
X166451005Y-128744924D01*
X166530024Y-128892758D01*
X166578687Y-129053177D01*
X166595117Y-129220000D01*
X166578687Y-129386823D01*
X166530024Y-129547242D01*
X166459114Y-129679906D01*
X166451004Y-129695078D01*
X166344659Y-129824659D01*
X166215078Y-129931004D01*
X166215076Y-129931005D01*
X166067242Y-130010024D01*
X165906823Y-130058687D01*
X165781804Y-130071000D01*
X165698196Y-130071000D01*
X165573177Y-130058687D01*
X165412758Y-130010024D01*
X165264924Y-129931005D01*
X165264922Y-129931004D01*
X165135341Y-129824659D01*
X165028996Y-129695078D01*
X165020886Y-129679906D01*
X164949976Y-129547242D01*
X164901313Y-129386823D01*
X164884883Y-129220000D01*
X164901313Y-129053177D01*
X164949976Y-128892758D01*
X165028995Y-128744924D01*
X165028996Y-128744922D01*
X165135341Y-128615341D01*
X165264922Y-128508996D01*
X165307421Y-128486280D01*
X165412758Y-128429976D01*
X165573177Y-128381313D01*
X165698196Y-128369000D01*
X165781804Y-128369000D01*
X165906823Y-128381313D01*
X165906823Y-128381313D01*
G37*
G36*
X166324468Y-125813565D02*
G01*
X166363138Y-125825296D01*
X166398777Y-125844346D01*
X166430017Y-125869983D01*
X166455654Y-125901223D01*
X166474704Y-125936862D01*
X166486435Y-125975532D01*
X166491000Y-126021888D01*
X166491000Y-126673112D01*
X166486435Y-126719468D01*
X166474704Y-126758138D01*
X166455654Y-126793777D01*
X166430017Y-126825017D01*
X166398777Y-126850654D01*
X166363138Y-126869704D01*
X166324468Y-126881435D01*
X166278112Y-126886000D01*
X165201888Y-126886000D01*
X165155532Y-126881435D01*
X165116862Y-126869704D01*
X165081223Y-126850654D01*
X165049983Y-126825017D01*
X165024346Y-126793777D01*
X165005296Y-126758138D01*
X164993565Y-126719468D01*
X164989000Y-126673112D01*
X164989000Y-126021888D01*
X164993565Y-125975532D01*
X165005296Y-125936862D01*
X165024346Y-125901223D01*
X165049983Y-125869983D01*
X165081223Y-125844346D01*
X165116862Y-125825296D01*
X165155532Y-125813565D01*
X165201888Y-125809000D01*
X166278112Y-125809000D01*
X166324468Y-125813565D01*
X166324468Y-125813565D01*
G37*
G36*
X116324468Y-125813565D02*
G01*
X116363138Y-125825296D01*
X116398777Y-125844346D01*
X116430017Y-125869983D01*
X116455654Y-125901223D01*
X116474704Y-125936862D01*
X116486435Y-125975532D01*
X116491000Y-126021888D01*
X116491000Y-126673112D01*
X116486435Y-126719468D01*
X116474704Y-126758138D01*
X116455654Y-126793777D01*
X116430017Y-126825017D01*
X116398777Y-126850654D01*
X116363138Y-126869704D01*
X116324468Y-126881435D01*
X116278112Y-126886000D01*
X115201888Y-126886000D01*
X115155532Y-126881435D01*
X115116862Y-126869704D01*
X115081223Y-126850654D01*
X115049983Y-126825017D01*
X115024346Y-126793777D01*
X115005296Y-126758138D01*
X114993565Y-126719468D01*
X114989000Y-126673112D01*
X114989000Y-126021888D01*
X114993565Y-125975532D01*
X115005296Y-125936862D01*
X115024346Y-125901223D01*
X115049983Y-125869983D01*
X115081223Y-125844346D01*
X115116862Y-125825296D01*
X115155532Y-125813565D01*
X115201888Y-125809000D01*
X116278112Y-125809000D01*
X116324468Y-125813565D01*
X116324468Y-125813565D01*
G37*
G36*
X161517199Y-124209954D02*
G01*
X161529450Y-124210556D01*
X161547869Y-124210556D01*
X161570149Y-124212750D01*
X161654233Y-124229476D01*
X161675660Y-124235976D01*
X161754858Y-124268780D01*
X161760303Y-124271691D01*
X161760309Y-124271693D01*
X161769169Y-124276429D01*
X161769173Y-124276432D01*
X161774614Y-124279340D01*
X161845899Y-124326971D01*
X161863204Y-124341172D01*
X161923828Y-124401796D01*
X161938029Y-124419101D01*
X161985660Y-124490386D01*
X161988568Y-124495827D01*
X161988571Y-124495831D01*
X161993307Y-124504691D01*
X161993309Y-124504697D01*
X161996220Y-124510142D01*
X162029024Y-124589340D01*
X162035524Y-124610767D01*
X162052250Y-124694851D01*
X162054444Y-124717131D01*
X162054444Y-124735550D01*
X162055046Y-124747801D01*
X162056852Y-124766139D01*
X162056852Y-125253860D01*
X162055263Y-125269999D01*
X162052348Y-125279608D01*
X162047610Y-125288472D01*
X162041237Y-125296237D01*
X162028794Y-125306448D01*
X162018425Y-125313378D01*
X162001098Y-125330705D01*
X161987485Y-125351080D01*
X161978109Y-125373720D01*
X161973329Y-125397753D01*
X161973330Y-125422257D01*
X161978112Y-125446290D01*
X161987490Y-125468929D01*
X162001105Y-125489302D01*
X162018432Y-125506629D01*
X162028802Y-125513558D01*
X162041237Y-125523763D01*
X162047610Y-125531528D01*
X162052348Y-125540392D01*
X162055263Y-125550001D01*
X162056852Y-125566140D01*
X162056852Y-126053862D01*
X162055046Y-126072199D01*
X162054444Y-126084450D01*
X162054444Y-126102869D01*
X162052250Y-126125149D01*
X162035524Y-126209233D01*
X162029024Y-126230660D01*
X161996220Y-126309858D01*
X161993309Y-126315303D01*
X161993307Y-126315309D01*
X161988571Y-126324169D01*
X161988568Y-126324173D01*
X161985660Y-126329614D01*
X161938029Y-126400899D01*
X161923828Y-126418204D01*
X161863204Y-126478828D01*
X161845899Y-126493029D01*
X161774614Y-126540660D01*
X161769173Y-126543568D01*
X161769169Y-126543571D01*
X161760309Y-126548307D01*
X161760303Y-126548309D01*
X161754858Y-126551220D01*
X161675660Y-126584024D01*
X161654233Y-126590524D01*
X161570149Y-126607250D01*
X161547869Y-126609444D01*
X161529450Y-126609444D01*
X161517199Y-126610046D01*
X161498862Y-126611852D01*
X161011138Y-126611852D01*
X160992801Y-126610046D01*
X160980550Y-126609444D01*
X160962131Y-126609444D01*
X160939851Y-126607250D01*
X160855767Y-126590524D01*
X160834340Y-126584024D01*
X160755142Y-126551220D01*
X160749697Y-126548309D01*
X160749691Y-126548307D01*
X160740831Y-126543571D01*
X160740827Y-126543568D01*
X160735386Y-126540660D01*
X160664101Y-126493029D01*
X160646796Y-126478828D01*
X160586172Y-126418204D01*
X160571971Y-126400899D01*
X160524340Y-126329614D01*
X160521432Y-126324173D01*
X160521429Y-126324169D01*
X160516693Y-126315309D01*
X160516691Y-126315303D01*
X160513780Y-126309858D01*
X160480976Y-126230660D01*
X160474476Y-126209233D01*
X160457750Y-126125149D01*
X160455556Y-126102869D01*
X160455556Y-126084450D01*
X160454954Y-126072199D01*
X160453148Y-126053862D01*
X160453148Y-125566140D01*
X160454737Y-125550001D01*
X160457652Y-125540392D01*
X160462390Y-125531528D01*
X160468763Y-125523763D01*
X160481206Y-125513552D01*
X160491575Y-125506622D01*
X160508902Y-125489295D01*
X160522515Y-125468920D01*
X160531891Y-125446280D01*
X160536671Y-125422247D01*
X160536670Y-125397743D01*
X160531888Y-125373710D01*
X160522510Y-125351071D01*
X160508895Y-125330698D01*
X160491568Y-125313371D01*
X160481198Y-125306442D01*
X160468763Y-125296237D01*
X160462390Y-125288472D01*
X160457652Y-125279608D01*
X160454737Y-125269999D01*
X160453148Y-125253860D01*
X160453148Y-124766139D01*
X160454954Y-124747801D01*
X160455556Y-124735550D01*
X160455556Y-124717131D01*
X160457750Y-124694851D01*
X160474476Y-124610767D01*
X160480976Y-124589340D01*
X160513780Y-124510142D01*
X160516691Y-124504697D01*
X160516693Y-124504691D01*
X160521429Y-124495831D01*
X160521432Y-124495827D01*
X160524340Y-124490386D01*
X160571971Y-124419101D01*
X160586172Y-124401796D01*
X160646796Y-124341172D01*
X160664101Y-124326971D01*
X160735386Y-124279340D01*
X160740827Y-124276432D01*
X160740831Y-124276429D01*
X160749691Y-124271693D01*
X160749697Y-124271691D01*
X160755142Y-124268780D01*
X160834340Y-124235976D01*
X160855767Y-124229476D01*
X160939851Y-124212750D01*
X160962131Y-124210556D01*
X160980550Y-124210556D01*
X160992801Y-124209954D01*
X161011139Y-124208148D01*
X161498861Y-124208148D01*
X161517199Y-124209954D01*
X161517199Y-124209954D01*
G37*
G36*
X111517199Y-124209954D02*
G01*
X111529450Y-124210556D01*
X111547869Y-124210556D01*
X111570149Y-124212750D01*
X111654233Y-124229476D01*
X111675660Y-124235976D01*
X111754858Y-124268780D01*
X111760303Y-124271691D01*
X111760309Y-124271693D01*
X111769169Y-124276429D01*
X111769173Y-124276432D01*
X111774614Y-124279340D01*
X111845899Y-124326971D01*
X111863204Y-124341172D01*
X111923828Y-124401796D01*
X111938029Y-124419101D01*
X111985660Y-124490386D01*
X111988568Y-124495827D01*
X111988571Y-124495831D01*
X111993307Y-124504691D01*
X111993309Y-124504697D01*
X111996220Y-124510142D01*
X112029024Y-124589340D01*
X112035524Y-124610767D01*
X112052250Y-124694851D01*
X112054444Y-124717131D01*
X112054444Y-124735550D01*
X112055046Y-124747801D01*
X112056852Y-124766139D01*
X112056852Y-125253860D01*
X112055263Y-125269999D01*
X112052348Y-125279608D01*
X112047610Y-125288472D01*
X112041237Y-125296237D01*
X112028794Y-125306448D01*
X112018425Y-125313378D01*
X112001098Y-125330705D01*
X111987485Y-125351080D01*
X111978109Y-125373720D01*
X111973329Y-125397753D01*
X111973330Y-125422257D01*
X111978112Y-125446290D01*
X111987490Y-125468929D01*
X112001105Y-125489302D01*
X112018432Y-125506629D01*
X112028802Y-125513558D01*
X112041237Y-125523763D01*
X112047610Y-125531528D01*
X112052348Y-125540392D01*
X112055263Y-125550001D01*
X112056852Y-125566140D01*
X112056852Y-126053862D01*
X112055046Y-126072199D01*
X112054444Y-126084450D01*
X112054444Y-126102869D01*
X112052250Y-126125149D01*
X112035524Y-126209233D01*
X112029024Y-126230660D01*
X111996220Y-126309858D01*
X111993309Y-126315303D01*
X111993307Y-126315309D01*
X111988571Y-126324169D01*
X111988568Y-126324173D01*
X111985660Y-126329614D01*
X111938029Y-126400899D01*
X111923828Y-126418204D01*
X111863204Y-126478828D01*
X111845899Y-126493029D01*
X111774614Y-126540660D01*
X111769173Y-126543568D01*
X111769169Y-126543571D01*
X111760309Y-126548307D01*
X111760303Y-126548309D01*
X111754858Y-126551220D01*
X111675660Y-126584024D01*
X111654233Y-126590524D01*
X111570149Y-126607250D01*
X111547869Y-126609444D01*
X111529450Y-126609444D01*
X111517199Y-126610046D01*
X111498862Y-126611852D01*
X111011138Y-126611852D01*
X110992801Y-126610046D01*
X110980550Y-126609444D01*
X110962131Y-126609444D01*
X110939851Y-126607250D01*
X110855767Y-126590524D01*
X110834340Y-126584024D01*
X110755142Y-126551220D01*
X110749697Y-126548309D01*
X110749691Y-126548307D01*
X110740831Y-126543571D01*
X110740827Y-126543568D01*
X110735386Y-126540660D01*
X110664101Y-126493029D01*
X110646796Y-126478828D01*
X110586172Y-126418204D01*
X110571971Y-126400899D01*
X110524340Y-126329614D01*
X110521432Y-126324173D01*
X110521429Y-126324169D01*
X110516693Y-126315309D01*
X110516691Y-126315303D01*
X110513780Y-126309858D01*
X110480976Y-126230660D01*
X110474476Y-126209233D01*
X110457750Y-126125149D01*
X110455556Y-126102869D01*
X110455556Y-126084450D01*
X110454954Y-126072199D01*
X110453148Y-126053862D01*
X110453148Y-125566140D01*
X110454737Y-125550001D01*
X110457652Y-125540392D01*
X110462390Y-125531528D01*
X110468763Y-125523763D01*
X110481206Y-125513552D01*
X110491575Y-125506622D01*
X110508902Y-125489295D01*
X110522515Y-125468920D01*
X110531891Y-125446280D01*
X110536671Y-125422247D01*
X110536670Y-125397743D01*
X110531888Y-125373710D01*
X110522510Y-125351071D01*
X110508895Y-125330698D01*
X110491568Y-125313371D01*
X110481198Y-125306442D01*
X110468763Y-125296237D01*
X110462390Y-125288472D01*
X110457652Y-125279608D01*
X110454737Y-125269999D01*
X110453148Y-125253860D01*
X110453148Y-124766139D01*
X110454954Y-124747801D01*
X110455556Y-124735550D01*
X110455556Y-124717131D01*
X110457750Y-124694851D01*
X110474476Y-124610767D01*
X110480976Y-124589340D01*
X110513780Y-124510142D01*
X110516691Y-124504697D01*
X110516693Y-124504691D01*
X110521429Y-124495831D01*
X110521432Y-124495827D01*
X110524340Y-124490386D01*
X110571971Y-124419101D01*
X110586172Y-124401796D01*
X110646796Y-124341172D01*
X110664101Y-124326971D01*
X110735386Y-124279340D01*
X110740827Y-124276432D01*
X110740831Y-124276429D01*
X110749691Y-124271693D01*
X110749697Y-124271691D01*
X110755142Y-124268780D01*
X110834340Y-124235976D01*
X110855767Y-124229476D01*
X110939851Y-124212750D01*
X110962131Y-124210556D01*
X110980550Y-124210556D01*
X110992801Y-124209954D01*
X111011139Y-124208148D01*
X111498861Y-124208148D01*
X111517199Y-124209954D01*
X111517199Y-124209954D01*
G37*
G36*
X170980986Y-124276429D02*
G01*
X171115734Y-124303232D01*
X171325203Y-124389997D01*
X171513720Y-124515960D01*
X171674040Y-124676280D01*
X171800003Y-124864797D01*
X171845922Y-124975654D01*
X171886768Y-125074267D01*
X171931000Y-125296635D01*
X171931000Y-125523365D01*
X171923713Y-125560000D01*
X171886768Y-125745734D01*
X171800003Y-125955203D01*
X171674040Y-126143720D01*
X171513720Y-126304040D01*
X171325203Y-126430003D01*
X171115734Y-126516768D01*
X171004549Y-126538884D01*
X170893365Y-126561000D01*
X170666635Y-126561000D01*
X170555451Y-126538884D01*
X170444266Y-126516768D01*
X170234797Y-126430003D01*
X170046280Y-126304040D01*
X169885960Y-126143720D01*
X169759997Y-125955203D01*
X169673232Y-125745734D01*
X169636287Y-125560000D01*
X169629000Y-125523365D01*
X169629000Y-125296635D01*
X169673232Y-125074267D01*
X169714079Y-124975654D01*
X169759997Y-124864797D01*
X169885960Y-124676280D01*
X170046280Y-124515960D01*
X170234797Y-124389997D01*
X170444266Y-124303232D01*
X170579014Y-124276429D01*
X170666635Y-124259000D01*
X170893365Y-124259000D01*
X170980986Y-124276429D01*
X170980986Y-124276429D01*
G37*
G36*
X120980986Y-124276429D02*
G01*
X121115734Y-124303232D01*
X121325203Y-124389997D01*
X121513720Y-124515960D01*
X121674040Y-124676280D01*
X121800003Y-124864797D01*
X121845922Y-124975654D01*
X121886768Y-125074267D01*
X121931000Y-125296635D01*
X121931000Y-125523365D01*
X121923713Y-125560000D01*
X121886768Y-125745734D01*
X121800003Y-125955203D01*
X121674040Y-126143720D01*
X121513720Y-126304040D01*
X121325203Y-126430003D01*
X121115734Y-126516768D01*
X121004549Y-126538884D01*
X120893365Y-126561000D01*
X120666635Y-126561000D01*
X120555451Y-126538884D01*
X120444266Y-126516768D01*
X120234797Y-126430003D01*
X120046280Y-126304040D01*
X119885960Y-126143720D01*
X119759997Y-125955203D01*
X119673232Y-125745734D01*
X119636287Y-125560000D01*
X119629000Y-125523365D01*
X119629000Y-125296635D01*
X119673232Y-125074267D01*
X119714079Y-124975654D01*
X119759997Y-124864797D01*
X119885960Y-124676280D01*
X120046280Y-124515960D01*
X120234797Y-124389997D01*
X120444266Y-124303232D01*
X120579014Y-124276429D01*
X120666635Y-124259000D01*
X120893365Y-124259000D01*
X120980986Y-124276429D01*
X120980986Y-124276429D01*
G37*
G36*
X166324468Y-123938565D02*
G01*
X166363138Y-123950296D01*
X166398777Y-123969346D01*
X166430017Y-123994983D01*
X166455654Y-124026223D01*
X166474704Y-124061862D01*
X166486435Y-124100532D01*
X166491000Y-124146888D01*
X166491000Y-124798112D01*
X166486435Y-124844468D01*
X166474704Y-124883138D01*
X166455654Y-124918777D01*
X166430017Y-124950017D01*
X166398777Y-124975654D01*
X166363138Y-124994704D01*
X166324468Y-125006435D01*
X166278112Y-125011000D01*
X165201888Y-125011000D01*
X165155532Y-125006435D01*
X165116862Y-124994704D01*
X165081223Y-124975654D01*
X165049983Y-124950017D01*
X165024346Y-124918777D01*
X165005296Y-124883138D01*
X164993565Y-124844468D01*
X164989000Y-124798112D01*
X164989000Y-124146888D01*
X164993565Y-124100532D01*
X165005296Y-124061862D01*
X165024346Y-124026223D01*
X165049983Y-123994983D01*
X165081223Y-123969346D01*
X165116862Y-123950296D01*
X165155532Y-123938565D01*
X165201888Y-123934000D01*
X166278112Y-123934000D01*
X166324468Y-123938565D01*
X166324468Y-123938565D01*
G37*
G36*
X116324468Y-123938565D02*
G01*
X116363138Y-123950296D01*
X116398777Y-123969346D01*
X116430017Y-123994983D01*
X116455654Y-124026223D01*
X116474704Y-124061862D01*
X116486435Y-124100532D01*
X116491000Y-124146888D01*
X116491000Y-124798112D01*
X116486435Y-124844468D01*
X116474704Y-124883138D01*
X116455654Y-124918777D01*
X116430017Y-124950017D01*
X116398777Y-124975654D01*
X116363138Y-124994704D01*
X116324468Y-125006435D01*
X116278112Y-125011000D01*
X115201888Y-125011000D01*
X115155532Y-125006435D01*
X115116862Y-124994704D01*
X115081223Y-124975654D01*
X115049983Y-124950017D01*
X115024346Y-124918777D01*
X115005296Y-124883138D01*
X114993565Y-124844468D01*
X114989000Y-124798112D01*
X114989000Y-124146888D01*
X114993565Y-124100532D01*
X115005296Y-124061862D01*
X115024346Y-124026223D01*
X115049983Y-123994983D01*
X115081223Y-123969346D01*
X115116862Y-123950296D01*
X115155532Y-123938565D01*
X115201888Y-123934000D01*
X116278112Y-123934000D01*
X116324468Y-123938565D01*
X116324468Y-123938565D01*
G37*
G36*
X186244549Y-120471116D02*
G01*
X186355734Y-120493232D01*
X186565203Y-120579997D01*
X186753720Y-120705960D01*
X186914040Y-120866280D01*
X187040003Y-121054797D01*
X187040004Y-121054799D01*
X187126768Y-121264267D01*
X187171000Y-121486635D01*
X187171000Y-121713365D01*
X187126768Y-121935733D01*
X187041131Y-122142481D01*
X187040003Y-122145203D01*
X186914040Y-122333720D01*
X186753720Y-122494040D01*
X186565203Y-122620003D01*
X186355734Y-122706768D01*
X186244549Y-122728884D01*
X186133365Y-122751000D01*
X185906635Y-122751000D01*
X185795451Y-122728884D01*
X185684266Y-122706768D01*
X185474797Y-122620003D01*
X185286280Y-122494040D01*
X185125960Y-122333720D01*
X184999997Y-122145203D01*
X184998870Y-122142481D01*
X184913232Y-121935733D01*
X184869000Y-121713365D01*
X184869000Y-121486635D01*
X184913232Y-121264267D01*
X184999996Y-121054799D01*
X184999997Y-121054797D01*
X185125960Y-120866280D01*
X185286280Y-120705960D01*
X185474797Y-120579997D01*
X185684266Y-120493232D01*
X185795451Y-120471116D01*
X185906635Y-120449000D01*
X186133365Y-120449000D01*
X186244549Y-120471116D01*
X186244549Y-120471116D01*
G37*
G36*
X196404549Y-120471116D02*
G01*
X196515734Y-120493232D01*
X196725203Y-120579997D01*
X196913720Y-120705960D01*
X197074040Y-120866280D01*
X197200003Y-121054797D01*
X197200004Y-121054799D01*
X197286768Y-121264267D01*
X197331000Y-121486635D01*
X197331000Y-121713365D01*
X197286768Y-121935733D01*
X197201131Y-122142481D01*
X197200003Y-122145203D01*
X197074040Y-122333720D01*
X196913720Y-122494040D01*
X196725203Y-122620003D01*
X196515734Y-122706768D01*
X196404549Y-122728884D01*
X196293365Y-122751000D01*
X196066635Y-122751000D01*
X195955451Y-122728884D01*
X195844266Y-122706768D01*
X195634797Y-122620003D01*
X195446280Y-122494040D01*
X195285960Y-122333720D01*
X195159997Y-122145203D01*
X195158870Y-122142481D01*
X195073232Y-121935733D01*
X195029000Y-121713365D01*
X195029000Y-121486635D01*
X195073232Y-121264267D01*
X195159996Y-121054799D01*
X195159997Y-121054797D01*
X195285960Y-120866280D01*
X195446280Y-120705960D01*
X195634797Y-120579997D01*
X195844266Y-120493232D01*
X195955451Y-120471116D01*
X196066635Y-120449000D01*
X196293365Y-120449000D01*
X196404549Y-120471116D01*
X196404549Y-120471116D01*
G37*
G36*
X191324549Y-120471116D02*
G01*
X191435734Y-120493232D01*
X191645203Y-120579997D01*
X191833720Y-120705960D01*
X191994040Y-120866280D01*
X192120003Y-121054797D01*
X192120004Y-121054799D01*
X192206768Y-121264267D01*
X192251000Y-121486635D01*
X192251000Y-121713365D01*
X192206768Y-121935733D01*
X192121131Y-122142481D01*
X192120003Y-122145203D01*
X191994040Y-122333720D01*
X191833720Y-122494040D01*
X191645203Y-122620003D01*
X191435734Y-122706768D01*
X191324549Y-122728884D01*
X191213365Y-122751000D01*
X190986635Y-122751000D01*
X190875451Y-122728884D01*
X190764266Y-122706768D01*
X190554797Y-122620003D01*
X190366280Y-122494040D01*
X190205960Y-122333720D01*
X190079997Y-122145203D01*
X190078870Y-122142481D01*
X189993232Y-121935733D01*
X189949000Y-121713365D01*
X189949000Y-121486635D01*
X189993232Y-121264267D01*
X190079996Y-121054799D01*
X190079997Y-121054797D01*
X190205960Y-120866280D01*
X190366280Y-120705960D01*
X190554797Y-120579997D01*
X190764266Y-120493232D01*
X190875451Y-120471116D01*
X190986635Y-120449000D01*
X191213365Y-120449000D01*
X191324549Y-120471116D01*
X191324549Y-120471116D01*
G37*
G36*
X171931000Y-122751000D02*
G01*
X169629000Y-122751000D01*
X169629000Y-120449000D01*
X171931000Y-120449000D01*
X171931000Y-122751000D01*
X171931000Y-122751000D01*
G37*
G36*
X121931000Y-122751000D02*
G01*
X119629000Y-122751000D01*
X119629000Y-120449000D01*
X121931000Y-120449000D01*
X121931000Y-122751000D01*
X121931000Y-122751000D01*
G37*
G36*
X146404549Y-120471116D02*
G01*
X146515734Y-120493232D01*
X146725203Y-120579997D01*
X146913720Y-120705960D01*
X147074040Y-120866280D01*
X147200003Y-121054797D01*
X147200004Y-121054799D01*
X147286768Y-121264267D01*
X147331000Y-121486635D01*
X147331000Y-121713365D01*
X147286768Y-121935733D01*
X147201131Y-122142481D01*
X147200003Y-122145203D01*
X147074040Y-122333720D01*
X146913720Y-122494040D01*
X146725203Y-122620003D01*
X146515734Y-122706768D01*
X146404549Y-122728884D01*
X146293365Y-122751000D01*
X146066635Y-122751000D01*
X145955451Y-122728884D01*
X145844266Y-122706768D01*
X145634797Y-122620003D01*
X145446280Y-122494040D01*
X145285960Y-122333720D01*
X145159997Y-122145203D01*
X145158870Y-122142481D01*
X145073232Y-121935733D01*
X145029000Y-121713365D01*
X145029000Y-121486635D01*
X145073232Y-121264267D01*
X145159996Y-121054799D01*
X145159997Y-121054797D01*
X145285960Y-120866280D01*
X145446280Y-120705960D01*
X145634797Y-120579997D01*
X145844266Y-120493232D01*
X145955451Y-120471116D01*
X146066635Y-120449000D01*
X146293365Y-120449000D01*
X146404549Y-120471116D01*
X146404549Y-120471116D01*
G37*
G36*
X141324549Y-120471116D02*
G01*
X141435734Y-120493232D01*
X141645203Y-120579997D01*
X141833720Y-120705960D01*
X141994040Y-120866280D01*
X142120003Y-121054797D01*
X142120004Y-121054799D01*
X142206768Y-121264267D01*
X142251000Y-121486635D01*
X142251000Y-121713365D01*
X142206768Y-121935733D01*
X142121131Y-122142481D01*
X142120003Y-122145203D01*
X141994040Y-122333720D01*
X141833720Y-122494040D01*
X141645203Y-122620003D01*
X141435734Y-122706768D01*
X141324549Y-122728884D01*
X141213365Y-122751000D01*
X140986635Y-122751000D01*
X140875451Y-122728884D01*
X140764266Y-122706768D01*
X140554797Y-122620003D01*
X140366280Y-122494040D01*
X140205960Y-122333720D01*
X140079997Y-122145203D01*
X140078870Y-122142481D01*
X139993232Y-121935733D01*
X139949000Y-121713365D01*
X139949000Y-121486635D01*
X139993232Y-121264267D01*
X140079996Y-121054799D01*
X140079997Y-121054797D01*
X140205960Y-120866280D01*
X140366280Y-120705960D01*
X140554797Y-120579997D01*
X140764266Y-120493232D01*
X140875451Y-120471116D01*
X140986635Y-120449000D01*
X141213365Y-120449000D01*
X141324549Y-120471116D01*
X141324549Y-120471116D01*
G37*
G36*
X136244549Y-120471116D02*
G01*
X136355734Y-120493232D01*
X136565203Y-120579997D01*
X136753720Y-120705960D01*
X136914040Y-120866280D01*
X137040003Y-121054797D01*
X137040004Y-121054799D01*
X137126768Y-121264267D01*
X137171000Y-121486635D01*
X137171000Y-121713365D01*
X137126768Y-121935733D01*
X137041131Y-122142481D01*
X137040003Y-122145203D01*
X136914040Y-122333720D01*
X136753720Y-122494040D01*
X136565203Y-122620003D01*
X136355734Y-122706768D01*
X136244549Y-122728884D01*
X136133365Y-122751000D01*
X135906635Y-122751000D01*
X135795451Y-122728884D01*
X135684266Y-122706768D01*
X135474797Y-122620003D01*
X135286280Y-122494040D01*
X135125960Y-122333720D01*
X134999997Y-122145203D01*
X134998870Y-122142481D01*
X134913232Y-121935733D01*
X134869000Y-121713365D01*
X134869000Y-121486635D01*
X134913232Y-121264267D01*
X134999996Y-121054799D01*
X134999997Y-121054797D01*
X135125960Y-120866280D01*
X135286280Y-120705960D01*
X135474797Y-120579997D01*
X135684266Y-120493232D01*
X135795451Y-120471116D01*
X135906635Y-120449000D01*
X136133365Y-120449000D01*
X136244549Y-120471116D01*
X136244549Y-120471116D01*
G37*
G36*
X165988228Y-120781703D02*
G01*
X166143100Y-120845853D01*
X166282481Y-120938985D01*
X166401015Y-121057519D01*
X166494147Y-121196900D01*
X166558297Y-121351772D01*
X166591000Y-121516184D01*
X166591000Y-121683816D01*
X166558297Y-121848228D01*
X166494147Y-122003100D01*
X166401015Y-122142481D01*
X166282481Y-122261015D01*
X166143100Y-122354147D01*
X165988228Y-122418297D01*
X165823816Y-122451000D01*
X165656184Y-122451000D01*
X165491772Y-122418297D01*
X165336900Y-122354147D01*
X165197519Y-122261015D01*
X165078985Y-122142481D01*
X164985853Y-122003100D01*
X164921703Y-121848228D01*
X164889000Y-121683816D01*
X164889000Y-121516184D01*
X164921703Y-121351772D01*
X164985853Y-121196900D01*
X165078985Y-121057519D01*
X165197519Y-120938985D01*
X165336900Y-120845853D01*
X165491772Y-120781703D01*
X165656184Y-120749000D01*
X165823816Y-120749000D01*
X165988228Y-120781703D01*
X165988228Y-120781703D01*
G37*
G36*
X115988228Y-120781703D02*
G01*
X116143100Y-120845853D01*
X116282481Y-120938985D01*
X116401015Y-121057519D01*
X116494147Y-121196900D01*
X116558297Y-121351772D01*
X116591000Y-121516184D01*
X116591000Y-121683816D01*
X116558297Y-121848228D01*
X116494147Y-122003100D01*
X116401015Y-122142481D01*
X116282481Y-122261015D01*
X116143100Y-122354147D01*
X115988228Y-122418297D01*
X115823816Y-122451000D01*
X115656184Y-122451000D01*
X115491772Y-122418297D01*
X115336900Y-122354147D01*
X115197519Y-122261015D01*
X115078985Y-122142481D01*
X114985853Y-122003100D01*
X114921703Y-121848228D01*
X114889000Y-121683816D01*
X114889000Y-121516184D01*
X114921703Y-121351772D01*
X114985853Y-121196900D01*
X115078985Y-121057519D01*
X115197519Y-120938985D01*
X115336900Y-120845853D01*
X115491772Y-120781703D01*
X115656184Y-120749000D01*
X115823816Y-120749000D01*
X115988228Y-120781703D01*
X115988228Y-120781703D01*
G37*
G36*
X124892585Y-113093802D02*
G01*
X125042410Y-113123604D01*
X125324674Y-113240521D01*
X125578705Y-113410259D01*
X125794741Y-113626295D01*
X125964479Y-113880326D01*
X126081396Y-114162590D01*
X126141000Y-114462240D01*
X126141000Y-114767760D01*
X126081396Y-115067410D01*
X125964479Y-115349674D01*
X125794741Y-115603705D01*
X125578705Y-115819741D01*
X125324674Y-115989479D01*
X125042410Y-116106396D01*
X124892585Y-116136198D01*
X124742761Y-116166000D01*
X124437239Y-116166000D01*
X124287415Y-116136198D01*
X124137590Y-116106396D01*
X123855326Y-115989479D01*
X123601295Y-115819741D01*
X123385259Y-115603705D01*
X123215521Y-115349674D01*
X123098604Y-115067410D01*
X123039000Y-114767760D01*
X123039000Y-114462240D01*
X123098604Y-114162590D01*
X123215521Y-113880326D01*
X123385259Y-113626295D01*
X123601295Y-113410259D01*
X123855326Y-113240521D01*
X124137590Y-113123604D01*
X124287415Y-113093802D01*
X124437239Y-113064000D01*
X124742761Y-113064000D01*
X124892585Y-113093802D01*
X124892585Y-113093802D01*
G37*
G36*
X119812585Y-113093802D02*
G01*
X119962410Y-113123604D01*
X120244674Y-113240521D01*
X120498705Y-113410259D01*
X120714741Y-113626295D01*
X120884479Y-113880326D01*
X121001396Y-114162590D01*
X121061000Y-114462240D01*
X121061000Y-114767760D01*
X121001396Y-115067410D01*
X120884479Y-115349674D01*
X120714741Y-115603705D01*
X120498705Y-115819741D01*
X120244674Y-115989479D01*
X119962410Y-116106396D01*
X119812585Y-116136198D01*
X119662761Y-116166000D01*
X119357239Y-116166000D01*
X119207415Y-116136198D01*
X119057590Y-116106396D01*
X118775326Y-115989479D01*
X118521295Y-115819741D01*
X118305259Y-115603705D01*
X118135521Y-115349674D01*
X118018604Y-115067410D01*
X117959000Y-114767760D01*
X117959000Y-114462240D01*
X118018604Y-114162590D01*
X118135521Y-113880326D01*
X118305259Y-113626295D01*
X118521295Y-113410259D01*
X118775326Y-113240521D01*
X119057590Y-113123604D01*
X119207415Y-113093802D01*
X119357239Y-113064000D01*
X119662761Y-113064000D01*
X119812585Y-113093802D01*
X119812585Y-113093802D01*
G37*
G36*
X131221000Y-116166000D02*
G01*
X128119000Y-116166000D01*
X128119000Y-113064000D01*
X131221000Y-113064000D01*
X131221000Y-116166000D01*
X131221000Y-116166000D01*
G37*
G36*
X181221000Y-116166000D02*
G01*
X178119000Y-116166000D01*
X178119000Y-113064000D01*
X181221000Y-113064000D01*
X181221000Y-116166000D01*
X181221000Y-116166000D01*
G37*
G36*
X174892585Y-113093802D02*
G01*
X175042410Y-113123604D01*
X175324674Y-113240521D01*
X175578705Y-113410259D01*
X175794741Y-113626295D01*
X175964479Y-113880326D01*
X176081396Y-114162590D01*
X176141000Y-114462240D01*
X176141000Y-114767760D01*
X176081396Y-115067410D01*
X175964479Y-115349674D01*
X175794741Y-115603705D01*
X175578705Y-115819741D01*
X175324674Y-115989479D01*
X175042410Y-116106396D01*
X174892585Y-116136198D01*
X174742761Y-116166000D01*
X174437239Y-116166000D01*
X174287415Y-116136198D01*
X174137590Y-116106396D01*
X173855326Y-115989479D01*
X173601295Y-115819741D01*
X173385259Y-115603705D01*
X173215521Y-115349674D01*
X173098604Y-115067410D01*
X173039000Y-114767760D01*
X173039000Y-114462240D01*
X173098604Y-114162590D01*
X173215521Y-113880326D01*
X173385259Y-113626295D01*
X173601295Y-113410259D01*
X173855326Y-113240521D01*
X174137590Y-113123604D01*
X174287415Y-113093802D01*
X174437239Y-113064000D01*
X174742761Y-113064000D01*
X174892585Y-113093802D01*
X174892585Y-113093802D01*
G37*
G36*
X169812585Y-113093802D02*
G01*
X169962410Y-113123604D01*
X170244674Y-113240521D01*
X170498705Y-113410259D01*
X170714741Y-113626295D01*
X170884479Y-113880326D01*
X171001396Y-114162590D01*
X171061000Y-114462240D01*
X171061000Y-114767760D01*
X171001396Y-115067410D01*
X170884479Y-115349674D01*
X170714741Y-115603705D01*
X170498705Y-115819741D01*
X170244674Y-115989479D01*
X169962410Y-116106396D01*
X169812585Y-116136198D01*
X169662761Y-116166000D01*
X169357239Y-116166000D01*
X169207415Y-116136198D01*
X169057590Y-116106396D01*
X168775326Y-115989479D01*
X168521295Y-115819741D01*
X168305259Y-115603705D01*
X168135521Y-115349674D01*
X168018604Y-115067410D01*
X167959000Y-114767760D01*
X167959000Y-114462240D01*
X168018604Y-114162590D01*
X168135521Y-113880326D01*
X168305259Y-113626295D01*
X168521295Y-113410259D01*
X168775326Y-113240521D01*
X169057590Y-113123604D01*
X169207415Y-113093802D01*
X169357239Y-113064000D01*
X169662761Y-113064000D01*
X169812585Y-113093802D01*
X169812585Y-113093802D01*
G37*
G36*
X111012585Y-110888802D02*
G01*
X111162410Y-110918604D01*
X111444674Y-111035521D01*
X111698705Y-111205259D01*
X111914741Y-111421295D01*
X112084479Y-111675326D01*
X112201396Y-111957590D01*
X112261000Y-112257240D01*
X112261000Y-112562760D01*
X112201396Y-112862410D01*
X112084479Y-113144674D01*
X111914741Y-113398705D01*
X111698705Y-113614741D01*
X111444674Y-113784479D01*
X111162410Y-113901396D01*
X111012585Y-113931198D01*
X110862761Y-113961000D01*
X110557239Y-113961000D01*
X110407415Y-113931198D01*
X110257590Y-113901396D01*
X109975326Y-113784479D01*
X109721295Y-113614741D01*
X109505259Y-113398705D01*
X109335521Y-113144674D01*
X109218604Y-112862410D01*
X109159000Y-112562760D01*
X109159000Y-112257240D01*
X109218604Y-111957590D01*
X109335521Y-111675326D01*
X109505259Y-111421295D01*
X109721295Y-111205259D01*
X109975326Y-111035521D01*
X110257590Y-110918604D01*
X110407415Y-110888802D01*
X110557239Y-110859000D01*
X110862761Y-110859000D01*
X111012585Y-110888802D01*
X111012585Y-110888802D01*
G37*
G36*
X161012585Y-110888802D02*
G01*
X161162410Y-110918604D01*
X161444674Y-111035521D01*
X161698705Y-111205259D01*
X161914741Y-111421295D01*
X162084479Y-111675326D01*
X162201396Y-111957590D01*
X162261000Y-112257240D01*
X162261000Y-112562760D01*
X162201396Y-112862410D01*
X162084479Y-113144674D01*
X161914741Y-113398705D01*
X161698705Y-113614741D01*
X161444674Y-113784479D01*
X161162410Y-113901396D01*
X161012585Y-113931198D01*
X160862761Y-113961000D01*
X160557239Y-113961000D01*
X160407415Y-113931198D01*
X160257590Y-113901396D01*
X159975326Y-113784479D01*
X159721295Y-113614741D01*
X159505259Y-113398705D01*
X159335521Y-113144674D01*
X159218604Y-112862410D01*
X159159000Y-112562760D01*
X159159000Y-112257240D01*
X159218604Y-111957590D01*
X159335521Y-111675326D01*
X159505259Y-111421295D01*
X159721295Y-111205259D01*
X159975326Y-111035521D01*
X160257590Y-110918604D01*
X160407415Y-110888802D01*
X160557239Y-110859000D01*
X160862761Y-110859000D01*
X161012585Y-110888802D01*
X161012585Y-110888802D01*
G37*
G36*
X204012585Y-110888802D02*
G01*
X204162410Y-110918604D01*
X204444674Y-111035521D01*
X204698705Y-111205259D01*
X204914741Y-111421295D01*
X205084479Y-111675326D01*
X205201396Y-111957590D01*
X205261000Y-112257240D01*
X205261000Y-112562760D01*
X205201396Y-112862410D01*
X205084479Y-113144674D01*
X204914741Y-113398705D01*
X204698705Y-113614741D01*
X204444674Y-113784479D01*
X204162410Y-113901396D01*
X204012585Y-113931198D01*
X203862761Y-113961000D01*
X203557239Y-113961000D01*
X203407415Y-113931198D01*
X203257590Y-113901396D01*
X202975326Y-113784479D01*
X202721295Y-113614741D01*
X202505259Y-113398705D01*
X202335521Y-113144674D01*
X202218604Y-112862410D01*
X202159000Y-112562760D01*
X202159000Y-112257240D01*
X202218604Y-111957590D01*
X202335521Y-111675326D01*
X202505259Y-111421295D01*
X202721295Y-111205259D01*
X202975326Y-111035521D01*
X203257590Y-110918604D01*
X203407415Y-110888802D01*
X203557239Y-110859000D01*
X203862761Y-110859000D01*
X204012585Y-110888802D01*
X204012585Y-110888802D01*
G37*
G36*
X154012585Y-110888802D02*
G01*
X154162410Y-110918604D01*
X154444674Y-111035521D01*
X154698705Y-111205259D01*
X154914741Y-111421295D01*
X155084479Y-111675326D01*
X155201396Y-111957590D01*
X155261000Y-112257240D01*
X155261000Y-112562760D01*
X155201396Y-112862410D01*
X155084479Y-113144674D01*
X154914741Y-113398705D01*
X154698705Y-113614741D01*
X154444674Y-113784479D01*
X154162410Y-113901396D01*
X154012585Y-113931198D01*
X153862761Y-113961000D01*
X153557239Y-113961000D01*
X153407415Y-113931198D01*
X153257590Y-113901396D01*
X152975326Y-113784479D01*
X152721295Y-113614741D01*
X152505259Y-113398705D01*
X152335521Y-113144674D01*
X152218604Y-112862410D01*
X152159000Y-112562760D01*
X152159000Y-112257240D01*
X152218604Y-111957590D01*
X152335521Y-111675326D01*
X152505259Y-111421295D01*
X152721295Y-111205259D01*
X152975326Y-111035521D01*
X153257590Y-110918604D01*
X153407415Y-110888802D01*
X153557239Y-110859000D01*
X153862761Y-110859000D01*
X154012585Y-110888802D01*
X154012585Y-110888802D01*
G37*
G36*
X204012585Y-103888802D02*
G01*
X204162410Y-103918604D01*
X204444674Y-104035521D01*
X204698705Y-104205259D01*
X204914741Y-104421295D01*
X205084479Y-104675326D01*
X205201396Y-104957590D01*
X205261000Y-105257240D01*
X205261000Y-105562760D01*
X205201396Y-105862410D01*
X205084479Y-106144674D01*
X204914741Y-106398705D01*
X204698705Y-106614741D01*
X204444674Y-106784479D01*
X204162410Y-106901396D01*
X204012585Y-106931198D01*
X203862761Y-106961000D01*
X203557239Y-106961000D01*
X203407415Y-106931198D01*
X203257590Y-106901396D01*
X202975326Y-106784479D01*
X202721295Y-106614741D01*
X202505259Y-106398705D01*
X202335521Y-106144674D01*
X202218604Y-105862410D01*
X202159000Y-105562760D01*
X202159000Y-105257240D01*
X202218604Y-104957590D01*
X202335521Y-104675326D01*
X202505259Y-104421295D01*
X202721295Y-104205259D01*
X202975326Y-104035521D01*
X203257590Y-103918604D01*
X203407415Y-103888802D01*
X203557239Y-103859000D01*
X203862761Y-103859000D01*
X204012585Y-103888802D01*
X204012585Y-103888802D01*
G37*
G36*
X161012585Y-103888802D02*
G01*
X161162410Y-103918604D01*
X161444674Y-104035521D01*
X161698705Y-104205259D01*
X161914741Y-104421295D01*
X162084479Y-104675326D01*
X162201396Y-104957590D01*
X162261000Y-105257240D01*
X162261000Y-105562760D01*
X162201396Y-105862410D01*
X162084479Y-106144674D01*
X161914741Y-106398705D01*
X161698705Y-106614741D01*
X161444674Y-106784479D01*
X161162410Y-106901396D01*
X161012585Y-106931198D01*
X160862761Y-106961000D01*
X160557239Y-106961000D01*
X160407415Y-106931198D01*
X160257590Y-106901396D01*
X159975326Y-106784479D01*
X159721295Y-106614741D01*
X159505259Y-106398705D01*
X159335521Y-106144674D01*
X159218604Y-105862410D01*
X159159000Y-105562760D01*
X159159000Y-105257240D01*
X159218604Y-104957590D01*
X159335521Y-104675326D01*
X159505259Y-104421295D01*
X159721295Y-104205259D01*
X159975326Y-104035521D01*
X160257590Y-103918604D01*
X160407415Y-103888802D01*
X160557239Y-103859000D01*
X160862761Y-103859000D01*
X161012585Y-103888802D01*
X161012585Y-103888802D01*
G37*
G36*
X154012585Y-103888802D02*
G01*
X154162410Y-103918604D01*
X154444674Y-104035521D01*
X154698705Y-104205259D01*
X154914741Y-104421295D01*
X155084479Y-104675326D01*
X155201396Y-104957590D01*
X155261000Y-105257240D01*
X155261000Y-105562760D01*
X155201396Y-105862410D01*
X155084479Y-106144674D01*
X154914741Y-106398705D01*
X154698705Y-106614741D01*
X154444674Y-106784479D01*
X154162410Y-106901396D01*
X154012585Y-106931198D01*
X153862761Y-106961000D01*
X153557239Y-106961000D01*
X153407415Y-106931198D01*
X153257590Y-106901396D01*
X152975326Y-106784479D01*
X152721295Y-106614741D01*
X152505259Y-106398705D01*
X152335521Y-106144674D01*
X152218604Y-105862410D01*
X152159000Y-105562760D01*
X152159000Y-105257240D01*
X152218604Y-104957590D01*
X152335521Y-104675326D01*
X152505259Y-104421295D01*
X152721295Y-104205259D01*
X152975326Y-104035521D01*
X153257590Y-103918604D01*
X153407415Y-103888802D01*
X153557239Y-103859000D01*
X153862761Y-103859000D01*
X154012585Y-103888802D01*
X154012585Y-103888802D01*
G37*
G36*
X111012585Y-103888802D02*
G01*
X111162410Y-103918604D01*
X111444674Y-104035521D01*
X111698705Y-104205259D01*
X111914741Y-104421295D01*
X112084479Y-104675326D01*
X112201396Y-104957590D01*
X112261000Y-105257240D01*
X112261000Y-105562760D01*
X112201396Y-105862410D01*
X112084479Y-106144674D01*
X111914741Y-106398705D01*
X111698705Y-106614741D01*
X111444674Y-106784479D01*
X111162410Y-106901396D01*
X111012585Y-106931198D01*
X110862761Y-106961000D01*
X110557239Y-106961000D01*
X110407415Y-106931198D01*
X110257590Y-106901396D01*
X109975326Y-106784479D01*
X109721295Y-106614741D01*
X109505259Y-106398705D01*
X109335521Y-106144674D01*
X109218604Y-105862410D01*
X109159000Y-105562760D01*
X109159000Y-105257240D01*
X109218604Y-104957590D01*
X109335521Y-104675326D01*
X109505259Y-104421295D01*
X109721295Y-104205259D01*
X109975326Y-104035521D01*
X110257590Y-103918604D01*
X110407415Y-103888802D01*
X110557239Y-103859000D01*
X110862761Y-103859000D01*
X111012585Y-103888802D01*
X111012585Y-103888802D01*
G37*
G36*
X195212585Y-101683802D02*
G01*
X195362410Y-101713604D01*
X195644674Y-101830521D01*
X195898705Y-102000259D01*
X196114741Y-102216295D01*
X196284479Y-102470326D01*
X196401396Y-102752590D01*
X196461000Y-103052240D01*
X196461000Y-103357760D01*
X196401396Y-103657410D01*
X196284479Y-103939674D01*
X196114741Y-104193705D01*
X195898705Y-104409741D01*
X195644674Y-104579479D01*
X195362410Y-104696396D01*
X195212585Y-104726198D01*
X195062761Y-104756000D01*
X194757239Y-104756000D01*
X194607415Y-104726198D01*
X194457590Y-104696396D01*
X194175326Y-104579479D01*
X193921295Y-104409741D01*
X193705259Y-104193705D01*
X193535521Y-103939674D01*
X193418604Y-103657410D01*
X193359000Y-103357760D01*
X193359000Y-103052240D01*
X193418604Y-102752590D01*
X193535521Y-102470326D01*
X193705259Y-102216295D01*
X193921295Y-102000259D01*
X194175326Y-101830521D01*
X194457590Y-101713604D01*
X194607415Y-101683802D01*
X194757239Y-101654000D01*
X195062761Y-101654000D01*
X195212585Y-101683802D01*
X195212585Y-101683802D01*
G37*
G36*
X171061000Y-104756000D02*
G01*
X167959000Y-104756000D01*
X167959000Y-101654000D01*
X171061000Y-101654000D01*
X171061000Y-104756000D01*
X171061000Y-104756000D01*
G37*
G36*
X145212585Y-101683802D02*
G01*
X145362410Y-101713604D01*
X145644674Y-101830521D01*
X145898705Y-102000259D01*
X146114741Y-102216295D01*
X146284479Y-102470326D01*
X146401396Y-102752590D01*
X146461000Y-103052240D01*
X146461000Y-103357760D01*
X146401396Y-103657410D01*
X146284479Y-103939674D01*
X146114741Y-104193705D01*
X145898705Y-104409741D01*
X145644674Y-104579479D01*
X145362410Y-104696396D01*
X145212585Y-104726198D01*
X145062761Y-104756000D01*
X144757239Y-104756000D01*
X144607415Y-104726198D01*
X144457590Y-104696396D01*
X144175326Y-104579479D01*
X143921295Y-104409741D01*
X143705259Y-104193705D01*
X143535521Y-103939674D01*
X143418604Y-103657410D01*
X143359000Y-103357760D01*
X143359000Y-103052240D01*
X143418604Y-102752590D01*
X143535521Y-102470326D01*
X143705259Y-102216295D01*
X143921295Y-102000259D01*
X144175326Y-101830521D01*
X144457590Y-101713604D01*
X144607415Y-101683802D01*
X144757239Y-101654000D01*
X145062761Y-101654000D01*
X145212585Y-101683802D01*
X145212585Y-101683802D01*
G37*
G36*
X140132585Y-101683802D02*
G01*
X140282410Y-101713604D01*
X140564674Y-101830521D01*
X140818705Y-102000259D01*
X141034741Y-102216295D01*
X141204479Y-102470326D01*
X141321396Y-102752590D01*
X141381000Y-103052240D01*
X141381000Y-103357760D01*
X141321396Y-103657410D01*
X141204479Y-103939674D01*
X141034741Y-104193705D01*
X140818705Y-104409741D01*
X140564674Y-104579479D01*
X140282410Y-104696396D01*
X140132585Y-104726198D01*
X139982761Y-104756000D01*
X139677239Y-104756000D01*
X139527415Y-104726198D01*
X139377590Y-104696396D01*
X139095326Y-104579479D01*
X138841295Y-104409741D01*
X138625259Y-104193705D01*
X138455521Y-103939674D01*
X138338604Y-103657410D01*
X138279000Y-103357760D01*
X138279000Y-103052240D01*
X138338604Y-102752590D01*
X138455521Y-102470326D01*
X138625259Y-102216295D01*
X138841295Y-102000259D01*
X139095326Y-101830521D01*
X139377590Y-101713604D01*
X139527415Y-101683802D01*
X139677239Y-101654000D01*
X139982761Y-101654000D01*
X140132585Y-101683802D01*
X140132585Y-101683802D01*
G37*
G36*
X190132585Y-101683802D02*
G01*
X190282410Y-101713604D01*
X190564674Y-101830521D01*
X190818705Y-102000259D01*
X191034741Y-102216295D01*
X191204479Y-102470326D01*
X191321396Y-102752590D01*
X191381000Y-103052240D01*
X191381000Y-103357760D01*
X191321396Y-103657410D01*
X191204479Y-103939674D01*
X191034741Y-104193705D01*
X190818705Y-104409741D01*
X190564674Y-104579479D01*
X190282410Y-104696396D01*
X190132585Y-104726198D01*
X189982761Y-104756000D01*
X189677239Y-104756000D01*
X189527415Y-104726198D01*
X189377590Y-104696396D01*
X189095326Y-104579479D01*
X188841295Y-104409741D01*
X188625259Y-104193705D01*
X188455521Y-103939674D01*
X188338604Y-103657410D01*
X188279000Y-103357760D01*
X188279000Y-103052240D01*
X188338604Y-102752590D01*
X188455521Y-102470326D01*
X188625259Y-102216295D01*
X188841295Y-102000259D01*
X189095326Y-101830521D01*
X189377590Y-101713604D01*
X189527415Y-101683802D01*
X189677239Y-101654000D01*
X189982761Y-101654000D01*
X190132585Y-101683802D01*
X190132585Y-101683802D01*
G37*
G36*
X174892585Y-101683802D02*
G01*
X175042410Y-101713604D01*
X175324674Y-101830521D01*
X175578705Y-102000259D01*
X175794741Y-102216295D01*
X175964479Y-102470326D01*
X176081396Y-102752590D01*
X176141000Y-103052240D01*
X176141000Y-103357760D01*
X176081396Y-103657410D01*
X175964479Y-103939674D01*
X175794741Y-104193705D01*
X175578705Y-104409741D01*
X175324674Y-104579479D01*
X175042410Y-104696396D01*
X174892585Y-104726198D01*
X174742761Y-104756000D01*
X174437239Y-104756000D01*
X174287415Y-104726198D01*
X174137590Y-104696396D01*
X173855326Y-104579479D01*
X173601295Y-104409741D01*
X173385259Y-104193705D01*
X173215521Y-103939674D01*
X173098604Y-103657410D01*
X173039000Y-103357760D01*
X173039000Y-103052240D01*
X173098604Y-102752590D01*
X173215521Y-102470326D01*
X173385259Y-102216295D01*
X173601295Y-102000259D01*
X173855326Y-101830521D01*
X174137590Y-101713604D01*
X174287415Y-101683802D01*
X174437239Y-101654000D01*
X174742761Y-101654000D01*
X174892585Y-101683802D01*
X174892585Y-101683802D01*
G37*
G36*
X186301000Y-104756000D02*
G01*
X183199000Y-104756000D01*
X183199000Y-101654000D01*
X186301000Y-101654000D01*
X186301000Y-104756000D01*
X186301000Y-104756000D01*
G37*
G36*
X121061000Y-104756000D02*
G01*
X117959000Y-104756000D01*
X117959000Y-101654000D01*
X121061000Y-101654000D01*
X121061000Y-104756000D01*
X121061000Y-104756000D01*
G37*
G36*
X124892585Y-101683802D02*
G01*
X125042410Y-101713604D01*
X125324674Y-101830521D01*
X125578705Y-102000259D01*
X125794741Y-102216295D01*
X125964479Y-102470326D01*
X126081396Y-102752590D01*
X126141000Y-103052240D01*
X126141000Y-103357760D01*
X126081396Y-103657410D01*
X125964479Y-103939674D01*
X125794741Y-104193705D01*
X125578705Y-104409741D01*
X125324674Y-104579479D01*
X125042410Y-104696396D01*
X124892585Y-104726198D01*
X124742761Y-104756000D01*
X124437239Y-104756000D01*
X124287415Y-104726198D01*
X124137590Y-104696396D01*
X123855326Y-104579479D01*
X123601295Y-104409741D01*
X123385259Y-104193705D01*
X123215521Y-103939674D01*
X123098604Y-103657410D01*
X123039000Y-103357760D01*
X123039000Y-103052240D01*
X123098604Y-102752590D01*
X123215521Y-102470326D01*
X123385259Y-102216295D01*
X123601295Y-102000259D01*
X123855326Y-101830521D01*
X124137590Y-101713604D01*
X124287415Y-101683802D01*
X124437239Y-101654000D01*
X124742761Y-101654000D01*
X124892585Y-101683802D01*
X124892585Y-101683802D01*
G37*
G36*
X129972585Y-101683802D02*
G01*
X130122410Y-101713604D01*
X130404674Y-101830521D01*
X130658705Y-102000259D01*
X130874741Y-102216295D01*
X131044479Y-102470326D01*
X131161396Y-102752590D01*
X131221000Y-103052240D01*
X131221000Y-103357760D01*
X131161396Y-103657410D01*
X131044479Y-103939674D01*
X130874741Y-104193705D01*
X130658705Y-104409741D01*
X130404674Y-104579479D01*
X130122410Y-104696396D01*
X129972585Y-104726198D01*
X129822761Y-104756000D01*
X129517239Y-104756000D01*
X129367415Y-104726198D01*
X129217590Y-104696396D01*
X128935326Y-104579479D01*
X128681295Y-104409741D01*
X128465259Y-104193705D01*
X128295521Y-103939674D01*
X128178604Y-103657410D01*
X128119000Y-103357760D01*
X128119000Y-103052240D01*
X128178604Y-102752590D01*
X128295521Y-102470326D01*
X128465259Y-102216295D01*
X128681295Y-102000259D01*
X128935326Y-101830521D01*
X129217590Y-101713604D01*
X129367415Y-101683802D01*
X129517239Y-101654000D01*
X129822761Y-101654000D01*
X129972585Y-101683802D01*
X129972585Y-101683802D01*
G37*
G36*
X136301000Y-104756000D02*
G01*
X133199000Y-104756000D01*
X133199000Y-101654000D01*
X136301000Y-101654000D01*
X136301000Y-104756000D01*
X136301000Y-104756000D01*
G37*
G36*
X179972585Y-101683802D02*
G01*
X180122410Y-101713604D01*
X180404674Y-101830521D01*
X180658705Y-102000259D01*
X180874741Y-102216295D01*
X181044479Y-102470326D01*
X181161396Y-102752590D01*
X181221000Y-103052240D01*
X181221000Y-103357760D01*
X181161396Y-103657410D01*
X181044479Y-103939674D01*
X180874741Y-104193705D01*
X180658705Y-104409741D01*
X180404674Y-104579479D01*
X180122410Y-104696396D01*
X179972585Y-104726198D01*
X179822761Y-104756000D01*
X179517239Y-104756000D01*
X179367415Y-104726198D01*
X179217590Y-104696396D01*
X178935326Y-104579479D01*
X178681295Y-104409741D01*
X178465259Y-104193705D01*
X178295521Y-103939674D01*
X178178604Y-103657410D01*
X178119000Y-103357760D01*
X178119000Y-103052240D01*
X178178604Y-102752590D01*
X178295521Y-102470326D01*
X178465259Y-102216295D01*
X178681295Y-102000259D01*
X178935326Y-101830521D01*
X179217590Y-101713604D01*
X179367415Y-101683802D01*
X179517239Y-101654000D01*
X179822761Y-101654000D01*
X179972585Y-101683802D01*
X179972585Y-101683802D01*
G37*
G36*
X136244549Y-95091116D02*
G01*
X136355734Y-95113232D01*
X136565203Y-95199997D01*
X136753720Y-95325960D01*
X136914040Y-95486280D01*
X137040003Y-95674797D01*
X137126768Y-95884266D01*
X137171000Y-96106636D01*
X137171000Y-96333364D01*
X137126768Y-96555734D01*
X137040003Y-96765203D01*
X136914040Y-96953720D01*
X136753720Y-97114040D01*
X136565203Y-97240003D01*
X136355734Y-97326768D01*
X136244549Y-97348884D01*
X136133365Y-97371000D01*
X135906635Y-97371000D01*
X135795451Y-97348884D01*
X135684266Y-97326768D01*
X135474797Y-97240003D01*
X135286280Y-97114040D01*
X135125960Y-96953720D01*
X134999997Y-96765203D01*
X134913232Y-96555734D01*
X134869000Y-96333364D01*
X134869000Y-96106636D01*
X134913232Y-95884266D01*
X134999997Y-95674797D01*
X135125960Y-95486280D01*
X135286280Y-95325960D01*
X135474797Y-95199997D01*
X135684266Y-95113232D01*
X135795451Y-95091116D01*
X135906635Y-95069000D01*
X136133365Y-95069000D01*
X136244549Y-95091116D01*
X136244549Y-95091116D01*
G37*
G36*
X196404549Y-95091116D02*
G01*
X196515734Y-95113232D01*
X196725203Y-95199997D01*
X196913720Y-95325960D01*
X197074040Y-95486280D01*
X197200003Y-95674797D01*
X197286768Y-95884266D01*
X197331000Y-96106636D01*
X197331000Y-96333364D01*
X197286768Y-96555734D01*
X197200003Y-96765203D01*
X197074040Y-96953720D01*
X196913720Y-97114040D01*
X196725203Y-97240003D01*
X196515734Y-97326768D01*
X196404549Y-97348884D01*
X196293365Y-97371000D01*
X196066635Y-97371000D01*
X195955451Y-97348884D01*
X195844266Y-97326768D01*
X195634797Y-97240003D01*
X195446280Y-97114040D01*
X195285960Y-96953720D01*
X195159997Y-96765203D01*
X195073232Y-96555734D01*
X195029000Y-96333364D01*
X195029000Y-96106636D01*
X195073232Y-95884266D01*
X195159997Y-95674797D01*
X195285960Y-95486280D01*
X195446280Y-95325960D01*
X195634797Y-95199997D01*
X195844266Y-95113232D01*
X195955451Y-95091116D01*
X196066635Y-95069000D01*
X196293365Y-95069000D01*
X196404549Y-95091116D01*
X196404549Y-95091116D01*
G37*
G36*
X191324549Y-95091116D02*
G01*
X191435734Y-95113232D01*
X191645203Y-95199997D01*
X191833720Y-95325960D01*
X191994040Y-95486280D01*
X192120003Y-95674797D01*
X192206768Y-95884266D01*
X192251000Y-96106636D01*
X192251000Y-96333364D01*
X192206768Y-96555734D01*
X192120003Y-96765203D01*
X191994040Y-96953720D01*
X191833720Y-97114040D01*
X191645203Y-97240003D01*
X191435734Y-97326768D01*
X191324549Y-97348884D01*
X191213365Y-97371000D01*
X190986635Y-97371000D01*
X190875451Y-97348884D01*
X190764266Y-97326768D01*
X190554797Y-97240003D01*
X190366280Y-97114040D01*
X190205960Y-96953720D01*
X190079997Y-96765203D01*
X189993232Y-96555734D01*
X189949000Y-96333364D01*
X189949000Y-96106636D01*
X189993232Y-95884266D01*
X190079997Y-95674797D01*
X190205960Y-95486280D01*
X190366280Y-95325960D01*
X190554797Y-95199997D01*
X190764266Y-95113232D01*
X190875451Y-95091116D01*
X190986635Y-95069000D01*
X191213365Y-95069000D01*
X191324549Y-95091116D01*
X191324549Y-95091116D01*
G37*
G36*
X186244549Y-95091116D02*
G01*
X186355734Y-95113232D01*
X186565203Y-95199997D01*
X186753720Y-95325960D01*
X186914040Y-95486280D01*
X187040003Y-95674797D01*
X187126768Y-95884266D01*
X187171000Y-96106636D01*
X187171000Y-96333364D01*
X187126768Y-96555734D01*
X187040003Y-96765203D01*
X186914040Y-96953720D01*
X186753720Y-97114040D01*
X186565203Y-97240003D01*
X186355734Y-97326768D01*
X186244549Y-97348884D01*
X186133365Y-97371000D01*
X185906635Y-97371000D01*
X185795451Y-97348884D01*
X185684266Y-97326768D01*
X185474797Y-97240003D01*
X185286280Y-97114040D01*
X185125960Y-96953720D01*
X184999997Y-96765203D01*
X184913232Y-96555734D01*
X184869000Y-96333364D01*
X184869000Y-96106636D01*
X184913232Y-95884266D01*
X184999997Y-95674797D01*
X185125960Y-95486280D01*
X185286280Y-95325960D01*
X185474797Y-95199997D01*
X185684266Y-95113232D01*
X185795451Y-95091116D01*
X185906635Y-95069000D01*
X186133365Y-95069000D01*
X186244549Y-95091116D01*
X186244549Y-95091116D01*
G37*
G36*
X146404549Y-95091116D02*
G01*
X146515734Y-95113232D01*
X146725203Y-95199997D01*
X146913720Y-95325960D01*
X147074040Y-95486280D01*
X147200003Y-95674797D01*
X147286768Y-95884266D01*
X147331000Y-96106636D01*
X147331000Y-96333364D01*
X147286768Y-96555734D01*
X147200003Y-96765203D01*
X147074040Y-96953720D01*
X146913720Y-97114040D01*
X146725203Y-97240003D01*
X146515734Y-97326768D01*
X146404549Y-97348884D01*
X146293365Y-97371000D01*
X146066635Y-97371000D01*
X145955451Y-97348884D01*
X145844266Y-97326768D01*
X145634797Y-97240003D01*
X145446280Y-97114040D01*
X145285960Y-96953720D01*
X145159997Y-96765203D01*
X145073232Y-96555734D01*
X145029000Y-96333364D01*
X145029000Y-96106636D01*
X145073232Y-95884266D01*
X145159997Y-95674797D01*
X145285960Y-95486280D01*
X145446280Y-95325960D01*
X145634797Y-95199997D01*
X145844266Y-95113232D01*
X145955451Y-95091116D01*
X146066635Y-95069000D01*
X146293365Y-95069000D01*
X146404549Y-95091116D01*
X146404549Y-95091116D01*
G37*
G36*
X141324549Y-95091116D02*
G01*
X141435734Y-95113232D01*
X141645203Y-95199997D01*
X141833720Y-95325960D01*
X141994040Y-95486280D01*
X142120003Y-95674797D01*
X142206768Y-95884266D01*
X142251000Y-96106636D01*
X142251000Y-96333364D01*
X142206768Y-96555734D01*
X142120003Y-96765203D01*
X141994040Y-96953720D01*
X141833720Y-97114040D01*
X141645203Y-97240003D01*
X141435734Y-97326768D01*
X141324549Y-97348884D01*
X141213365Y-97371000D01*
X140986635Y-97371000D01*
X140875451Y-97348884D01*
X140764266Y-97326768D01*
X140554797Y-97240003D01*
X140366280Y-97114040D01*
X140205960Y-96953720D01*
X140079997Y-96765203D01*
X139993232Y-96555734D01*
X139949000Y-96333364D01*
X139949000Y-96106636D01*
X139993232Y-95884266D01*
X140079997Y-95674797D01*
X140205960Y-95486280D01*
X140366280Y-95325960D01*
X140554797Y-95199997D01*
X140764266Y-95113232D01*
X140875451Y-95091116D01*
X140986635Y-95069000D01*
X141213365Y-95069000D01*
X141324549Y-95091116D01*
X141324549Y-95091116D01*
G37*
G36*
X121004549Y-95091116D02*
G01*
X121115734Y-95113232D01*
X121325203Y-95199997D01*
X121513720Y-95325960D01*
X121674040Y-95486280D01*
X121800003Y-95674797D01*
X121886768Y-95884266D01*
X121931000Y-96106636D01*
X121931000Y-96333364D01*
X121886768Y-96555734D01*
X121800003Y-96765203D01*
X121674040Y-96953720D01*
X121513720Y-97114040D01*
X121325203Y-97240003D01*
X121115734Y-97326768D01*
X121004549Y-97348884D01*
X120893365Y-97371000D01*
X120666635Y-97371000D01*
X120555451Y-97348884D01*
X120444266Y-97326768D01*
X120234797Y-97240003D01*
X120046280Y-97114040D01*
X119885960Y-96953720D01*
X119759997Y-96765203D01*
X119673232Y-96555734D01*
X119629000Y-96333364D01*
X119629000Y-96106636D01*
X119673232Y-95884266D01*
X119759997Y-95674797D01*
X119885960Y-95486280D01*
X120046280Y-95325960D01*
X120234797Y-95199997D01*
X120444266Y-95113232D01*
X120555451Y-95091116D01*
X120666635Y-95069000D01*
X120893365Y-95069000D01*
X121004549Y-95091116D01*
X121004549Y-95091116D01*
G37*
G36*
X171004549Y-95091116D02*
G01*
X171115734Y-95113232D01*
X171325203Y-95199997D01*
X171513720Y-95325960D01*
X171674040Y-95486280D01*
X171800003Y-95674797D01*
X171886768Y-95884266D01*
X171931000Y-96106636D01*
X171931000Y-96333364D01*
X171886768Y-96555734D01*
X171800003Y-96765203D01*
X171674040Y-96953720D01*
X171513720Y-97114040D01*
X171325203Y-97240003D01*
X171115734Y-97326768D01*
X171004549Y-97348884D01*
X170893365Y-97371000D01*
X170666635Y-97371000D01*
X170555451Y-97348884D01*
X170444266Y-97326768D01*
X170234797Y-97240003D01*
X170046280Y-97114040D01*
X169885960Y-96953720D01*
X169759997Y-96765203D01*
X169673232Y-96555734D01*
X169629000Y-96333364D01*
X169629000Y-96106636D01*
X169673232Y-95884266D01*
X169759997Y-95674797D01*
X169885960Y-95486280D01*
X170046280Y-95325960D01*
X170234797Y-95199997D01*
X170444266Y-95113232D01*
X170555451Y-95091116D01*
X170666635Y-95069000D01*
X170893365Y-95069000D01*
X171004549Y-95091116D01*
X171004549Y-95091116D01*
G37*
G36*
X165906823Y-95381313D02*
G01*
X166067242Y-95429976D01*
X166172579Y-95486280D01*
X166215078Y-95508996D01*
X166344659Y-95615341D01*
X166451004Y-95744922D01*
X166451005Y-95744924D01*
X166530024Y-95892758D01*
X166578687Y-96053177D01*
X166595117Y-96220000D01*
X166578687Y-96386823D01*
X166530024Y-96547242D01*
X166459114Y-96679906D01*
X166451004Y-96695078D01*
X166344659Y-96824659D01*
X166215078Y-96931004D01*
X166215076Y-96931005D01*
X166067242Y-97010024D01*
X165906823Y-97058687D01*
X165781804Y-97071000D01*
X165698196Y-97071000D01*
X165573177Y-97058687D01*
X165412758Y-97010024D01*
X165264924Y-96931005D01*
X165264922Y-96931004D01*
X165135341Y-96824659D01*
X165028996Y-96695078D01*
X165020886Y-96679906D01*
X164949976Y-96547242D01*
X164901313Y-96386823D01*
X164884883Y-96220000D01*
X164901313Y-96053177D01*
X164949976Y-95892758D01*
X165028995Y-95744924D01*
X165028996Y-95744922D01*
X165135341Y-95615341D01*
X165264922Y-95508996D01*
X165307421Y-95486280D01*
X165412758Y-95429976D01*
X165573177Y-95381313D01*
X165698196Y-95369000D01*
X165781804Y-95369000D01*
X165906823Y-95381313D01*
X165906823Y-95381313D01*
G37*
G36*
X115906823Y-95381313D02*
G01*
X116067242Y-95429976D01*
X116172579Y-95486280D01*
X116215078Y-95508996D01*
X116344659Y-95615341D01*
X116451004Y-95744922D01*
X116451005Y-95744924D01*
X116530024Y-95892758D01*
X116578687Y-96053177D01*
X116595117Y-96220000D01*
X116578687Y-96386823D01*
X116530024Y-96547242D01*
X116459114Y-96679906D01*
X116451004Y-96695078D01*
X116344659Y-96824659D01*
X116215078Y-96931004D01*
X116215076Y-96931005D01*
X116067242Y-97010024D01*
X115906823Y-97058687D01*
X115781804Y-97071000D01*
X115698196Y-97071000D01*
X115573177Y-97058687D01*
X115412758Y-97010024D01*
X115264924Y-96931005D01*
X115264922Y-96931004D01*
X115135341Y-96824659D01*
X115028996Y-96695078D01*
X115020886Y-96679906D01*
X114949976Y-96547242D01*
X114901313Y-96386823D01*
X114884883Y-96220000D01*
X114901313Y-96053177D01*
X114949976Y-95892758D01*
X115028995Y-95744924D01*
X115028996Y-95744922D01*
X115135341Y-95615341D01*
X115264922Y-95508996D01*
X115307421Y-95486280D01*
X115412758Y-95429976D01*
X115573177Y-95381313D01*
X115698196Y-95369000D01*
X115781804Y-95369000D01*
X115906823Y-95381313D01*
X115906823Y-95381313D01*
G37*
G36*
X166324468Y-92813565D02*
G01*
X166363138Y-92825296D01*
X166398777Y-92844346D01*
X166430017Y-92869983D01*
X166455654Y-92901223D01*
X166474704Y-92936862D01*
X166486435Y-92975532D01*
X166491000Y-93021888D01*
X166491000Y-93673112D01*
X166486435Y-93719468D01*
X166474704Y-93758138D01*
X166455654Y-93793777D01*
X166430017Y-93825017D01*
X166398777Y-93850654D01*
X166363138Y-93869704D01*
X166324468Y-93881435D01*
X166278112Y-93886000D01*
X165201888Y-93886000D01*
X165155532Y-93881435D01*
X165116862Y-93869704D01*
X165081223Y-93850654D01*
X165049983Y-93825017D01*
X165024346Y-93793777D01*
X165005296Y-93758138D01*
X164993565Y-93719468D01*
X164989000Y-93673112D01*
X164989000Y-93021888D01*
X164993565Y-92975532D01*
X165005296Y-92936862D01*
X165024346Y-92901223D01*
X165049983Y-92869983D01*
X165081223Y-92844346D01*
X165116862Y-92825296D01*
X165155532Y-92813565D01*
X165201888Y-92809000D01*
X166278112Y-92809000D01*
X166324468Y-92813565D01*
X166324468Y-92813565D01*
G37*
G36*
X116324468Y-92813565D02*
G01*
X116363138Y-92825296D01*
X116398777Y-92844346D01*
X116430017Y-92869983D01*
X116455654Y-92901223D01*
X116474704Y-92936862D01*
X116486435Y-92975532D01*
X116491000Y-93021888D01*
X116491000Y-93673112D01*
X116486435Y-93719468D01*
X116474704Y-93758138D01*
X116455654Y-93793777D01*
X116430017Y-93825017D01*
X116398777Y-93850654D01*
X116363138Y-93869704D01*
X116324468Y-93881435D01*
X116278112Y-93886000D01*
X115201888Y-93886000D01*
X115155532Y-93881435D01*
X115116862Y-93869704D01*
X115081223Y-93850654D01*
X115049983Y-93825017D01*
X115024346Y-93793777D01*
X115005296Y-93758138D01*
X114993565Y-93719468D01*
X114989000Y-93673112D01*
X114989000Y-93021888D01*
X114993565Y-92975532D01*
X115005296Y-92936862D01*
X115024346Y-92901223D01*
X115049983Y-92869983D01*
X115081223Y-92844346D01*
X115116862Y-92825296D01*
X115155532Y-92813565D01*
X115201888Y-92809000D01*
X116278112Y-92809000D01*
X116324468Y-92813565D01*
X116324468Y-92813565D01*
G37*
G36*
X111517199Y-91209954D02*
G01*
X111529450Y-91210556D01*
X111547869Y-91210556D01*
X111570149Y-91212750D01*
X111654233Y-91229476D01*
X111675660Y-91235976D01*
X111754858Y-91268780D01*
X111760303Y-91271691D01*
X111760309Y-91271693D01*
X111769169Y-91276429D01*
X111769173Y-91276432D01*
X111774614Y-91279340D01*
X111845899Y-91326971D01*
X111863204Y-91341172D01*
X111923828Y-91401796D01*
X111938029Y-91419101D01*
X111985660Y-91490386D01*
X111988568Y-91495827D01*
X111988571Y-91495831D01*
X111993307Y-91504691D01*
X111993309Y-91504697D01*
X111996220Y-91510142D01*
X112029024Y-91589340D01*
X112035524Y-91610767D01*
X112052250Y-91694851D01*
X112054444Y-91717131D01*
X112054444Y-91735550D01*
X112055046Y-91747801D01*
X112056852Y-91766139D01*
X112056852Y-92253860D01*
X112055263Y-92269999D01*
X112052348Y-92279608D01*
X112047610Y-92288472D01*
X112041237Y-92296237D01*
X112028794Y-92306448D01*
X112018425Y-92313378D01*
X112001098Y-92330705D01*
X111987485Y-92351080D01*
X111978109Y-92373720D01*
X111973329Y-92397753D01*
X111973330Y-92422257D01*
X111978112Y-92446290D01*
X111987490Y-92468929D01*
X112001105Y-92489302D01*
X112018432Y-92506629D01*
X112028802Y-92513558D01*
X112041237Y-92523763D01*
X112047610Y-92531528D01*
X112052348Y-92540392D01*
X112055263Y-92550001D01*
X112056852Y-92566140D01*
X112056852Y-93053862D01*
X112055046Y-93072199D01*
X112054444Y-93084450D01*
X112054444Y-93102869D01*
X112052250Y-93125149D01*
X112035524Y-93209233D01*
X112029024Y-93230660D01*
X111996220Y-93309858D01*
X111993309Y-93315303D01*
X111993307Y-93315309D01*
X111988571Y-93324169D01*
X111988568Y-93324173D01*
X111985660Y-93329614D01*
X111938029Y-93400899D01*
X111923828Y-93418204D01*
X111863204Y-93478828D01*
X111845899Y-93493029D01*
X111774614Y-93540660D01*
X111769173Y-93543568D01*
X111769169Y-93543571D01*
X111760309Y-93548307D01*
X111760303Y-93548309D01*
X111754858Y-93551220D01*
X111675660Y-93584024D01*
X111654233Y-93590524D01*
X111570149Y-93607250D01*
X111547869Y-93609444D01*
X111529450Y-93609444D01*
X111517199Y-93610046D01*
X111498862Y-93611852D01*
X111011138Y-93611852D01*
X110992801Y-93610046D01*
X110980550Y-93609444D01*
X110962131Y-93609444D01*
X110939851Y-93607250D01*
X110855767Y-93590524D01*
X110834340Y-93584024D01*
X110755142Y-93551220D01*
X110749697Y-93548309D01*
X110749691Y-93548307D01*
X110740831Y-93543571D01*
X110740827Y-93543568D01*
X110735386Y-93540660D01*
X110664101Y-93493029D01*
X110646796Y-93478828D01*
X110586172Y-93418204D01*
X110571971Y-93400899D01*
X110524340Y-93329614D01*
X110521432Y-93324173D01*
X110521429Y-93324169D01*
X110516693Y-93315309D01*
X110516691Y-93315303D01*
X110513780Y-93309858D01*
X110480976Y-93230660D01*
X110474476Y-93209233D01*
X110457750Y-93125149D01*
X110455556Y-93102869D01*
X110455556Y-93084450D01*
X110454954Y-93072199D01*
X110453148Y-93053862D01*
X110453148Y-92566140D01*
X110454737Y-92550001D01*
X110457652Y-92540392D01*
X110462390Y-92531528D01*
X110468763Y-92523763D01*
X110481206Y-92513552D01*
X110491575Y-92506622D01*
X110508902Y-92489295D01*
X110522515Y-92468920D01*
X110531891Y-92446280D01*
X110536671Y-92422247D01*
X110536670Y-92397743D01*
X110531888Y-92373710D01*
X110522510Y-92351071D01*
X110508895Y-92330698D01*
X110491568Y-92313371D01*
X110481198Y-92306442D01*
X110468763Y-92296237D01*
X110462390Y-92288472D01*
X110457652Y-92279608D01*
X110454737Y-92269999D01*
X110453148Y-92253860D01*
X110453148Y-91766139D01*
X110454954Y-91747801D01*
X110455556Y-91735550D01*
X110455556Y-91717131D01*
X110457750Y-91694851D01*
X110474476Y-91610767D01*
X110480976Y-91589340D01*
X110513780Y-91510142D01*
X110516691Y-91504697D01*
X110516693Y-91504691D01*
X110521429Y-91495831D01*
X110521432Y-91495827D01*
X110524340Y-91490386D01*
X110571971Y-91419101D01*
X110586172Y-91401796D01*
X110646796Y-91341172D01*
X110664101Y-91326971D01*
X110735386Y-91279340D01*
X110740827Y-91276432D01*
X110740831Y-91276429D01*
X110749691Y-91271693D01*
X110749697Y-91271691D01*
X110755142Y-91268780D01*
X110834340Y-91235976D01*
X110855767Y-91229476D01*
X110939851Y-91212750D01*
X110962131Y-91210556D01*
X110980550Y-91210556D01*
X110992801Y-91209954D01*
X111011139Y-91208148D01*
X111498861Y-91208148D01*
X111517199Y-91209954D01*
X111517199Y-91209954D01*
G37*
G36*
X161517199Y-91209954D02*
G01*
X161529450Y-91210556D01*
X161547869Y-91210556D01*
X161570149Y-91212750D01*
X161654233Y-91229476D01*
X161675660Y-91235976D01*
X161754858Y-91268780D01*
X161760303Y-91271691D01*
X161760309Y-91271693D01*
X161769169Y-91276429D01*
X161769173Y-91276432D01*
X161774614Y-91279340D01*
X161845899Y-91326971D01*
X161863204Y-91341172D01*
X161923828Y-91401796D01*
X161938029Y-91419101D01*
X161985660Y-91490386D01*
X161988568Y-91495827D01*
X161988571Y-91495831D01*
X161993307Y-91504691D01*
X161993309Y-91504697D01*
X161996220Y-91510142D01*
X162029024Y-91589340D01*
X162035524Y-91610767D01*
X162052250Y-91694851D01*
X162054444Y-91717131D01*
X162054444Y-91735550D01*
X162055046Y-91747801D01*
X162056852Y-91766139D01*
X162056852Y-92253860D01*
X162055263Y-92269999D01*
X162052348Y-92279608D01*
X162047610Y-92288472D01*
X162041237Y-92296237D01*
X162028794Y-92306448D01*
X162018425Y-92313378D01*
X162001098Y-92330705D01*
X161987485Y-92351080D01*
X161978109Y-92373720D01*
X161973329Y-92397753D01*
X161973330Y-92422257D01*
X161978112Y-92446290D01*
X161987490Y-92468929D01*
X162001105Y-92489302D01*
X162018432Y-92506629D01*
X162028802Y-92513558D01*
X162041237Y-92523763D01*
X162047610Y-92531528D01*
X162052348Y-92540392D01*
X162055263Y-92550001D01*
X162056852Y-92566140D01*
X162056852Y-93053862D01*
X162055046Y-93072199D01*
X162054444Y-93084450D01*
X162054444Y-93102869D01*
X162052250Y-93125149D01*
X162035524Y-93209233D01*
X162029024Y-93230660D01*
X161996220Y-93309858D01*
X161993309Y-93315303D01*
X161993307Y-93315309D01*
X161988571Y-93324169D01*
X161988568Y-93324173D01*
X161985660Y-93329614D01*
X161938029Y-93400899D01*
X161923828Y-93418204D01*
X161863204Y-93478828D01*
X161845899Y-93493029D01*
X161774614Y-93540660D01*
X161769173Y-93543568D01*
X161769169Y-93543571D01*
X161760309Y-93548307D01*
X161760303Y-93548309D01*
X161754858Y-93551220D01*
X161675660Y-93584024D01*
X161654233Y-93590524D01*
X161570149Y-93607250D01*
X161547869Y-93609444D01*
X161529450Y-93609444D01*
X161517199Y-93610046D01*
X161498862Y-93611852D01*
X161011138Y-93611852D01*
X160992801Y-93610046D01*
X160980550Y-93609444D01*
X160962131Y-93609444D01*
X160939851Y-93607250D01*
X160855767Y-93590524D01*
X160834340Y-93584024D01*
X160755142Y-93551220D01*
X160749697Y-93548309D01*
X160749691Y-93548307D01*
X160740831Y-93543571D01*
X160740827Y-93543568D01*
X160735386Y-93540660D01*
X160664101Y-93493029D01*
X160646796Y-93478828D01*
X160586172Y-93418204D01*
X160571971Y-93400899D01*
X160524340Y-93329614D01*
X160521432Y-93324173D01*
X160521429Y-93324169D01*
X160516693Y-93315309D01*
X160516691Y-93315303D01*
X160513780Y-93309858D01*
X160480976Y-93230660D01*
X160474476Y-93209233D01*
X160457750Y-93125149D01*
X160455556Y-93102869D01*
X160455556Y-93084450D01*
X160454954Y-93072199D01*
X160453148Y-93053862D01*
X160453148Y-92566140D01*
X160454737Y-92550001D01*
X160457652Y-92540392D01*
X160462390Y-92531528D01*
X160468763Y-92523763D01*
X160481206Y-92513552D01*
X160491575Y-92506622D01*
X160508902Y-92489295D01*
X160522515Y-92468920D01*
X160531891Y-92446280D01*
X160536671Y-92422247D01*
X160536670Y-92397743D01*
X160531888Y-92373710D01*
X160522510Y-92351071D01*
X160508895Y-92330698D01*
X160491568Y-92313371D01*
X160481198Y-92306442D01*
X160468763Y-92296237D01*
X160462390Y-92288472D01*
X160457652Y-92279608D01*
X160454737Y-92269999D01*
X160453148Y-92253860D01*
X160453148Y-91766139D01*
X160454954Y-91747801D01*
X160455556Y-91735550D01*
X160455556Y-91717131D01*
X160457750Y-91694851D01*
X160474476Y-91610767D01*
X160480976Y-91589340D01*
X160513780Y-91510142D01*
X160516691Y-91504697D01*
X160516693Y-91504691D01*
X160521429Y-91495831D01*
X160521432Y-91495827D01*
X160524340Y-91490386D01*
X160571971Y-91419101D01*
X160586172Y-91401796D01*
X160646796Y-91341172D01*
X160664101Y-91326971D01*
X160735386Y-91279340D01*
X160740827Y-91276432D01*
X160740831Y-91276429D01*
X160749691Y-91271693D01*
X160749697Y-91271691D01*
X160755142Y-91268780D01*
X160834340Y-91235976D01*
X160855767Y-91229476D01*
X160939851Y-91212750D01*
X160962131Y-91210556D01*
X160980550Y-91210556D01*
X160992801Y-91209954D01*
X161011139Y-91208148D01*
X161498861Y-91208148D01*
X161517199Y-91209954D01*
X161517199Y-91209954D01*
G37*
G36*
X170980986Y-91276429D02*
G01*
X171115734Y-91303232D01*
X171325203Y-91389997D01*
X171513720Y-91515960D01*
X171674040Y-91676280D01*
X171800003Y-91864797D01*
X171845922Y-91975654D01*
X171886768Y-92074267D01*
X171931000Y-92296635D01*
X171931000Y-92523365D01*
X171923713Y-92560000D01*
X171886768Y-92745734D01*
X171800003Y-92955203D01*
X171674040Y-93143720D01*
X171513720Y-93304040D01*
X171325203Y-93430003D01*
X171115734Y-93516768D01*
X171004549Y-93538884D01*
X170893365Y-93561000D01*
X170666635Y-93561000D01*
X170555451Y-93538884D01*
X170444266Y-93516768D01*
X170234797Y-93430003D01*
X170046280Y-93304040D01*
X169885960Y-93143720D01*
X169759997Y-92955203D01*
X169673232Y-92745734D01*
X169636287Y-92560000D01*
X169629000Y-92523365D01*
X169629000Y-92296635D01*
X169673232Y-92074267D01*
X169714079Y-91975654D01*
X169759997Y-91864797D01*
X169885960Y-91676280D01*
X170046280Y-91515960D01*
X170234797Y-91389997D01*
X170444266Y-91303232D01*
X170579014Y-91276429D01*
X170666635Y-91259000D01*
X170893365Y-91259000D01*
X170980986Y-91276429D01*
X170980986Y-91276429D01*
G37*
G36*
X120980986Y-91276429D02*
G01*
X121115734Y-91303232D01*
X121325203Y-91389997D01*
X121513720Y-91515960D01*
X121674040Y-91676280D01*
X121800003Y-91864797D01*
X121845922Y-91975654D01*
X121886768Y-92074267D01*
X121931000Y-92296635D01*
X121931000Y-92523365D01*
X121923713Y-92560000D01*
X121886768Y-92745734D01*
X121800003Y-92955203D01*
X121674040Y-93143720D01*
X121513720Y-93304040D01*
X121325203Y-93430003D01*
X121115734Y-93516768D01*
X121004549Y-93538884D01*
X120893365Y-93561000D01*
X120666635Y-93561000D01*
X120555451Y-93538884D01*
X120444266Y-93516768D01*
X120234797Y-93430003D01*
X120046280Y-93304040D01*
X119885960Y-93143720D01*
X119759997Y-92955203D01*
X119673232Y-92745734D01*
X119636287Y-92560000D01*
X119629000Y-92523365D01*
X119629000Y-92296635D01*
X119673232Y-92074267D01*
X119714079Y-91975654D01*
X119759997Y-91864797D01*
X119885960Y-91676280D01*
X120046280Y-91515960D01*
X120234797Y-91389997D01*
X120444266Y-91303232D01*
X120579014Y-91276429D01*
X120666635Y-91259000D01*
X120893365Y-91259000D01*
X120980986Y-91276429D01*
X120980986Y-91276429D01*
G37*
G36*
X166324468Y-90938565D02*
G01*
X166363138Y-90950296D01*
X166398777Y-90969346D01*
X166430017Y-90994983D01*
X166455654Y-91026223D01*
X166474704Y-91061862D01*
X166486435Y-91100532D01*
X166491000Y-91146888D01*
X166491000Y-91798112D01*
X166486435Y-91844468D01*
X166474704Y-91883138D01*
X166455654Y-91918777D01*
X166430017Y-91950017D01*
X166398777Y-91975654D01*
X166363138Y-91994704D01*
X166324468Y-92006435D01*
X166278112Y-92011000D01*
X165201888Y-92011000D01*
X165155532Y-92006435D01*
X165116862Y-91994704D01*
X165081223Y-91975654D01*
X165049983Y-91950017D01*
X165024346Y-91918777D01*
X165005296Y-91883138D01*
X164993565Y-91844468D01*
X164989000Y-91798112D01*
X164989000Y-91146888D01*
X164993565Y-91100532D01*
X165005296Y-91061862D01*
X165024346Y-91026223D01*
X165049983Y-90994983D01*
X165081223Y-90969346D01*
X165116862Y-90950296D01*
X165155532Y-90938565D01*
X165201888Y-90934000D01*
X166278112Y-90934000D01*
X166324468Y-90938565D01*
X166324468Y-90938565D01*
G37*
G36*
X116324468Y-90938565D02*
G01*
X116363138Y-90950296D01*
X116398777Y-90969346D01*
X116430017Y-90994983D01*
X116455654Y-91026223D01*
X116474704Y-91061862D01*
X116486435Y-91100532D01*
X116491000Y-91146888D01*
X116491000Y-91798112D01*
X116486435Y-91844468D01*
X116474704Y-91883138D01*
X116455654Y-91918777D01*
X116430017Y-91950017D01*
X116398777Y-91975654D01*
X116363138Y-91994704D01*
X116324468Y-92006435D01*
X116278112Y-92011000D01*
X115201888Y-92011000D01*
X115155532Y-92006435D01*
X115116862Y-91994704D01*
X115081223Y-91975654D01*
X115049983Y-91950017D01*
X115024346Y-91918777D01*
X115005296Y-91883138D01*
X114993565Y-91844468D01*
X114989000Y-91798112D01*
X114989000Y-91146888D01*
X114993565Y-91100532D01*
X115005296Y-91061862D01*
X115024346Y-91026223D01*
X115049983Y-90994983D01*
X115081223Y-90969346D01*
X115116862Y-90950296D01*
X115155532Y-90938565D01*
X115201888Y-90934000D01*
X116278112Y-90934000D01*
X116324468Y-90938565D01*
X116324468Y-90938565D01*
G37*
G36*
X141324549Y-87471116D02*
G01*
X141435734Y-87493232D01*
X141645203Y-87579997D01*
X141833720Y-87705960D01*
X141994040Y-87866280D01*
X142120003Y-88054797D01*
X142120004Y-88054799D01*
X142206768Y-88264267D01*
X142251000Y-88486635D01*
X142251000Y-88713365D01*
X142206768Y-88935733D01*
X142121131Y-89142481D01*
X142120003Y-89145203D01*
X141994040Y-89333720D01*
X141833720Y-89494040D01*
X141645203Y-89620003D01*
X141435734Y-89706768D01*
X141324549Y-89728884D01*
X141213365Y-89751000D01*
X140986635Y-89751000D01*
X140875451Y-89728884D01*
X140764266Y-89706768D01*
X140554797Y-89620003D01*
X140366280Y-89494040D01*
X140205960Y-89333720D01*
X140079997Y-89145203D01*
X140078870Y-89142481D01*
X139993232Y-88935733D01*
X139949000Y-88713365D01*
X139949000Y-88486635D01*
X139993232Y-88264267D01*
X140079996Y-88054799D01*
X140079997Y-88054797D01*
X140205960Y-87866280D01*
X140366280Y-87705960D01*
X140554797Y-87579997D01*
X140764266Y-87493232D01*
X140875451Y-87471116D01*
X140986635Y-87449000D01*
X141213365Y-87449000D01*
X141324549Y-87471116D01*
X141324549Y-87471116D01*
G37*
G36*
X136244549Y-87471116D02*
G01*
X136355734Y-87493232D01*
X136565203Y-87579997D01*
X136753720Y-87705960D01*
X136914040Y-87866280D01*
X137040003Y-88054797D01*
X137040004Y-88054799D01*
X137126768Y-88264267D01*
X137171000Y-88486635D01*
X137171000Y-88713365D01*
X137126768Y-88935733D01*
X137041131Y-89142481D01*
X137040003Y-89145203D01*
X136914040Y-89333720D01*
X136753720Y-89494040D01*
X136565203Y-89620003D01*
X136355734Y-89706768D01*
X136244549Y-89728884D01*
X136133365Y-89751000D01*
X135906635Y-89751000D01*
X135795451Y-89728884D01*
X135684266Y-89706768D01*
X135474797Y-89620003D01*
X135286280Y-89494040D01*
X135125960Y-89333720D01*
X134999997Y-89145203D01*
X134998870Y-89142481D01*
X134913232Y-88935733D01*
X134869000Y-88713365D01*
X134869000Y-88486635D01*
X134913232Y-88264267D01*
X134999996Y-88054799D01*
X134999997Y-88054797D01*
X135125960Y-87866280D01*
X135286280Y-87705960D01*
X135474797Y-87579997D01*
X135684266Y-87493232D01*
X135795451Y-87471116D01*
X135906635Y-87449000D01*
X136133365Y-87449000D01*
X136244549Y-87471116D01*
X136244549Y-87471116D01*
G37*
G36*
X171931000Y-89751000D02*
G01*
X169629000Y-89751000D01*
X169629000Y-87449000D01*
X171931000Y-87449000D01*
X171931000Y-89751000D01*
X171931000Y-89751000D01*
G37*
G36*
X191324549Y-87471116D02*
G01*
X191435734Y-87493232D01*
X191645203Y-87579997D01*
X191833720Y-87705960D01*
X191994040Y-87866280D01*
X192120003Y-88054797D01*
X192120004Y-88054799D01*
X192206768Y-88264267D01*
X192251000Y-88486635D01*
X192251000Y-88713365D01*
X192206768Y-88935733D01*
X192121131Y-89142481D01*
X192120003Y-89145203D01*
X191994040Y-89333720D01*
X191833720Y-89494040D01*
X191645203Y-89620003D01*
X191435734Y-89706768D01*
X191324549Y-89728884D01*
X191213365Y-89751000D01*
X190986635Y-89751000D01*
X190875451Y-89728884D01*
X190764266Y-89706768D01*
X190554797Y-89620003D01*
X190366280Y-89494040D01*
X190205960Y-89333720D01*
X190079997Y-89145203D01*
X190078870Y-89142481D01*
X189993232Y-88935733D01*
X189949000Y-88713365D01*
X189949000Y-88486635D01*
X189993232Y-88264267D01*
X190079996Y-88054799D01*
X190079997Y-88054797D01*
X190205960Y-87866280D01*
X190366280Y-87705960D01*
X190554797Y-87579997D01*
X190764266Y-87493232D01*
X190875451Y-87471116D01*
X190986635Y-87449000D01*
X191213365Y-87449000D01*
X191324549Y-87471116D01*
X191324549Y-87471116D01*
G37*
G36*
X146404549Y-87471116D02*
G01*
X146515734Y-87493232D01*
X146725203Y-87579997D01*
X146913720Y-87705960D01*
X147074040Y-87866280D01*
X147200003Y-88054797D01*
X147200004Y-88054799D01*
X147286768Y-88264267D01*
X147331000Y-88486635D01*
X147331000Y-88713365D01*
X147286768Y-88935733D01*
X147201131Y-89142481D01*
X147200003Y-89145203D01*
X147074040Y-89333720D01*
X146913720Y-89494040D01*
X146725203Y-89620003D01*
X146515734Y-89706768D01*
X146404549Y-89728884D01*
X146293365Y-89751000D01*
X146066635Y-89751000D01*
X145955451Y-89728884D01*
X145844266Y-89706768D01*
X145634797Y-89620003D01*
X145446280Y-89494040D01*
X145285960Y-89333720D01*
X145159997Y-89145203D01*
X145158870Y-89142481D01*
X145073232Y-88935733D01*
X145029000Y-88713365D01*
X145029000Y-88486635D01*
X145073232Y-88264267D01*
X145159996Y-88054799D01*
X145159997Y-88054797D01*
X145285960Y-87866280D01*
X145446280Y-87705960D01*
X145634797Y-87579997D01*
X145844266Y-87493232D01*
X145955451Y-87471116D01*
X146066635Y-87449000D01*
X146293365Y-87449000D01*
X146404549Y-87471116D01*
X146404549Y-87471116D01*
G37*
G36*
X196404549Y-87471116D02*
G01*
X196515734Y-87493232D01*
X196725203Y-87579997D01*
X196913720Y-87705960D01*
X197074040Y-87866280D01*
X197200003Y-88054797D01*
X197200004Y-88054799D01*
X197286768Y-88264267D01*
X197331000Y-88486635D01*
X197331000Y-88713365D01*
X197286768Y-88935733D01*
X197201131Y-89142481D01*
X197200003Y-89145203D01*
X197074040Y-89333720D01*
X196913720Y-89494040D01*
X196725203Y-89620003D01*
X196515734Y-89706768D01*
X196404549Y-89728884D01*
X196293365Y-89751000D01*
X196066635Y-89751000D01*
X195955451Y-89728884D01*
X195844266Y-89706768D01*
X195634797Y-89620003D01*
X195446280Y-89494040D01*
X195285960Y-89333720D01*
X195159997Y-89145203D01*
X195158870Y-89142481D01*
X195073232Y-88935733D01*
X195029000Y-88713365D01*
X195029000Y-88486635D01*
X195073232Y-88264267D01*
X195159996Y-88054799D01*
X195159997Y-88054797D01*
X195285960Y-87866280D01*
X195446280Y-87705960D01*
X195634797Y-87579997D01*
X195844266Y-87493232D01*
X195955451Y-87471116D01*
X196066635Y-87449000D01*
X196293365Y-87449000D01*
X196404549Y-87471116D01*
X196404549Y-87471116D01*
G37*
G36*
X121931000Y-89751000D02*
G01*
X119629000Y-89751000D01*
X119629000Y-87449000D01*
X121931000Y-87449000D01*
X121931000Y-89751000D01*
X121931000Y-89751000D01*
G37*
G36*
X186244549Y-87471116D02*
G01*
X186355734Y-87493232D01*
X186565203Y-87579997D01*
X186753720Y-87705960D01*
X186914040Y-87866280D01*
X187040003Y-88054797D01*
X187040004Y-88054799D01*
X187126768Y-88264267D01*
X187171000Y-88486635D01*
X187171000Y-88713365D01*
X187126768Y-88935733D01*
X187041131Y-89142481D01*
X187040003Y-89145203D01*
X186914040Y-89333720D01*
X186753720Y-89494040D01*
X186565203Y-89620003D01*
X186355734Y-89706768D01*
X186244549Y-89728884D01*
X186133365Y-89751000D01*
X185906635Y-89751000D01*
X185795451Y-89728884D01*
X185684266Y-89706768D01*
X185474797Y-89620003D01*
X185286280Y-89494040D01*
X185125960Y-89333720D01*
X184999997Y-89145203D01*
X184998870Y-89142481D01*
X184913232Y-88935733D01*
X184869000Y-88713365D01*
X184869000Y-88486635D01*
X184913232Y-88264267D01*
X184999996Y-88054799D01*
X184999997Y-88054797D01*
X185125960Y-87866280D01*
X185286280Y-87705960D01*
X185474797Y-87579997D01*
X185684266Y-87493232D01*
X185795451Y-87471116D01*
X185906635Y-87449000D01*
X186133365Y-87449000D01*
X186244549Y-87471116D01*
X186244549Y-87471116D01*
G37*
G36*
X115988228Y-87781703D02*
G01*
X116143100Y-87845853D01*
X116282481Y-87938985D01*
X116401015Y-88057519D01*
X116494147Y-88196900D01*
X116558297Y-88351772D01*
X116591000Y-88516184D01*
X116591000Y-88683816D01*
X116558297Y-88848228D01*
X116494147Y-89003100D01*
X116401015Y-89142481D01*
X116282481Y-89261015D01*
X116143100Y-89354147D01*
X115988228Y-89418297D01*
X115823816Y-89451000D01*
X115656184Y-89451000D01*
X115491772Y-89418297D01*
X115336900Y-89354147D01*
X115197519Y-89261015D01*
X115078985Y-89142481D01*
X114985853Y-89003100D01*
X114921703Y-88848228D01*
X114889000Y-88683816D01*
X114889000Y-88516184D01*
X114921703Y-88351772D01*
X114985853Y-88196900D01*
X115078985Y-88057519D01*
X115197519Y-87938985D01*
X115336900Y-87845853D01*
X115491772Y-87781703D01*
X115656184Y-87749000D01*
X115823816Y-87749000D01*
X115988228Y-87781703D01*
X115988228Y-87781703D01*
G37*
G36*
X165988228Y-87781703D02*
G01*
X166143100Y-87845853D01*
X166282481Y-87938985D01*
X166401015Y-88057519D01*
X166494147Y-88196900D01*
X166558297Y-88351772D01*
X166591000Y-88516184D01*
X166591000Y-88683816D01*
X166558297Y-88848228D01*
X166494147Y-89003100D01*
X166401015Y-89142481D01*
X166282481Y-89261015D01*
X166143100Y-89354147D01*
X165988228Y-89418297D01*
X165823816Y-89451000D01*
X165656184Y-89451000D01*
X165491772Y-89418297D01*
X165336900Y-89354147D01*
X165197519Y-89261015D01*
X165078985Y-89142481D01*
X164985853Y-89003100D01*
X164921703Y-88848228D01*
X164889000Y-88683816D01*
X164889000Y-88516184D01*
X164921703Y-88351772D01*
X164985853Y-88196900D01*
X165078985Y-88057519D01*
X165197519Y-87938985D01*
X165336900Y-87845853D01*
X165491772Y-87781703D01*
X165656184Y-87749000D01*
X165823816Y-87749000D01*
X165988228Y-87781703D01*
X165988228Y-87781703D01*
G37*
G36*
X174892585Y-80093802D02*
G01*
X175042410Y-80123604D01*
X175324674Y-80240521D01*
X175578705Y-80410259D01*
X175794741Y-80626295D01*
X175964479Y-80880326D01*
X176081396Y-81162590D01*
X176141000Y-81462240D01*
X176141000Y-81767760D01*
X176081396Y-82067410D01*
X175964479Y-82349674D01*
X175794741Y-82603705D01*
X175578705Y-82819741D01*
X175324674Y-82989479D01*
X175042410Y-83106396D01*
X174892585Y-83136198D01*
X174742761Y-83166000D01*
X174437239Y-83166000D01*
X174287415Y-83136198D01*
X174137590Y-83106396D01*
X173855326Y-82989479D01*
X173601295Y-82819741D01*
X173385259Y-82603705D01*
X173215521Y-82349674D01*
X173098604Y-82067410D01*
X173039000Y-81767760D01*
X173039000Y-81462240D01*
X173098604Y-81162590D01*
X173215521Y-80880326D01*
X173385259Y-80626295D01*
X173601295Y-80410259D01*
X173855326Y-80240521D01*
X174137590Y-80123604D01*
X174287415Y-80093802D01*
X174437239Y-80064000D01*
X174742761Y-80064000D01*
X174892585Y-80093802D01*
X174892585Y-80093802D01*
G37*
G36*
X131221000Y-83166000D02*
G01*
X128119000Y-83166000D01*
X128119000Y-80064000D01*
X131221000Y-80064000D01*
X131221000Y-83166000D01*
X131221000Y-83166000D01*
G37*
G36*
X124892585Y-80093802D02*
G01*
X125042410Y-80123604D01*
X125324674Y-80240521D01*
X125578705Y-80410259D01*
X125794741Y-80626295D01*
X125964479Y-80880326D01*
X126081396Y-81162590D01*
X126141000Y-81462240D01*
X126141000Y-81767760D01*
X126081396Y-82067410D01*
X125964479Y-82349674D01*
X125794741Y-82603705D01*
X125578705Y-82819741D01*
X125324674Y-82989479D01*
X125042410Y-83106396D01*
X124892585Y-83136198D01*
X124742761Y-83166000D01*
X124437239Y-83166000D01*
X124287415Y-83136198D01*
X124137590Y-83106396D01*
X123855326Y-82989479D01*
X123601295Y-82819741D01*
X123385259Y-82603705D01*
X123215521Y-82349674D01*
X123098604Y-82067410D01*
X123039000Y-81767760D01*
X123039000Y-81462240D01*
X123098604Y-81162590D01*
X123215521Y-80880326D01*
X123385259Y-80626295D01*
X123601295Y-80410259D01*
X123855326Y-80240521D01*
X124137590Y-80123604D01*
X124287415Y-80093802D01*
X124437239Y-80064000D01*
X124742761Y-80064000D01*
X124892585Y-80093802D01*
X124892585Y-80093802D01*
G37*
G36*
X169812585Y-80093802D02*
G01*
X169962410Y-80123604D01*
X170244674Y-80240521D01*
X170498705Y-80410259D01*
X170714741Y-80626295D01*
X170884479Y-80880326D01*
X171001396Y-81162590D01*
X171061000Y-81462240D01*
X171061000Y-81767760D01*
X171001396Y-82067410D01*
X170884479Y-82349674D01*
X170714741Y-82603705D01*
X170498705Y-82819741D01*
X170244674Y-82989479D01*
X169962410Y-83106396D01*
X169812585Y-83136198D01*
X169662761Y-83166000D01*
X169357239Y-83166000D01*
X169207415Y-83136198D01*
X169057590Y-83106396D01*
X168775326Y-82989479D01*
X168521295Y-82819741D01*
X168305259Y-82603705D01*
X168135521Y-82349674D01*
X168018604Y-82067410D01*
X167959000Y-81767760D01*
X167959000Y-81462240D01*
X168018604Y-81162590D01*
X168135521Y-80880326D01*
X168305259Y-80626295D01*
X168521295Y-80410259D01*
X168775326Y-80240521D01*
X169057590Y-80123604D01*
X169207415Y-80093802D01*
X169357239Y-80064000D01*
X169662761Y-80064000D01*
X169812585Y-80093802D01*
X169812585Y-80093802D01*
G37*
G36*
X181221000Y-83166000D02*
G01*
X178119000Y-83166000D01*
X178119000Y-80064000D01*
X181221000Y-80064000D01*
X181221000Y-83166000D01*
X181221000Y-83166000D01*
G37*
G36*
X119812585Y-80093802D02*
G01*
X119962410Y-80123604D01*
X120244674Y-80240521D01*
X120498705Y-80410259D01*
X120714741Y-80626295D01*
X120884479Y-80880326D01*
X121001396Y-81162590D01*
X121061000Y-81462240D01*
X121061000Y-81767760D01*
X121001396Y-82067410D01*
X120884479Y-82349674D01*
X120714741Y-82603705D01*
X120498705Y-82819741D01*
X120244674Y-82989479D01*
X119962410Y-83106396D01*
X119812585Y-83136198D01*
X119662761Y-83166000D01*
X119357239Y-83166000D01*
X119207415Y-83136198D01*
X119057590Y-83106396D01*
X118775326Y-82989479D01*
X118521295Y-82819741D01*
X118305259Y-82603705D01*
X118135521Y-82349674D01*
X118018604Y-82067410D01*
X117959000Y-81767760D01*
X117959000Y-81462240D01*
X118018604Y-81162590D01*
X118135521Y-80880326D01*
X118305259Y-80626295D01*
X118521295Y-80410259D01*
X118775326Y-80240521D01*
X119057590Y-80123604D01*
X119207415Y-80093802D01*
X119357239Y-80064000D01*
X119662761Y-80064000D01*
X119812585Y-80093802D01*
X119812585Y-80093802D01*
G37*
G36*
X154012585Y-77888802D02*
G01*
X154162410Y-77918604D01*
X154444674Y-78035521D01*
X154698705Y-78205259D01*
X154914741Y-78421295D01*
X155084479Y-78675326D01*
X155201396Y-78957590D01*
X155261000Y-79257240D01*
X155261000Y-79562760D01*
X155201396Y-79862410D01*
X155084479Y-80144674D01*
X154914741Y-80398705D01*
X154698705Y-80614741D01*
X154444674Y-80784479D01*
X154162410Y-80901396D01*
X154012585Y-80931198D01*
X153862761Y-80961000D01*
X153557239Y-80961000D01*
X153407415Y-80931198D01*
X153257590Y-80901396D01*
X152975326Y-80784479D01*
X152721295Y-80614741D01*
X152505259Y-80398705D01*
X152335521Y-80144674D01*
X152218604Y-79862410D01*
X152159000Y-79562760D01*
X152159000Y-79257240D01*
X152218604Y-78957590D01*
X152335521Y-78675326D01*
X152505259Y-78421295D01*
X152721295Y-78205259D01*
X152975326Y-78035521D01*
X153257590Y-77918604D01*
X153407415Y-77888802D01*
X153557239Y-77859000D01*
X153862761Y-77859000D01*
X154012585Y-77888802D01*
X154012585Y-77888802D01*
G37*
G36*
X111012585Y-77888802D02*
G01*
X111162410Y-77918604D01*
X111444674Y-78035521D01*
X111698705Y-78205259D01*
X111914741Y-78421295D01*
X112084479Y-78675326D01*
X112201396Y-78957590D01*
X112261000Y-79257240D01*
X112261000Y-79562760D01*
X112201396Y-79862410D01*
X112084479Y-80144674D01*
X111914741Y-80398705D01*
X111698705Y-80614741D01*
X111444674Y-80784479D01*
X111162410Y-80901396D01*
X111012585Y-80931198D01*
X110862761Y-80961000D01*
X110557239Y-80961000D01*
X110407415Y-80931198D01*
X110257590Y-80901396D01*
X109975326Y-80784479D01*
X109721295Y-80614741D01*
X109505259Y-80398705D01*
X109335521Y-80144674D01*
X109218604Y-79862410D01*
X109159000Y-79562760D01*
X109159000Y-79257240D01*
X109218604Y-78957590D01*
X109335521Y-78675326D01*
X109505259Y-78421295D01*
X109721295Y-78205259D01*
X109975326Y-78035521D01*
X110257590Y-77918604D01*
X110407415Y-77888802D01*
X110557239Y-77859000D01*
X110862761Y-77859000D01*
X111012585Y-77888802D01*
X111012585Y-77888802D01*
G37*
G36*
X204012585Y-77888802D02*
G01*
X204162410Y-77918604D01*
X204444674Y-78035521D01*
X204698705Y-78205259D01*
X204914741Y-78421295D01*
X205084479Y-78675326D01*
X205201396Y-78957590D01*
X205261000Y-79257240D01*
X205261000Y-79562760D01*
X205201396Y-79862410D01*
X205084479Y-80144674D01*
X204914741Y-80398705D01*
X204698705Y-80614741D01*
X204444674Y-80784479D01*
X204162410Y-80901396D01*
X204012585Y-80931198D01*
X203862761Y-80961000D01*
X203557239Y-80961000D01*
X203407415Y-80931198D01*
X203257590Y-80901396D01*
X202975326Y-80784479D01*
X202721295Y-80614741D01*
X202505259Y-80398705D01*
X202335521Y-80144674D01*
X202218604Y-79862410D01*
X202159000Y-79562760D01*
X202159000Y-79257240D01*
X202218604Y-78957590D01*
X202335521Y-78675326D01*
X202505259Y-78421295D01*
X202721295Y-78205259D01*
X202975326Y-78035521D01*
X203257590Y-77918604D01*
X203407415Y-77888802D01*
X203557239Y-77859000D01*
X203862761Y-77859000D01*
X204012585Y-77888802D01*
X204012585Y-77888802D01*
G37*
G36*
X161012585Y-77888802D02*
G01*
X161162410Y-77918604D01*
X161444674Y-78035521D01*
X161698705Y-78205259D01*
X161914741Y-78421295D01*
X162084479Y-78675326D01*
X162201396Y-78957590D01*
X162261000Y-79257240D01*
X162261000Y-79562760D01*
X162201396Y-79862410D01*
X162084479Y-80144674D01*
X161914741Y-80398705D01*
X161698705Y-80614741D01*
X161444674Y-80784479D01*
X161162410Y-80901396D01*
X161012585Y-80931198D01*
X160862761Y-80961000D01*
X160557239Y-80961000D01*
X160407415Y-80931198D01*
X160257590Y-80901396D01*
X159975326Y-80784479D01*
X159721295Y-80614741D01*
X159505259Y-80398705D01*
X159335521Y-80144674D01*
X159218604Y-79862410D01*
X159159000Y-79562760D01*
X159159000Y-79257240D01*
X159218604Y-78957590D01*
X159335521Y-78675326D01*
X159505259Y-78421295D01*
X159721295Y-78205259D01*
X159975326Y-78035521D01*
X160257590Y-77918604D01*
X160407415Y-77888802D01*
X160557239Y-77859000D01*
X160862761Y-77859000D01*
X161012585Y-77888802D01*
X161012585Y-77888802D01*
G37*
G36*
X161012585Y-70888802D02*
G01*
X161162410Y-70918604D01*
X161444674Y-71035521D01*
X161698705Y-71205259D01*
X161914741Y-71421295D01*
X162084479Y-71675326D01*
X162201396Y-71957590D01*
X162261000Y-72257240D01*
X162261000Y-72562760D01*
X162201396Y-72862410D01*
X162084479Y-73144674D01*
X161914741Y-73398705D01*
X161698705Y-73614741D01*
X161444674Y-73784479D01*
X161162410Y-73901396D01*
X161012585Y-73931198D01*
X160862761Y-73961000D01*
X160557239Y-73961000D01*
X160407415Y-73931198D01*
X160257590Y-73901396D01*
X159975326Y-73784479D01*
X159721295Y-73614741D01*
X159505259Y-73398705D01*
X159335521Y-73144674D01*
X159218604Y-72862410D01*
X159159000Y-72562760D01*
X159159000Y-72257240D01*
X159218604Y-71957590D01*
X159335521Y-71675326D01*
X159505259Y-71421295D01*
X159721295Y-71205259D01*
X159975326Y-71035521D01*
X160257590Y-70918604D01*
X160407415Y-70888802D01*
X160557239Y-70859000D01*
X160862761Y-70859000D01*
X161012585Y-70888802D01*
X161012585Y-70888802D01*
G37*
G36*
X111012585Y-70888802D02*
G01*
X111162410Y-70918604D01*
X111444674Y-71035521D01*
X111698705Y-71205259D01*
X111914741Y-71421295D01*
X112084479Y-71675326D01*
X112201396Y-71957590D01*
X112261000Y-72257240D01*
X112261000Y-72562760D01*
X112201396Y-72862410D01*
X112084479Y-73144674D01*
X111914741Y-73398705D01*
X111698705Y-73614741D01*
X111444674Y-73784479D01*
X111162410Y-73901396D01*
X111012585Y-73931198D01*
X110862761Y-73961000D01*
X110557239Y-73961000D01*
X110407415Y-73931198D01*
X110257590Y-73901396D01*
X109975326Y-73784479D01*
X109721295Y-73614741D01*
X109505259Y-73398705D01*
X109335521Y-73144674D01*
X109218604Y-72862410D01*
X109159000Y-72562760D01*
X109159000Y-72257240D01*
X109218604Y-71957590D01*
X109335521Y-71675326D01*
X109505259Y-71421295D01*
X109721295Y-71205259D01*
X109975326Y-71035521D01*
X110257590Y-70918604D01*
X110407415Y-70888802D01*
X110557239Y-70859000D01*
X110862761Y-70859000D01*
X111012585Y-70888802D01*
X111012585Y-70888802D01*
G37*
G36*
X154012585Y-70888802D02*
G01*
X154162410Y-70918604D01*
X154444674Y-71035521D01*
X154698705Y-71205259D01*
X154914741Y-71421295D01*
X155084479Y-71675326D01*
X155201396Y-71957590D01*
X155261000Y-72257240D01*
X155261000Y-72562760D01*
X155201396Y-72862410D01*
X155084479Y-73144674D01*
X154914741Y-73398705D01*
X154698705Y-73614741D01*
X154444674Y-73784479D01*
X154162410Y-73901396D01*
X154012585Y-73931198D01*
X153862761Y-73961000D01*
X153557239Y-73961000D01*
X153407415Y-73931198D01*
X153257590Y-73901396D01*
X152975326Y-73784479D01*
X152721295Y-73614741D01*
X152505259Y-73398705D01*
X152335521Y-73144674D01*
X152218604Y-72862410D01*
X152159000Y-72562760D01*
X152159000Y-72257240D01*
X152218604Y-71957590D01*
X152335521Y-71675326D01*
X152505259Y-71421295D01*
X152721295Y-71205259D01*
X152975326Y-71035521D01*
X153257590Y-70918604D01*
X153407415Y-70888802D01*
X153557239Y-70859000D01*
X153862761Y-70859000D01*
X154012585Y-70888802D01*
X154012585Y-70888802D01*
G37*
G36*
X204012585Y-70888802D02*
G01*
X204162410Y-70918604D01*
X204444674Y-71035521D01*
X204698705Y-71205259D01*
X204914741Y-71421295D01*
X205084479Y-71675326D01*
X205201396Y-71957590D01*
X205261000Y-72257240D01*
X205261000Y-72562760D01*
X205201396Y-72862410D01*
X205084479Y-73144674D01*
X204914741Y-73398705D01*
X204698705Y-73614741D01*
X204444674Y-73784479D01*
X204162410Y-73901396D01*
X204012585Y-73931198D01*
X203862761Y-73961000D01*
X203557239Y-73961000D01*
X203407415Y-73931198D01*
X203257590Y-73901396D01*
X202975326Y-73784479D01*
X202721295Y-73614741D01*
X202505259Y-73398705D01*
X202335521Y-73144674D01*
X202218604Y-72862410D01*
X202159000Y-72562760D01*
X202159000Y-72257240D01*
X202218604Y-71957590D01*
X202335521Y-71675326D01*
X202505259Y-71421295D01*
X202721295Y-71205259D01*
X202975326Y-71035521D01*
X203257590Y-70918604D01*
X203407415Y-70888802D01*
X203557239Y-70859000D01*
X203862761Y-70859000D01*
X204012585Y-70888802D01*
X204012585Y-70888802D01*
G37*
G36*
X129972585Y-68683802D02*
G01*
X130122410Y-68713604D01*
X130404674Y-68830521D01*
X130658705Y-69000259D01*
X130874741Y-69216295D01*
X131044479Y-69470326D01*
X131161396Y-69752590D01*
X131221000Y-70052240D01*
X131221000Y-70357760D01*
X131161396Y-70657410D01*
X131044479Y-70939674D01*
X130874741Y-71193705D01*
X130658705Y-71409741D01*
X130404674Y-71579479D01*
X130122410Y-71696396D01*
X129972585Y-71726198D01*
X129822761Y-71756000D01*
X129517239Y-71756000D01*
X129367415Y-71726198D01*
X129217590Y-71696396D01*
X128935326Y-71579479D01*
X128681295Y-71409741D01*
X128465259Y-71193705D01*
X128295521Y-70939674D01*
X128178604Y-70657410D01*
X128119000Y-70357760D01*
X128119000Y-70052240D01*
X128178604Y-69752590D01*
X128295521Y-69470326D01*
X128465259Y-69216295D01*
X128681295Y-69000259D01*
X128935326Y-68830521D01*
X129217590Y-68713604D01*
X129367415Y-68683802D01*
X129517239Y-68654000D01*
X129822761Y-68654000D01*
X129972585Y-68683802D01*
X129972585Y-68683802D01*
G37*
G36*
X140132585Y-68683802D02*
G01*
X140282410Y-68713604D01*
X140564674Y-68830521D01*
X140818705Y-69000259D01*
X141034741Y-69216295D01*
X141204479Y-69470326D01*
X141321396Y-69752590D01*
X141381000Y-70052240D01*
X141381000Y-70357760D01*
X141321396Y-70657410D01*
X141204479Y-70939674D01*
X141034741Y-71193705D01*
X140818705Y-71409741D01*
X140564674Y-71579479D01*
X140282410Y-71696396D01*
X140132585Y-71726198D01*
X139982761Y-71756000D01*
X139677239Y-71756000D01*
X139527415Y-71726198D01*
X139377590Y-71696396D01*
X139095326Y-71579479D01*
X138841295Y-71409741D01*
X138625259Y-71193705D01*
X138455521Y-70939674D01*
X138338604Y-70657410D01*
X138279000Y-70357760D01*
X138279000Y-70052240D01*
X138338604Y-69752590D01*
X138455521Y-69470326D01*
X138625259Y-69216295D01*
X138841295Y-69000259D01*
X139095326Y-68830521D01*
X139377590Y-68713604D01*
X139527415Y-68683802D01*
X139677239Y-68654000D01*
X139982761Y-68654000D01*
X140132585Y-68683802D01*
X140132585Y-68683802D01*
G37*
G36*
X145212585Y-68683802D02*
G01*
X145362410Y-68713604D01*
X145644674Y-68830521D01*
X145898705Y-69000259D01*
X146114741Y-69216295D01*
X146284479Y-69470326D01*
X146401396Y-69752590D01*
X146461000Y-70052240D01*
X146461000Y-70357760D01*
X146401396Y-70657410D01*
X146284479Y-70939674D01*
X146114741Y-71193705D01*
X145898705Y-71409741D01*
X145644674Y-71579479D01*
X145362410Y-71696396D01*
X145212585Y-71726198D01*
X145062761Y-71756000D01*
X144757239Y-71756000D01*
X144607415Y-71726198D01*
X144457590Y-71696396D01*
X144175326Y-71579479D01*
X143921295Y-71409741D01*
X143705259Y-71193705D01*
X143535521Y-70939674D01*
X143418604Y-70657410D01*
X143359000Y-70357760D01*
X143359000Y-70052240D01*
X143418604Y-69752590D01*
X143535521Y-69470326D01*
X143705259Y-69216295D01*
X143921295Y-69000259D01*
X144175326Y-68830521D01*
X144457590Y-68713604D01*
X144607415Y-68683802D01*
X144757239Y-68654000D01*
X145062761Y-68654000D01*
X145212585Y-68683802D01*
X145212585Y-68683802D01*
G37*
G36*
X171061000Y-71756000D02*
G01*
X167959000Y-71756000D01*
X167959000Y-68654000D01*
X171061000Y-68654000D01*
X171061000Y-71756000D01*
X171061000Y-71756000D01*
G37*
G36*
X121061000Y-71756000D02*
G01*
X117959000Y-71756000D01*
X117959000Y-68654000D01*
X121061000Y-68654000D01*
X121061000Y-71756000D01*
X121061000Y-71756000D01*
G37*
G36*
X136301000Y-71756000D02*
G01*
X133199000Y-71756000D01*
X133199000Y-68654000D01*
X136301000Y-68654000D01*
X136301000Y-71756000D01*
X136301000Y-71756000D01*
G37*
G36*
X179972585Y-68683802D02*
G01*
X180122410Y-68713604D01*
X180404674Y-68830521D01*
X180658705Y-69000259D01*
X180874741Y-69216295D01*
X181044479Y-69470326D01*
X181161396Y-69752590D01*
X181221000Y-70052240D01*
X181221000Y-70357760D01*
X181161396Y-70657410D01*
X181044479Y-70939674D01*
X180874741Y-71193705D01*
X180658705Y-71409741D01*
X180404674Y-71579479D01*
X180122410Y-71696396D01*
X179972585Y-71726198D01*
X179822761Y-71756000D01*
X179517239Y-71756000D01*
X179367415Y-71726198D01*
X179217590Y-71696396D01*
X178935326Y-71579479D01*
X178681295Y-71409741D01*
X178465259Y-71193705D01*
X178295521Y-70939674D01*
X178178604Y-70657410D01*
X178119000Y-70357760D01*
X178119000Y-70052240D01*
X178178604Y-69752590D01*
X178295521Y-69470326D01*
X178465259Y-69216295D01*
X178681295Y-69000259D01*
X178935326Y-68830521D01*
X179217590Y-68713604D01*
X179367415Y-68683802D01*
X179517239Y-68654000D01*
X179822761Y-68654000D01*
X179972585Y-68683802D01*
X179972585Y-68683802D01*
G37*
G36*
X174892585Y-68683802D02*
G01*
X175042410Y-68713604D01*
X175324674Y-68830521D01*
X175578705Y-69000259D01*
X175794741Y-69216295D01*
X175964479Y-69470326D01*
X176081396Y-69752590D01*
X176141000Y-70052240D01*
X176141000Y-70357760D01*
X176081396Y-70657410D01*
X175964479Y-70939674D01*
X175794741Y-71193705D01*
X175578705Y-71409741D01*
X175324674Y-71579479D01*
X175042410Y-71696396D01*
X174892585Y-71726198D01*
X174742761Y-71756000D01*
X174437239Y-71756000D01*
X174287415Y-71726198D01*
X174137590Y-71696396D01*
X173855326Y-71579479D01*
X173601295Y-71409741D01*
X173385259Y-71193705D01*
X173215521Y-70939674D01*
X173098604Y-70657410D01*
X173039000Y-70357760D01*
X173039000Y-70052240D01*
X173098604Y-69752590D01*
X173215521Y-69470326D01*
X173385259Y-69216295D01*
X173601295Y-69000259D01*
X173855326Y-68830521D01*
X174137590Y-68713604D01*
X174287415Y-68683802D01*
X174437239Y-68654000D01*
X174742761Y-68654000D01*
X174892585Y-68683802D01*
X174892585Y-68683802D01*
G37*
G36*
X124892585Y-68683802D02*
G01*
X125042410Y-68713604D01*
X125324674Y-68830521D01*
X125578705Y-69000259D01*
X125794741Y-69216295D01*
X125964479Y-69470326D01*
X126081396Y-69752590D01*
X126141000Y-70052240D01*
X126141000Y-70357760D01*
X126081396Y-70657410D01*
X125964479Y-70939674D01*
X125794741Y-71193705D01*
X125578705Y-71409741D01*
X125324674Y-71579479D01*
X125042410Y-71696396D01*
X124892585Y-71726198D01*
X124742761Y-71756000D01*
X124437239Y-71756000D01*
X124287415Y-71726198D01*
X124137590Y-71696396D01*
X123855326Y-71579479D01*
X123601295Y-71409741D01*
X123385259Y-71193705D01*
X123215521Y-70939674D01*
X123098604Y-70657410D01*
X123039000Y-70357760D01*
X123039000Y-70052240D01*
X123098604Y-69752590D01*
X123215521Y-69470326D01*
X123385259Y-69216295D01*
X123601295Y-69000259D01*
X123855326Y-68830521D01*
X124137590Y-68713604D01*
X124287415Y-68683802D01*
X124437239Y-68654000D01*
X124742761Y-68654000D01*
X124892585Y-68683802D01*
X124892585Y-68683802D01*
G37*
G36*
X195212585Y-68683802D02*
G01*
X195362410Y-68713604D01*
X195644674Y-68830521D01*
X195898705Y-69000259D01*
X196114741Y-69216295D01*
X196284479Y-69470326D01*
X196401396Y-69752590D01*
X196461000Y-70052240D01*
X196461000Y-70357760D01*
X196401396Y-70657410D01*
X196284479Y-70939674D01*
X196114741Y-71193705D01*
X195898705Y-71409741D01*
X195644674Y-71579479D01*
X195362410Y-71696396D01*
X195212585Y-71726198D01*
X195062761Y-71756000D01*
X194757239Y-71756000D01*
X194607415Y-71726198D01*
X194457590Y-71696396D01*
X194175326Y-71579479D01*
X193921295Y-71409741D01*
X193705259Y-71193705D01*
X193535521Y-70939674D01*
X193418604Y-70657410D01*
X193359000Y-70357760D01*
X193359000Y-70052240D01*
X193418604Y-69752590D01*
X193535521Y-69470326D01*
X193705259Y-69216295D01*
X193921295Y-69000259D01*
X194175326Y-68830521D01*
X194457590Y-68713604D01*
X194607415Y-68683802D01*
X194757239Y-68654000D01*
X195062761Y-68654000D01*
X195212585Y-68683802D01*
X195212585Y-68683802D01*
G37*
G36*
X186301000Y-71756000D02*
G01*
X183199000Y-71756000D01*
X183199000Y-68654000D01*
X186301000Y-68654000D01*
X186301000Y-71756000D01*
X186301000Y-71756000D01*
G37*
G36*
X190132585Y-68683802D02*
G01*
X190282410Y-68713604D01*
X190564674Y-68830521D01*
X190818705Y-69000259D01*
X191034741Y-69216295D01*
X191204479Y-69470326D01*
X191321396Y-69752590D01*
X191381000Y-70052240D01*
X191381000Y-70357760D01*
X191321396Y-70657410D01*
X191204479Y-70939674D01*
X191034741Y-71193705D01*
X190818705Y-71409741D01*
X190564674Y-71579479D01*
X190282410Y-71696396D01*
X190132585Y-71726198D01*
X189982761Y-71756000D01*
X189677239Y-71756000D01*
X189527415Y-71726198D01*
X189377590Y-71696396D01*
X189095326Y-71579479D01*
X188841295Y-71409741D01*
X188625259Y-71193705D01*
X188455521Y-70939674D01*
X188338604Y-70657410D01*
X188279000Y-70357760D01*
X188279000Y-70052240D01*
X188338604Y-69752590D01*
X188455521Y-69470326D01*
X188625259Y-69216295D01*
X188841295Y-69000259D01*
X189095326Y-68830521D01*
X189377590Y-68713604D01*
X189527415Y-68683802D01*
X189677239Y-68654000D01*
X189982761Y-68654000D01*
X190132585Y-68683802D01*
X190132585Y-68683802D01*
G37*
G36*
X191324549Y-62091116D02*
G01*
X191435734Y-62113232D01*
X191645203Y-62199997D01*
X191833720Y-62325960D01*
X191994040Y-62486280D01*
X192120003Y-62674797D01*
X192206768Y-62884266D01*
X192251000Y-63106636D01*
X192251000Y-63333364D01*
X192206768Y-63555734D01*
X192120003Y-63765203D01*
X191994040Y-63953720D01*
X191833720Y-64114040D01*
X191645203Y-64240003D01*
X191435734Y-64326768D01*
X191324549Y-64348884D01*
X191213365Y-64371000D01*
X190986635Y-64371000D01*
X190875451Y-64348884D01*
X190764266Y-64326768D01*
X190554797Y-64240003D01*
X190366280Y-64114040D01*
X190205960Y-63953720D01*
X190079997Y-63765203D01*
X189993232Y-63555734D01*
X189949000Y-63333364D01*
X189949000Y-63106636D01*
X189993232Y-62884266D01*
X190079997Y-62674797D01*
X190205960Y-62486280D01*
X190366280Y-62325960D01*
X190554797Y-62199997D01*
X190764266Y-62113232D01*
X190875451Y-62091116D01*
X190986635Y-62069000D01*
X191213365Y-62069000D01*
X191324549Y-62091116D01*
X191324549Y-62091116D01*
G37*
G36*
X186244549Y-62091116D02*
G01*
X186355734Y-62113232D01*
X186565203Y-62199997D01*
X186753720Y-62325960D01*
X186914040Y-62486280D01*
X187040003Y-62674797D01*
X187126768Y-62884266D01*
X187171000Y-63106636D01*
X187171000Y-63333364D01*
X187126768Y-63555734D01*
X187040003Y-63765203D01*
X186914040Y-63953720D01*
X186753720Y-64114040D01*
X186565203Y-64240003D01*
X186355734Y-64326768D01*
X186244549Y-64348884D01*
X186133365Y-64371000D01*
X185906635Y-64371000D01*
X185795451Y-64348884D01*
X185684266Y-64326768D01*
X185474797Y-64240003D01*
X185286280Y-64114040D01*
X185125960Y-63953720D01*
X184999997Y-63765203D01*
X184913232Y-63555734D01*
X184869000Y-63333364D01*
X184869000Y-63106636D01*
X184913232Y-62884266D01*
X184999997Y-62674797D01*
X185125960Y-62486280D01*
X185286280Y-62325960D01*
X185474797Y-62199997D01*
X185684266Y-62113232D01*
X185795451Y-62091116D01*
X185906635Y-62069000D01*
X186133365Y-62069000D01*
X186244549Y-62091116D01*
X186244549Y-62091116D01*
G37*
G36*
X171004549Y-62091116D02*
G01*
X171115734Y-62113232D01*
X171325203Y-62199997D01*
X171513720Y-62325960D01*
X171674040Y-62486280D01*
X171800003Y-62674797D01*
X171886768Y-62884266D01*
X171931000Y-63106636D01*
X171931000Y-63333364D01*
X171886768Y-63555734D01*
X171800003Y-63765203D01*
X171674040Y-63953720D01*
X171513720Y-64114040D01*
X171325203Y-64240003D01*
X171115734Y-64326768D01*
X171004549Y-64348884D01*
X170893365Y-64371000D01*
X170666635Y-64371000D01*
X170555451Y-64348884D01*
X170444266Y-64326768D01*
X170234797Y-64240003D01*
X170046280Y-64114040D01*
X169885960Y-63953720D01*
X169759997Y-63765203D01*
X169673232Y-63555734D01*
X169629000Y-63333364D01*
X169629000Y-63106636D01*
X169673232Y-62884266D01*
X169759997Y-62674797D01*
X169885960Y-62486280D01*
X170046280Y-62325960D01*
X170234797Y-62199997D01*
X170444266Y-62113232D01*
X170555451Y-62091116D01*
X170666635Y-62069000D01*
X170893365Y-62069000D01*
X171004549Y-62091116D01*
X171004549Y-62091116D01*
G37*
G36*
X121004549Y-62091116D02*
G01*
X121115734Y-62113232D01*
X121325203Y-62199997D01*
X121513720Y-62325960D01*
X121674040Y-62486280D01*
X121800003Y-62674797D01*
X121886768Y-62884266D01*
X121931000Y-63106636D01*
X121931000Y-63333364D01*
X121886768Y-63555734D01*
X121800003Y-63765203D01*
X121674040Y-63953720D01*
X121513720Y-64114040D01*
X121325203Y-64240003D01*
X121115734Y-64326768D01*
X121004549Y-64348884D01*
X120893365Y-64371000D01*
X120666635Y-64371000D01*
X120555451Y-64348884D01*
X120444266Y-64326768D01*
X120234797Y-64240003D01*
X120046280Y-64114040D01*
X119885960Y-63953720D01*
X119759997Y-63765203D01*
X119673232Y-63555734D01*
X119629000Y-63333364D01*
X119629000Y-63106636D01*
X119673232Y-62884266D01*
X119759997Y-62674797D01*
X119885960Y-62486280D01*
X120046280Y-62325960D01*
X120234797Y-62199997D01*
X120444266Y-62113232D01*
X120555451Y-62091116D01*
X120666635Y-62069000D01*
X120893365Y-62069000D01*
X121004549Y-62091116D01*
X121004549Y-62091116D01*
G37*
G36*
X136244549Y-62091116D02*
G01*
X136355734Y-62113232D01*
X136565203Y-62199997D01*
X136753720Y-62325960D01*
X136914040Y-62486280D01*
X137040003Y-62674797D01*
X137126768Y-62884266D01*
X137171000Y-63106636D01*
X137171000Y-63333364D01*
X137126768Y-63555734D01*
X137040003Y-63765203D01*
X136914040Y-63953720D01*
X136753720Y-64114040D01*
X136565203Y-64240003D01*
X136355734Y-64326768D01*
X136244549Y-64348884D01*
X136133365Y-64371000D01*
X135906635Y-64371000D01*
X135795451Y-64348884D01*
X135684266Y-64326768D01*
X135474797Y-64240003D01*
X135286280Y-64114040D01*
X135125960Y-63953720D01*
X134999997Y-63765203D01*
X134913232Y-63555734D01*
X134869000Y-63333364D01*
X134869000Y-63106636D01*
X134913232Y-62884266D01*
X134999997Y-62674797D01*
X135125960Y-62486280D01*
X135286280Y-62325960D01*
X135474797Y-62199997D01*
X135684266Y-62113232D01*
X135795451Y-62091116D01*
X135906635Y-62069000D01*
X136133365Y-62069000D01*
X136244549Y-62091116D01*
X136244549Y-62091116D01*
G37*
G36*
X196404549Y-62091116D02*
G01*
X196515734Y-62113232D01*
X196725203Y-62199997D01*
X196913720Y-62325960D01*
X197074040Y-62486280D01*
X197200003Y-62674797D01*
X197286768Y-62884266D01*
X197331000Y-63106636D01*
X197331000Y-63333364D01*
X197286768Y-63555734D01*
X197200003Y-63765203D01*
X197074040Y-63953720D01*
X196913720Y-64114040D01*
X196725203Y-64240003D01*
X196515734Y-64326768D01*
X196404549Y-64348884D01*
X196293365Y-64371000D01*
X196066635Y-64371000D01*
X195955451Y-64348884D01*
X195844266Y-64326768D01*
X195634797Y-64240003D01*
X195446280Y-64114040D01*
X195285960Y-63953720D01*
X195159997Y-63765203D01*
X195073232Y-63555734D01*
X195029000Y-63333364D01*
X195029000Y-63106636D01*
X195073232Y-62884266D01*
X195159997Y-62674797D01*
X195285960Y-62486280D01*
X195446280Y-62325960D01*
X195634797Y-62199997D01*
X195844266Y-62113232D01*
X195955451Y-62091116D01*
X196066635Y-62069000D01*
X196293365Y-62069000D01*
X196404549Y-62091116D01*
X196404549Y-62091116D01*
G37*
G36*
X146404549Y-62091116D02*
G01*
X146515734Y-62113232D01*
X146725203Y-62199997D01*
X146913720Y-62325960D01*
X147074040Y-62486280D01*
X147200003Y-62674797D01*
X147286768Y-62884266D01*
X147331000Y-63106636D01*
X147331000Y-63333364D01*
X147286768Y-63555734D01*
X147200003Y-63765203D01*
X147074040Y-63953720D01*
X146913720Y-64114040D01*
X146725203Y-64240003D01*
X146515734Y-64326768D01*
X146404549Y-64348884D01*
X146293365Y-64371000D01*
X146066635Y-64371000D01*
X145955451Y-64348884D01*
X145844266Y-64326768D01*
X145634797Y-64240003D01*
X145446280Y-64114040D01*
X145285960Y-63953720D01*
X145159997Y-63765203D01*
X145073232Y-63555734D01*
X145029000Y-63333364D01*
X145029000Y-63106636D01*
X145073232Y-62884266D01*
X145159997Y-62674797D01*
X145285960Y-62486280D01*
X145446280Y-62325960D01*
X145634797Y-62199997D01*
X145844266Y-62113232D01*
X145955451Y-62091116D01*
X146066635Y-62069000D01*
X146293365Y-62069000D01*
X146404549Y-62091116D01*
X146404549Y-62091116D01*
G37*
G36*
X141324549Y-62091116D02*
G01*
X141435734Y-62113232D01*
X141645203Y-62199997D01*
X141833720Y-62325960D01*
X141994040Y-62486280D01*
X142120003Y-62674797D01*
X142206768Y-62884266D01*
X142251000Y-63106636D01*
X142251000Y-63333364D01*
X142206768Y-63555734D01*
X142120003Y-63765203D01*
X141994040Y-63953720D01*
X141833720Y-64114040D01*
X141645203Y-64240003D01*
X141435734Y-64326768D01*
X141324549Y-64348884D01*
X141213365Y-64371000D01*
X140986635Y-64371000D01*
X140875451Y-64348884D01*
X140764266Y-64326768D01*
X140554797Y-64240003D01*
X140366280Y-64114040D01*
X140205960Y-63953720D01*
X140079997Y-63765203D01*
X139993232Y-63555734D01*
X139949000Y-63333364D01*
X139949000Y-63106636D01*
X139993232Y-62884266D01*
X140079997Y-62674797D01*
X140205960Y-62486280D01*
X140366280Y-62325960D01*
X140554797Y-62199997D01*
X140764266Y-62113232D01*
X140875451Y-62091116D01*
X140986635Y-62069000D01*
X141213365Y-62069000D01*
X141324549Y-62091116D01*
X141324549Y-62091116D01*
G37*
G36*
X115906823Y-62381313D02*
G01*
X116067242Y-62429976D01*
X116172579Y-62486280D01*
X116215078Y-62508996D01*
X116344659Y-62615341D01*
X116451004Y-62744922D01*
X116451005Y-62744924D01*
X116530024Y-62892758D01*
X116578687Y-63053177D01*
X116595117Y-63220000D01*
X116578687Y-63386823D01*
X116530024Y-63547242D01*
X116459114Y-63679906D01*
X116451004Y-63695078D01*
X116344659Y-63824659D01*
X116215078Y-63931004D01*
X116215076Y-63931005D01*
X116067242Y-64010024D01*
X115906823Y-64058687D01*
X115781804Y-64071000D01*
X115698196Y-64071000D01*
X115573177Y-64058687D01*
X115412758Y-64010024D01*
X115264924Y-63931005D01*
X115264922Y-63931004D01*
X115135341Y-63824659D01*
X115028996Y-63695078D01*
X115020886Y-63679906D01*
X114949976Y-63547242D01*
X114901313Y-63386823D01*
X114884883Y-63220000D01*
X114901313Y-63053177D01*
X114949976Y-62892758D01*
X115028995Y-62744924D01*
X115028996Y-62744922D01*
X115135341Y-62615341D01*
X115264922Y-62508996D01*
X115307421Y-62486280D01*
X115412758Y-62429976D01*
X115573177Y-62381313D01*
X115698196Y-62369000D01*
X115781804Y-62369000D01*
X115906823Y-62381313D01*
X115906823Y-62381313D01*
G37*
G36*
X165906823Y-62381313D02*
G01*
X166067242Y-62429976D01*
X166172579Y-62486280D01*
X166215078Y-62508996D01*
X166344659Y-62615341D01*
X166451004Y-62744922D01*
X166451005Y-62744924D01*
X166530024Y-62892758D01*
X166578687Y-63053177D01*
X166595117Y-63220000D01*
X166578687Y-63386823D01*
X166530024Y-63547242D01*
X166459114Y-63679906D01*
X166451004Y-63695078D01*
X166344659Y-63824659D01*
X166215078Y-63931004D01*
X166215076Y-63931005D01*
X166067242Y-64010024D01*
X165906823Y-64058687D01*
X165781804Y-64071000D01*
X165698196Y-64071000D01*
X165573177Y-64058687D01*
X165412758Y-64010024D01*
X165264924Y-63931005D01*
X165264922Y-63931004D01*
X165135341Y-63824659D01*
X165028996Y-63695078D01*
X165020886Y-63679906D01*
X164949976Y-63547242D01*
X164901313Y-63386823D01*
X164884883Y-63220000D01*
X164901313Y-63053177D01*
X164949976Y-62892758D01*
X165028995Y-62744924D01*
X165028996Y-62744922D01*
X165135341Y-62615341D01*
X165264922Y-62508996D01*
X165307421Y-62486280D01*
X165412758Y-62429976D01*
X165573177Y-62381313D01*
X165698196Y-62369000D01*
X165781804Y-62369000D01*
X165906823Y-62381313D01*
X165906823Y-62381313D01*
G37*
G36*
X166324468Y-59813565D02*
G01*
X166363138Y-59825296D01*
X166398777Y-59844346D01*
X166430017Y-59869983D01*
X166455654Y-59901223D01*
X166474704Y-59936862D01*
X166486435Y-59975532D01*
X166491000Y-60021888D01*
X166491000Y-60673112D01*
X166486435Y-60719468D01*
X166474704Y-60758138D01*
X166455654Y-60793777D01*
X166430017Y-60825017D01*
X166398777Y-60850654D01*
X166363138Y-60869704D01*
X166324468Y-60881435D01*
X166278112Y-60886000D01*
X165201888Y-60886000D01*
X165155532Y-60881435D01*
X165116862Y-60869704D01*
X165081223Y-60850654D01*
X165049983Y-60825017D01*
X165024346Y-60793777D01*
X165005296Y-60758138D01*
X164993565Y-60719468D01*
X164989000Y-60673112D01*
X164989000Y-60021888D01*
X164993565Y-59975532D01*
X165005296Y-59936862D01*
X165024346Y-59901223D01*
X165049983Y-59869983D01*
X165081223Y-59844346D01*
X165116862Y-59825296D01*
X165155532Y-59813565D01*
X165201888Y-59809000D01*
X166278112Y-59809000D01*
X166324468Y-59813565D01*
X166324468Y-59813565D01*
G37*
G36*
X116324468Y-59813565D02*
G01*
X116363138Y-59825296D01*
X116398777Y-59844346D01*
X116430017Y-59869983D01*
X116455654Y-59901223D01*
X116474704Y-59936862D01*
X116486435Y-59975532D01*
X116491000Y-60021888D01*
X116491000Y-60673112D01*
X116486435Y-60719468D01*
X116474704Y-60758138D01*
X116455654Y-60793777D01*
X116430017Y-60825017D01*
X116398777Y-60850654D01*
X116363138Y-60869704D01*
X116324468Y-60881435D01*
X116278112Y-60886000D01*
X115201888Y-60886000D01*
X115155532Y-60881435D01*
X115116862Y-60869704D01*
X115081223Y-60850654D01*
X115049983Y-60825017D01*
X115024346Y-60793777D01*
X115005296Y-60758138D01*
X114993565Y-60719468D01*
X114989000Y-60673112D01*
X114989000Y-60021888D01*
X114993565Y-59975532D01*
X115005296Y-59936862D01*
X115024346Y-59901223D01*
X115049983Y-59869983D01*
X115081223Y-59844346D01*
X115116862Y-59825296D01*
X115155532Y-59813565D01*
X115201888Y-59809000D01*
X116278112Y-59809000D01*
X116324468Y-59813565D01*
X116324468Y-59813565D01*
G37*
G36*
X161517199Y-58209954D02*
G01*
X161529450Y-58210556D01*
X161547869Y-58210556D01*
X161570149Y-58212750D01*
X161654233Y-58229476D01*
X161675660Y-58235976D01*
X161754858Y-58268780D01*
X161760303Y-58271691D01*
X161760309Y-58271693D01*
X161769169Y-58276429D01*
X161769173Y-58276432D01*
X161774614Y-58279340D01*
X161845899Y-58326971D01*
X161863204Y-58341172D01*
X161923828Y-58401796D01*
X161938029Y-58419101D01*
X161985660Y-58490386D01*
X161988568Y-58495827D01*
X161988571Y-58495831D01*
X161993307Y-58504691D01*
X161993309Y-58504697D01*
X161996220Y-58510142D01*
X162029024Y-58589340D01*
X162035524Y-58610767D01*
X162052250Y-58694851D01*
X162054444Y-58717131D01*
X162054444Y-58735550D01*
X162055046Y-58747801D01*
X162056852Y-58766139D01*
X162056852Y-59253860D01*
X162055263Y-59269999D01*
X162052348Y-59279608D01*
X162047610Y-59288472D01*
X162041237Y-59296237D01*
X162028794Y-59306448D01*
X162018425Y-59313378D01*
X162001098Y-59330705D01*
X161987485Y-59351080D01*
X161978109Y-59373720D01*
X161973329Y-59397753D01*
X161973330Y-59422257D01*
X161978112Y-59446290D01*
X161987490Y-59468929D01*
X162001105Y-59489302D01*
X162018432Y-59506629D01*
X162028802Y-59513558D01*
X162041237Y-59523763D01*
X162047610Y-59531528D01*
X162052348Y-59540392D01*
X162055263Y-59550001D01*
X162056852Y-59566140D01*
X162056852Y-60053862D01*
X162055046Y-60072199D01*
X162054444Y-60084450D01*
X162054444Y-60102869D01*
X162052250Y-60125149D01*
X162035524Y-60209233D01*
X162029024Y-60230660D01*
X161996220Y-60309858D01*
X161993309Y-60315303D01*
X161993307Y-60315309D01*
X161988571Y-60324169D01*
X161988568Y-60324173D01*
X161985660Y-60329614D01*
X161938029Y-60400899D01*
X161923828Y-60418204D01*
X161863204Y-60478828D01*
X161845899Y-60493029D01*
X161774614Y-60540660D01*
X161769173Y-60543568D01*
X161769169Y-60543571D01*
X161760309Y-60548307D01*
X161760303Y-60548309D01*
X161754858Y-60551220D01*
X161675660Y-60584024D01*
X161654233Y-60590524D01*
X161570149Y-60607250D01*
X161547869Y-60609444D01*
X161529450Y-60609444D01*
X161517199Y-60610046D01*
X161498862Y-60611852D01*
X161011138Y-60611852D01*
X160992801Y-60610046D01*
X160980550Y-60609444D01*
X160962131Y-60609444D01*
X160939851Y-60607250D01*
X160855767Y-60590524D01*
X160834340Y-60584024D01*
X160755142Y-60551220D01*
X160749697Y-60548309D01*
X160749691Y-60548307D01*
X160740831Y-60543571D01*
X160740827Y-60543568D01*
X160735386Y-60540660D01*
X160664101Y-60493029D01*
X160646796Y-60478828D01*
X160586172Y-60418204D01*
X160571971Y-60400899D01*
X160524340Y-60329614D01*
X160521432Y-60324173D01*
X160521429Y-60324169D01*
X160516693Y-60315309D01*
X160516691Y-60315303D01*
X160513780Y-60309858D01*
X160480976Y-60230660D01*
X160474476Y-60209233D01*
X160457750Y-60125149D01*
X160455556Y-60102869D01*
X160455556Y-60084450D01*
X160454954Y-60072199D01*
X160453148Y-60053862D01*
X160453148Y-59566140D01*
X160454737Y-59550001D01*
X160457652Y-59540392D01*
X160462390Y-59531528D01*
X160468763Y-59523763D01*
X160481206Y-59513552D01*
X160491575Y-59506622D01*
X160508902Y-59489295D01*
X160522515Y-59468920D01*
X160531891Y-59446280D01*
X160536671Y-59422247D01*
X160536670Y-59397743D01*
X160531888Y-59373710D01*
X160522510Y-59351071D01*
X160508895Y-59330698D01*
X160491568Y-59313371D01*
X160481198Y-59306442D01*
X160468763Y-59296237D01*
X160462390Y-59288472D01*
X160457652Y-59279608D01*
X160454737Y-59269999D01*
X160453148Y-59253860D01*
X160453148Y-58766139D01*
X160454954Y-58747801D01*
X160455556Y-58735550D01*
X160455556Y-58717131D01*
X160457750Y-58694851D01*
X160474476Y-58610767D01*
X160480976Y-58589340D01*
X160513780Y-58510142D01*
X160516691Y-58504697D01*
X160516693Y-58504691D01*
X160521429Y-58495831D01*
X160521432Y-58495827D01*
X160524340Y-58490386D01*
X160571971Y-58419101D01*
X160586172Y-58401796D01*
X160646796Y-58341172D01*
X160664101Y-58326971D01*
X160735386Y-58279340D01*
X160740827Y-58276432D01*
X160740831Y-58276429D01*
X160749691Y-58271693D01*
X160749697Y-58271691D01*
X160755142Y-58268780D01*
X160834340Y-58235976D01*
X160855767Y-58229476D01*
X160939851Y-58212750D01*
X160962131Y-58210556D01*
X160980550Y-58210556D01*
X160992801Y-58209954D01*
X161011139Y-58208148D01*
X161498861Y-58208148D01*
X161517199Y-58209954D01*
X161517199Y-58209954D01*
G37*
G36*
X111517199Y-58209954D02*
G01*
X111529450Y-58210556D01*
X111547869Y-58210556D01*
X111570149Y-58212750D01*
X111654233Y-58229476D01*
X111675660Y-58235976D01*
X111754858Y-58268780D01*
X111760303Y-58271691D01*
X111760309Y-58271693D01*
X111769169Y-58276429D01*
X111769173Y-58276432D01*
X111774614Y-58279340D01*
X111845899Y-58326971D01*
X111863204Y-58341172D01*
X111923828Y-58401796D01*
X111938029Y-58419101D01*
X111985660Y-58490386D01*
X111988568Y-58495827D01*
X111988571Y-58495831D01*
X111993307Y-58504691D01*
X111993309Y-58504697D01*
X111996220Y-58510142D01*
X112029024Y-58589340D01*
X112035524Y-58610767D01*
X112052250Y-58694851D01*
X112054444Y-58717131D01*
X112054444Y-58735550D01*
X112055046Y-58747801D01*
X112056852Y-58766139D01*
X112056852Y-59253860D01*
X112055263Y-59269999D01*
X112052348Y-59279608D01*
X112047610Y-59288472D01*
X112041237Y-59296237D01*
X112028794Y-59306448D01*
X112018425Y-59313378D01*
X112001098Y-59330705D01*
X111987485Y-59351080D01*
X111978109Y-59373720D01*
X111973329Y-59397753D01*
X111973330Y-59422257D01*
X111978112Y-59446290D01*
X111987490Y-59468929D01*
X112001105Y-59489302D01*
X112018432Y-59506629D01*
X112028802Y-59513558D01*
X112041237Y-59523763D01*
X112047610Y-59531528D01*
X112052348Y-59540392D01*
X112055263Y-59550001D01*
X112056852Y-59566140D01*
X112056852Y-60053862D01*
X112055046Y-60072199D01*
X112054444Y-60084450D01*
X112054444Y-60102869D01*
X112052250Y-60125149D01*
X112035524Y-60209233D01*
X112029024Y-60230660D01*
X111996220Y-60309858D01*
X111993309Y-60315303D01*
X111993307Y-60315309D01*
X111988571Y-60324169D01*
X111988568Y-60324173D01*
X111985660Y-60329614D01*
X111938029Y-60400899D01*
X111923828Y-60418204D01*
X111863204Y-60478828D01*
X111845899Y-60493029D01*
X111774614Y-60540660D01*
X111769173Y-60543568D01*
X111769169Y-60543571D01*
X111760309Y-60548307D01*
X111760303Y-60548309D01*
X111754858Y-60551220D01*
X111675660Y-60584024D01*
X111654233Y-60590524D01*
X111570149Y-60607250D01*
X111547869Y-60609444D01*
X111529450Y-60609444D01*
X111517199Y-60610046D01*
X111498862Y-60611852D01*
X111011138Y-60611852D01*
X110992801Y-60610046D01*
X110980550Y-60609444D01*
X110962131Y-60609444D01*
X110939851Y-60607250D01*
X110855767Y-60590524D01*
X110834340Y-60584024D01*
X110755142Y-60551220D01*
X110749697Y-60548309D01*
X110749691Y-60548307D01*
X110740831Y-60543571D01*
X110740827Y-60543568D01*
X110735386Y-60540660D01*
X110664101Y-60493029D01*
X110646796Y-60478828D01*
X110586172Y-60418204D01*
X110571971Y-60400899D01*
X110524340Y-60329614D01*
X110521432Y-60324173D01*
X110521429Y-60324169D01*
X110516693Y-60315309D01*
X110516691Y-60315303D01*
X110513780Y-60309858D01*
X110480976Y-60230660D01*
X110474476Y-60209233D01*
X110457750Y-60125149D01*
X110455556Y-60102869D01*
X110455556Y-60084450D01*
X110454954Y-60072199D01*
X110453148Y-60053862D01*
X110453148Y-59566140D01*
X110454737Y-59550001D01*
X110457652Y-59540392D01*
X110462390Y-59531528D01*
X110468763Y-59523763D01*
X110481206Y-59513552D01*
X110491575Y-59506622D01*
X110508902Y-59489295D01*
X110522515Y-59468920D01*
X110531891Y-59446280D01*
X110536671Y-59422247D01*
X110536670Y-59397743D01*
X110531888Y-59373710D01*
X110522510Y-59351071D01*
X110508895Y-59330698D01*
X110491568Y-59313371D01*
X110481198Y-59306442D01*
X110468763Y-59296237D01*
X110462390Y-59288472D01*
X110457652Y-59279608D01*
X110454737Y-59269999D01*
X110453148Y-59253860D01*
X110453148Y-58766139D01*
X110454954Y-58747801D01*
X110455556Y-58735550D01*
X110455556Y-58717131D01*
X110457750Y-58694851D01*
X110474476Y-58610767D01*
X110480976Y-58589340D01*
X110513780Y-58510142D01*
X110516691Y-58504697D01*
X110516693Y-58504691D01*
X110521429Y-58495831D01*
X110521432Y-58495827D01*
X110524340Y-58490386D01*
X110571971Y-58419101D01*
X110586172Y-58401796D01*
X110646796Y-58341172D01*
X110664101Y-58326971D01*
X110735386Y-58279340D01*
X110740827Y-58276432D01*
X110740831Y-58276429D01*
X110749691Y-58271693D01*
X110749697Y-58271691D01*
X110755142Y-58268780D01*
X110834340Y-58235976D01*
X110855767Y-58229476D01*
X110939851Y-58212750D01*
X110962131Y-58210556D01*
X110980550Y-58210556D01*
X110992801Y-58209954D01*
X111011139Y-58208148D01*
X111498861Y-58208148D01*
X111517199Y-58209954D01*
X111517199Y-58209954D01*
G37*
G36*
X120980986Y-58276429D02*
G01*
X121115734Y-58303232D01*
X121325203Y-58389997D01*
X121513720Y-58515960D01*
X121674040Y-58676280D01*
X121800003Y-58864797D01*
X121845922Y-58975654D01*
X121886768Y-59074267D01*
X121931000Y-59296635D01*
X121931000Y-59523365D01*
X121923713Y-59560000D01*
X121886768Y-59745734D01*
X121800003Y-59955203D01*
X121674040Y-60143720D01*
X121513720Y-60304040D01*
X121325203Y-60430003D01*
X121115734Y-60516768D01*
X121004549Y-60538884D01*
X120893365Y-60561000D01*
X120666635Y-60561000D01*
X120555451Y-60538884D01*
X120444266Y-60516768D01*
X120234797Y-60430003D01*
X120046280Y-60304040D01*
X119885960Y-60143720D01*
X119759997Y-59955203D01*
X119673232Y-59745734D01*
X119636287Y-59560000D01*
X119629000Y-59523365D01*
X119629000Y-59296635D01*
X119673232Y-59074267D01*
X119714079Y-58975654D01*
X119759997Y-58864797D01*
X119885960Y-58676280D01*
X120046280Y-58515960D01*
X120234797Y-58389997D01*
X120444266Y-58303232D01*
X120579014Y-58276429D01*
X120666635Y-58259000D01*
X120893365Y-58259000D01*
X120980986Y-58276429D01*
X120980986Y-58276429D01*
G37*
G36*
X170980986Y-58276429D02*
G01*
X171115734Y-58303232D01*
X171325203Y-58389997D01*
X171513720Y-58515960D01*
X171674040Y-58676280D01*
X171800003Y-58864797D01*
X171845922Y-58975654D01*
X171886768Y-59074267D01*
X171931000Y-59296635D01*
X171931000Y-59523365D01*
X171923713Y-59560000D01*
X171886768Y-59745734D01*
X171800003Y-59955203D01*
X171674040Y-60143720D01*
X171513720Y-60304040D01*
X171325203Y-60430003D01*
X171115734Y-60516768D01*
X171004549Y-60538884D01*
X170893365Y-60561000D01*
X170666635Y-60561000D01*
X170555451Y-60538884D01*
X170444266Y-60516768D01*
X170234797Y-60430003D01*
X170046280Y-60304040D01*
X169885960Y-60143720D01*
X169759997Y-59955203D01*
X169673232Y-59745734D01*
X169636287Y-59560000D01*
X169629000Y-59523365D01*
X169629000Y-59296635D01*
X169673232Y-59074267D01*
X169714079Y-58975654D01*
X169759997Y-58864797D01*
X169885960Y-58676280D01*
X170046280Y-58515960D01*
X170234797Y-58389997D01*
X170444266Y-58303232D01*
X170579014Y-58276429D01*
X170666635Y-58259000D01*
X170893365Y-58259000D01*
X170980986Y-58276429D01*
X170980986Y-58276429D01*
G37*
G36*
X166324468Y-57938565D02*
G01*
X166363138Y-57950296D01*
X166398777Y-57969346D01*
X166430017Y-57994983D01*
X166455654Y-58026223D01*
X166474704Y-58061862D01*
X166486435Y-58100532D01*
X166491000Y-58146888D01*
X166491000Y-58798112D01*
X166486435Y-58844468D01*
X166474704Y-58883138D01*
X166455654Y-58918777D01*
X166430017Y-58950017D01*
X166398777Y-58975654D01*
X166363138Y-58994704D01*
X166324468Y-59006435D01*
X166278112Y-59011000D01*
X165201888Y-59011000D01*
X165155532Y-59006435D01*
X165116862Y-58994704D01*
X165081223Y-58975654D01*
X165049983Y-58950017D01*
X165024346Y-58918777D01*
X165005296Y-58883138D01*
X164993565Y-58844468D01*
X164989000Y-58798112D01*
X164989000Y-58146888D01*
X164993565Y-58100532D01*
X165005296Y-58061862D01*
X165024346Y-58026223D01*
X165049983Y-57994983D01*
X165081223Y-57969346D01*
X165116862Y-57950296D01*
X165155532Y-57938565D01*
X165201888Y-57934000D01*
X166278112Y-57934000D01*
X166324468Y-57938565D01*
X166324468Y-57938565D01*
G37*
G36*
X116324468Y-57938565D02*
G01*
X116363138Y-57950296D01*
X116398777Y-57969346D01*
X116430017Y-57994983D01*
X116455654Y-58026223D01*
X116474704Y-58061862D01*
X116486435Y-58100532D01*
X116491000Y-58146888D01*
X116491000Y-58798112D01*
X116486435Y-58844468D01*
X116474704Y-58883138D01*
X116455654Y-58918777D01*
X116430017Y-58950017D01*
X116398777Y-58975654D01*
X116363138Y-58994704D01*
X116324468Y-59006435D01*
X116278112Y-59011000D01*
X115201888Y-59011000D01*
X115155532Y-59006435D01*
X115116862Y-58994704D01*
X115081223Y-58975654D01*
X115049983Y-58950017D01*
X115024346Y-58918777D01*
X115005296Y-58883138D01*
X114993565Y-58844468D01*
X114989000Y-58798112D01*
X114989000Y-58146888D01*
X114993565Y-58100532D01*
X115005296Y-58061862D01*
X115024346Y-58026223D01*
X115049983Y-57994983D01*
X115081223Y-57969346D01*
X115116862Y-57950296D01*
X115155532Y-57938565D01*
X115201888Y-57934000D01*
X116278112Y-57934000D01*
X116324468Y-57938565D01*
X116324468Y-57938565D01*
G37*
G36*
X121931000Y-56751000D02*
G01*
X119629000Y-56751000D01*
X119629000Y-54449000D01*
X121931000Y-54449000D01*
X121931000Y-56751000D01*
X121931000Y-56751000D01*
G37*
G36*
X191324549Y-54471116D02*
G01*
X191435734Y-54493232D01*
X191645203Y-54579997D01*
X191833720Y-54705960D01*
X191994040Y-54866280D01*
X192120003Y-55054797D01*
X192120004Y-55054799D01*
X192206768Y-55264267D01*
X192251000Y-55486635D01*
X192251000Y-55713365D01*
X192206768Y-55935733D01*
X192121131Y-56142481D01*
X192120003Y-56145203D01*
X191994040Y-56333720D01*
X191833720Y-56494040D01*
X191645203Y-56620003D01*
X191435734Y-56706768D01*
X191324549Y-56728884D01*
X191213365Y-56751000D01*
X190986635Y-56751000D01*
X190875451Y-56728884D01*
X190764266Y-56706768D01*
X190554797Y-56620003D01*
X190366280Y-56494040D01*
X190205960Y-56333720D01*
X190079997Y-56145203D01*
X190078870Y-56142481D01*
X189993232Y-55935733D01*
X189949000Y-55713365D01*
X189949000Y-55486635D01*
X189993232Y-55264267D01*
X190079996Y-55054799D01*
X190079997Y-55054797D01*
X190205960Y-54866280D01*
X190366280Y-54705960D01*
X190554797Y-54579997D01*
X190764266Y-54493232D01*
X190875451Y-54471116D01*
X190986635Y-54449000D01*
X191213365Y-54449000D01*
X191324549Y-54471116D01*
X191324549Y-54471116D01*
G37*
G36*
X136244549Y-54471116D02*
G01*
X136355734Y-54493232D01*
X136565203Y-54579997D01*
X136753720Y-54705960D01*
X136914040Y-54866280D01*
X137040003Y-55054797D01*
X137040004Y-55054799D01*
X137126768Y-55264267D01*
X137171000Y-55486635D01*
X137171000Y-55713365D01*
X137126768Y-55935733D01*
X137041131Y-56142481D01*
X137040003Y-56145203D01*
X136914040Y-56333720D01*
X136753720Y-56494040D01*
X136565203Y-56620003D01*
X136355734Y-56706768D01*
X136244549Y-56728884D01*
X136133365Y-56751000D01*
X135906635Y-56751000D01*
X135795451Y-56728884D01*
X135684266Y-56706768D01*
X135474797Y-56620003D01*
X135286280Y-56494040D01*
X135125960Y-56333720D01*
X134999997Y-56145203D01*
X134998870Y-56142481D01*
X134913232Y-55935733D01*
X134869000Y-55713365D01*
X134869000Y-55486635D01*
X134913232Y-55264267D01*
X134999996Y-55054799D01*
X134999997Y-55054797D01*
X135125960Y-54866280D01*
X135286280Y-54705960D01*
X135474797Y-54579997D01*
X135684266Y-54493232D01*
X135795451Y-54471116D01*
X135906635Y-54449000D01*
X136133365Y-54449000D01*
X136244549Y-54471116D01*
X136244549Y-54471116D01*
G37*
G36*
X141324549Y-54471116D02*
G01*
X141435734Y-54493232D01*
X141645203Y-54579997D01*
X141833720Y-54705960D01*
X141994040Y-54866280D01*
X142120003Y-55054797D01*
X142120004Y-55054799D01*
X142206768Y-55264267D01*
X142251000Y-55486635D01*
X142251000Y-55713365D01*
X142206768Y-55935733D01*
X142121131Y-56142481D01*
X142120003Y-56145203D01*
X141994040Y-56333720D01*
X141833720Y-56494040D01*
X141645203Y-56620003D01*
X141435734Y-56706768D01*
X141324549Y-56728884D01*
X141213365Y-56751000D01*
X140986635Y-56751000D01*
X140875451Y-56728884D01*
X140764266Y-56706768D01*
X140554797Y-56620003D01*
X140366280Y-56494040D01*
X140205960Y-56333720D01*
X140079997Y-56145203D01*
X140078870Y-56142481D01*
X139993232Y-55935733D01*
X139949000Y-55713365D01*
X139949000Y-55486635D01*
X139993232Y-55264267D01*
X140079996Y-55054799D01*
X140079997Y-55054797D01*
X140205960Y-54866280D01*
X140366280Y-54705960D01*
X140554797Y-54579997D01*
X140764266Y-54493232D01*
X140875451Y-54471116D01*
X140986635Y-54449000D01*
X141213365Y-54449000D01*
X141324549Y-54471116D01*
X141324549Y-54471116D01*
G37*
G36*
X146404549Y-54471116D02*
G01*
X146515734Y-54493232D01*
X146725203Y-54579997D01*
X146913720Y-54705960D01*
X147074040Y-54866280D01*
X147200003Y-55054797D01*
X147200004Y-55054799D01*
X147286768Y-55264267D01*
X147331000Y-55486635D01*
X147331000Y-55713365D01*
X147286768Y-55935733D01*
X147201131Y-56142481D01*
X147200003Y-56145203D01*
X147074040Y-56333720D01*
X146913720Y-56494040D01*
X146725203Y-56620003D01*
X146515734Y-56706768D01*
X146404549Y-56728884D01*
X146293365Y-56751000D01*
X146066635Y-56751000D01*
X145955451Y-56728884D01*
X145844266Y-56706768D01*
X145634797Y-56620003D01*
X145446280Y-56494040D01*
X145285960Y-56333720D01*
X145159997Y-56145203D01*
X145158870Y-56142481D01*
X145073232Y-55935733D01*
X145029000Y-55713365D01*
X145029000Y-55486635D01*
X145073232Y-55264267D01*
X145159996Y-55054799D01*
X145159997Y-55054797D01*
X145285960Y-54866280D01*
X145446280Y-54705960D01*
X145634797Y-54579997D01*
X145844266Y-54493232D01*
X145955451Y-54471116D01*
X146066635Y-54449000D01*
X146293365Y-54449000D01*
X146404549Y-54471116D01*
X146404549Y-54471116D01*
G37*
G36*
X171931000Y-56751000D02*
G01*
X169629000Y-56751000D01*
X169629000Y-54449000D01*
X171931000Y-54449000D01*
X171931000Y-56751000D01*
X171931000Y-56751000D01*
G37*
G36*
X186244549Y-54471116D02*
G01*
X186355734Y-54493232D01*
X186565203Y-54579997D01*
X186753720Y-54705960D01*
X186914040Y-54866280D01*
X187040003Y-55054797D01*
X187040004Y-55054799D01*
X187126768Y-55264267D01*
X187171000Y-55486635D01*
X187171000Y-55713365D01*
X187126768Y-55935733D01*
X187041131Y-56142481D01*
X187040003Y-56145203D01*
X186914040Y-56333720D01*
X186753720Y-56494040D01*
X186565203Y-56620003D01*
X186355734Y-56706768D01*
X186244549Y-56728884D01*
X186133365Y-56751000D01*
X185906635Y-56751000D01*
X185795451Y-56728884D01*
X185684266Y-56706768D01*
X185474797Y-56620003D01*
X185286280Y-56494040D01*
X185125960Y-56333720D01*
X184999997Y-56145203D01*
X184998870Y-56142481D01*
X184913232Y-55935733D01*
X184869000Y-55713365D01*
X184869000Y-55486635D01*
X184913232Y-55264267D01*
X184999996Y-55054799D01*
X184999997Y-55054797D01*
X185125960Y-54866280D01*
X185286280Y-54705960D01*
X185474797Y-54579997D01*
X185684266Y-54493232D01*
X185795451Y-54471116D01*
X185906635Y-54449000D01*
X186133365Y-54449000D01*
X186244549Y-54471116D01*
X186244549Y-54471116D01*
G37*
G36*
X196404549Y-54471116D02*
G01*
X196515734Y-54493232D01*
X196725203Y-54579997D01*
X196913720Y-54705960D01*
X197074040Y-54866280D01*
X197200003Y-55054797D01*
X197200004Y-55054799D01*
X197286768Y-55264267D01*
X197331000Y-55486635D01*
X197331000Y-55713365D01*
X197286768Y-55935733D01*
X197201131Y-56142481D01*
X197200003Y-56145203D01*
X197074040Y-56333720D01*
X196913720Y-56494040D01*
X196725203Y-56620003D01*
X196515734Y-56706768D01*
X196404549Y-56728884D01*
X196293365Y-56751000D01*
X196066635Y-56751000D01*
X195955451Y-56728884D01*
X195844266Y-56706768D01*
X195634797Y-56620003D01*
X195446280Y-56494040D01*
X195285960Y-56333720D01*
X195159997Y-56145203D01*
X195158870Y-56142481D01*
X195073232Y-55935733D01*
X195029000Y-55713365D01*
X195029000Y-55486635D01*
X195073232Y-55264267D01*
X195159996Y-55054799D01*
X195159997Y-55054797D01*
X195285960Y-54866280D01*
X195446280Y-54705960D01*
X195634797Y-54579997D01*
X195844266Y-54493232D01*
X195955451Y-54471116D01*
X196066635Y-54449000D01*
X196293365Y-54449000D01*
X196404549Y-54471116D01*
X196404549Y-54471116D01*
G37*
G36*
X165988228Y-54781703D02*
G01*
X166143100Y-54845853D01*
X166282481Y-54938985D01*
X166401015Y-55057519D01*
X166494147Y-55196900D01*
X166558297Y-55351772D01*
X166591000Y-55516184D01*
X166591000Y-55683816D01*
X166558297Y-55848228D01*
X166494147Y-56003100D01*
X166401015Y-56142481D01*
X166282481Y-56261015D01*
X166143100Y-56354147D01*
X165988228Y-56418297D01*
X165823816Y-56451000D01*
X165656184Y-56451000D01*
X165491772Y-56418297D01*
X165336900Y-56354147D01*
X165197519Y-56261015D01*
X165078985Y-56142481D01*
X164985853Y-56003100D01*
X164921703Y-55848228D01*
X164889000Y-55683816D01*
X164889000Y-55516184D01*
X164921703Y-55351772D01*
X164985853Y-55196900D01*
X165078985Y-55057519D01*
X165197519Y-54938985D01*
X165336900Y-54845853D01*
X165491772Y-54781703D01*
X165656184Y-54749000D01*
X165823816Y-54749000D01*
X165988228Y-54781703D01*
X165988228Y-54781703D01*
G37*
G36*
X115988228Y-54781703D02*
G01*
X116143100Y-54845853D01*
X116282481Y-54938985D01*
X116401015Y-55057519D01*
X116494147Y-55196900D01*
X116558297Y-55351772D01*
X116591000Y-55516184D01*
X116591000Y-55683816D01*
X116558297Y-55848228D01*
X116494147Y-56003100D01*
X116401015Y-56142481D01*
X116282481Y-56261015D01*
X116143100Y-56354147D01*
X115988228Y-56418297D01*
X115823816Y-56451000D01*
X115656184Y-56451000D01*
X115491772Y-56418297D01*
X115336900Y-56354147D01*
X115197519Y-56261015D01*
X115078985Y-56142481D01*
X114985853Y-56003100D01*
X114921703Y-55848228D01*
X114889000Y-55683816D01*
X114889000Y-55516184D01*
X114921703Y-55351772D01*
X114985853Y-55196900D01*
X115078985Y-55057519D01*
X115197519Y-54938985D01*
X115336900Y-54845853D01*
X115491772Y-54781703D01*
X115656184Y-54749000D01*
X115823816Y-54749000D01*
X115988228Y-54781703D01*
X115988228Y-54781703D01*
G37*
G36*
X181221000Y-50166000D02*
G01*
X178119000Y-50166000D01*
X178119000Y-47064000D01*
X181221000Y-47064000D01*
X181221000Y-50166000D01*
X181221000Y-50166000D01*
G37*
G36*
X131221000Y-50166000D02*
G01*
X128119000Y-50166000D01*
X128119000Y-47064000D01*
X131221000Y-47064000D01*
X131221000Y-50166000D01*
X131221000Y-50166000D01*
G37*
G36*
X124892585Y-47093802D02*
G01*
X125042410Y-47123604D01*
X125324674Y-47240521D01*
X125578705Y-47410259D01*
X125794741Y-47626295D01*
X125964479Y-47880326D01*
X126081396Y-48162590D01*
X126141000Y-48462240D01*
X126141000Y-48767760D01*
X126081396Y-49067410D01*
X125964479Y-49349674D01*
X125794741Y-49603705D01*
X125578705Y-49819741D01*
X125324674Y-49989479D01*
X125042410Y-50106396D01*
X124892585Y-50136198D01*
X124742761Y-50166000D01*
X124437239Y-50166000D01*
X124287415Y-50136198D01*
X124137590Y-50106396D01*
X123855326Y-49989479D01*
X123601295Y-49819741D01*
X123385259Y-49603705D01*
X123215521Y-49349674D01*
X123098604Y-49067410D01*
X123039000Y-48767760D01*
X123039000Y-48462240D01*
X123098604Y-48162590D01*
X123215521Y-47880326D01*
X123385259Y-47626295D01*
X123601295Y-47410259D01*
X123855326Y-47240521D01*
X124137590Y-47123604D01*
X124287415Y-47093802D01*
X124437239Y-47064000D01*
X124742761Y-47064000D01*
X124892585Y-47093802D01*
X124892585Y-47093802D01*
G37*
G36*
X119812585Y-47093802D02*
G01*
X119962410Y-47123604D01*
X120244674Y-47240521D01*
X120498705Y-47410259D01*
X120714741Y-47626295D01*
X120884479Y-47880326D01*
X121001396Y-48162590D01*
X121061000Y-48462240D01*
X121061000Y-48767760D01*
X121001396Y-49067410D01*
X120884479Y-49349674D01*
X120714741Y-49603705D01*
X120498705Y-49819741D01*
X120244674Y-49989479D01*
X119962410Y-50106396D01*
X119812585Y-50136198D01*
X119662761Y-50166000D01*
X119357239Y-50166000D01*
X119207415Y-50136198D01*
X119057590Y-50106396D01*
X118775326Y-49989479D01*
X118521295Y-49819741D01*
X118305259Y-49603705D01*
X118135521Y-49349674D01*
X118018604Y-49067410D01*
X117959000Y-48767760D01*
X117959000Y-48462240D01*
X118018604Y-48162590D01*
X118135521Y-47880326D01*
X118305259Y-47626295D01*
X118521295Y-47410259D01*
X118775326Y-47240521D01*
X119057590Y-47123604D01*
X119207415Y-47093802D01*
X119357239Y-47064000D01*
X119662761Y-47064000D01*
X119812585Y-47093802D01*
X119812585Y-47093802D01*
G37*
G36*
X174892585Y-47093802D02*
G01*
X175042410Y-47123604D01*
X175324674Y-47240521D01*
X175578705Y-47410259D01*
X175794741Y-47626295D01*
X175964479Y-47880326D01*
X176081396Y-48162590D01*
X176141000Y-48462240D01*
X176141000Y-48767760D01*
X176081396Y-49067410D01*
X175964479Y-49349674D01*
X175794741Y-49603705D01*
X175578705Y-49819741D01*
X175324674Y-49989479D01*
X175042410Y-50106396D01*
X174892585Y-50136198D01*
X174742761Y-50166000D01*
X174437239Y-50166000D01*
X174287415Y-50136198D01*
X174137590Y-50106396D01*
X173855326Y-49989479D01*
X173601295Y-49819741D01*
X173385259Y-49603705D01*
X173215521Y-49349674D01*
X173098604Y-49067410D01*
X173039000Y-48767760D01*
X173039000Y-48462240D01*
X173098604Y-48162590D01*
X173215521Y-47880326D01*
X173385259Y-47626295D01*
X173601295Y-47410259D01*
X173855326Y-47240521D01*
X174137590Y-47123604D01*
X174287415Y-47093802D01*
X174437239Y-47064000D01*
X174742761Y-47064000D01*
X174892585Y-47093802D01*
X174892585Y-47093802D01*
G37*
G36*
X169812585Y-47093802D02*
G01*
X169962410Y-47123604D01*
X170244674Y-47240521D01*
X170498705Y-47410259D01*
X170714741Y-47626295D01*
X170884479Y-47880326D01*
X171001396Y-48162590D01*
X171061000Y-48462240D01*
X171061000Y-48767760D01*
X171001396Y-49067410D01*
X170884479Y-49349674D01*
X170714741Y-49603705D01*
X170498705Y-49819741D01*
X170244674Y-49989479D01*
X169962410Y-50106396D01*
X169812585Y-50136198D01*
X169662761Y-50166000D01*
X169357239Y-50166000D01*
X169207415Y-50136198D01*
X169057590Y-50106396D01*
X168775326Y-49989479D01*
X168521295Y-49819741D01*
X168305259Y-49603705D01*
X168135521Y-49349674D01*
X168018604Y-49067410D01*
X167959000Y-48767760D01*
X167959000Y-48462240D01*
X168018604Y-48162590D01*
X168135521Y-47880326D01*
X168305259Y-47626295D01*
X168521295Y-47410259D01*
X168775326Y-47240521D01*
X169057590Y-47123604D01*
X169207415Y-47093802D01*
X169357239Y-47064000D01*
X169662761Y-47064000D01*
X169812585Y-47093802D01*
X169812585Y-47093802D01*
G37*
G36*
X161012585Y-44888802D02*
G01*
X161162410Y-44918604D01*
X161444674Y-45035521D01*
X161698705Y-45205259D01*
X161914741Y-45421295D01*
X162084479Y-45675326D01*
X162201396Y-45957590D01*
X162261000Y-46257240D01*
X162261000Y-46562760D01*
X162201396Y-46862410D01*
X162084479Y-47144674D01*
X161914741Y-47398705D01*
X161698705Y-47614741D01*
X161444674Y-47784479D01*
X161162410Y-47901396D01*
X161012585Y-47931198D01*
X160862761Y-47961000D01*
X160557239Y-47961000D01*
X160407415Y-47931198D01*
X160257590Y-47901396D01*
X159975326Y-47784479D01*
X159721295Y-47614741D01*
X159505259Y-47398705D01*
X159335521Y-47144674D01*
X159218604Y-46862410D01*
X159159000Y-46562760D01*
X159159000Y-46257240D01*
X159218604Y-45957590D01*
X159335521Y-45675326D01*
X159505259Y-45421295D01*
X159721295Y-45205259D01*
X159975326Y-45035521D01*
X160257590Y-44918604D01*
X160407415Y-44888802D01*
X160557239Y-44859000D01*
X160862761Y-44859000D01*
X161012585Y-44888802D01*
X161012585Y-44888802D01*
G37*
G36*
X204012585Y-44888802D02*
G01*
X204162410Y-44918604D01*
X204444674Y-45035521D01*
X204698705Y-45205259D01*
X204914741Y-45421295D01*
X205084479Y-45675326D01*
X205201396Y-45957590D01*
X205261000Y-46257240D01*
X205261000Y-46562760D01*
X205201396Y-46862410D01*
X205084479Y-47144674D01*
X204914741Y-47398705D01*
X204698705Y-47614741D01*
X204444674Y-47784479D01*
X204162410Y-47901396D01*
X204012585Y-47931198D01*
X203862761Y-47961000D01*
X203557239Y-47961000D01*
X203407415Y-47931198D01*
X203257590Y-47901396D01*
X202975326Y-47784479D01*
X202721295Y-47614741D01*
X202505259Y-47398705D01*
X202335521Y-47144674D01*
X202218604Y-46862410D01*
X202159000Y-46562760D01*
X202159000Y-46257240D01*
X202218604Y-45957590D01*
X202335521Y-45675326D01*
X202505259Y-45421295D01*
X202721295Y-45205259D01*
X202975326Y-45035521D01*
X203257590Y-44918604D01*
X203407415Y-44888802D01*
X203557239Y-44859000D01*
X203862761Y-44859000D01*
X204012585Y-44888802D01*
X204012585Y-44888802D01*
G37*
G36*
X111012585Y-44888802D02*
G01*
X111162410Y-44918604D01*
X111444674Y-45035521D01*
X111698705Y-45205259D01*
X111914741Y-45421295D01*
X112084479Y-45675326D01*
X112201396Y-45957590D01*
X112261000Y-46257240D01*
X112261000Y-46562760D01*
X112201396Y-46862410D01*
X112084479Y-47144674D01*
X111914741Y-47398705D01*
X111698705Y-47614741D01*
X111444674Y-47784479D01*
X111162410Y-47901396D01*
X111012585Y-47931198D01*
X110862761Y-47961000D01*
X110557239Y-47961000D01*
X110407415Y-47931198D01*
X110257590Y-47901396D01*
X109975326Y-47784479D01*
X109721295Y-47614741D01*
X109505259Y-47398705D01*
X109335521Y-47144674D01*
X109218604Y-46862410D01*
X109159000Y-46562760D01*
X109159000Y-46257240D01*
X109218604Y-45957590D01*
X109335521Y-45675326D01*
X109505259Y-45421295D01*
X109721295Y-45205259D01*
X109975326Y-45035521D01*
X110257590Y-44918604D01*
X110407415Y-44888802D01*
X110557239Y-44859000D01*
X110862761Y-44859000D01*
X111012585Y-44888802D01*
X111012585Y-44888802D01*
G37*
G36*
X154012585Y-44888802D02*
G01*
X154162410Y-44918604D01*
X154444674Y-45035521D01*
X154698705Y-45205259D01*
X154914741Y-45421295D01*
X155084479Y-45675326D01*
X155201396Y-45957590D01*
X155261000Y-46257240D01*
X155261000Y-46562760D01*
X155201396Y-46862410D01*
X155084479Y-47144674D01*
X154914741Y-47398705D01*
X154698705Y-47614741D01*
X154444674Y-47784479D01*
X154162410Y-47901396D01*
X154012585Y-47931198D01*
X153862761Y-47961000D01*
X153557239Y-47961000D01*
X153407415Y-47931198D01*
X153257590Y-47901396D01*
X152975326Y-47784479D01*
X152721295Y-47614741D01*
X152505259Y-47398705D01*
X152335521Y-47144674D01*
X152218604Y-46862410D01*
X152159000Y-46562760D01*
X152159000Y-46257240D01*
X152218604Y-45957590D01*
X152335521Y-45675326D01*
X152505259Y-45421295D01*
X152721295Y-45205259D01*
X152975326Y-45035521D01*
X153257590Y-44918604D01*
X153407415Y-44888802D01*
X153557239Y-44859000D01*
X153862761Y-44859000D01*
X154012585Y-44888802D01*
X154012585Y-44888802D01*
G37*
M02*
