G04 #@! TF.GenerationSoftware,KiCad,Pcbnew,(5.1.4)-1*
G04 #@! TF.CreationDate,2019-09-09T12:01:27+02:00*
G04 #@! TF.ProjectId,SwitchRelay_panel,53776974-6368-4526-956c-61795f70616e,1.0*
G04 #@! TF.SameCoordinates,Original*
G04 #@! TF.FileFunction,Soldermask,Bot*
G04 #@! TF.FilePolarity,Negative*
%FSLAX46Y46*%
G04 Gerber Fmt 4.6, Leading zero omitted, Abs format (unit mm)*
G04 Created by KiCad (PCBNEW (5.1.4)-1) date 2019-09-09 12:01:27*
%MOMM*%
%LPD*%
G04 APERTURE LIST*
%ADD10C,0.203200*%
%ADD11C,0.254000*%
%ADD12C,0.100000*%
G04 APERTURE END LIST*
D10*
X163571238Y-119676857D02*
X163619619Y-119822000D01*
X163619619Y-120063904D01*
X163571238Y-120160666D01*
X163522857Y-120209047D01*
X163426095Y-120257428D01*
X163329333Y-120257428D01*
X163232571Y-120209047D01*
X163184190Y-120160666D01*
X163135809Y-120063904D01*
X163087428Y-119870380D01*
X163039047Y-119773619D01*
X162990666Y-119725238D01*
X162893904Y-119676857D01*
X162797142Y-119676857D01*
X162700380Y-119725238D01*
X162652000Y-119773619D01*
X162603619Y-119870380D01*
X162603619Y-120112285D01*
X162652000Y-120257428D01*
X163571238Y-121079904D02*
X163619619Y-120983142D01*
X163619619Y-120789619D01*
X163571238Y-120692857D01*
X163474476Y-120644476D01*
X163087428Y-120644476D01*
X162990666Y-120692857D01*
X162942285Y-120789619D01*
X162942285Y-120983142D01*
X162990666Y-121079904D01*
X163087428Y-121128285D01*
X163184190Y-121128285D01*
X163280952Y-120644476D01*
X162942285Y-121563714D02*
X163958285Y-121563714D01*
X162990666Y-121563714D02*
X162942285Y-121660476D01*
X162942285Y-121854000D01*
X162990666Y-121950761D01*
X163039047Y-121999142D01*
X163135809Y-122047523D01*
X163426095Y-122047523D01*
X163522857Y-121999142D01*
X163571238Y-121950761D01*
X163619619Y-121854000D01*
X163619619Y-121660476D01*
X163571238Y-121563714D01*
X162942285Y-122337809D02*
X162942285Y-122724857D01*
X162603619Y-122482952D02*
X163474476Y-122482952D01*
X163571238Y-122531333D01*
X163619619Y-122628095D01*
X163619619Y-122724857D01*
X163619619Y-123063523D02*
X162942285Y-123063523D01*
X162603619Y-123063523D02*
X162652000Y-123015142D01*
X162700380Y-123063523D01*
X162652000Y-123111904D01*
X162603619Y-123063523D01*
X162700380Y-123063523D01*
X163619619Y-123692476D02*
X163571238Y-123595714D01*
X163474476Y-123547333D01*
X162603619Y-123547333D01*
X163619619Y-124224666D02*
X163571238Y-124127904D01*
X163474476Y-124079523D01*
X162603619Y-124079523D01*
X163619619Y-124611714D02*
X162942285Y-124611714D01*
X162603619Y-124611714D02*
X162652000Y-124563333D01*
X162700380Y-124611714D01*
X162652000Y-124660095D01*
X162603619Y-124611714D01*
X162700380Y-124611714D01*
X163619619Y-125240666D02*
X163571238Y-125143904D01*
X163522857Y-125095523D01*
X163426095Y-125047142D01*
X163135809Y-125047142D01*
X163039047Y-125095523D01*
X162990666Y-125143904D01*
X162942285Y-125240666D01*
X162942285Y-125385809D01*
X162990666Y-125482571D01*
X163039047Y-125530952D01*
X163135809Y-125579333D01*
X163426095Y-125579333D01*
X163522857Y-125530952D01*
X163571238Y-125482571D01*
X163619619Y-125385809D01*
X163619619Y-125240666D01*
X162942285Y-126014761D02*
X163619619Y-126014761D01*
X163039047Y-126014761D02*
X162990666Y-126063142D01*
X162942285Y-126159904D01*
X162942285Y-126305047D01*
X162990666Y-126401809D01*
X163087428Y-126450190D01*
X163619619Y-126450190D01*
X162700380Y-127659714D02*
X162652000Y-127708095D01*
X162603619Y-127804857D01*
X162603619Y-128046761D01*
X162652000Y-128143523D01*
X162700380Y-128191904D01*
X162797142Y-128240285D01*
X162893904Y-128240285D01*
X163039047Y-128191904D01*
X163619619Y-127611333D01*
X163619619Y-128240285D01*
X162603619Y-128869238D02*
X162603619Y-128966000D01*
X162652000Y-129062761D01*
X162700380Y-129111142D01*
X162797142Y-129159523D01*
X162990666Y-129207904D01*
X163232571Y-129207904D01*
X163426095Y-129159523D01*
X163522857Y-129111142D01*
X163571238Y-129062761D01*
X163619619Y-128966000D01*
X163619619Y-128869238D01*
X163571238Y-128772476D01*
X163522857Y-128724095D01*
X163426095Y-128675714D01*
X163232571Y-128627333D01*
X162990666Y-128627333D01*
X162797142Y-128675714D01*
X162700380Y-128724095D01*
X162652000Y-128772476D01*
X162603619Y-128869238D01*
X163619619Y-130175523D02*
X163619619Y-129594952D01*
X163619619Y-129885238D02*
X162603619Y-129885238D01*
X162748761Y-129788476D01*
X162845523Y-129691714D01*
X162893904Y-129594952D01*
X163619619Y-130659333D02*
X163619619Y-130852857D01*
X163571238Y-130949619D01*
X163522857Y-130998000D01*
X163377714Y-131094761D01*
X163184190Y-131143142D01*
X162797142Y-131143142D01*
X162700380Y-131094761D01*
X162652000Y-131046380D01*
X162603619Y-130949619D01*
X162603619Y-130756095D01*
X162652000Y-130659333D01*
X162700380Y-130610952D01*
X162797142Y-130562571D01*
X163039047Y-130562571D01*
X163135809Y-130610952D01*
X163184190Y-130659333D01*
X163232571Y-130756095D01*
X163232571Y-130949619D01*
X163184190Y-131046380D01*
X163135809Y-131094761D01*
X163039047Y-131143142D01*
D11*
X160653261Y-116368809D02*
X160731880Y-116604666D01*
X160731880Y-116997761D01*
X160653261Y-117155000D01*
X160574642Y-117233619D01*
X160417404Y-117312238D01*
X160260166Y-117312238D01*
X160102928Y-117233619D01*
X160024309Y-117155000D01*
X159945690Y-116997761D01*
X159867071Y-116683285D01*
X159788452Y-116526047D01*
X159709833Y-116447428D01*
X159552595Y-116368809D01*
X159395357Y-116368809D01*
X159238119Y-116447428D01*
X159159500Y-116526047D01*
X159080880Y-116683285D01*
X159080880Y-117076380D01*
X159159500Y-117312238D01*
X159631214Y-117862571D02*
X160731880Y-118177047D01*
X159945690Y-118491523D01*
X160731880Y-118806000D01*
X159631214Y-119120476D01*
X160731880Y-119749428D02*
X159631214Y-119749428D01*
X159080880Y-119749428D02*
X159159500Y-119670809D01*
X159238119Y-119749428D01*
X159159500Y-119828047D01*
X159080880Y-119749428D01*
X159238119Y-119749428D01*
X159631214Y-120299761D02*
X159631214Y-120928714D01*
X159080880Y-120535619D02*
X160496023Y-120535619D01*
X160653261Y-120614238D01*
X160731880Y-120771476D01*
X160731880Y-120928714D01*
X160653261Y-122186619D02*
X160731880Y-122029380D01*
X160731880Y-121714904D01*
X160653261Y-121557666D01*
X160574642Y-121479047D01*
X160417404Y-121400428D01*
X159945690Y-121400428D01*
X159788452Y-121479047D01*
X159709833Y-121557666D01*
X159631214Y-121714904D01*
X159631214Y-122029380D01*
X159709833Y-122186619D01*
X160731880Y-122894190D02*
X159080880Y-122894190D01*
X160731880Y-123601761D02*
X159867071Y-123601761D01*
X159709833Y-123523142D01*
X159631214Y-123365904D01*
X159631214Y-123130047D01*
X159709833Y-122972809D01*
X159788452Y-122894190D01*
X160731880Y-125331380D02*
X159945690Y-124781047D01*
X160731880Y-124387952D02*
X159080880Y-124387952D01*
X159080880Y-125016904D01*
X159159500Y-125174142D01*
X159238119Y-125252761D01*
X159395357Y-125331380D01*
X159631214Y-125331380D01*
X159788452Y-125252761D01*
X159867071Y-125174142D01*
X159945690Y-125016904D01*
X159945690Y-124387952D01*
X160653261Y-126667904D02*
X160731880Y-126510666D01*
X160731880Y-126196190D01*
X160653261Y-126038952D01*
X160496023Y-125960333D01*
X159867071Y-125960333D01*
X159709833Y-126038952D01*
X159631214Y-126196190D01*
X159631214Y-126510666D01*
X159709833Y-126667904D01*
X159867071Y-126746523D01*
X160024309Y-126746523D01*
X160181547Y-125960333D01*
X160731880Y-127689952D02*
X160653261Y-127532714D01*
X160496023Y-127454095D01*
X159080880Y-127454095D01*
X160731880Y-129026476D02*
X159867071Y-129026476D01*
X159709833Y-128947857D01*
X159631214Y-128790619D01*
X159631214Y-128476142D01*
X159709833Y-128318904D01*
X160653261Y-129026476D02*
X160731880Y-128869238D01*
X160731880Y-128476142D01*
X160653261Y-128318904D01*
X160496023Y-128240285D01*
X160338785Y-128240285D01*
X160181547Y-128318904D01*
X160102928Y-128476142D01*
X160102928Y-128869238D01*
X160024309Y-129026476D01*
X159631214Y-129655428D02*
X160731880Y-130048523D01*
X159631214Y-130441619D02*
X160731880Y-130048523D01*
X161124976Y-129891285D01*
X161203595Y-129812666D01*
X161282214Y-129655428D01*
X159631214Y-132171238D02*
X160731880Y-132564333D01*
X159631214Y-132957428D01*
X159238119Y-133507761D02*
X159159500Y-133586380D01*
X159080880Y-133743619D01*
X159080880Y-134136714D01*
X159159500Y-134293952D01*
X159238119Y-134372571D01*
X159395357Y-134451190D01*
X159552595Y-134451190D01*
X159788452Y-134372571D01*
X160731880Y-133429142D01*
X160731880Y-134451190D01*
D10*
X113571238Y-119676857D02*
X113619619Y-119822000D01*
X113619619Y-120063904D01*
X113571238Y-120160666D01*
X113522857Y-120209047D01*
X113426095Y-120257428D01*
X113329333Y-120257428D01*
X113232571Y-120209047D01*
X113184190Y-120160666D01*
X113135809Y-120063904D01*
X113087428Y-119870380D01*
X113039047Y-119773619D01*
X112990666Y-119725238D01*
X112893904Y-119676857D01*
X112797142Y-119676857D01*
X112700380Y-119725238D01*
X112652000Y-119773619D01*
X112603619Y-119870380D01*
X112603619Y-120112285D01*
X112652000Y-120257428D01*
X113571238Y-121079904D02*
X113619619Y-120983142D01*
X113619619Y-120789619D01*
X113571238Y-120692857D01*
X113474476Y-120644476D01*
X113087428Y-120644476D01*
X112990666Y-120692857D01*
X112942285Y-120789619D01*
X112942285Y-120983142D01*
X112990666Y-121079904D01*
X113087428Y-121128285D01*
X113184190Y-121128285D01*
X113280952Y-120644476D01*
X112942285Y-121563714D02*
X113958285Y-121563714D01*
X112990666Y-121563714D02*
X112942285Y-121660476D01*
X112942285Y-121854000D01*
X112990666Y-121950761D01*
X113039047Y-121999142D01*
X113135809Y-122047523D01*
X113426095Y-122047523D01*
X113522857Y-121999142D01*
X113571238Y-121950761D01*
X113619619Y-121854000D01*
X113619619Y-121660476D01*
X113571238Y-121563714D01*
X112942285Y-122337809D02*
X112942285Y-122724857D01*
X112603619Y-122482952D02*
X113474476Y-122482952D01*
X113571238Y-122531333D01*
X113619619Y-122628095D01*
X113619619Y-122724857D01*
X113619619Y-123063523D02*
X112942285Y-123063523D01*
X112603619Y-123063523D02*
X112652000Y-123015142D01*
X112700380Y-123063523D01*
X112652000Y-123111904D01*
X112603619Y-123063523D01*
X112700380Y-123063523D01*
X113619619Y-123692476D02*
X113571238Y-123595714D01*
X113474476Y-123547333D01*
X112603619Y-123547333D01*
X113619619Y-124224666D02*
X113571238Y-124127904D01*
X113474476Y-124079523D01*
X112603619Y-124079523D01*
X113619619Y-124611714D02*
X112942285Y-124611714D01*
X112603619Y-124611714D02*
X112652000Y-124563333D01*
X112700380Y-124611714D01*
X112652000Y-124660095D01*
X112603619Y-124611714D01*
X112700380Y-124611714D01*
X113619619Y-125240666D02*
X113571238Y-125143904D01*
X113522857Y-125095523D01*
X113426095Y-125047142D01*
X113135809Y-125047142D01*
X113039047Y-125095523D01*
X112990666Y-125143904D01*
X112942285Y-125240666D01*
X112942285Y-125385809D01*
X112990666Y-125482571D01*
X113039047Y-125530952D01*
X113135809Y-125579333D01*
X113426095Y-125579333D01*
X113522857Y-125530952D01*
X113571238Y-125482571D01*
X113619619Y-125385809D01*
X113619619Y-125240666D01*
X112942285Y-126014761D02*
X113619619Y-126014761D01*
X113039047Y-126014761D02*
X112990666Y-126063142D01*
X112942285Y-126159904D01*
X112942285Y-126305047D01*
X112990666Y-126401809D01*
X113087428Y-126450190D01*
X113619619Y-126450190D01*
X112700380Y-127659714D02*
X112652000Y-127708095D01*
X112603619Y-127804857D01*
X112603619Y-128046761D01*
X112652000Y-128143523D01*
X112700380Y-128191904D01*
X112797142Y-128240285D01*
X112893904Y-128240285D01*
X113039047Y-128191904D01*
X113619619Y-127611333D01*
X113619619Y-128240285D01*
X112603619Y-128869238D02*
X112603619Y-128966000D01*
X112652000Y-129062761D01*
X112700380Y-129111142D01*
X112797142Y-129159523D01*
X112990666Y-129207904D01*
X113232571Y-129207904D01*
X113426095Y-129159523D01*
X113522857Y-129111142D01*
X113571238Y-129062761D01*
X113619619Y-128966000D01*
X113619619Y-128869238D01*
X113571238Y-128772476D01*
X113522857Y-128724095D01*
X113426095Y-128675714D01*
X113232571Y-128627333D01*
X112990666Y-128627333D01*
X112797142Y-128675714D01*
X112700380Y-128724095D01*
X112652000Y-128772476D01*
X112603619Y-128869238D01*
X113619619Y-130175523D02*
X113619619Y-129594952D01*
X113619619Y-129885238D02*
X112603619Y-129885238D01*
X112748761Y-129788476D01*
X112845523Y-129691714D01*
X112893904Y-129594952D01*
X113619619Y-130659333D02*
X113619619Y-130852857D01*
X113571238Y-130949619D01*
X113522857Y-130998000D01*
X113377714Y-131094761D01*
X113184190Y-131143142D01*
X112797142Y-131143142D01*
X112700380Y-131094761D01*
X112652000Y-131046380D01*
X112603619Y-130949619D01*
X112603619Y-130756095D01*
X112652000Y-130659333D01*
X112700380Y-130610952D01*
X112797142Y-130562571D01*
X113039047Y-130562571D01*
X113135809Y-130610952D01*
X113184190Y-130659333D01*
X113232571Y-130756095D01*
X113232571Y-130949619D01*
X113184190Y-131046380D01*
X113135809Y-131094761D01*
X113039047Y-131143142D01*
D11*
X110653261Y-116368809D02*
X110731880Y-116604666D01*
X110731880Y-116997761D01*
X110653261Y-117155000D01*
X110574642Y-117233619D01*
X110417404Y-117312238D01*
X110260166Y-117312238D01*
X110102928Y-117233619D01*
X110024309Y-117155000D01*
X109945690Y-116997761D01*
X109867071Y-116683285D01*
X109788452Y-116526047D01*
X109709833Y-116447428D01*
X109552595Y-116368809D01*
X109395357Y-116368809D01*
X109238119Y-116447428D01*
X109159500Y-116526047D01*
X109080880Y-116683285D01*
X109080880Y-117076380D01*
X109159500Y-117312238D01*
X109631214Y-117862571D02*
X110731880Y-118177047D01*
X109945690Y-118491523D01*
X110731880Y-118806000D01*
X109631214Y-119120476D01*
X110731880Y-119749428D02*
X109631214Y-119749428D01*
X109080880Y-119749428D02*
X109159500Y-119670809D01*
X109238119Y-119749428D01*
X109159500Y-119828047D01*
X109080880Y-119749428D01*
X109238119Y-119749428D01*
X109631214Y-120299761D02*
X109631214Y-120928714D01*
X109080880Y-120535619D02*
X110496023Y-120535619D01*
X110653261Y-120614238D01*
X110731880Y-120771476D01*
X110731880Y-120928714D01*
X110653261Y-122186619D02*
X110731880Y-122029380D01*
X110731880Y-121714904D01*
X110653261Y-121557666D01*
X110574642Y-121479047D01*
X110417404Y-121400428D01*
X109945690Y-121400428D01*
X109788452Y-121479047D01*
X109709833Y-121557666D01*
X109631214Y-121714904D01*
X109631214Y-122029380D01*
X109709833Y-122186619D01*
X110731880Y-122894190D02*
X109080880Y-122894190D01*
X110731880Y-123601761D02*
X109867071Y-123601761D01*
X109709833Y-123523142D01*
X109631214Y-123365904D01*
X109631214Y-123130047D01*
X109709833Y-122972809D01*
X109788452Y-122894190D01*
X110731880Y-125331380D02*
X109945690Y-124781047D01*
X110731880Y-124387952D02*
X109080880Y-124387952D01*
X109080880Y-125016904D01*
X109159500Y-125174142D01*
X109238119Y-125252761D01*
X109395357Y-125331380D01*
X109631214Y-125331380D01*
X109788452Y-125252761D01*
X109867071Y-125174142D01*
X109945690Y-125016904D01*
X109945690Y-124387952D01*
X110653261Y-126667904D02*
X110731880Y-126510666D01*
X110731880Y-126196190D01*
X110653261Y-126038952D01*
X110496023Y-125960333D01*
X109867071Y-125960333D01*
X109709833Y-126038952D01*
X109631214Y-126196190D01*
X109631214Y-126510666D01*
X109709833Y-126667904D01*
X109867071Y-126746523D01*
X110024309Y-126746523D01*
X110181547Y-125960333D01*
X110731880Y-127689952D02*
X110653261Y-127532714D01*
X110496023Y-127454095D01*
X109080880Y-127454095D01*
X110731880Y-129026476D02*
X109867071Y-129026476D01*
X109709833Y-128947857D01*
X109631214Y-128790619D01*
X109631214Y-128476142D01*
X109709833Y-128318904D01*
X110653261Y-129026476D02*
X110731880Y-128869238D01*
X110731880Y-128476142D01*
X110653261Y-128318904D01*
X110496023Y-128240285D01*
X110338785Y-128240285D01*
X110181547Y-128318904D01*
X110102928Y-128476142D01*
X110102928Y-128869238D01*
X110024309Y-129026476D01*
X109631214Y-129655428D02*
X110731880Y-130048523D01*
X109631214Y-130441619D02*
X110731880Y-130048523D01*
X111124976Y-129891285D01*
X111203595Y-129812666D01*
X111282214Y-129655428D01*
X109631214Y-132171238D02*
X110731880Y-132564333D01*
X109631214Y-132957428D01*
X109238119Y-133507761D02*
X109159500Y-133586380D01*
X109080880Y-133743619D01*
X109080880Y-134136714D01*
X109159500Y-134293952D01*
X109238119Y-134372571D01*
X109395357Y-134451190D01*
X109552595Y-134451190D01*
X109788452Y-134372571D01*
X110731880Y-133429142D01*
X110731880Y-134451190D01*
X160653261Y-83368809D02*
X160731880Y-83604666D01*
X160731880Y-83997761D01*
X160653261Y-84155000D01*
X160574642Y-84233619D01*
X160417404Y-84312238D01*
X160260166Y-84312238D01*
X160102928Y-84233619D01*
X160024309Y-84155000D01*
X159945690Y-83997761D01*
X159867071Y-83683285D01*
X159788452Y-83526047D01*
X159709833Y-83447428D01*
X159552595Y-83368809D01*
X159395357Y-83368809D01*
X159238119Y-83447428D01*
X159159500Y-83526047D01*
X159080880Y-83683285D01*
X159080880Y-84076380D01*
X159159500Y-84312238D01*
X159631214Y-84862571D02*
X160731880Y-85177047D01*
X159945690Y-85491523D01*
X160731880Y-85806000D01*
X159631214Y-86120476D01*
X160731880Y-86749428D02*
X159631214Y-86749428D01*
X159080880Y-86749428D02*
X159159500Y-86670809D01*
X159238119Y-86749428D01*
X159159500Y-86828047D01*
X159080880Y-86749428D01*
X159238119Y-86749428D01*
X159631214Y-87299761D02*
X159631214Y-87928714D01*
X159080880Y-87535619D02*
X160496023Y-87535619D01*
X160653261Y-87614238D01*
X160731880Y-87771476D01*
X160731880Y-87928714D01*
X160653261Y-89186619D02*
X160731880Y-89029380D01*
X160731880Y-88714904D01*
X160653261Y-88557666D01*
X160574642Y-88479047D01*
X160417404Y-88400428D01*
X159945690Y-88400428D01*
X159788452Y-88479047D01*
X159709833Y-88557666D01*
X159631214Y-88714904D01*
X159631214Y-89029380D01*
X159709833Y-89186619D01*
X160731880Y-89894190D02*
X159080880Y-89894190D01*
X160731880Y-90601761D02*
X159867071Y-90601761D01*
X159709833Y-90523142D01*
X159631214Y-90365904D01*
X159631214Y-90130047D01*
X159709833Y-89972809D01*
X159788452Y-89894190D01*
X160731880Y-92331380D02*
X159945690Y-91781047D01*
X160731880Y-91387952D02*
X159080880Y-91387952D01*
X159080880Y-92016904D01*
X159159500Y-92174142D01*
X159238119Y-92252761D01*
X159395357Y-92331380D01*
X159631214Y-92331380D01*
X159788452Y-92252761D01*
X159867071Y-92174142D01*
X159945690Y-92016904D01*
X159945690Y-91387952D01*
X160653261Y-93667904D02*
X160731880Y-93510666D01*
X160731880Y-93196190D01*
X160653261Y-93038952D01*
X160496023Y-92960333D01*
X159867071Y-92960333D01*
X159709833Y-93038952D01*
X159631214Y-93196190D01*
X159631214Y-93510666D01*
X159709833Y-93667904D01*
X159867071Y-93746523D01*
X160024309Y-93746523D01*
X160181547Y-92960333D01*
X160731880Y-94689952D02*
X160653261Y-94532714D01*
X160496023Y-94454095D01*
X159080880Y-94454095D01*
X160731880Y-96026476D02*
X159867071Y-96026476D01*
X159709833Y-95947857D01*
X159631214Y-95790619D01*
X159631214Y-95476142D01*
X159709833Y-95318904D01*
X160653261Y-96026476D02*
X160731880Y-95869238D01*
X160731880Y-95476142D01*
X160653261Y-95318904D01*
X160496023Y-95240285D01*
X160338785Y-95240285D01*
X160181547Y-95318904D01*
X160102928Y-95476142D01*
X160102928Y-95869238D01*
X160024309Y-96026476D01*
X159631214Y-96655428D02*
X160731880Y-97048523D01*
X159631214Y-97441619D02*
X160731880Y-97048523D01*
X161124976Y-96891285D01*
X161203595Y-96812666D01*
X161282214Y-96655428D01*
X159631214Y-99171238D02*
X160731880Y-99564333D01*
X159631214Y-99957428D01*
X159238119Y-100507761D02*
X159159500Y-100586380D01*
X159080880Y-100743619D01*
X159080880Y-101136714D01*
X159159500Y-101293952D01*
X159238119Y-101372571D01*
X159395357Y-101451190D01*
X159552595Y-101451190D01*
X159788452Y-101372571D01*
X160731880Y-100429142D01*
X160731880Y-101451190D01*
D10*
X163571238Y-86676857D02*
X163619619Y-86822000D01*
X163619619Y-87063904D01*
X163571238Y-87160666D01*
X163522857Y-87209047D01*
X163426095Y-87257428D01*
X163329333Y-87257428D01*
X163232571Y-87209047D01*
X163184190Y-87160666D01*
X163135809Y-87063904D01*
X163087428Y-86870380D01*
X163039047Y-86773619D01*
X162990666Y-86725238D01*
X162893904Y-86676857D01*
X162797142Y-86676857D01*
X162700380Y-86725238D01*
X162652000Y-86773619D01*
X162603619Y-86870380D01*
X162603619Y-87112285D01*
X162652000Y-87257428D01*
X163571238Y-88079904D02*
X163619619Y-87983142D01*
X163619619Y-87789619D01*
X163571238Y-87692857D01*
X163474476Y-87644476D01*
X163087428Y-87644476D01*
X162990666Y-87692857D01*
X162942285Y-87789619D01*
X162942285Y-87983142D01*
X162990666Y-88079904D01*
X163087428Y-88128285D01*
X163184190Y-88128285D01*
X163280952Y-87644476D01*
X162942285Y-88563714D02*
X163958285Y-88563714D01*
X162990666Y-88563714D02*
X162942285Y-88660476D01*
X162942285Y-88854000D01*
X162990666Y-88950761D01*
X163039047Y-88999142D01*
X163135809Y-89047523D01*
X163426095Y-89047523D01*
X163522857Y-88999142D01*
X163571238Y-88950761D01*
X163619619Y-88854000D01*
X163619619Y-88660476D01*
X163571238Y-88563714D01*
X162942285Y-89337809D02*
X162942285Y-89724857D01*
X162603619Y-89482952D02*
X163474476Y-89482952D01*
X163571238Y-89531333D01*
X163619619Y-89628095D01*
X163619619Y-89724857D01*
X163619619Y-90063523D02*
X162942285Y-90063523D01*
X162603619Y-90063523D02*
X162652000Y-90015142D01*
X162700380Y-90063523D01*
X162652000Y-90111904D01*
X162603619Y-90063523D01*
X162700380Y-90063523D01*
X163619619Y-90692476D02*
X163571238Y-90595714D01*
X163474476Y-90547333D01*
X162603619Y-90547333D01*
X163619619Y-91224666D02*
X163571238Y-91127904D01*
X163474476Y-91079523D01*
X162603619Y-91079523D01*
X163619619Y-91611714D02*
X162942285Y-91611714D01*
X162603619Y-91611714D02*
X162652000Y-91563333D01*
X162700380Y-91611714D01*
X162652000Y-91660095D01*
X162603619Y-91611714D01*
X162700380Y-91611714D01*
X163619619Y-92240666D02*
X163571238Y-92143904D01*
X163522857Y-92095523D01*
X163426095Y-92047142D01*
X163135809Y-92047142D01*
X163039047Y-92095523D01*
X162990666Y-92143904D01*
X162942285Y-92240666D01*
X162942285Y-92385809D01*
X162990666Y-92482571D01*
X163039047Y-92530952D01*
X163135809Y-92579333D01*
X163426095Y-92579333D01*
X163522857Y-92530952D01*
X163571238Y-92482571D01*
X163619619Y-92385809D01*
X163619619Y-92240666D01*
X162942285Y-93014761D02*
X163619619Y-93014761D01*
X163039047Y-93014761D02*
X162990666Y-93063142D01*
X162942285Y-93159904D01*
X162942285Y-93305047D01*
X162990666Y-93401809D01*
X163087428Y-93450190D01*
X163619619Y-93450190D01*
X162700380Y-94659714D02*
X162652000Y-94708095D01*
X162603619Y-94804857D01*
X162603619Y-95046761D01*
X162652000Y-95143523D01*
X162700380Y-95191904D01*
X162797142Y-95240285D01*
X162893904Y-95240285D01*
X163039047Y-95191904D01*
X163619619Y-94611333D01*
X163619619Y-95240285D01*
X162603619Y-95869238D02*
X162603619Y-95966000D01*
X162652000Y-96062761D01*
X162700380Y-96111142D01*
X162797142Y-96159523D01*
X162990666Y-96207904D01*
X163232571Y-96207904D01*
X163426095Y-96159523D01*
X163522857Y-96111142D01*
X163571238Y-96062761D01*
X163619619Y-95966000D01*
X163619619Y-95869238D01*
X163571238Y-95772476D01*
X163522857Y-95724095D01*
X163426095Y-95675714D01*
X163232571Y-95627333D01*
X162990666Y-95627333D01*
X162797142Y-95675714D01*
X162700380Y-95724095D01*
X162652000Y-95772476D01*
X162603619Y-95869238D01*
X163619619Y-97175523D02*
X163619619Y-96594952D01*
X163619619Y-96885238D02*
X162603619Y-96885238D01*
X162748761Y-96788476D01*
X162845523Y-96691714D01*
X162893904Y-96594952D01*
X163619619Y-97659333D02*
X163619619Y-97852857D01*
X163571238Y-97949619D01*
X163522857Y-97998000D01*
X163377714Y-98094761D01*
X163184190Y-98143142D01*
X162797142Y-98143142D01*
X162700380Y-98094761D01*
X162652000Y-98046380D01*
X162603619Y-97949619D01*
X162603619Y-97756095D01*
X162652000Y-97659333D01*
X162700380Y-97610952D01*
X162797142Y-97562571D01*
X163039047Y-97562571D01*
X163135809Y-97610952D01*
X163184190Y-97659333D01*
X163232571Y-97756095D01*
X163232571Y-97949619D01*
X163184190Y-98046380D01*
X163135809Y-98094761D01*
X163039047Y-98143142D01*
D11*
X110653261Y-83368809D02*
X110731880Y-83604666D01*
X110731880Y-83997761D01*
X110653261Y-84155000D01*
X110574642Y-84233619D01*
X110417404Y-84312238D01*
X110260166Y-84312238D01*
X110102928Y-84233619D01*
X110024309Y-84155000D01*
X109945690Y-83997761D01*
X109867071Y-83683285D01*
X109788452Y-83526047D01*
X109709833Y-83447428D01*
X109552595Y-83368809D01*
X109395357Y-83368809D01*
X109238119Y-83447428D01*
X109159500Y-83526047D01*
X109080880Y-83683285D01*
X109080880Y-84076380D01*
X109159500Y-84312238D01*
X109631214Y-84862571D02*
X110731880Y-85177047D01*
X109945690Y-85491523D01*
X110731880Y-85806000D01*
X109631214Y-86120476D01*
X110731880Y-86749428D02*
X109631214Y-86749428D01*
X109080880Y-86749428D02*
X109159500Y-86670809D01*
X109238119Y-86749428D01*
X109159500Y-86828047D01*
X109080880Y-86749428D01*
X109238119Y-86749428D01*
X109631214Y-87299761D02*
X109631214Y-87928714D01*
X109080880Y-87535619D02*
X110496023Y-87535619D01*
X110653261Y-87614238D01*
X110731880Y-87771476D01*
X110731880Y-87928714D01*
X110653261Y-89186619D02*
X110731880Y-89029380D01*
X110731880Y-88714904D01*
X110653261Y-88557666D01*
X110574642Y-88479047D01*
X110417404Y-88400428D01*
X109945690Y-88400428D01*
X109788452Y-88479047D01*
X109709833Y-88557666D01*
X109631214Y-88714904D01*
X109631214Y-89029380D01*
X109709833Y-89186619D01*
X110731880Y-89894190D02*
X109080880Y-89894190D01*
X110731880Y-90601761D02*
X109867071Y-90601761D01*
X109709833Y-90523142D01*
X109631214Y-90365904D01*
X109631214Y-90130047D01*
X109709833Y-89972809D01*
X109788452Y-89894190D01*
X110731880Y-92331380D02*
X109945690Y-91781047D01*
X110731880Y-91387952D02*
X109080880Y-91387952D01*
X109080880Y-92016904D01*
X109159500Y-92174142D01*
X109238119Y-92252761D01*
X109395357Y-92331380D01*
X109631214Y-92331380D01*
X109788452Y-92252761D01*
X109867071Y-92174142D01*
X109945690Y-92016904D01*
X109945690Y-91387952D01*
X110653261Y-93667904D02*
X110731880Y-93510666D01*
X110731880Y-93196190D01*
X110653261Y-93038952D01*
X110496023Y-92960333D01*
X109867071Y-92960333D01*
X109709833Y-93038952D01*
X109631214Y-93196190D01*
X109631214Y-93510666D01*
X109709833Y-93667904D01*
X109867071Y-93746523D01*
X110024309Y-93746523D01*
X110181547Y-92960333D01*
X110731880Y-94689952D02*
X110653261Y-94532714D01*
X110496023Y-94454095D01*
X109080880Y-94454095D01*
X110731880Y-96026476D02*
X109867071Y-96026476D01*
X109709833Y-95947857D01*
X109631214Y-95790619D01*
X109631214Y-95476142D01*
X109709833Y-95318904D01*
X110653261Y-96026476D02*
X110731880Y-95869238D01*
X110731880Y-95476142D01*
X110653261Y-95318904D01*
X110496023Y-95240285D01*
X110338785Y-95240285D01*
X110181547Y-95318904D01*
X110102928Y-95476142D01*
X110102928Y-95869238D01*
X110024309Y-96026476D01*
X109631214Y-96655428D02*
X110731880Y-97048523D01*
X109631214Y-97441619D02*
X110731880Y-97048523D01*
X111124976Y-96891285D01*
X111203595Y-96812666D01*
X111282214Y-96655428D01*
X109631214Y-99171238D02*
X110731880Y-99564333D01*
X109631214Y-99957428D01*
X109238119Y-100507761D02*
X109159500Y-100586380D01*
X109080880Y-100743619D01*
X109080880Y-101136714D01*
X109159500Y-101293952D01*
X109238119Y-101372571D01*
X109395357Y-101451190D01*
X109552595Y-101451190D01*
X109788452Y-101372571D01*
X110731880Y-100429142D01*
X110731880Y-101451190D01*
D10*
X113571238Y-86676857D02*
X113619619Y-86822000D01*
X113619619Y-87063904D01*
X113571238Y-87160666D01*
X113522857Y-87209047D01*
X113426095Y-87257428D01*
X113329333Y-87257428D01*
X113232571Y-87209047D01*
X113184190Y-87160666D01*
X113135809Y-87063904D01*
X113087428Y-86870380D01*
X113039047Y-86773619D01*
X112990666Y-86725238D01*
X112893904Y-86676857D01*
X112797142Y-86676857D01*
X112700380Y-86725238D01*
X112652000Y-86773619D01*
X112603619Y-86870380D01*
X112603619Y-87112285D01*
X112652000Y-87257428D01*
X113571238Y-88079904D02*
X113619619Y-87983142D01*
X113619619Y-87789619D01*
X113571238Y-87692857D01*
X113474476Y-87644476D01*
X113087428Y-87644476D01*
X112990666Y-87692857D01*
X112942285Y-87789619D01*
X112942285Y-87983142D01*
X112990666Y-88079904D01*
X113087428Y-88128285D01*
X113184190Y-88128285D01*
X113280952Y-87644476D01*
X112942285Y-88563714D02*
X113958285Y-88563714D01*
X112990666Y-88563714D02*
X112942285Y-88660476D01*
X112942285Y-88854000D01*
X112990666Y-88950761D01*
X113039047Y-88999142D01*
X113135809Y-89047523D01*
X113426095Y-89047523D01*
X113522857Y-88999142D01*
X113571238Y-88950761D01*
X113619619Y-88854000D01*
X113619619Y-88660476D01*
X113571238Y-88563714D01*
X112942285Y-89337809D02*
X112942285Y-89724857D01*
X112603619Y-89482952D02*
X113474476Y-89482952D01*
X113571238Y-89531333D01*
X113619619Y-89628095D01*
X113619619Y-89724857D01*
X113619619Y-90063523D02*
X112942285Y-90063523D01*
X112603619Y-90063523D02*
X112652000Y-90015142D01*
X112700380Y-90063523D01*
X112652000Y-90111904D01*
X112603619Y-90063523D01*
X112700380Y-90063523D01*
X113619619Y-90692476D02*
X113571238Y-90595714D01*
X113474476Y-90547333D01*
X112603619Y-90547333D01*
X113619619Y-91224666D02*
X113571238Y-91127904D01*
X113474476Y-91079523D01*
X112603619Y-91079523D01*
X113619619Y-91611714D02*
X112942285Y-91611714D01*
X112603619Y-91611714D02*
X112652000Y-91563333D01*
X112700380Y-91611714D01*
X112652000Y-91660095D01*
X112603619Y-91611714D01*
X112700380Y-91611714D01*
X113619619Y-92240666D02*
X113571238Y-92143904D01*
X113522857Y-92095523D01*
X113426095Y-92047142D01*
X113135809Y-92047142D01*
X113039047Y-92095523D01*
X112990666Y-92143904D01*
X112942285Y-92240666D01*
X112942285Y-92385809D01*
X112990666Y-92482571D01*
X113039047Y-92530952D01*
X113135809Y-92579333D01*
X113426095Y-92579333D01*
X113522857Y-92530952D01*
X113571238Y-92482571D01*
X113619619Y-92385809D01*
X113619619Y-92240666D01*
X112942285Y-93014761D02*
X113619619Y-93014761D01*
X113039047Y-93014761D02*
X112990666Y-93063142D01*
X112942285Y-93159904D01*
X112942285Y-93305047D01*
X112990666Y-93401809D01*
X113087428Y-93450190D01*
X113619619Y-93450190D01*
X112700380Y-94659714D02*
X112652000Y-94708095D01*
X112603619Y-94804857D01*
X112603619Y-95046761D01*
X112652000Y-95143523D01*
X112700380Y-95191904D01*
X112797142Y-95240285D01*
X112893904Y-95240285D01*
X113039047Y-95191904D01*
X113619619Y-94611333D01*
X113619619Y-95240285D01*
X112603619Y-95869238D02*
X112603619Y-95966000D01*
X112652000Y-96062761D01*
X112700380Y-96111142D01*
X112797142Y-96159523D01*
X112990666Y-96207904D01*
X113232571Y-96207904D01*
X113426095Y-96159523D01*
X113522857Y-96111142D01*
X113571238Y-96062761D01*
X113619619Y-95966000D01*
X113619619Y-95869238D01*
X113571238Y-95772476D01*
X113522857Y-95724095D01*
X113426095Y-95675714D01*
X113232571Y-95627333D01*
X112990666Y-95627333D01*
X112797142Y-95675714D01*
X112700380Y-95724095D01*
X112652000Y-95772476D01*
X112603619Y-95869238D01*
X113619619Y-97175523D02*
X113619619Y-96594952D01*
X113619619Y-96885238D02*
X112603619Y-96885238D01*
X112748761Y-96788476D01*
X112845523Y-96691714D01*
X112893904Y-96594952D01*
X113619619Y-97659333D02*
X113619619Y-97852857D01*
X113571238Y-97949619D01*
X113522857Y-97998000D01*
X113377714Y-98094761D01*
X113184190Y-98143142D01*
X112797142Y-98143142D01*
X112700380Y-98094761D01*
X112652000Y-98046380D01*
X112603619Y-97949619D01*
X112603619Y-97756095D01*
X112652000Y-97659333D01*
X112700380Y-97610952D01*
X112797142Y-97562571D01*
X113039047Y-97562571D01*
X113135809Y-97610952D01*
X113184190Y-97659333D01*
X113232571Y-97756095D01*
X113232571Y-97949619D01*
X113184190Y-98046380D01*
X113135809Y-98094761D01*
X113039047Y-98143142D01*
X163571238Y-53676857D02*
X163619619Y-53822000D01*
X163619619Y-54063904D01*
X163571238Y-54160666D01*
X163522857Y-54209047D01*
X163426095Y-54257428D01*
X163329333Y-54257428D01*
X163232571Y-54209047D01*
X163184190Y-54160666D01*
X163135809Y-54063904D01*
X163087428Y-53870380D01*
X163039047Y-53773619D01*
X162990666Y-53725238D01*
X162893904Y-53676857D01*
X162797142Y-53676857D01*
X162700380Y-53725238D01*
X162652000Y-53773619D01*
X162603619Y-53870380D01*
X162603619Y-54112285D01*
X162652000Y-54257428D01*
X163571238Y-55079904D02*
X163619619Y-54983142D01*
X163619619Y-54789619D01*
X163571238Y-54692857D01*
X163474476Y-54644476D01*
X163087428Y-54644476D01*
X162990666Y-54692857D01*
X162942285Y-54789619D01*
X162942285Y-54983142D01*
X162990666Y-55079904D01*
X163087428Y-55128285D01*
X163184190Y-55128285D01*
X163280952Y-54644476D01*
X162942285Y-55563714D02*
X163958285Y-55563714D01*
X162990666Y-55563714D02*
X162942285Y-55660476D01*
X162942285Y-55854000D01*
X162990666Y-55950761D01*
X163039047Y-55999142D01*
X163135809Y-56047523D01*
X163426095Y-56047523D01*
X163522857Y-55999142D01*
X163571238Y-55950761D01*
X163619619Y-55854000D01*
X163619619Y-55660476D01*
X163571238Y-55563714D01*
X162942285Y-56337809D02*
X162942285Y-56724857D01*
X162603619Y-56482952D02*
X163474476Y-56482952D01*
X163571238Y-56531333D01*
X163619619Y-56628095D01*
X163619619Y-56724857D01*
X163619619Y-57063523D02*
X162942285Y-57063523D01*
X162603619Y-57063523D02*
X162652000Y-57015142D01*
X162700380Y-57063523D01*
X162652000Y-57111904D01*
X162603619Y-57063523D01*
X162700380Y-57063523D01*
X163619619Y-57692476D02*
X163571238Y-57595714D01*
X163474476Y-57547333D01*
X162603619Y-57547333D01*
X163619619Y-58224666D02*
X163571238Y-58127904D01*
X163474476Y-58079523D01*
X162603619Y-58079523D01*
X163619619Y-58611714D02*
X162942285Y-58611714D01*
X162603619Y-58611714D02*
X162652000Y-58563333D01*
X162700380Y-58611714D01*
X162652000Y-58660095D01*
X162603619Y-58611714D01*
X162700380Y-58611714D01*
X163619619Y-59240666D02*
X163571238Y-59143904D01*
X163522857Y-59095523D01*
X163426095Y-59047142D01*
X163135809Y-59047142D01*
X163039047Y-59095523D01*
X162990666Y-59143904D01*
X162942285Y-59240666D01*
X162942285Y-59385809D01*
X162990666Y-59482571D01*
X163039047Y-59530952D01*
X163135809Y-59579333D01*
X163426095Y-59579333D01*
X163522857Y-59530952D01*
X163571238Y-59482571D01*
X163619619Y-59385809D01*
X163619619Y-59240666D01*
X162942285Y-60014761D02*
X163619619Y-60014761D01*
X163039047Y-60014761D02*
X162990666Y-60063142D01*
X162942285Y-60159904D01*
X162942285Y-60305047D01*
X162990666Y-60401809D01*
X163087428Y-60450190D01*
X163619619Y-60450190D01*
X162700380Y-61659714D02*
X162652000Y-61708095D01*
X162603619Y-61804857D01*
X162603619Y-62046761D01*
X162652000Y-62143523D01*
X162700380Y-62191904D01*
X162797142Y-62240285D01*
X162893904Y-62240285D01*
X163039047Y-62191904D01*
X163619619Y-61611333D01*
X163619619Y-62240285D01*
X162603619Y-62869238D02*
X162603619Y-62966000D01*
X162652000Y-63062761D01*
X162700380Y-63111142D01*
X162797142Y-63159523D01*
X162990666Y-63207904D01*
X163232571Y-63207904D01*
X163426095Y-63159523D01*
X163522857Y-63111142D01*
X163571238Y-63062761D01*
X163619619Y-62966000D01*
X163619619Y-62869238D01*
X163571238Y-62772476D01*
X163522857Y-62724095D01*
X163426095Y-62675714D01*
X163232571Y-62627333D01*
X162990666Y-62627333D01*
X162797142Y-62675714D01*
X162700380Y-62724095D01*
X162652000Y-62772476D01*
X162603619Y-62869238D01*
X163619619Y-64175523D02*
X163619619Y-63594952D01*
X163619619Y-63885238D02*
X162603619Y-63885238D01*
X162748761Y-63788476D01*
X162845523Y-63691714D01*
X162893904Y-63594952D01*
X163619619Y-64659333D02*
X163619619Y-64852857D01*
X163571238Y-64949619D01*
X163522857Y-64998000D01*
X163377714Y-65094761D01*
X163184190Y-65143142D01*
X162797142Y-65143142D01*
X162700380Y-65094761D01*
X162652000Y-65046380D01*
X162603619Y-64949619D01*
X162603619Y-64756095D01*
X162652000Y-64659333D01*
X162700380Y-64610952D01*
X162797142Y-64562571D01*
X163039047Y-64562571D01*
X163135809Y-64610952D01*
X163184190Y-64659333D01*
X163232571Y-64756095D01*
X163232571Y-64949619D01*
X163184190Y-65046380D01*
X163135809Y-65094761D01*
X163039047Y-65143142D01*
D11*
X160653261Y-50368809D02*
X160731880Y-50604666D01*
X160731880Y-50997761D01*
X160653261Y-51155000D01*
X160574642Y-51233619D01*
X160417404Y-51312238D01*
X160260166Y-51312238D01*
X160102928Y-51233619D01*
X160024309Y-51155000D01*
X159945690Y-50997761D01*
X159867071Y-50683285D01*
X159788452Y-50526047D01*
X159709833Y-50447428D01*
X159552595Y-50368809D01*
X159395357Y-50368809D01*
X159238119Y-50447428D01*
X159159500Y-50526047D01*
X159080880Y-50683285D01*
X159080880Y-51076380D01*
X159159500Y-51312238D01*
X159631214Y-51862571D02*
X160731880Y-52177047D01*
X159945690Y-52491523D01*
X160731880Y-52806000D01*
X159631214Y-53120476D01*
X160731880Y-53749428D02*
X159631214Y-53749428D01*
X159080880Y-53749428D02*
X159159500Y-53670809D01*
X159238119Y-53749428D01*
X159159500Y-53828047D01*
X159080880Y-53749428D01*
X159238119Y-53749428D01*
X159631214Y-54299761D02*
X159631214Y-54928714D01*
X159080880Y-54535619D02*
X160496023Y-54535619D01*
X160653261Y-54614238D01*
X160731880Y-54771476D01*
X160731880Y-54928714D01*
X160653261Y-56186619D02*
X160731880Y-56029380D01*
X160731880Y-55714904D01*
X160653261Y-55557666D01*
X160574642Y-55479047D01*
X160417404Y-55400428D01*
X159945690Y-55400428D01*
X159788452Y-55479047D01*
X159709833Y-55557666D01*
X159631214Y-55714904D01*
X159631214Y-56029380D01*
X159709833Y-56186619D01*
X160731880Y-56894190D02*
X159080880Y-56894190D01*
X160731880Y-57601761D02*
X159867071Y-57601761D01*
X159709833Y-57523142D01*
X159631214Y-57365904D01*
X159631214Y-57130047D01*
X159709833Y-56972809D01*
X159788452Y-56894190D01*
X160731880Y-59331380D02*
X159945690Y-58781047D01*
X160731880Y-58387952D02*
X159080880Y-58387952D01*
X159080880Y-59016904D01*
X159159500Y-59174142D01*
X159238119Y-59252761D01*
X159395357Y-59331380D01*
X159631214Y-59331380D01*
X159788452Y-59252761D01*
X159867071Y-59174142D01*
X159945690Y-59016904D01*
X159945690Y-58387952D01*
X160653261Y-60667904D02*
X160731880Y-60510666D01*
X160731880Y-60196190D01*
X160653261Y-60038952D01*
X160496023Y-59960333D01*
X159867071Y-59960333D01*
X159709833Y-60038952D01*
X159631214Y-60196190D01*
X159631214Y-60510666D01*
X159709833Y-60667904D01*
X159867071Y-60746523D01*
X160024309Y-60746523D01*
X160181547Y-59960333D01*
X160731880Y-61689952D02*
X160653261Y-61532714D01*
X160496023Y-61454095D01*
X159080880Y-61454095D01*
X160731880Y-63026476D02*
X159867071Y-63026476D01*
X159709833Y-62947857D01*
X159631214Y-62790619D01*
X159631214Y-62476142D01*
X159709833Y-62318904D01*
X160653261Y-63026476D02*
X160731880Y-62869238D01*
X160731880Y-62476142D01*
X160653261Y-62318904D01*
X160496023Y-62240285D01*
X160338785Y-62240285D01*
X160181547Y-62318904D01*
X160102928Y-62476142D01*
X160102928Y-62869238D01*
X160024309Y-63026476D01*
X159631214Y-63655428D02*
X160731880Y-64048523D01*
X159631214Y-64441619D02*
X160731880Y-64048523D01*
X161124976Y-63891285D01*
X161203595Y-63812666D01*
X161282214Y-63655428D01*
X159631214Y-66171238D02*
X160731880Y-66564333D01*
X159631214Y-66957428D01*
X159238119Y-67507761D02*
X159159500Y-67586380D01*
X159080880Y-67743619D01*
X159080880Y-68136714D01*
X159159500Y-68293952D01*
X159238119Y-68372571D01*
X159395357Y-68451190D01*
X159552595Y-68451190D01*
X159788452Y-68372571D01*
X160731880Y-67429142D01*
X160731880Y-68451190D01*
D10*
X113571238Y-53676857D02*
X113619619Y-53822000D01*
X113619619Y-54063904D01*
X113571238Y-54160666D01*
X113522857Y-54209047D01*
X113426095Y-54257428D01*
X113329333Y-54257428D01*
X113232571Y-54209047D01*
X113184190Y-54160666D01*
X113135809Y-54063904D01*
X113087428Y-53870380D01*
X113039047Y-53773619D01*
X112990666Y-53725238D01*
X112893904Y-53676857D01*
X112797142Y-53676857D01*
X112700380Y-53725238D01*
X112652000Y-53773619D01*
X112603619Y-53870380D01*
X112603619Y-54112285D01*
X112652000Y-54257428D01*
X113571238Y-55079904D02*
X113619619Y-54983142D01*
X113619619Y-54789619D01*
X113571238Y-54692857D01*
X113474476Y-54644476D01*
X113087428Y-54644476D01*
X112990666Y-54692857D01*
X112942285Y-54789619D01*
X112942285Y-54983142D01*
X112990666Y-55079904D01*
X113087428Y-55128285D01*
X113184190Y-55128285D01*
X113280952Y-54644476D01*
X112942285Y-55563714D02*
X113958285Y-55563714D01*
X112990666Y-55563714D02*
X112942285Y-55660476D01*
X112942285Y-55854000D01*
X112990666Y-55950761D01*
X113039047Y-55999142D01*
X113135809Y-56047523D01*
X113426095Y-56047523D01*
X113522857Y-55999142D01*
X113571238Y-55950761D01*
X113619619Y-55854000D01*
X113619619Y-55660476D01*
X113571238Y-55563714D01*
X112942285Y-56337809D02*
X112942285Y-56724857D01*
X112603619Y-56482952D02*
X113474476Y-56482952D01*
X113571238Y-56531333D01*
X113619619Y-56628095D01*
X113619619Y-56724857D01*
X113619619Y-57063523D02*
X112942285Y-57063523D01*
X112603619Y-57063523D02*
X112652000Y-57015142D01*
X112700380Y-57063523D01*
X112652000Y-57111904D01*
X112603619Y-57063523D01*
X112700380Y-57063523D01*
X113619619Y-57692476D02*
X113571238Y-57595714D01*
X113474476Y-57547333D01*
X112603619Y-57547333D01*
X113619619Y-58224666D02*
X113571238Y-58127904D01*
X113474476Y-58079523D01*
X112603619Y-58079523D01*
X113619619Y-58611714D02*
X112942285Y-58611714D01*
X112603619Y-58611714D02*
X112652000Y-58563333D01*
X112700380Y-58611714D01*
X112652000Y-58660095D01*
X112603619Y-58611714D01*
X112700380Y-58611714D01*
X113619619Y-59240666D02*
X113571238Y-59143904D01*
X113522857Y-59095523D01*
X113426095Y-59047142D01*
X113135809Y-59047142D01*
X113039047Y-59095523D01*
X112990666Y-59143904D01*
X112942285Y-59240666D01*
X112942285Y-59385809D01*
X112990666Y-59482571D01*
X113039047Y-59530952D01*
X113135809Y-59579333D01*
X113426095Y-59579333D01*
X113522857Y-59530952D01*
X113571238Y-59482571D01*
X113619619Y-59385809D01*
X113619619Y-59240666D01*
X112942285Y-60014761D02*
X113619619Y-60014761D01*
X113039047Y-60014761D02*
X112990666Y-60063142D01*
X112942285Y-60159904D01*
X112942285Y-60305047D01*
X112990666Y-60401809D01*
X113087428Y-60450190D01*
X113619619Y-60450190D01*
X112700380Y-61659714D02*
X112652000Y-61708095D01*
X112603619Y-61804857D01*
X112603619Y-62046761D01*
X112652000Y-62143523D01*
X112700380Y-62191904D01*
X112797142Y-62240285D01*
X112893904Y-62240285D01*
X113039047Y-62191904D01*
X113619619Y-61611333D01*
X113619619Y-62240285D01*
X112603619Y-62869238D02*
X112603619Y-62966000D01*
X112652000Y-63062761D01*
X112700380Y-63111142D01*
X112797142Y-63159523D01*
X112990666Y-63207904D01*
X113232571Y-63207904D01*
X113426095Y-63159523D01*
X113522857Y-63111142D01*
X113571238Y-63062761D01*
X113619619Y-62966000D01*
X113619619Y-62869238D01*
X113571238Y-62772476D01*
X113522857Y-62724095D01*
X113426095Y-62675714D01*
X113232571Y-62627333D01*
X112990666Y-62627333D01*
X112797142Y-62675714D01*
X112700380Y-62724095D01*
X112652000Y-62772476D01*
X112603619Y-62869238D01*
X113619619Y-64175523D02*
X113619619Y-63594952D01*
X113619619Y-63885238D02*
X112603619Y-63885238D01*
X112748761Y-63788476D01*
X112845523Y-63691714D01*
X112893904Y-63594952D01*
X113619619Y-64659333D02*
X113619619Y-64852857D01*
X113571238Y-64949619D01*
X113522857Y-64998000D01*
X113377714Y-65094761D01*
X113184190Y-65143142D01*
X112797142Y-65143142D01*
X112700380Y-65094761D01*
X112652000Y-65046380D01*
X112603619Y-64949619D01*
X112603619Y-64756095D01*
X112652000Y-64659333D01*
X112700380Y-64610952D01*
X112797142Y-64562571D01*
X113039047Y-64562571D01*
X113135809Y-64610952D01*
X113184190Y-64659333D01*
X113232571Y-64756095D01*
X113232571Y-64949619D01*
X113184190Y-65046380D01*
X113135809Y-65094761D01*
X113039047Y-65143142D01*
D11*
X110653261Y-50368809D02*
X110731880Y-50604666D01*
X110731880Y-50997761D01*
X110653261Y-51155000D01*
X110574642Y-51233619D01*
X110417404Y-51312238D01*
X110260166Y-51312238D01*
X110102928Y-51233619D01*
X110024309Y-51155000D01*
X109945690Y-50997761D01*
X109867071Y-50683285D01*
X109788452Y-50526047D01*
X109709833Y-50447428D01*
X109552595Y-50368809D01*
X109395357Y-50368809D01*
X109238119Y-50447428D01*
X109159500Y-50526047D01*
X109080880Y-50683285D01*
X109080880Y-51076380D01*
X109159500Y-51312238D01*
X109631214Y-51862571D02*
X110731880Y-52177047D01*
X109945690Y-52491523D01*
X110731880Y-52806000D01*
X109631214Y-53120476D01*
X110731880Y-53749428D02*
X109631214Y-53749428D01*
X109080880Y-53749428D02*
X109159500Y-53670809D01*
X109238119Y-53749428D01*
X109159500Y-53828047D01*
X109080880Y-53749428D01*
X109238119Y-53749428D01*
X109631214Y-54299761D02*
X109631214Y-54928714D01*
X109080880Y-54535619D02*
X110496023Y-54535619D01*
X110653261Y-54614238D01*
X110731880Y-54771476D01*
X110731880Y-54928714D01*
X110653261Y-56186619D02*
X110731880Y-56029380D01*
X110731880Y-55714904D01*
X110653261Y-55557666D01*
X110574642Y-55479047D01*
X110417404Y-55400428D01*
X109945690Y-55400428D01*
X109788452Y-55479047D01*
X109709833Y-55557666D01*
X109631214Y-55714904D01*
X109631214Y-56029380D01*
X109709833Y-56186619D01*
X110731880Y-56894190D02*
X109080880Y-56894190D01*
X110731880Y-57601761D02*
X109867071Y-57601761D01*
X109709833Y-57523142D01*
X109631214Y-57365904D01*
X109631214Y-57130047D01*
X109709833Y-56972809D01*
X109788452Y-56894190D01*
X110731880Y-59331380D02*
X109945690Y-58781047D01*
X110731880Y-58387952D02*
X109080880Y-58387952D01*
X109080880Y-59016904D01*
X109159500Y-59174142D01*
X109238119Y-59252761D01*
X109395357Y-59331380D01*
X109631214Y-59331380D01*
X109788452Y-59252761D01*
X109867071Y-59174142D01*
X109945690Y-59016904D01*
X109945690Y-58387952D01*
X110653261Y-60667904D02*
X110731880Y-60510666D01*
X110731880Y-60196190D01*
X110653261Y-60038952D01*
X110496023Y-59960333D01*
X109867071Y-59960333D01*
X109709833Y-60038952D01*
X109631214Y-60196190D01*
X109631214Y-60510666D01*
X109709833Y-60667904D01*
X109867071Y-60746523D01*
X110024309Y-60746523D01*
X110181547Y-59960333D01*
X110731880Y-61689952D02*
X110653261Y-61532714D01*
X110496023Y-61454095D01*
X109080880Y-61454095D01*
X110731880Y-63026476D02*
X109867071Y-63026476D01*
X109709833Y-62947857D01*
X109631214Y-62790619D01*
X109631214Y-62476142D01*
X109709833Y-62318904D01*
X110653261Y-63026476D02*
X110731880Y-62869238D01*
X110731880Y-62476142D01*
X110653261Y-62318904D01*
X110496023Y-62240285D01*
X110338785Y-62240285D01*
X110181547Y-62318904D01*
X110102928Y-62476142D01*
X110102928Y-62869238D01*
X110024309Y-63026476D01*
X109631214Y-63655428D02*
X110731880Y-64048523D01*
X109631214Y-64441619D02*
X110731880Y-64048523D01*
X111124976Y-63891285D01*
X111203595Y-63812666D01*
X111282214Y-63655428D01*
X109631214Y-66171238D02*
X110731880Y-66564333D01*
X109631214Y-66957428D01*
X109238119Y-67507761D02*
X109159500Y-67586380D01*
X109080880Y-67743619D01*
X109080880Y-68136714D01*
X109159500Y-68293952D01*
X109238119Y-68372571D01*
X109395357Y-68451190D01*
X109552595Y-68451190D01*
X109788452Y-68372571D01*
X110731880Y-67429142D01*
X110731880Y-68451190D01*
D12*
G36*
X204012585Y-136888802D02*
G01*
X204162410Y-136918604D01*
X204444674Y-137035521D01*
X204698705Y-137205259D01*
X204914741Y-137421295D01*
X205084479Y-137675326D01*
X205201396Y-137957590D01*
X205261000Y-138257240D01*
X205261000Y-138562760D01*
X205201396Y-138862410D01*
X205084479Y-139144674D01*
X204914741Y-139398705D01*
X204698705Y-139614741D01*
X204444674Y-139784479D01*
X204162410Y-139901396D01*
X204012585Y-139931198D01*
X203862761Y-139961000D01*
X203557239Y-139961000D01*
X203407415Y-139931198D01*
X203257590Y-139901396D01*
X202975326Y-139784479D01*
X202721295Y-139614741D01*
X202505259Y-139398705D01*
X202335521Y-139144674D01*
X202218604Y-138862410D01*
X202159000Y-138562760D01*
X202159000Y-138257240D01*
X202218604Y-137957590D01*
X202335521Y-137675326D01*
X202505259Y-137421295D01*
X202721295Y-137205259D01*
X202975326Y-137035521D01*
X203257590Y-136918604D01*
X203407415Y-136888802D01*
X203557239Y-136859000D01*
X203862761Y-136859000D01*
X204012585Y-136888802D01*
X204012585Y-136888802D01*
G37*
G36*
X161012585Y-136888802D02*
G01*
X161162410Y-136918604D01*
X161444674Y-137035521D01*
X161698705Y-137205259D01*
X161914741Y-137421295D01*
X162084479Y-137675326D01*
X162201396Y-137957590D01*
X162261000Y-138257240D01*
X162261000Y-138562760D01*
X162201396Y-138862410D01*
X162084479Y-139144674D01*
X161914741Y-139398705D01*
X161698705Y-139614741D01*
X161444674Y-139784479D01*
X161162410Y-139901396D01*
X161012585Y-139931198D01*
X160862761Y-139961000D01*
X160557239Y-139961000D01*
X160407415Y-139931198D01*
X160257590Y-139901396D01*
X159975326Y-139784479D01*
X159721295Y-139614741D01*
X159505259Y-139398705D01*
X159335521Y-139144674D01*
X159218604Y-138862410D01*
X159159000Y-138562760D01*
X159159000Y-138257240D01*
X159218604Y-137957590D01*
X159335521Y-137675326D01*
X159505259Y-137421295D01*
X159721295Y-137205259D01*
X159975326Y-137035521D01*
X160257590Y-136918604D01*
X160407415Y-136888802D01*
X160557239Y-136859000D01*
X160862761Y-136859000D01*
X161012585Y-136888802D01*
X161012585Y-136888802D01*
G37*
G36*
X154012585Y-136888802D02*
G01*
X154162410Y-136918604D01*
X154444674Y-137035521D01*
X154698705Y-137205259D01*
X154914741Y-137421295D01*
X155084479Y-137675326D01*
X155201396Y-137957590D01*
X155261000Y-138257240D01*
X155261000Y-138562760D01*
X155201396Y-138862410D01*
X155084479Y-139144674D01*
X154914741Y-139398705D01*
X154698705Y-139614741D01*
X154444674Y-139784479D01*
X154162410Y-139901396D01*
X154012585Y-139931198D01*
X153862761Y-139961000D01*
X153557239Y-139961000D01*
X153407415Y-139931198D01*
X153257590Y-139901396D01*
X152975326Y-139784479D01*
X152721295Y-139614741D01*
X152505259Y-139398705D01*
X152335521Y-139144674D01*
X152218604Y-138862410D01*
X152159000Y-138562760D01*
X152159000Y-138257240D01*
X152218604Y-137957590D01*
X152335521Y-137675326D01*
X152505259Y-137421295D01*
X152721295Y-137205259D01*
X152975326Y-137035521D01*
X153257590Y-136918604D01*
X153407415Y-136888802D01*
X153557239Y-136859000D01*
X153862761Y-136859000D01*
X154012585Y-136888802D01*
X154012585Y-136888802D01*
G37*
G36*
X111012585Y-136888802D02*
G01*
X111162410Y-136918604D01*
X111444674Y-137035521D01*
X111698705Y-137205259D01*
X111914741Y-137421295D01*
X112084479Y-137675326D01*
X112201396Y-137957590D01*
X112261000Y-138257240D01*
X112261000Y-138562760D01*
X112201396Y-138862410D01*
X112084479Y-139144674D01*
X111914741Y-139398705D01*
X111698705Y-139614741D01*
X111444674Y-139784479D01*
X111162410Y-139901396D01*
X111012585Y-139931198D01*
X110862761Y-139961000D01*
X110557239Y-139961000D01*
X110407415Y-139931198D01*
X110257590Y-139901396D01*
X109975326Y-139784479D01*
X109721295Y-139614741D01*
X109505259Y-139398705D01*
X109335521Y-139144674D01*
X109218604Y-138862410D01*
X109159000Y-138562760D01*
X109159000Y-138257240D01*
X109218604Y-137957590D01*
X109335521Y-137675326D01*
X109505259Y-137421295D01*
X109721295Y-137205259D01*
X109975326Y-137035521D01*
X110257590Y-136918604D01*
X110407415Y-136888802D01*
X110557239Y-136859000D01*
X110862761Y-136859000D01*
X111012585Y-136888802D01*
X111012585Y-136888802D01*
G37*
G36*
X179972585Y-134683802D02*
G01*
X180122410Y-134713604D01*
X180404674Y-134830521D01*
X180658705Y-135000259D01*
X180874741Y-135216295D01*
X181044479Y-135470326D01*
X181161396Y-135752590D01*
X181221000Y-136052240D01*
X181221000Y-136357760D01*
X181161396Y-136657410D01*
X181044479Y-136939674D01*
X180874741Y-137193705D01*
X180658705Y-137409741D01*
X180404674Y-137579479D01*
X180122410Y-137696396D01*
X179972585Y-137726198D01*
X179822761Y-137756000D01*
X179517239Y-137756000D01*
X179367415Y-137726198D01*
X179217590Y-137696396D01*
X178935326Y-137579479D01*
X178681295Y-137409741D01*
X178465259Y-137193705D01*
X178295521Y-136939674D01*
X178178604Y-136657410D01*
X178119000Y-136357760D01*
X178119000Y-136052240D01*
X178178604Y-135752590D01*
X178295521Y-135470326D01*
X178465259Y-135216295D01*
X178681295Y-135000259D01*
X178935326Y-134830521D01*
X179217590Y-134713604D01*
X179367415Y-134683802D01*
X179517239Y-134654000D01*
X179822761Y-134654000D01*
X179972585Y-134683802D01*
X179972585Y-134683802D01*
G37*
G36*
X145212585Y-134683802D02*
G01*
X145362410Y-134713604D01*
X145644674Y-134830521D01*
X145898705Y-135000259D01*
X146114741Y-135216295D01*
X146284479Y-135470326D01*
X146401396Y-135752590D01*
X146461000Y-136052240D01*
X146461000Y-136357760D01*
X146401396Y-136657410D01*
X146284479Y-136939674D01*
X146114741Y-137193705D01*
X145898705Y-137409741D01*
X145644674Y-137579479D01*
X145362410Y-137696396D01*
X145212585Y-137726198D01*
X145062761Y-137756000D01*
X144757239Y-137756000D01*
X144607415Y-137726198D01*
X144457590Y-137696396D01*
X144175326Y-137579479D01*
X143921295Y-137409741D01*
X143705259Y-137193705D01*
X143535521Y-136939674D01*
X143418604Y-136657410D01*
X143359000Y-136357760D01*
X143359000Y-136052240D01*
X143418604Y-135752590D01*
X143535521Y-135470326D01*
X143705259Y-135216295D01*
X143921295Y-135000259D01*
X144175326Y-134830521D01*
X144457590Y-134713604D01*
X144607415Y-134683802D01*
X144757239Y-134654000D01*
X145062761Y-134654000D01*
X145212585Y-134683802D01*
X145212585Y-134683802D01*
G37*
G36*
X140132585Y-134683802D02*
G01*
X140282410Y-134713604D01*
X140564674Y-134830521D01*
X140818705Y-135000259D01*
X141034741Y-135216295D01*
X141204479Y-135470326D01*
X141321396Y-135752590D01*
X141381000Y-136052240D01*
X141381000Y-136357760D01*
X141321396Y-136657410D01*
X141204479Y-136939674D01*
X141034741Y-137193705D01*
X140818705Y-137409741D01*
X140564674Y-137579479D01*
X140282410Y-137696396D01*
X140132585Y-137726198D01*
X139982761Y-137756000D01*
X139677239Y-137756000D01*
X139527415Y-137726198D01*
X139377590Y-137696396D01*
X139095326Y-137579479D01*
X138841295Y-137409741D01*
X138625259Y-137193705D01*
X138455521Y-136939674D01*
X138338604Y-136657410D01*
X138279000Y-136357760D01*
X138279000Y-136052240D01*
X138338604Y-135752590D01*
X138455521Y-135470326D01*
X138625259Y-135216295D01*
X138841295Y-135000259D01*
X139095326Y-134830521D01*
X139377590Y-134713604D01*
X139527415Y-134683802D01*
X139677239Y-134654000D01*
X139982761Y-134654000D01*
X140132585Y-134683802D01*
X140132585Y-134683802D01*
G37*
G36*
X136301000Y-137756000D02*
G01*
X133199000Y-137756000D01*
X133199000Y-134654000D01*
X136301000Y-134654000D01*
X136301000Y-137756000D01*
X136301000Y-137756000D01*
G37*
G36*
X171061000Y-137756000D02*
G01*
X167959000Y-137756000D01*
X167959000Y-134654000D01*
X171061000Y-134654000D01*
X171061000Y-137756000D01*
X171061000Y-137756000D01*
G37*
G36*
X174892585Y-134683802D02*
G01*
X175042410Y-134713604D01*
X175324674Y-134830521D01*
X175578705Y-135000259D01*
X175794741Y-135216295D01*
X175964479Y-135470326D01*
X176081396Y-135752590D01*
X176141000Y-136052240D01*
X176141000Y-136357760D01*
X176081396Y-136657410D01*
X175964479Y-136939674D01*
X175794741Y-137193705D01*
X175578705Y-137409741D01*
X175324674Y-137579479D01*
X175042410Y-137696396D01*
X174892585Y-137726198D01*
X174742761Y-137756000D01*
X174437239Y-137756000D01*
X174287415Y-137726198D01*
X174137590Y-137696396D01*
X173855326Y-137579479D01*
X173601295Y-137409741D01*
X173385259Y-137193705D01*
X173215521Y-136939674D01*
X173098604Y-136657410D01*
X173039000Y-136357760D01*
X173039000Y-136052240D01*
X173098604Y-135752590D01*
X173215521Y-135470326D01*
X173385259Y-135216295D01*
X173601295Y-135000259D01*
X173855326Y-134830521D01*
X174137590Y-134713604D01*
X174287415Y-134683802D01*
X174437239Y-134654000D01*
X174742761Y-134654000D01*
X174892585Y-134683802D01*
X174892585Y-134683802D01*
G37*
G36*
X186301000Y-137756000D02*
G01*
X183199000Y-137756000D01*
X183199000Y-134654000D01*
X186301000Y-134654000D01*
X186301000Y-137756000D01*
X186301000Y-137756000D01*
G37*
G36*
X190132585Y-134683802D02*
G01*
X190282410Y-134713604D01*
X190564674Y-134830521D01*
X190818705Y-135000259D01*
X191034741Y-135216295D01*
X191204479Y-135470326D01*
X191321396Y-135752590D01*
X191381000Y-136052240D01*
X191381000Y-136357760D01*
X191321396Y-136657410D01*
X191204479Y-136939674D01*
X191034741Y-137193705D01*
X190818705Y-137409741D01*
X190564674Y-137579479D01*
X190282410Y-137696396D01*
X190132585Y-137726198D01*
X189982761Y-137756000D01*
X189677239Y-137756000D01*
X189527415Y-137726198D01*
X189377590Y-137696396D01*
X189095326Y-137579479D01*
X188841295Y-137409741D01*
X188625259Y-137193705D01*
X188455521Y-136939674D01*
X188338604Y-136657410D01*
X188279000Y-136357760D01*
X188279000Y-136052240D01*
X188338604Y-135752590D01*
X188455521Y-135470326D01*
X188625259Y-135216295D01*
X188841295Y-135000259D01*
X189095326Y-134830521D01*
X189377590Y-134713604D01*
X189527415Y-134683802D01*
X189677239Y-134654000D01*
X189982761Y-134654000D01*
X190132585Y-134683802D01*
X190132585Y-134683802D01*
G37*
G36*
X195212585Y-134683802D02*
G01*
X195362410Y-134713604D01*
X195644674Y-134830521D01*
X195898705Y-135000259D01*
X196114741Y-135216295D01*
X196284479Y-135470326D01*
X196401396Y-135752590D01*
X196461000Y-136052240D01*
X196461000Y-136357760D01*
X196401396Y-136657410D01*
X196284479Y-136939674D01*
X196114741Y-137193705D01*
X195898705Y-137409741D01*
X195644674Y-137579479D01*
X195362410Y-137696396D01*
X195212585Y-137726198D01*
X195062761Y-137756000D01*
X194757239Y-137756000D01*
X194607415Y-137726198D01*
X194457590Y-137696396D01*
X194175326Y-137579479D01*
X193921295Y-137409741D01*
X193705259Y-137193705D01*
X193535521Y-136939674D01*
X193418604Y-136657410D01*
X193359000Y-136357760D01*
X193359000Y-136052240D01*
X193418604Y-135752590D01*
X193535521Y-135470326D01*
X193705259Y-135216295D01*
X193921295Y-135000259D01*
X194175326Y-134830521D01*
X194457590Y-134713604D01*
X194607415Y-134683802D01*
X194757239Y-134654000D01*
X195062761Y-134654000D01*
X195212585Y-134683802D01*
X195212585Y-134683802D01*
G37*
G36*
X129972585Y-134683802D02*
G01*
X130122410Y-134713604D01*
X130404674Y-134830521D01*
X130658705Y-135000259D01*
X130874741Y-135216295D01*
X131044479Y-135470326D01*
X131161396Y-135752590D01*
X131221000Y-136052240D01*
X131221000Y-136357760D01*
X131161396Y-136657410D01*
X131044479Y-136939674D01*
X130874741Y-137193705D01*
X130658705Y-137409741D01*
X130404674Y-137579479D01*
X130122410Y-137696396D01*
X129972585Y-137726198D01*
X129822761Y-137756000D01*
X129517239Y-137756000D01*
X129367415Y-137726198D01*
X129217590Y-137696396D01*
X128935326Y-137579479D01*
X128681295Y-137409741D01*
X128465259Y-137193705D01*
X128295521Y-136939674D01*
X128178604Y-136657410D01*
X128119000Y-136357760D01*
X128119000Y-136052240D01*
X128178604Y-135752590D01*
X128295521Y-135470326D01*
X128465259Y-135216295D01*
X128681295Y-135000259D01*
X128935326Y-134830521D01*
X129217590Y-134713604D01*
X129367415Y-134683802D01*
X129517239Y-134654000D01*
X129822761Y-134654000D01*
X129972585Y-134683802D01*
X129972585Y-134683802D01*
G37*
G36*
X124892585Y-134683802D02*
G01*
X125042410Y-134713604D01*
X125324674Y-134830521D01*
X125578705Y-135000259D01*
X125794741Y-135216295D01*
X125964479Y-135470326D01*
X126081396Y-135752590D01*
X126141000Y-136052240D01*
X126141000Y-136357760D01*
X126081396Y-136657410D01*
X125964479Y-136939674D01*
X125794741Y-137193705D01*
X125578705Y-137409741D01*
X125324674Y-137579479D01*
X125042410Y-137696396D01*
X124892585Y-137726198D01*
X124742761Y-137756000D01*
X124437239Y-137756000D01*
X124287415Y-137726198D01*
X124137590Y-137696396D01*
X123855326Y-137579479D01*
X123601295Y-137409741D01*
X123385259Y-137193705D01*
X123215521Y-136939674D01*
X123098604Y-136657410D01*
X123039000Y-136357760D01*
X123039000Y-136052240D01*
X123098604Y-135752590D01*
X123215521Y-135470326D01*
X123385259Y-135216295D01*
X123601295Y-135000259D01*
X123855326Y-134830521D01*
X124137590Y-134713604D01*
X124287415Y-134683802D01*
X124437239Y-134654000D01*
X124742761Y-134654000D01*
X124892585Y-134683802D01*
X124892585Y-134683802D01*
G37*
G36*
X121061000Y-137756000D02*
G01*
X117959000Y-137756000D01*
X117959000Y-134654000D01*
X121061000Y-134654000D01*
X121061000Y-137756000D01*
X121061000Y-137756000D01*
G37*
G36*
X146404549Y-128091116D02*
G01*
X146515734Y-128113232D01*
X146725203Y-128199997D01*
X146913720Y-128325960D01*
X147074040Y-128486280D01*
X147200003Y-128674797D01*
X147286768Y-128884266D01*
X147331000Y-129106636D01*
X147331000Y-129333364D01*
X147286768Y-129555734D01*
X147200003Y-129765203D01*
X147074040Y-129953720D01*
X146913720Y-130114040D01*
X146725203Y-130240003D01*
X146515734Y-130326768D01*
X146404549Y-130348884D01*
X146293365Y-130371000D01*
X146066635Y-130371000D01*
X145955451Y-130348884D01*
X145844266Y-130326768D01*
X145634797Y-130240003D01*
X145446280Y-130114040D01*
X145285960Y-129953720D01*
X145159997Y-129765203D01*
X145073232Y-129555734D01*
X145029000Y-129333364D01*
X145029000Y-129106636D01*
X145073232Y-128884266D01*
X145159997Y-128674797D01*
X145285960Y-128486280D01*
X145446280Y-128325960D01*
X145634797Y-128199997D01*
X145844266Y-128113232D01*
X145955451Y-128091116D01*
X146066635Y-128069000D01*
X146293365Y-128069000D01*
X146404549Y-128091116D01*
X146404549Y-128091116D01*
G37*
G36*
X141324549Y-128091116D02*
G01*
X141435734Y-128113232D01*
X141645203Y-128199997D01*
X141833720Y-128325960D01*
X141994040Y-128486280D01*
X142120003Y-128674797D01*
X142206768Y-128884266D01*
X142251000Y-129106636D01*
X142251000Y-129333364D01*
X142206768Y-129555734D01*
X142120003Y-129765203D01*
X141994040Y-129953720D01*
X141833720Y-130114040D01*
X141645203Y-130240003D01*
X141435734Y-130326768D01*
X141324549Y-130348884D01*
X141213365Y-130371000D01*
X140986635Y-130371000D01*
X140875451Y-130348884D01*
X140764266Y-130326768D01*
X140554797Y-130240003D01*
X140366280Y-130114040D01*
X140205960Y-129953720D01*
X140079997Y-129765203D01*
X139993232Y-129555734D01*
X139949000Y-129333364D01*
X139949000Y-129106636D01*
X139993232Y-128884266D01*
X140079997Y-128674797D01*
X140205960Y-128486280D01*
X140366280Y-128325960D01*
X140554797Y-128199997D01*
X140764266Y-128113232D01*
X140875451Y-128091116D01*
X140986635Y-128069000D01*
X141213365Y-128069000D01*
X141324549Y-128091116D01*
X141324549Y-128091116D01*
G37*
G36*
X136244549Y-128091116D02*
G01*
X136355734Y-128113232D01*
X136565203Y-128199997D01*
X136753720Y-128325960D01*
X136914040Y-128486280D01*
X137040003Y-128674797D01*
X137126768Y-128884266D01*
X137171000Y-129106636D01*
X137171000Y-129333364D01*
X137126768Y-129555734D01*
X137040003Y-129765203D01*
X136914040Y-129953720D01*
X136753720Y-130114040D01*
X136565203Y-130240003D01*
X136355734Y-130326768D01*
X136244549Y-130348884D01*
X136133365Y-130371000D01*
X135906635Y-130371000D01*
X135795451Y-130348884D01*
X135684266Y-130326768D01*
X135474797Y-130240003D01*
X135286280Y-130114040D01*
X135125960Y-129953720D01*
X134999997Y-129765203D01*
X134913232Y-129555734D01*
X134869000Y-129333364D01*
X134869000Y-129106636D01*
X134913232Y-128884266D01*
X134999997Y-128674797D01*
X135125960Y-128486280D01*
X135286280Y-128325960D01*
X135474797Y-128199997D01*
X135684266Y-128113232D01*
X135795451Y-128091116D01*
X135906635Y-128069000D01*
X136133365Y-128069000D01*
X136244549Y-128091116D01*
X136244549Y-128091116D01*
G37*
G36*
X191324549Y-128091116D02*
G01*
X191435734Y-128113232D01*
X191645203Y-128199997D01*
X191833720Y-128325960D01*
X191994040Y-128486280D01*
X192120003Y-128674797D01*
X192206768Y-128884266D01*
X192251000Y-129106636D01*
X192251000Y-129333364D01*
X192206768Y-129555734D01*
X192120003Y-129765203D01*
X191994040Y-129953720D01*
X191833720Y-130114040D01*
X191645203Y-130240003D01*
X191435734Y-130326768D01*
X191324549Y-130348884D01*
X191213365Y-130371000D01*
X190986635Y-130371000D01*
X190875451Y-130348884D01*
X190764266Y-130326768D01*
X190554797Y-130240003D01*
X190366280Y-130114040D01*
X190205960Y-129953720D01*
X190079997Y-129765203D01*
X189993232Y-129555734D01*
X189949000Y-129333364D01*
X189949000Y-129106636D01*
X189993232Y-128884266D01*
X190079997Y-128674797D01*
X190205960Y-128486280D01*
X190366280Y-128325960D01*
X190554797Y-128199997D01*
X190764266Y-128113232D01*
X190875451Y-128091116D01*
X190986635Y-128069000D01*
X191213365Y-128069000D01*
X191324549Y-128091116D01*
X191324549Y-128091116D01*
G37*
G36*
X171004549Y-128091116D02*
G01*
X171115734Y-128113232D01*
X171325203Y-128199997D01*
X171513720Y-128325960D01*
X171674040Y-128486280D01*
X171800003Y-128674797D01*
X171886768Y-128884266D01*
X171931000Y-129106636D01*
X171931000Y-129333364D01*
X171886768Y-129555734D01*
X171800003Y-129765203D01*
X171674040Y-129953720D01*
X171513720Y-130114040D01*
X171325203Y-130240003D01*
X171115734Y-130326768D01*
X171004549Y-130348884D01*
X170893365Y-130371000D01*
X170666635Y-130371000D01*
X170555451Y-130348884D01*
X170444266Y-130326768D01*
X170234797Y-130240003D01*
X170046280Y-130114040D01*
X169885960Y-129953720D01*
X169759997Y-129765203D01*
X169673232Y-129555734D01*
X169629000Y-129333364D01*
X169629000Y-129106636D01*
X169673232Y-128884266D01*
X169759997Y-128674797D01*
X169885960Y-128486280D01*
X170046280Y-128325960D01*
X170234797Y-128199997D01*
X170444266Y-128113232D01*
X170555451Y-128091116D01*
X170666635Y-128069000D01*
X170893365Y-128069000D01*
X171004549Y-128091116D01*
X171004549Y-128091116D01*
G37*
G36*
X186244549Y-128091116D02*
G01*
X186355734Y-128113232D01*
X186565203Y-128199997D01*
X186753720Y-128325960D01*
X186914040Y-128486280D01*
X187040003Y-128674797D01*
X187126768Y-128884266D01*
X187171000Y-129106636D01*
X187171000Y-129333364D01*
X187126768Y-129555734D01*
X187040003Y-129765203D01*
X186914040Y-129953720D01*
X186753720Y-130114040D01*
X186565203Y-130240003D01*
X186355734Y-130326768D01*
X186244549Y-130348884D01*
X186133365Y-130371000D01*
X185906635Y-130371000D01*
X185795451Y-130348884D01*
X185684266Y-130326768D01*
X185474797Y-130240003D01*
X185286280Y-130114040D01*
X185125960Y-129953720D01*
X184999997Y-129765203D01*
X184913232Y-129555734D01*
X184869000Y-129333364D01*
X184869000Y-129106636D01*
X184913232Y-128884266D01*
X184999997Y-128674797D01*
X185125960Y-128486280D01*
X185286280Y-128325960D01*
X185474797Y-128199997D01*
X185684266Y-128113232D01*
X185795451Y-128091116D01*
X185906635Y-128069000D01*
X186133365Y-128069000D01*
X186244549Y-128091116D01*
X186244549Y-128091116D01*
G37*
G36*
X196404549Y-128091116D02*
G01*
X196515734Y-128113232D01*
X196725203Y-128199997D01*
X196913720Y-128325960D01*
X197074040Y-128486280D01*
X197200003Y-128674797D01*
X197286768Y-128884266D01*
X197331000Y-129106636D01*
X197331000Y-129333364D01*
X197286768Y-129555734D01*
X197200003Y-129765203D01*
X197074040Y-129953720D01*
X196913720Y-130114040D01*
X196725203Y-130240003D01*
X196515734Y-130326768D01*
X196404549Y-130348884D01*
X196293365Y-130371000D01*
X196066635Y-130371000D01*
X195955451Y-130348884D01*
X195844266Y-130326768D01*
X195634797Y-130240003D01*
X195446280Y-130114040D01*
X195285960Y-129953720D01*
X195159997Y-129765203D01*
X195073232Y-129555734D01*
X195029000Y-129333364D01*
X195029000Y-129106636D01*
X195073232Y-128884266D01*
X195159997Y-128674797D01*
X195285960Y-128486280D01*
X195446280Y-128325960D01*
X195634797Y-128199997D01*
X195844266Y-128113232D01*
X195955451Y-128091116D01*
X196066635Y-128069000D01*
X196293365Y-128069000D01*
X196404549Y-128091116D01*
X196404549Y-128091116D01*
G37*
G36*
X121004549Y-128091116D02*
G01*
X121115734Y-128113232D01*
X121325203Y-128199997D01*
X121513720Y-128325960D01*
X121674040Y-128486280D01*
X121800003Y-128674797D01*
X121886768Y-128884266D01*
X121931000Y-129106636D01*
X121931000Y-129333364D01*
X121886768Y-129555734D01*
X121800003Y-129765203D01*
X121674040Y-129953720D01*
X121513720Y-130114040D01*
X121325203Y-130240003D01*
X121115734Y-130326768D01*
X121004549Y-130348884D01*
X120893365Y-130371000D01*
X120666635Y-130371000D01*
X120555451Y-130348884D01*
X120444266Y-130326768D01*
X120234797Y-130240003D01*
X120046280Y-130114040D01*
X119885960Y-129953720D01*
X119759997Y-129765203D01*
X119673232Y-129555734D01*
X119629000Y-129333364D01*
X119629000Y-129106636D01*
X119673232Y-128884266D01*
X119759997Y-128674797D01*
X119885960Y-128486280D01*
X120046280Y-128325960D01*
X120234797Y-128199997D01*
X120444266Y-128113232D01*
X120555451Y-128091116D01*
X120666635Y-128069000D01*
X120893365Y-128069000D01*
X121004549Y-128091116D01*
X121004549Y-128091116D01*
G37*
G36*
X165906823Y-128381313D02*
G01*
X166067242Y-128429976D01*
X166172579Y-128486280D01*
X166215078Y-128508996D01*
X166344659Y-128615341D01*
X166451004Y-128744922D01*
X166451005Y-128744924D01*
X166530024Y-128892758D01*
X166578687Y-129053177D01*
X166595117Y-129220000D01*
X166578687Y-129386823D01*
X166530024Y-129547242D01*
X166459114Y-129679906D01*
X166451004Y-129695078D01*
X166344659Y-129824659D01*
X166215078Y-129931004D01*
X166215076Y-129931005D01*
X166067242Y-130010024D01*
X165906823Y-130058687D01*
X165781804Y-130071000D01*
X165698196Y-130071000D01*
X165573177Y-130058687D01*
X165412758Y-130010024D01*
X165264924Y-129931005D01*
X165264922Y-129931004D01*
X165135341Y-129824659D01*
X165028996Y-129695078D01*
X165020886Y-129679906D01*
X164949976Y-129547242D01*
X164901313Y-129386823D01*
X164884883Y-129220000D01*
X164901313Y-129053177D01*
X164949976Y-128892758D01*
X165028995Y-128744924D01*
X165028996Y-128744922D01*
X165135341Y-128615341D01*
X165264922Y-128508996D01*
X165307421Y-128486280D01*
X165412758Y-128429976D01*
X165573177Y-128381313D01*
X165698196Y-128369000D01*
X165781804Y-128369000D01*
X165906823Y-128381313D01*
X165906823Y-128381313D01*
G37*
G36*
X115906823Y-128381313D02*
G01*
X116067242Y-128429976D01*
X116172579Y-128486280D01*
X116215078Y-128508996D01*
X116344659Y-128615341D01*
X116451004Y-128744922D01*
X116451005Y-128744924D01*
X116530024Y-128892758D01*
X116578687Y-129053177D01*
X116595117Y-129220000D01*
X116578687Y-129386823D01*
X116530024Y-129547242D01*
X116459114Y-129679906D01*
X116451004Y-129695078D01*
X116344659Y-129824659D01*
X116215078Y-129931004D01*
X116215076Y-129931005D01*
X116067242Y-130010024D01*
X115906823Y-130058687D01*
X115781804Y-130071000D01*
X115698196Y-130071000D01*
X115573177Y-130058687D01*
X115412758Y-130010024D01*
X115264924Y-129931005D01*
X115264922Y-129931004D01*
X115135341Y-129824659D01*
X115028996Y-129695078D01*
X115020886Y-129679906D01*
X114949976Y-129547242D01*
X114901313Y-129386823D01*
X114884883Y-129220000D01*
X114901313Y-129053177D01*
X114949976Y-128892758D01*
X115028995Y-128744924D01*
X115028996Y-128744922D01*
X115135341Y-128615341D01*
X115264922Y-128508996D01*
X115307421Y-128486280D01*
X115412758Y-128429976D01*
X115573177Y-128381313D01*
X115698196Y-128369000D01*
X115781804Y-128369000D01*
X115906823Y-128381313D01*
X115906823Y-128381313D01*
G37*
G36*
X121004549Y-124281116D02*
G01*
X121115734Y-124303232D01*
X121325203Y-124389997D01*
X121513720Y-124515960D01*
X121674040Y-124676280D01*
X121800003Y-124864797D01*
X121886768Y-125074266D01*
X121931000Y-125296636D01*
X121931000Y-125523364D01*
X121886768Y-125745734D01*
X121800003Y-125955203D01*
X121674040Y-126143720D01*
X121513720Y-126304040D01*
X121325203Y-126430003D01*
X121115734Y-126516768D01*
X121004549Y-126538884D01*
X120893365Y-126561000D01*
X120666635Y-126561000D01*
X120555451Y-126538884D01*
X120444266Y-126516768D01*
X120234797Y-126430003D01*
X120046280Y-126304040D01*
X119885960Y-126143720D01*
X119759997Y-125955203D01*
X119673232Y-125745734D01*
X119629000Y-125523364D01*
X119629000Y-125296636D01*
X119673232Y-125074266D01*
X119759997Y-124864797D01*
X119885960Y-124676280D01*
X120046280Y-124515960D01*
X120234797Y-124389997D01*
X120444266Y-124303232D01*
X120555451Y-124281116D01*
X120666635Y-124259000D01*
X120893365Y-124259000D01*
X121004549Y-124281116D01*
X121004549Y-124281116D01*
G37*
G36*
X171004549Y-124281116D02*
G01*
X171115734Y-124303232D01*
X171325203Y-124389997D01*
X171513720Y-124515960D01*
X171674040Y-124676280D01*
X171800003Y-124864797D01*
X171886768Y-125074266D01*
X171931000Y-125296636D01*
X171931000Y-125523364D01*
X171886768Y-125745734D01*
X171800003Y-125955203D01*
X171674040Y-126143720D01*
X171513720Y-126304040D01*
X171325203Y-126430003D01*
X171115734Y-126516768D01*
X171004549Y-126538884D01*
X170893365Y-126561000D01*
X170666635Y-126561000D01*
X170555451Y-126538884D01*
X170444266Y-126516768D01*
X170234797Y-126430003D01*
X170046280Y-126304040D01*
X169885960Y-126143720D01*
X169759997Y-125955203D01*
X169673232Y-125745734D01*
X169629000Y-125523364D01*
X169629000Y-125296636D01*
X169673232Y-125074266D01*
X169759997Y-124864797D01*
X169885960Y-124676280D01*
X170046280Y-124515960D01*
X170234797Y-124389997D01*
X170444266Y-124303232D01*
X170555451Y-124281116D01*
X170666635Y-124259000D01*
X170893365Y-124259000D01*
X171004549Y-124281116D01*
X171004549Y-124281116D01*
G37*
G36*
X141324549Y-120471116D02*
G01*
X141435734Y-120493232D01*
X141645203Y-120579997D01*
X141833720Y-120705960D01*
X141994040Y-120866280D01*
X142120003Y-121054797D01*
X142120004Y-121054799D01*
X142206768Y-121264267D01*
X142251000Y-121486635D01*
X142251000Y-121713365D01*
X142206768Y-121935733D01*
X142121131Y-122142481D01*
X142120003Y-122145203D01*
X141994040Y-122333720D01*
X141833720Y-122494040D01*
X141645203Y-122620003D01*
X141435734Y-122706768D01*
X141324549Y-122728884D01*
X141213365Y-122751000D01*
X140986635Y-122751000D01*
X140875451Y-122728884D01*
X140764266Y-122706768D01*
X140554797Y-122620003D01*
X140366280Y-122494040D01*
X140205960Y-122333720D01*
X140079997Y-122145203D01*
X140078870Y-122142481D01*
X139993232Y-121935733D01*
X139949000Y-121713365D01*
X139949000Y-121486635D01*
X139993232Y-121264267D01*
X140079996Y-121054799D01*
X140079997Y-121054797D01*
X140205960Y-120866280D01*
X140366280Y-120705960D01*
X140554797Y-120579997D01*
X140764266Y-120493232D01*
X140875451Y-120471116D01*
X140986635Y-120449000D01*
X141213365Y-120449000D01*
X141324549Y-120471116D01*
X141324549Y-120471116D01*
G37*
G36*
X136244549Y-120471116D02*
G01*
X136355734Y-120493232D01*
X136565203Y-120579997D01*
X136753720Y-120705960D01*
X136914040Y-120866280D01*
X137040003Y-121054797D01*
X137040004Y-121054799D01*
X137126768Y-121264267D01*
X137171000Y-121486635D01*
X137171000Y-121713365D01*
X137126768Y-121935733D01*
X137041131Y-122142481D01*
X137040003Y-122145203D01*
X136914040Y-122333720D01*
X136753720Y-122494040D01*
X136565203Y-122620003D01*
X136355734Y-122706768D01*
X136244549Y-122728884D01*
X136133365Y-122751000D01*
X135906635Y-122751000D01*
X135795451Y-122728884D01*
X135684266Y-122706768D01*
X135474797Y-122620003D01*
X135286280Y-122494040D01*
X135125960Y-122333720D01*
X134999997Y-122145203D01*
X134998870Y-122142481D01*
X134913232Y-121935733D01*
X134869000Y-121713365D01*
X134869000Y-121486635D01*
X134913232Y-121264267D01*
X134999996Y-121054799D01*
X134999997Y-121054797D01*
X135125960Y-120866280D01*
X135286280Y-120705960D01*
X135474797Y-120579997D01*
X135684266Y-120493232D01*
X135795451Y-120471116D01*
X135906635Y-120449000D01*
X136133365Y-120449000D01*
X136244549Y-120471116D01*
X136244549Y-120471116D01*
G37*
G36*
X186244549Y-120471116D02*
G01*
X186355734Y-120493232D01*
X186565203Y-120579997D01*
X186753720Y-120705960D01*
X186914040Y-120866280D01*
X187040003Y-121054797D01*
X187040004Y-121054799D01*
X187126768Y-121264267D01*
X187171000Y-121486635D01*
X187171000Y-121713365D01*
X187126768Y-121935733D01*
X187041131Y-122142481D01*
X187040003Y-122145203D01*
X186914040Y-122333720D01*
X186753720Y-122494040D01*
X186565203Y-122620003D01*
X186355734Y-122706768D01*
X186244549Y-122728884D01*
X186133365Y-122751000D01*
X185906635Y-122751000D01*
X185795451Y-122728884D01*
X185684266Y-122706768D01*
X185474797Y-122620003D01*
X185286280Y-122494040D01*
X185125960Y-122333720D01*
X184999997Y-122145203D01*
X184998870Y-122142481D01*
X184913232Y-121935733D01*
X184869000Y-121713365D01*
X184869000Y-121486635D01*
X184913232Y-121264267D01*
X184999996Y-121054799D01*
X184999997Y-121054797D01*
X185125960Y-120866280D01*
X185286280Y-120705960D01*
X185474797Y-120579997D01*
X185684266Y-120493232D01*
X185795451Y-120471116D01*
X185906635Y-120449000D01*
X186133365Y-120449000D01*
X186244549Y-120471116D01*
X186244549Y-120471116D01*
G37*
G36*
X191324549Y-120471116D02*
G01*
X191435734Y-120493232D01*
X191645203Y-120579997D01*
X191833720Y-120705960D01*
X191994040Y-120866280D01*
X192120003Y-121054797D01*
X192120004Y-121054799D01*
X192206768Y-121264267D01*
X192251000Y-121486635D01*
X192251000Y-121713365D01*
X192206768Y-121935733D01*
X192121131Y-122142481D01*
X192120003Y-122145203D01*
X191994040Y-122333720D01*
X191833720Y-122494040D01*
X191645203Y-122620003D01*
X191435734Y-122706768D01*
X191324549Y-122728884D01*
X191213365Y-122751000D01*
X190986635Y-122751000D01*
X190875451Y-122728884D01*
X190764266Y-122706768D01*
X190554797Y-122620003D01*
X190366280Y-122494040D01*
X190205960Y-122333720D01*
X190079997Y-122145203D01*
X190078870Y-122142481D01*
X189993232Y-121935733D01*
X189949000Y-121713365D01*
X189949000Y-121486635D01*
X189993232Y-121264267D01*
X190079996Y-121054799D01*
X190079997Y-121054797D01*
X190205960Y-120866280D01*
X190366280Y-120705960D01*
X190554797Y-120579997D01*
X190764266Y-120493232D01*
X190875451Y-120471116D01*
X190986635Y-120449000D01*
X191213365Y-120449000D01*
X191324549Y-120471116D01*
X191324549Y-120471116D01*
G37*
G36*
X196404549Y-120471116D02*
G01*
X196515734Y-120493232D01*
X196725203Y-120579997D01*
X196913720Y-120705960D01*
X197074040Y-120866280D01*
X197200003Y-121054797D01*
X197200004Y-121054799D01*
X197286768Y-121264267D01*
X197331000Y-121486635D01*
X197331000Y-121713365D01*
X197286768Y-121935733D01*
X197201131Y-122142481D01*
X197200003Y-122145203D01*
X197074040Y-122333720D01*
X196913720Y-122494040D01*
X196725203Y-122620003D01*
X196515734Y-122706768D01*
X196404549Y-122728884D01*
X196293365Y-122751000D01*
X196066635Y-122751000D01*
X195955451Y-122728884D01*
X195844266Y-122706768D01*
X195634797Y-122620003D01*
X195446280Y-122494040D01*
X195285960Y-122333720D01*
X195159997Y-122145203D01*
X195158870Y-122142481D01*
X195073232Y-121935733D01*
X195029000Y-121713365D01*
X195029000Y-121486635D01*
X195073232Y-121264267D01*
X195159996Y-121054799D01*
X195159997Y-121054797D01*
X195285960Y-120866280D01*
X195446280Y-120705960D01*
X195634797Y-120579997D01*
X195844266Y-120493232D01*
X195955451Y-120471116D01*
X196066635Y-120449000D01*
X196293365Y-120449000D01*
X196404549Y-120471116D01*
X196404549Y-120471116D01*
G37*
G36*
X121931000Y-122751000D02*
G01*
X119629000Y-122751000D01*
X119629000Y-120449000D01*
X121931000Y-120449000D01*
X121931000Y-122751000D01*
X121931000Y-122751000D01*
G37*
G36*
X146404549Y-120471116D02*
G01*
X146515734Y-120493232D01*
X146725203Y-120579997D01*
X146913720Y-120705960D01*
X147074040Y-120866280D01*
X147200003Y-121054797D01*
X147200004Y-121054799D01*
X147286768Y-121264267D01*
X147331000Y-121486635D01*
X147331000Y-121713365D01*
X147286768Y-121935733D01*
X147201131Y-122142481D01*
X147200003Y-122145203D01*
X147074040Y-122333720D01*
X146913720Y-122494040D01*
X146725203Y-122620003D01*
X146515734Y-122706768D01*
X146404549Y-122728884D01*
X146293365Y-122751000D01*
X146066635Y-122751000D01*
X145955451Y-122728884D01*
X145844266Y-122706768D01*
X145634797Y-122620003D01*
X145446280Y-122494040D01*
X145285960Y-122333720D01*
X145159997Y-122145203D01*
X145158870Y-122142481D01*
X145073232Y-121935733D01*
X145029000Y-121713365D01*
X145029000Y-121486635D01*
X145073232Y-121264267D01*
X145159996Y-121054799D01*
X145159997Y-121054797D01*
X145285960Y-120866280D01*
X145446280Y-120705960D01*
X145634797Y-120579997D01*
X145844266Y-120493232D01*
X145955451Y-120471116D01*
X146066635Y-120449000D01*
X146293365Y-120449000D01*
X146404549Y-120471116D01*
X146404549Y-120471116D01*
G37*
G36*
X171931000Y-122751000D02*
G01*
X169629000Y-122751000D01*
X169629000Y-120449000D01*
X171931000Y-120449000D01*
X171931000Y-122751000D01*
X171931000Y-122751000D01*
G37*
G36*
X165988228Y-120781703D02*
G01*
X166143100Y-120845853D01*
X166282481Y-120938985D01*
X166401015Y-121057519D01*
X166494147Y-121196900D01*
X166558297Y-121351772D01*
X166591000Y-121516184D01*
X166591000Y-121683816D01*
X166558297Y-121848228D01*
X166494147Y-122003100D01*
X166401015Y-122142481D01*
X166282481Y-122261015D01*
X166143100Y-122354147D01*
X165988228Y-122418297D01*
X165823816Y-122451000D01*
X165656184Y-122451000D01*
X165491772Y-122418297D01*
X165336900Y-122354147D01*
X165197519Y-122261015D01*
X165078985Y-122142481D01*
X164985853Y-122003100D01*
X164921703Y-121848228D01*
X164889000Y-121683816D01*
X164889000Y-121516184D01*
X164921703Y-121351772D01*
X164985853Y-121196900D01*
X165078985Y-121057519D01*
X165197519Y-120938985D01*
X165336900Y-120845853D01*
X165491772Y-120781703D01*
X165656184Y-120749000D01*
X165823816Y-120749000D01*
X165988228Y-120781703D01*
X165988228Y-120781703D01*
G37*
G36*
X115988228Y-120781703D02*
G01*
X116143100Y-120845853D01*
X116282481Y-120938985D01*
X116401015Y-121057519D01*
X116494147Y-121196900D01*
X116558297Y-121351772D01*
X116591000Y-121516184D01*
X116591000Y-121683816D01*
X116558297Y-121848228D01*
X116494147Y-122003100D01*
X116401015Y-122142481D01*
X116282481Y-122261015D01*
X116143100Y-122354147D01*
X115988228Y-122418297D01*
X115823816Y-122451000D01*
X115656184Y-122451000D01*
X115491772Y-122418297D01*
X115336900Y-122354147D01*
X115197519Y-122261015D01*
X115078985Y-122142481D01*
X114985853Y-122003100D01*
X114921703Y-121848228D01*
X114889000Y-121683816D01*
X114889000Y-121516184D01*
X114921703Y-121351772D01*
X114985853Y-121196900D01*
X115078985Y-121057519D01*
X115197519Y-120938985D01*
X115336900Y-120845853D01*
X115491772Y-120781703D01*
X115656184Y-120749000D01*
X115823816Y-120749000D01*
X115988228Y-120781703D01*
X115988228Y-120781703D01*
G37*
G36*
X169812585Y-113093802D02*
G01*
X169962410Y-113123604D01*
X170244674Y-113240521D01*
X170498705Y-113410259D01*
X170714741Y-113626295D01*
X170884479Y-113880326D01*
X171001396Y-114162590D01*
X171061000Y-114462240D01*
X171061000Y-114767760D01*
X171001396Y-115067410D01*
X170884479Y-115349674D01*
X170714741Y-115603705D01*
X170498705Y-115819741D01*
X170244674Y-115989479D01*
X169962410Y-116106396D01*
X169812585Y-116136198D01*
X169662761Y-116166000D01*
X169357239Y-116166000D01*
X169207415Y-116136198D01*
X169057590Y-116106396D01*
X168775326Y-115989479D01*
X168521295Y-115819741D01*
X168305259Y-115603705D01*
X168135521Y-115349674D01*
X168018604Y-115067410D01*
X167959000Y-114767760D01*
X167959000Y-114462240D01*
X168018604Y-114162590D01*
X168135521Y-113880326D01*
X168305259Y-113626295D01*
X168521295Y-113410259D01*
X168775326Y-113240521D01*
X169057590Y-113123604D01*
X169207415Y-113093802D01*
X169357239Y-113064000D01*
X169662761Y-113064000D01*
X169812585Y-113093802D01*
X169812585Y-113093802D01*
G37*
G36*
X119812585Y-113093802D02*
G01*
X119962410Y-113123604D01*
X120244674Y-113240521D01*
X120498705Y-113410259D01*
X120714741Y-113626295D01*
X120884479Y-113880326D01*
X121001396Y-114162590D01*
X121061000Y-114462240D01*
X121061000Y-114767760D01*
X121001396Y-115067410D01*
X120884479Y-115349674D01*
X120714741Y-115603705D01*
X120498705Y-115819741D01*
X120244674Y-115989479D01*
X119962410Y-116106396D01*
X119812585Y-116136198D01*
X119662761Y-116166000D01*
X119357239Y-116166000D01*
X119207415Y-116136198D01*
X119057590Y-116106396D01*
X118775326Y-115989479D01*
X118521295Y-115819741D01*
X118305259Y-115603705D01*
X118135521Y-115349674D01*
X118018604Y-115067410D01*
X117959000Y-114767760D01*
X117959000Y-114462240D01*
X118018604Y-114162590D01*
X118135521Y-113880326D01*
X118305259Y-113626295D01*
X118521295Y-113410259D01*
X118775326Y-113240521D01*
X119057590Y-113123604D01*
X119207415Y-113093802D01*
X119357239Y-113064000D01*
X119662761Y-113064000D01*
X119812585Y-113093802D01*
X119812585Y-113093802D01*
G37*
G36*
X124892585Y-113093802D02*
G01*
X125042410Y-113123604D01*
X125324674Y-113240521D01*
X125578705Y-113410259D01*
X125794741Y-113626295D01*
X125964479Y-113880326D01*
X126081396Y-114162590D01*
X126141000Y-114462240D01*
X126141000Y-114767760D01*
X126081396Y-115067410D01*
X125964479Y-115349674D01*
X125794741Y-115603705D01*
X125578705Y-115819741D01*
X125324674Y-115989479D01*
X125042410Y-116106396D01*
X124892585Y-116136198D01*
X124742761Y-116166000D01*
X124437239Y-116166000D01*
X124287415Y-116136198D01*
X124137590Y-116106396D01*
X123855326Y-115989479D01*
X123601295Y-115819741D01*
X123385259Y-115603705D01*
X123215521Y-115349674D01*
X123098604Y-115067410D01*
X123039000Y-114767760D01*
X123039000Y-114462240D01*
X123098604Y-114162590D01*
X123215521Y-113880326D01*
X123385259Y-113626295D01*
X123601295Y-113410259D01*
X123855326Y-113240521D01*
X124137590Y-113123604D01*
X124287415Y-113093802D01*
X124437239Y-113064000D01*
X124742761Y-113064000D01*
X124892585Y-113093802D01*
X124892585Y-113093802D01*
G37*
G36*
X181221000Y-116166000D02*
G01*
X178119000Y-116166000D01*
X178119000Y-113064000D01*
X181221000Y-113064000D01*
X181221000Y-116166000D01*
X181221000Y-116166000D01*
G37*
G36*
X131221000Y-116166000D02*
G01*
X128119000Y-116166000D01*
X128119000Y-113064000D01*
X131221000Y-113064000D01*
X131221000Y-116166000D01*
X131221000Y-116166000D01*
G37*
G36*
X174892585Y-113093802D02*
G01*
X175042410Y-113123604D01*
X175324674Y-113240521D01*
X175578705Y-113410259D01*
X175794741Y-113626295D01*
X175964479Y-113880326D01*
X176081396Y-114162590D01*
X176141000Y-114462240D01*
X176141000Y-114767760D01*
X176081396Y-115067410D01*
X175964479Y-115349674D01*
X175794741Y-115603705D01*
X175578705Y-115819741D01*
X175324674Y-115989479D01*
X175042410Y-116106396D01*
X174892585Y-116136198D01*
X174742761Y-116166000D01*
X174437239Y-116166000D01*
X174287415Y-116136198D01*
X174137590Y-116106396D01*
X173855326Y-115989479D01*
X173601295Y-115819741D01*
X173385259Y-115603705D01*
X173215521Y-115349674D01*
X173098604Y-115067410D01*
X173039000Y-114767760D01*
X173039000Y-114462240D01*
X173098604Y-114162590D01*
X173215521Y-113880326D01*
X173385259Y-113626295D01*
X173601295Y-113410259D01*
X173855326Y-113240521D01*
X174137590Y-113123604D01*
X174287415Y-113093802D01*
X174437239Y-113064000D01*
X174742761Y-113064000D01*
X174892585Y-113093802D01*
X174892585Y-113093802D01*
G37*
G36*
X161012585Y-110888802D02*
G01*
X161162410Y-110918604D01*
X161444674Y-111035521D01*
X161698705Y-111205259D01*
X161914741Y-111421295D01*
X162084479Y-111675326D01*
X162201396Y-111957590D01*
X162261000Y-112257240D01*
X162261000Y-112562760D01*
X162201396Y-112862410D01*
X162084479Y-113144674D01*
X161914741Y-113398705D01*
X161698705Y-113614741D01*
X161444674Y-113784479D01*
X161162410Y-113901396D01*
X161012585Y-113931198D01*
X160862761Y-113961000D01*
X160557239Y-113961000D01*
X160407415Y-113931198D01*
X160257590Y-113901396D01*
X159975326Y-113784479D01*
X159721295Y-113614741D01*
X159505259Y-113398705D01*
X159335521Y-113144674D01*
X159218604Y-112862410D01*
X159159000Y-112562760D01*
X159159000Y-112257240D01*
X159218604Y-111957590D01*
X159335521Y-111675326D01*
X159505259Y-111421295D01*
X159721295Y-111205259D01*
X159975326Y-111035521D01*
X160257590Y-110918604D01*
X160407415Y-110888802D01*
X160557239Y-110859000D01*
X160862761Y-110859000D01*
X161012585Y-110888802D01*
X161012585Y-110888802D01*
G37*
G36*
X204012585Y-110888802D02*
G01*
X204162410Y-110918604D01*
X204444674Y-111035521D01*
X204698705Y-111205259D01*
X204914741Y-111421295D01*
X205084479Y-111675326D01*
X205201396Y-111957590D01*
X205261000Y-112257240D01*
X205261000Y-112562760D01*
X205201396Y-112862410D01*
X205084479Y-113144674D01*
X204914741Y-113398705D01*
X204698705Y-113614741D01*
X204444674Y-113784479D01*
X204162410Y-113901396D01*
X204012585Y-113931198D01*
X203862761Y-113961000D01*
X203557239Y-113961000D01*
X203407415Y-113931198D01*
X203257590Y-113901396D01*
X202975326Y-113784479D01*
X202721295Y-113614741D01*
X202505259Y-113398705D01*
X202335521Y-113144674D01*
X202218604Y-112862410D01*
X202159000Y-112562760D01*
X202159000Y-112257240D01*
X202218604Y-111957590D01*
X202335521Y-111675326D01*
X202505259Y-111421295D01*
X202721295Y-111205259D01*
X202975326Y-111035521D01*
X203257590Y-110918604D01*
X203407415Y-110888802D01*
X203557239Y-110859000D01*
X203862761Y-110859000D01*
X204012585Y-110888802D01*
X204012585Y-110888802D01*
G37*
G36*
X154012585Y-110888802D02*
G01*
X154162410Y-110918604D01*
X154444674Y-111035521D01*
X154698705Y-111205259D01*
X154914741Y-111421295D01*
X155084479Y-111675326D01*
X155201396Y-111957590D01*
X155261000Y-112257240D01*
X155261000Y-112562760D01*
X155201396Y-112862410D01*
X155084479Y-113144674D01*
X154914741Y-113398705D01*
X154698705Y-113614741D01*
X154444674Y-113784479D01*
X154162410Y-113901396D01*
X154012585Y-113931198D01*
X153862761Y-113961000D01*
X153557239Y-113961000D01*
X153407415Y-113931198D01*
X153257590Y-113901396D01*
X152975326Y-113784479D01*
X152721295Y-113614741D01*
X152505259Y-113398705D01*
X152335521Y-113144674D01*
X152218604Y-112862410D01*
X152159000Y-112562760D01*
X152159000Y-112257240D01*
X152218604Y-111957590D01*
X152335521Y-111675326D01*
X152505259Y-111421295D01*
X152721295Y-111205259D01*
X152975326Y-111035521D01*
X153257590Y-110918604D01*
X153407415Y-110888802D01*
X153557239Y-110859000D01*
X153862761Y-110859000D01*
X154012585Y-110888802D01*
X154012585Y-110888802D01*
G37*
G36*
X111012585Y-110888802D02*
G01*
X111162410Y-110918604D01*
X111444674Y-111035521D01*
X111698705Y-111205259D01*
X111914741Y-111421295D01*
X112084479Y-111675326D01*
X112201396Y-111957590D01*
X112261000Y-112257240D01*
X112261000Y-112562760D01*
X112201396Y-112862410D01*
X112084479Y-113144674D01*
X111914741Y-113398705D01*
X111698705Y-113614741D01*
X111444674Y-113784479D01*
X111162410Y-113901396D01*
X111012585Y-113931198D01*
X110862761Y-113961000D01*
X110557239Y-113961000D01*
X110407415Y-113931198D01*
X110257590Y-113901396D01*
X109975326Y-113784479D01*
X109721295Y-113614741D01*
X109505259Y-113398705D01*
X109335521Y-113144674D01*
X109218604Y-112862410D01*
X109159000Y-112562760D01*
X109159000Y-112257240D01*
X109218604Y-111957590D01*
X109335521Y-111675326D01*
X109505259Y-111421295D01*
X109721295Y-111205259D01*
X109975326Y-111035521D01*
X110257590Y-110918604D01*
X110407415Y-110888802D01*
X110557239Y-110859000D01*
X110862761Y-110859000D01*
X111012585Y-110888802D01*
X111012585Y-110888802D01*
G37*
G36*
X204012585Y-103888802D02*
G01*
X204162410Y-103918604D01*
X204444674Y-104035521D01*
X204698705Y-104205259D01*
X204914741Y-104421295D01*
X205084479Y-104675326D01*
X205201396Y-104957590D01*
X205261000Y-105257240D01*
X205261000Y-105562760D01*
X205201396Y-105862410D01*
X205084479Y-106144674D01*
X204914741Y-106398705D01*
X204698705Y-106614741D01*
X204444674Y-106784479D01*
X204162410Y-106901396D01*
X204012585Y-106931198D01*
X203862761Y-106961000D01*
X203557239Y-106961000D01*
X203407415Y-106931198D01*
X203257590Y-106901396D01*
X202975326Y-106784479D01*
X202721295Y-106614741D01*
X202505259Y-106398705D01*
X202335521Y-106144674D01*
X202218604Y-105862410D01*
X202159000Y-105562760D01*
X202159000Y-105257240D01*
X202218604Y-104957590D01*
X202335521Y-104675326D01*
X202505259Y-104421295D01*
X202721295Y-104205259D01*
X202975326Y-104035521D01*
X203257590Y-103918604D01*
X203407415Y-103888802D01*
X203557239Y-103859000D01*
X203862761Y-103859000D01*
X204012585Y-103888802D01*
X204012585Y-103888802D01*
G37*
G36*
X161012585Y-103888802D02*
G01*
X161162410Y-103918604D01*
X161444674Y-104035521D01*
X161698705Y-104205259D01*
X161914741Y-104421295D01*
X162084479Y-104675326D01*
X162201396Y-104957590D01*
X162261000Y-105257240D01*
X162261000Y-105562760D01*
X162201396Y-105862410D01*
X162084479Y-106144674D01*
X161914741Y-106398705D01*
X161698705Y-106614741D01*
X161444674Y-106784479D01*
X161162410Y-106901396D01*
X161012585Y-106931198D01*
X160862761Y-106961000D01*
X160557239Y-106961000D01*
X160407415Y-106931198D01*
X160257590Y-106901396D01*
X159975326Y-106784479D01*
X159721295Y-106614741D01*
X159505259Y-106398705D01*
X159335521Y-106144674D01*
X159218604Y-105862410D01*
X159159000Y-105562760D01*
X159159000Y-105257240D01*
X159218604Y-104957590D01*
X159335521Y-104675326D01*
X159505259Y-104421295D01*
X159721295Y-104205259D01*
X159975326Y-104035521D01*
X160257590Y-103918604D01*
X160407415Y-103888802D01*
X160557239Y-103859000D01*
X160862761Y-103859000D01*
X161012585Y-103888802D01*
X161012585Y-103888802D01*
G37*
G36*
X154012585Y-103888802D02*
G01*
X154162410Y-103918604D01*
X154444674Y-104035521D01*
X154698705Y-104205259D01*
X154914741Y-104421295D01*
X155084479Y-104675326D01*
X155201396Y-104957590D01*
X155261000Y-105257240D01*
X155261000Y-105562760D01*
X155201396Y-105862410D01*
X155084479Y-106144674D01*
X154914741Y-106398705D01*
X154698705Y-106614741D01*
X154444674Y-106784479D01*
X154162410Y-106901396D01*
X154012585Y-106931198D01*
X153862761Y-106961000D01*
X153557239Y-106961000D01*
X153407415Y-106931198D01*
X153257590Y-106901396D01*
X152975326Y-106784479D01*
X152721295Y-106614741D01*
X152505259Y-106398705D01*
X152335521Y-106144674D01*
X152218604Y-105862410D01*
X152159000Y-105562760D01*
X152159000Y-105257240D01*
X152218604Y-104957590D01*
X152335521Y-104675326D01*
X152505259Y-104421295D01*
X152721295Y-104205259D01*
X152975326Y-104035521D01*
X153257590Y-103918604D01*
X153407415Y-103888802D01*
X153557239Y-103859000D01*
X153862761Y-103859000D01*
X154012585Y-103888802D01*
X154012585Y-103888802D01*
G37*
G36*
X111012585Y-103888802D02*
G01*
X111162410Y-103918604D01*
X111444674Y-104035521D01*
X111698705Y-104205259D01*
X111914741Y-104421295D01*
X112084479Y-104675326D01*
X112201396Y-104957590D01*
X112261000Y-105257240D01*
X112261000Y-105562760D01*
X112201396Y-105862410D01*
X112084479Y-106144674D01*
X111914741Y-106398705D01*
X111698705Y-106614741D01*
X111444674Y-106784479D01*
X111162410Y-106901396D01*
X111012585Y-106931198D01*
X110862761Y-106961000D01*
X110557239Y-106961000D01*
X110407415Y-106931198D01*
X110257590Y-106901396D01*
X109975326Y-106784479D01*
X109721295Y-106614741D01*
X109505259Y-106398705D01*
X109335521Y-106144674D01*
X109218604Y-105862410D01*
X109159000Y-105562760D01*
X109159000Y-105257240D01*
X109218604Y-104957590D01*
X109335521Y-104675326D01*
X109505259Y-104421295D01*
X109721295Y-104205259D01*
X109975326Y-104035521D01*
X110257590Y-103918604D01*
X110407415Y-103888802D01*
X110557239Y-103859000D01*
X110862761Y-103859000D01*
X111012585Y-103888802D01*
X111012585Y-103888802D01*
G37*
G36*
X121061000Y-104756000D02*
G01*
X117959000Y-104756000D01*
X117959000Y-101654000D01*
X121061000Y-101654000D01*
X121061000Y-104756000D01*
X121061000Y-104756000D01*
G37*
G36*
X124892585Y-101683802D02*
G01*
X125042410Y-101713604D01*
X125324674Y-101830521D01*
X125578705Y-102000259D01*
X125794741Y-102216295D01*
X125964479Y-102470326D01*
X126081396Y-102752590D01*
X126141000Y-103052240D01*
X126141000Y-103357760D01*
X126081396Y-103657410D01*
X125964479Y-103939674D01*
X125794741Y-104193705D01*
X125578705Y-104409741D01*
X125324674Y-104579479D01*
X125042410Y-104696396D01*
X124892585Y-104726198D01*
X124742761Y-104756000D01*
X124437239Y-104756000D01*
X124287415Y-104726198D01*
X124137590Y-104696396D01*
X123855326Y-104579479D01*
X123601295Y-104409741D01*
X123385259Y-104193705D01*
X123215521Y-103939674D01*
X123098604Y-103657410D01*
X123039000Y-103357760D01*
X123039000Y-103052240D01*
X123098604Y-102752590D01*
X123215521Y-102470326D01*
X123385259Y-102216295D01*
X123601295Y-102000259D01*
X123855326Y-101830521D01*
X124137590Y-101713604D01*
X124287415Y-101683802D01*
X124437239Y-101654000D01*
X124742761Y-101654000D01*
X124892585Y-101683802D01*
X124892585Y-101683802D01*
G37*
G36*
X129972585Y-101683802D02*
G01*
X130122410Y-101713604D01*
X130404674Y-101830521D01*
X130658705Y-102000259D01*
X130874741Y-102216295D01*
X131044479Y-102470326D01*
X131161396Y-102752590D01*
X131221000Y-103052240D01*
X131221000Y-103357760D01*
X131161396Y-103657410D01*
X131044479Y-103939674D01*
X130874741Y-104193705D01*
X130658705Y-104409741D01*
X130404674Y-104579479D01*
X130122410Y-104696396D01*
X129972585Y-104726198D01*
X129822761Y-104756000D01*
X129517239Y-104756000D01*
X129367415Y-104726198D01*
X129217590Y-104696396D01*
X128935326Y-104579479D01*
X128681295Y-104409741D01*
X128465259Y-104193705D01*
X128295521Y-103939674D01*
X128178604Y-103657410D01*
X128119000Y-103357760D01*
X128119000Y-103052240D01*
X128178604Y-102752590D01*
X128295521Y-102470326D01*
X128465259Y-102216295D01*
X128681295Y-102000259D01*
X128935326Y-101830521D01*
X129217590Y-101713604D01*
X129367415Y-101683802D01*
X129517239Y-101654000D01*
X129822761Y-101654000D01*
X129972585Y-101683802D01*
X129972585Y-101683802D01*
G37*
G36*
X140132585Y-101683802D02*
G01*
X140282410Y-101713604D01*
X140564674Y-101830521D01*
X140818705Y-102000259D01*
X141034741Y-102216295D01*
X141204479Y-102470326D01*
X141321396Y-102752590D01*
X141381000Y-103052240D01*
X141381000Y-103357760D01*
X141321396Y-103657410D01*
X141204479Y-103939674D01*
X141034741Y-104193705D01*
X140818705Y-104409741D01*
X140564674Y-104579479D01*
X140282410Y-104696396D01*
X140132585Y-104726198D01*
X139982761Y-104756000D01*
X139677239Y-104756000D01*
X139527415Y-104726198D01*
X139377590Y-104696396D01*
X139095326Y-104579479D01*
X138841295Y-104409741D01*
X138625259Y-104193705D01*
X138455521Y-103939674D01*
X138338604Y-103657410D01*
X138279000Y-103357760D01*
X138279000Y-103052240D01*
X138338604Y-102752590D01*
X138455521Y-102470326D01*
X138625259Y-102216295D01*
X138841295Y-102000259D01*
X139095326Y-101830521D01*
X139377590Y-101713604D01*
X139527415Y-101683802D01*
X139677239Y-101654000D01*
X139982761Y-101654000D01*
X140132585Y-101683802D01*
X140132585Y-101683802D01*
G37*
G36*
X145212585Y-101683802D02*
G01*
X145362410Y-101713604D01*
X145644674Y-101830521D01*
X145898705Y-102000259D01*
X146114741Y-102216295D01*
X146284479Y-102470326D01*
X146401396Y-102752590D01*
X146461000Y-103052240D01*
X146461000Y-103357760D01*
X146401396Y-103657410D01*
X146284479Y-103939674D01*
X146114741Y-104193705D01*
X145898705Y-104409741D01*
X145644674Y-104579479D01*
X145362410Y-104696396D01*
X145212585Y-104726198D01*
X145062761Y-104756000D01*
X144757239Y-104756000D01*
X144607415Y-104726198D01*
X144457590Y-104696396D01*
X144175326Y-104579479D01*
X143921295Y-104409741D01*
X143705259Y-104193705D01*
X143535521Y-103939674D01*
X143418604Y-103657410D01*
X143359000Y-103357760D01*
X143359000Y-103052240D01*
X143418604Y-102752590D01*
X143535521Y-102470326D01*
X143705259Y-102216295D01*
X143921295Y-102000259D01*
X144175326Y-101830521D01*
X144457590Y-101713604D01*
X144607415Y-101683802D01*
X144757239Y-101654000D01*
X145062761Y-101654000D01*
X145212585Y-101683802D01*
X145212585Y-101683802D01*
G37*
G36*
X174892585Y-101683802D02*
G01*
X175042410Y-101713604D01*
X175324674Y-101830521D01*
X175578705Y-102000259D01*
X175794741Y-102216295D01*
X175964479Y-102470326D01*
X176081396Y-102752590D01*
X176141000Y-103052240D01*
X176141000Y-103357760D01*
X176081396Y-103657410D01*
X175964479Y-103939674D01*
X175794741Y-104193705D01*
X175578705Y-104409741D01*
X175324674Y-104579479D01*
X175042410Y-104696396D01*
X174892585Y-104726198D01*
X174742761Y-104756000D01*
X174437239Y-104756000D01*
X174287415Y-104726198D01*
X174137590Y-104696396D01*
X173855326Y-104579479D01*
X173601295Y-104409741D01*
X173385259Y-104193705D01*
X173215521Y-103939674D01*
X173098604Y-103657410D01*
X173039000Y-103357760D01*
X173039000Y-103052240D01*
X173098604Y-102752590D01*
X173215521Y-102470326D01*
X173385259Y-102216295D01*
X173601295Y-102000259D01*
X173855326Y-101830521D01*
X174137590Y-101713604D01*
X174287415Y-101683802D01*
X174437239Y-101654000D01*
X174742761Y-101654000D01*
X174892585Y-101683802D01*
X174892585Y-101683802D01*
G37*
G36*
X136301000Y-104756000D02*
G01*
X133199000Y-104756000D01*
X133199000Y-101654000D01*
X136301000Y-101654000D01*
X136301000Y-104756000D01*
X136301000Y-104756000D01*
G37*
G36*
X179972585Y-101683802D02*
G01*
X180122410Y-101713604D01*
X180404674Y-101830521D01*
X180658705Y-102000259D01*
X180874741Y-102216295D01*
X181044479Y-102470326D01*
X181161396Y-102752590D01*
X181221000Y-103052240D01*
X181221000Y-103357760D01*
X181161396Y-103657410D01*
X181044479Y-103939674D01*
X180874741Y-104193705D01*
X180658705Y-104409741D01*
X180404674Y-104579479D01*
X180122410Y-104696396D01*
X179972585Y-104726198D01*
X179822761Y-104756000D01*
X179517239Y-104756000D01*
X179367415Y-104726198D01*
X179217590Y-104696396D01*
X178935326Y-104579479D01*
X178681295Y-104409741D01*
X178465259Y-104193705D01*
X178295521Y-103939674D01*
X178178604Y-103657410D01*
X178119000Y-103357760D01*
X178119000Y-103052240D01*
X178178604Y-102752590D01*
X178295521Y-102470326D01*
X178465259Y-102216295D01*
X178681295Y-102000259D01*
X178935326Y-101830521D01*
X179217590Y-101713604D01*
X179367415Y-101683802D01*
X179517239Y-101654000D01*
X179822761Y-101654000D01*
X179972585Y-101683802D01*
X179972585Y-101683802D01*
G37*
G36*
X190132585Y-101683802D02*
G01*
X190282410Y-101713604D01*
X190564674Y-101830521D01*
X190818705Y-102000259D01*
X191034741Y-102216295D01*
X191204479Y-102470326D01*
X191321396Y-102752590D01*
X191381000Y-103052240D01*
X191381000Y-103357760D01*
X191321396Y-103657410D01*
X191204479Y-103939674D01*
X191034741Y-104193705D01*
X190818705Y-104409741D01*
X190564674Y-104579479D01*
X190282410Y-104696396D01*
X190132585Y-104726198D01*
X189982761Y-104756000D01*
X189677239Y-104756000D01*
X189527415Y-104726198D01*
X189377590Y-104696396D01*
X189095326Y-104579479D01*
X188841295Y-104409741D01*
X188625259Y-104193705D01*
X188455521Y-103939674D01*
X188338604Y-103657410D01*
X188279000Y-103357760D01*
X188279000Y-103052240D01*
X188338604Y-102752590D01*
X188455521Y-102470326D01*
X188625259Y-102216295D01*
X188841295Y-102000259D01*
X189095326Y-101830521D01*
X189377590Y-101713604D01*
X189527415Y-101683802D01*
X189677239Y-101654000D01*
X189982761Y-101654000D01*
X190132585Y-101683802D01*
X190132585Y-101683802D01*
G37*
G36*
X195212585Y-101683802D02*
G01*
X195362410Y-101713604D01*
X195644674Y-101830521D01*
X195898705Y-102000259D01*
X196114741Y-102216295D01*
X196284479Y-102470326D01*
X196401396Y-102752590D01*
X196461000Y-103052240D01*
X196461000Y-103357760D01*
X196401396Y-103657410D01*
X196284479Y-103939674D01*
X196114741Y-104193705D01*
X195898705Y-104409741D01*
X195644674Y-104579479D01*
X195362410Y-104696396D01*
X195212585Y-104726198D01*
X195062761Y-104756000D01*
X194757239Y-104756000D01*
X194607415Y-104726198D01*
X194457590Y-104696396D01*
X194175326Y-104579479D01*
X193921295Y-104409741D01*
X193705259Y-104193705D01*
X193535521Y-103939674D01*
X193418604Y-103657410D01*
X193359000Y-103357760D01*
X193359000Y-103052240D01*
X193418604Y-102752590D01*
X193535521Y-102470326D01*
X193705259Y-102216295D01*
X193921295Y-102000259D01*
X194175326Y-101830521D01*
X194457590Y-101713604D01*
X194607415Y-101683802D01*
X194757239Y-101654000D01*
X195062761Y-101654000D01*
X195212585Y-101683802D01*
X195212585Y-101683802D01*
G37*
G36*
X186301000Y-104756000D02*
G01*
X183199000Y-104756000D01*
X183199000Y-101654000D01*
X186301000Y-101654000D01*
X186301000Y-104756000D01*
X186301000Y-104756000D01*
G37*
G36*
X171061000Y-104756000D02*
G01*
X167959000Y-104756000D01*
X167959000Y-101654000D01*
X171061000Y-101654000D01*
X171061000Y-104756000D01*
X171061000Y-104756000D01*
G37*
G36*
X196404549Y-95091116D02*
G01*
X196515734Y-95113232D01*
X196725203Y-95199997D01*
X196913720Y-95325960D01*
X197074040Y-95486280D01*
X197200003Y-95674797D01*
X197286768Y-95884266D01*
X197331000Y-96106636D01*
X197331000Y-96333364D01*
X197286768Y-96555734D01*
X197200003Y-96765203D01*
X197074040Y-96953720D01*
X196913720Y-97114040D01*
X196725203Y-97240003D01*
X196515734Y-97326768D01*
X196404549Y-97348884D01*
X196293365Y-97371000D01*
X196066635Y-97371000D01*
X195955451Y-97348884D01*
X195844266Y-97326768D01*
X195634797Y-97240003D01*
X195446280Y-97114040D01*
X195285960Y-96953720D01*
X195159997Y-96765203D01*
X195073232Y-96555734D01*
X195029000Y-96333364D01*
X195029000Y-96106636D01*
X195073232Y-95884266D01*
X195159997Y-95674797D01*
X195285960Y-95486280D01*
X195446280Y-95325960D01*
X195634797Y-95199997D01*
X195844266Y-95113232D01*
X195955451Y-95091116D01*
X196066635Y-95069000D01*
X196293365Y-95069000D01*
X196404549Y-95091116D01*
X196404549Y-95091116D01*
G37*
G36*
X186244549Y-95091116D02*
G01*
X186355734Y-95113232D01*
X186565203Y-95199997D01*
X186753720Y-95325960D01*
X186914040Y-95486280D01*
X187040003Y-95674797D01*
X187126768Y-95884266D01*
X187171000Y-96106636D01*
X187171000Y-96333364D01*
X187126768Y-96555734D01*
X187040003Y-96765203D01*
X186914040Y-96953720D01*
X186753720Y-97114040D01*
X186565203Y-97240003D01*
X186355734Y-97326768D01*
X186244549Y-97348884D01*
X186133365Y-97371000D01*
X185906635Y-97371000D01*
X185795451Y-97348884D01*
X185684266Y-97326768D01*
X185474797Y-97240003D01*
X185286280Y-97114040D01*
X185125960Y-96953720D01*
X184999997Y-96765203D01*
X184913232Y-96555734D01*
X184869000Y-96333364D01*
X184869000Y-96106636D01*
X184913232Y-95884266D01*
X184999997Y-95674797D01*
X185125960Y-95486280D01*
X185286280Y-95325960D01*
X185474797Y-95199997D01*
X185684266Y-95113232D01*
X185795451Y-95091116D01*
X185906635Y-95069000D01*
X186133365Y-95069000D01*
X186244549Y-95091116D01*
X186244549Y-95091116D01*
G37*
G36*
X191324549Y-95091116D02*
G01*
X191435734Y-95113232D01*
X191645203Y-95199997D01*
X191833720Y-95325960D01*
X191994040Y-95486280D01*
X192120003Y-95674797D01*
X192206768Y-95884266D01*
X192251000Y-96106636D01*
X192251000Y-96333364D01*
X192206768Y-96555734D01*
X192120003Y-96765203D01*
X191994040Y-96953720D01*
X191833720Y-97114040D01*
X191645203Y-97240003D01*
X191435734Y-97326768D01*
X191324549Y-97348884D01*
X191213365Y-97371000D01*
X190986635Y-97371000D01*
X190875451Y-97348884D01*
X190764266Y-97326768D01*
X190554797Y-97240003D01*
X190366280Y-97114040D01*
X190205960Y-96953720D01*
X190079997Y-96765203D01*
X189993232Y-96555734D01*
X189949000Y-96333364D01*
X189949000Y-96106636D01*
X189993232Y-95884266D01*
X190079997Y-95674797D01*
X190205960Y-95486280D01*
X190366280Y-95325960D01*
X190554797Y-95199997D01*
X190764266Y-95113232D01*
X190875451Y-95091116D01*
X190986635Y-95069000D01*
X191213365Y-95069000D01*
X191324549Y-95091116D01*
X191324549Y-95091116D01*
G37*
G36*
X121004549Y-95091116D02*
G01*
X121115734Y-95113232D01*
X121325203Y-95199997D01*
X121513720Y-95325960D01*
X121674040Y-95486280D01*
X121800003Y-95674797D01*
X121886768Y-95884266D01*
X121931000Y-96106636D01*
X121931000Y-96333364D01*
X121886768Y-96555734D01*
X121800003Y-96765203D01*
X121674040Y-96953720D01*
X121513720Y-97114040D01*
X121325203Y-97240003D01*
X121115734Y-97326768D01*
X121004549Y-97348884D01*
X120893365Y-97371000D01*
X120666635Y-97371000D01*
X120555451Y-97348884D01*
X120444266Y-97326768D01*
X120234797Y-97240003D01*
X120046280Y-97114040D01*
X119885960Y-96953720D01*
X119759997Y-96765203D01*
X119673232Y-96555734D01*
X119629000Y-96333364D01*
X119629000Y-96106636D01*
X119673232Y-95884266D01*
X119759997Y-95674797D01*
X119885960Y-95486280D01*
X120046280Y-95325960D01*
X120234797Y-95199997D01*
X120444266Y-95113232D01*
X120555451Y-95091116D01*
X120666635Y-95069000D01*
X120893365Y-95069000D01*
X121004549Y-95091116D01*
X121004549Y-95091116D01*
G37*
G36*
X136244549Y-95091116D02*
G01*
X136355734Y-95113232D01*
X136565203Y-95199997D01*
X136753720Y-95325960D01*
X136914040Y-95486280D01*
X137040003Y-95674797D01*
X137126768Y-95884266D01*
X137171000Y-96106636D01*
X137171000Y-96333364D01*
X137126768Y-96555734D01*
X137040003Y-96765203D01*
X136914040Y-96953720D01*
X136753720Y-97114040D01*
X136565203Y-97240003D01*
X136355734Y-97326768D01*
X136244549Y-97348884D01*
X136133365Y-97371000D01*
X135906635Y-97371000D01*
X135795451Y-97348884D01*
X135684266Y-97326768D01*
X135474797Y-97240003D01*
X135286280Y-97114040D01*
X135125960Y-96953720D01*
X134999997Y-96765203D01*
X134913232Y-96555734D01*
X134869000Y-96333364D01*
X134869000Y-96106636D01*
X134913232Y-95884266D01*
X134999997Y-95674797D01*
X135125960Y-95486280D01*
X135286280Y-95325960D01*
X135474797Y-95199997D01*
X135684266Y-95113232D01*
X135795451Y-95091116D01*
X135906635Y-95069000D01*
X136133365Y-95069000D01*
X136244549Y-95091116D01*
X136244549Y-95091116D01*
G37*
G36*
X141324549Y-95091116D02*
G01*
X141435734Y-95113232D01*
X141645203Y-95199997D01*
X141833720Y-95325960D01*
X141994040Y-95486280D01*
X142120003Y-95674797D01*
X142206768Y-95884266D01*
X142251000Y-96106636D01*
X142251000Y-96333364D01*
X142206768Y-96555734D01*
X142120003Y-96765203D01*
X141994040Y-96953720D01*
X141833720Y-97114040D01*
X141645203Y-97240003D01*
X141435734Y-97326768D01*
X141324549Y-97348884D01*
X141213365Y-97371000D01*
X140986635Y-97371000D01*
X140875451Y-97348884D01*
X140764266Y-97326768D01*
X140554797Y-97240003D01*
X140366280Y-97114040D01*
X140205960Y-96953720D01*
X140079997Y-96765203D01*
X139993232Y-96555734D01*
X139949000Y-96333364D01*
X139949000Y-96106636D01*
X139993232Y-95884266D01*
X140079997Y-95674797D01*
X140205960Y-95486280D01*
X140366280Y-95325960D01*
X140554797Y-95199997D01*
X140764266Y-95113232D01*
X140875451Y-95091116D01*
X140986635Y-95069000D01*
X141213365Y-95069000D01*
X141324549Y-95091116D01*
X141324549Y-95091116D01*
G37*
G36*
X146404549Y-95091116D02*
G01*
X146515734Y-95113232D01*
X146725203Y-95199997D01*
X146913720Y-95325960D01*
X147074040Y-95486280D01*
X147200003Y-95674797D01*
X147286768Y-95884266D01*
X147331000Y-96106636D01*
X147331000Y-96333364D01*
X147286768Y-96555734D01*
X147200003Y-96765203D01*
X147074040Y-96953720D01*
X146913720Y-97114040D01*
X146725203Y-97240003D01*
X146515734Y-97326768D01*
X146404549Y-97348884D01*
X146293365Y-97371000D01*
X146066635Y-97371000D01*
X145955451Y-97348884D01*
X145844266Y-97326768D01*
X145634797Y-97240003D01*
X145446280Y-97114040D01*
X145285960Y-96953720D01*
X145159997Y-96765203D01*
X145073232Y-96555734D01*
X145029000Y-96333364D01*
X145029000Y-96106636D01*
X145073232Y-95884266D01*
X145159997Y-95674797D01*
X145285960Y-95486280D01*
X145446280Y-95325960D01*
X145634797Y-95199997D01*
X145844266Y-95113232D01*
X145955451Y-95091116D01*
X146066635Y-95069000D01*
X146293365Y-95069000D01*
X146404549Y-95091116D01*
X146404549Y-95091116D01*
G37*
G36*
X171004549Y-95091116D02*
G01*
X171115734Y-95113232D01*
X171325203Y-95199997D01*
X171513720Y-95325960D01*
X171674040Y-95486280D01*
X171800003Y-95674797D01*
X171886768Y-95884266D01*
X171931000Y-96106636D01*
X171931000Y-96333364D01*
X171886768Y-96555734D01*
X171800003Y-96765203D01*
X171674040Y-96953720D01*
X171513720Y-97114040D01*
X171325203Y-97240003D01*
X171115734Y-97326768D01*
X171004549Y-97348884D01*
X170893365Y-97371000D01*
X170666635Y-97371000D01*
X170555451Y-97348884D01*
X170444266Y-97326768D01*
X170234797Y-97240003D01*
X170046280Y-97114040D01*
X169885960Y-96953720D01*
X169759997Y-96765203D01*
X169673232Y-96555734D01*
X169629000Y-96333364D01*
X169629000Y-96106636D01*
X169673232Y-95884266D01*
X169759997Y-95674797D01*
X169885960Y-95486280D01*
X170046280Y-95325960D01*
X170234797Y-95199997D01*
X170444266Y-95113232D01*
X170555451Y-95091116D01*
X170666635Y-95069000D01*
X170893365Y-95069000D01*
X171004549Y-95091116D01*
X171004549Y-95091116D01*
G37*
G36*
X165906823Y-95381313D02*
G01*
X166067242Y-95429976D01*
X166172579Y-95486280D01*
X166215078Y-95508996D01*
X166344659Y-95615341D01*
X166451004Y-95744922D01*
X166451005Y-95744924D01*
X166530024Y-95892758D01*
X166578687Y-96053177D01*
X166595117Y-96220000D01*
X166578687Y-96386823D01*
X166530024Y-96547242D01*
X166459114Y-96679906D01*
X166451004Y-96695078D01*
X166344659Y-96824659D01*
X166215078Y-96931004D01*
X166215076Y-96931005D01*
X166067242Y-97010024D01*
X165906823Y-97058687D01*
X165781804Y-97071000D01*
X165698196Y-97071000D01*
X165573177Y-97058687D01*
X165412758Y-97010024D01*
X165264924Y-96931005D01*
X165264922Y-96931004D01*
X165135341Y-96824659D01*
X165028996Y-96695078D01*
X165020886Y-96679906D01*
X164949976Y-96547242D01*
X164901313Y-96386823D01*
X164884883Y-96220000D01*
X164901313Y-96053177D01*
X164949976Y-95892758D01*
X165028995Y-95744924D01*
X165028996Y-95744922D01*
X165135341Y-95615341D01*
X165264922Y-95508996D01*
X165307421Y-95486280D01*
X165412758Y-95429976D01*
X165573177Y-95381313D01*
X165698196Y-95369000D01*
X165781804Y-95369000D01*
X165906823Y-95381313D01*
X165906823Y-95381313D01*
G37*
G36*
X115906823Y-95381313D02*
G01*
X116067242Y-95429976D01*
X116172579Y-95486280D01*
X116215078Y-95508996D01*
X116344659Y-95615341D01*
X116451004Y-95744922D01*
X116451005Y-95744924D01*
X116530024Y-95892758D01*
X116578687Y-96053177D01*
X116595117Y-96220000D01*
X116578687Y-96386823D01*
X116530024Y-96547242D01*
X116459114Y-96679906D01*
X116451004Y-96695078D01*
X116344659Y-96824659D01*
X116215078Y-96931004D01*
X116215076Y-96931005D01*
X116067242Y-97010024D01*
X115906823Y-97058687D01*
X115781804Y-97071000D01*
X115698196Y-97071000D01*
X115573177Y-97058687D01*
X115412758Y-97010024D01*
X115264924Y-96931005D01*
X115264922Y-96931004D01*
X115135341Y-96824659D01*
X115028996Y-96695078D01*
X115020886Y-96679906D01*
X114949976Y-96547242D01*
X114901313Y-96386823D01*
X114884883Y-96220000D01*
X114901313Y-96053177D01*
X114949976Y-95892758D01*
X115028995Y-95744924D01*
X115028996Y-95744922D01*
X115135341Y-95615341D01*
X115264922Y-95508996D01*
X115307421Y-95486280D01*
X115412758Y-95429976D01*
X115573177Y-95381313D01*
X115698196Y-95369000D01*
X115781804Y-95369000D01*
X115906823Y-95381313D01*
X115906823Y-95381313D01*
G37*
G36*
X121004549Y-91281116D02*
G01*
X121115734Y-91303232D01*
X121325203Y-91389997D01*
X121513720Y-91515960D01*
X121674040Y-91676280D01*
X121800003Y-91864797D01*
X121886768Y-92074266D01*
X121931000Y-92296636D01*
X121931000Y-92523364D01*
X121886768Y-92745734D01*
X121800003Y-92955203D01*
X121674040Y-93143720D01*
X121513720Y-93304040D01*
X121325203Y-93430003D01*
X121115734Y-93516768D01*
X121004549Y-93538884D01*
X120893365Y-93561000D01*
X120666635Y-93561000D01*
X120555451Y-93538884D01*
X120444266Y-93516768D01*
X120234797Y-93430003D01*
X120046280Y-93304040D01*
X119885960Y-93143720D01*
X119759997Y-92955203D01*
X119673232Y-92745734D01*
X119629000Y-92523364D01*
X119629000Y-92296636D01*
X119673232Y-92074266D01*
X119759997Y-91864797D01*
X119885960Y-91676280D01*
X120046280Y-91515960D01*
X120234797Y-91389997D01*
X120444266Y-91303232D01*
X120555451Y-91281116D01*
X120666635Y-91259000D01*
X120893365Y-91259000D01*
X121004549Y-91281116D01*
X121004549Y-91281116D01*
G37*
G36*
X171004549Y-91281116D02*
G01*
X171115734Y-91303232D01*
X171325203Y-91389997D01*
X171513720Y-91515960D01*
X171674040Y-91676280D01*
X171800003Y-91864797D01*
X171886768Y-92074266D01*
X171931000Y-92296636D01*
X171931000Y-92523364D01*
X171886768Y-92745734D01*
X171800003Y-92955203D01*
X171674040Y-93143720D01*
X171513720Y-93304040D01*
X171325203Y-93430003D01*
X171115734Y-93516768D01*
X171004549Y-93538884D01*
X170893365Y-93561000D01*
X170666635Y-93561000D01*
X170555451Y-93538884D01*
X170444266Y-93516768D01*
X170234797Y-93430003D01*
X170046280Y-93304040D01*
X169885960Y-93143720D01*
X169759997Y-92955203D01*
X169673232Y-92745734D01*
X169629000Y-92523364D01*
X169629000Y-92296636D01*
X169673232Y-92074266D01*
X169759997Y-91864797D01*
X169885960Y-91676280D01*
X170046280Y-91515960D01*
X170234797Y-91389997D01*
X170444266Y-91303232D01*
X170555451Y-91281116D01*
X170666635Y-91259000D01*
X170893365Y-91259000D01*
X171004549Y-91281116D01*
X171004549Y-91281116D01*
G37*
G36*
X121931000Y-89751000D02*
G01*
X119629000Y-89751000D01*
X119629000Y-87449000D01*
X121931000Y-87449000D01*
X121931000Y-89751000D01*
X121931000Y-89751000D01*
G37*
G36*
X146404549Y-87471116D02*
G01*
X146515734Y-87493232D01*
X146725203Y-87579997D01*
X146913720Y-87705960D01*
X147074040Y-87866280D01*
X147200003Y-88054797D01*
X147200004Y-88054799D01*
X147286768Y-88264267D01*
X147331000Y-88486635D01*
X147331000Y-88713365D01*
X147286768Y-88935733D01*
X147201131Y-89142481D01*
X147200003Y-89145203D01*
X147074040Y-89333720D01*
X146913720Y-89494040D01*
X146725203Y-89620003D01*
X146515734Y-89706768D01*
X146404549Y-89728884D01*
X146293365Y-89751000D01*
X146066635Y-89751000D01*
X145955451Y-89728884D01*
X145844266Y-89706768D01*
X145634797Y-89620003D01*
X145446280Y-89494040D01*
X145285960Y-89333720D01*
X145159997Y-89145203D01*
X145158870Y-89142481D01*
X145073232Y-88935733D01*
X145029000Y-88713365D01*
X145029000Y-88486635D01*
X145073232Y-88264267D01*
X145159996Y-88054799D01*
X145159997Y-88054797D01*
X145285960Y-87866280D01*
X145446280Y-87705960D01*
X145634797Y-87579997D01*
X145844266Y-87493232D01*
X145955451Y-87471116D01*
X146066635Y-87449000D01*
X146293365Y-87449000D01*
X146404549Y-87471116D01*
X146404549Y-87471116D01*
G37*
G36*
X141324549Y-87471116D02*
G01*
X141435734Y-87493232D01*
X141645203Y-87579997D01*
X141833720Y-87705960D01*
X141994040Y-87866280D01*
X142120003Y-88054797D01*
X142120004Y-88054799D01*
X142206768Y-88264267D01*
X142251000Y-88486635D01*
X142251000Y-88713365D01*
X142206768Y-88935733D01*
X142121131Y-89142481D01*
X142120003Y-89145203D01*
X141994040Y-89333720D01*
X141833720Y-89494040D01*
X141645203Y-89620003D01*
X141435734Y-89706768D01*
X141324549Y-89728884D01*
X141213365Y-89751000D01*
X140986635Y-89751000D01*
X140875451Y-89728884D01*
X140764266Y-89706768D01*
X140554797Y-89620003D01*
X140366280Y-89494040D01*
X140205960Y-89333720D01*
X140079997Y-89145203D01*
X140078870Y-89142481D01*
X139993232Y-88935733D01*
X139949000Y-88713365D01*
X139949000Y-88486635D01*
X139993232Y-88264267D01*
X140079996Y-88054799D01*
X140079997Y-88054797D01*
X140205960Y-87866280D01*
X140366280Y-87705960D01*
X140554797Y-87579997D01*
X140764266Y-87493232D01*
X140875451Y-87471116D01*
X140986635Y-87449000D01*
X141213365Y-87449000D01*
X141324549Y-87471116D01*
X141324549Y-87471116D01*
G37*
G36*
X136244549Y-87471116D02*
G01*
X136355734Y-87493232D01*
X136565203Y-87579997D01*
X136753720Y-87705960D01*
X136914040Y-87866280D01*
X137040003Y-88054797D01*
X137040004Y-88054799D01*
X137126768Y-88264267D01*
X137171000Y-88486635D01*
X137171000Y-88713365D01*
X137126768Y-88935733D01*
X137041131Y-89142481D01*
X137040003Y-89145203D01*
X136914040Y-89333720D01*
X136753720Y-89494040D01*
X136565203Y-89620003D01*
X136355734Y-89706768D01*
X136244549Y-89728884D01*
X136133365Y-89751000D01*
X135906635Y-89751000D01*
X135795451Y-89728884D01*
X135684266Y-89706768D01*
X135474797Y-89620003D01*
X135286280Y-89494040D01*
X135125960Y-89333720D01*
X134999997Y-89145203D01*
X134998870Y-89142481D01*
X134913232Y-88935733D01*
X134869000Y-88713365D01*
X134869000Y-88486635D01*
X134913232Y-88264267D01*
X134999996Y-88054799D01*
X134999997Y-88054797D01*
X135125960Y-87866280D01*
X135286280Y-87705960D01*
X135474797Y-87579997D01*
X135684266Y-87493232D01*
X135795451Y-87471116D01*
X135906635Y-87449000D01*
X136133365Y-87449000D01*
X136244549Y-87471116D01*
X136244549Y-87471116D01*
G37*
G36*
X171931000Y-89751000D02*
G01*
X169629000Y-89751000D01*
X169629000Y-87449000D01*
X171931000Y-87449000D01*
X171931000Y-89751000D01*
X171931000Y-89751000D01*
G37*
G36*
X186244549Y-87471116D02*
G01*
X186355734Y-87493232D01*
X186565203Y-87579997D01*
X186753720Y-87705960D01*
X186914040Y-87866280D01*
X187040003Y-88054797D01*
X187040004Y-88054799D01*
X187126768Y-88264267D01*
X187171000Y-88486635D01*
X187171000Y-88713365D01*
X187126768Y-88935733D01*
X187041131Y-89142481D01*
X187040003Y-89145203D01*
X186914040Y-89333720D01*
X186753720Y-89494040D01*
X186565203Y-89620003D01*
X186355734Y-89706768D01*
X186244549Y-89728884D01*
X186133365Y-89751000D01*
X185906635Y-89751000D01*
X185795451Y-89728884D01*
X185684266Y-89706768D01*
X185474797Y-89620003D01*
X185286280Y-89494040D01*
X185125960Y-89333720D01*
X184999997Y-89145203D01*
X184998870Y-89142481D01*
X184913232Y-88935733D01*
X184869000Y-88713365D01*
X184869000Y-88486635D01*
X184913232Y-88264267D01*
X184999996Y-88054799D01*
X184999997Y-88054797D01*
X185125960Y-87866280D01*
X185286280Y-87705960D01*
X185474797Y-87579997D01*
X185684266Y-87493232D01*
X185795451Y-87471116D01*
X185906635Y-87449000D01*
X186133365Y-87449000D01*
X186244549Y-87471116D01*
X186244549Y-87471116D01*
G37*
G36*
X191324549Y-87471116D02*
G01*
X191435734Y-87493232D01*
X191645203Y-87579997D01*
X191833720Y-87705960D01*
X191994040Y-87866280D01*
X192120003Y-88054797D01*
X192120004Y-88054799D01*
X192206768Y-88264267D01*
X192251000Y-88486635D01*
X192251000Y-88713365D01*
X192206768Y-88935733D01*
X192121131Y-89142481D01*
X192120003Y-89145203D01*
X191994040Y-89333720D01*
X191833720Y-89494040D01*
X191645203Y-89620003D01*
X191435734Y-89706768D01*
X191324549Y-89728884D01*
X191213365Y-89751000D01*
X190986635Y-89751000D01*
X190875451Y-89728884D01*
X190764266Y-89706768D01*
X190554797Y-89620003D01*
X190366280Y-89494040D01*
X190205960Y-89333720D01*
X190079997Y-89145203D01*
X190078870Y-89142481D01*
X189993232Y-88935733D01*
X189949000Y-88713365D01*
X189949000Y-88486635D01*
X189993232Y-88264267D01*
X190079996Y-88054799D01*
X190079997Y-88054797D01*
X190205960Y-87866280D01*
X190366280Y-87705960D01*
X190554797Y-87579997D01*
X190764266Y-87493232D01*
X190875451Y-87471116D01*
X190986635Y-87449000D01*
X191213365Y-87449000D01*
X191324549Y-87471116D01*
X191324549Y-87471116D01*
G37*
G36*
X196404549Y-87471116D02*
G01*
X196515734Y-87493232D01*
X196725203Y-87579997D01*
X196913720Y-87705960D01*
X197074040Y-87866280D01*
X197200003Y-88054797D01*
X197200004Y-88054799D01*
X197286768Y-88264267D01*
X197331000Y-88486635D01*
X197331000Y-88713365D01*
X197286768Y-88935733D01*
X197201131Y-89142481D01*
X197200003Y-89145203D01*
X197074040Y-89333720D01*
X196913720Y-89494040D01*
X196725203Y-89620003D01*
X196515734Y-89706768D01*
X196404549Y-89728884D01*
X196293365Y-89751000D01*
X196066635Y-89751000D01*
X195955451Y-89728884D01*
X195844266Y-89706768D01*
X195634797Y-89620003D01*
X195446280Y-89494040D01*
X195285960Y-89333720D01*
X195159997Y-89145203D01*
X195158870Y-89142481D01*
X195073232Y-88935733D01*
X195029000Y-88713365D01*
X195029000Y-88486635D01*
X195073232Y-88264267D01*
X195159996Y-88054799D01*
X195159997Y-88054797D01*
X195285960Y-87866280D01*
X195446280Y-87705960D01*
X195634797Y-87579997D01*
X195844266Y-87493232D01*
X195955451Y-87471116D01*
X196066635Y-87449000D01*
X196293365Y-87449000D01*
X196404549Y-87471116D01*
X196404549Y-87471116D01*
G37*
G36*
X165988228Y-87781703D02*
G01*
X166143100Y-87845853D01*
X166282481Y-87938985D01*
X166401015Y-88057519D01*
X166494147Y-88196900D01*
X166558297Y-88351772D01*
X166591000Y-88516184D01*
X166591000Y-88683816D01*
X166558297Y-88848228D01*
X166494147Y-89003100D01*
X166401015Y-89142481D01*
X166282481Y-89261015D01*
X166143100Y-89354147D01*
X165988228Y-89418297D01*
X165823816Y-89451000D01*
X165656184Y-89451000D01*
X165491772Y-89418297D01*
X165336900Y-89354147D01*
X165197519Y-89261015D01*
X165078985Y-89142481D01*
X164985853Y-89003100D01*
X164921703Y-88848228D01*
X164889000Y-88683816D01*
X164889000Y-88516184D01*
X164921703Y-88351772D01*
X164985853Y-88196900D01*
X165078985Y-88057519D01*
X165197519Y-87938985D01*
X165336900Y-87845853D01*
X165491772Y-87781703D01*
X165656184Y-87749000D01*
X165823816Y-87749000D01*
X165988228Y-87781703D01*
X165988228Y-87781703D01*
G37*
G36*
X115988228Y-87781703D02*
G01*
X116143100Y-87845853D01*
X116282481Y-87938985D01*
X116401015Y-88057519D01*
X116494147Y-88196900D01*
X116558297Y-88351772D01*
X116591000Y-88516184D01*
X116591000Y-88683816D01*
X116558297Y-88848228D01*
X116494147Y-89003100D01*
X116401015Y-89142481D01*
X116282481Y-89261015D01*
X116143100Y-89354147D01*
X115988228Y-89418297D01*
X115823816Y-89451000D01*
X115656184Y-89451000D01*
X115491772Y-89418297D01*
X115336900Y-89354147D01*
X115197519Y-89261015D01*
X115078985Y-89142481D01*
X114985853Y-89003100D01*
X114921703Y-88848228D01*
X114889000Y-88683816D01*
X114889000Y-88516184D01*
X114921703Y-88351772D01*
X114985853Y-88196900D01*
X115078985Y-88057519D01*
X115197519Y-87938985D01*
X115336900Y-87845853D01*
X115491772Y-87781703D01*
X115656184Y-87749000D01*
X115823816Y-87749000D01*
X115988228Y-87781703D01*
X115988228Y-87781703D01*
G37*
G36*
X119812585Y-80093802D02*
G01*
X119962410Y-80123604D01*
X120244674Y-80240521D01*
X120498705Y-80410259D01*
X120714741Y-80626295D01*
X120884479Y-80880326D01*
X121001396Y-81162590D01*
X121061000Y-81462240D01*
X121061000Y-81767760D01*
X121001396Y-82067410D01*
X120884479Y-82349674D01*
X120714741Y-82603705D01*
X120498705Y-82819741D01*
X120244674Y-82989479D01*
X119962410Y-83106396D01*
X119812585Y-83136198D01*
X119662761Y-83166000D01*
X119357239Y-83166000D01*
X119207415Y-83136198D01*
X119057590Y-83106396D01*
X118775326Y-82989479D01*
X118521295Y-82819741D01*
X118305259Y-82603705D01*
X118135521Y-82349674D01*
X118018604Y-82067410D01*
X117959000Y-81767760D01*
X117959000Y-81462240D01*
X118018604Y-81162590D01*
X118135521Y-80880326D01*
X118305259Y-80626295D01*
X118521295Y-80410259D01*
X118775326Y-80240521D01*
X119057590Y-80123604D01*
X119207415Y-80093802D01*
X119357239Y-80064000D01*
X119662761Y-80064000D01*
X119812585Y-80093802D01*
X119812585Y-80093802D01*
G37*
G36*
X131221000Y-83166000D02*
G01*
X128119000Y-83166000D01*
X128119000Y-80064000D01*
X131221000Y-80064000D01*
X131221000Y-83166000D01*
X131221000Y-83166000D01*
G37*
G36*
X124892585Y-80093802D02*
G01*
X125042410Y-80123604D01*
X125324674Y-80240521D01*
X125578705Y-80410259D01*
X125794741Y-80626295D01*
X125964479Y-80880326D01*
X126081396Y-81162590D01*
X126141000Y-81462240D01*
X126141000Y-81767760D01*
X126081396Y-82067410D01*
X125964479Y-82349674D01*
X125794741Y-82603705D01*
X125578705Y-82819741D01*
X125324674Y-82989479D01*
X125042410Y-83106396D01*
X124892585Y-83136198D01*
X124742761Y-83166000D01*
X124437239Y-83166000D01*
X124287415Y-83136198D01*
X124137590Y-83106396D01*
X123855326Y-82989479D01*
X123601295Y-82819741D01*
X123385259Y-82603705D01*
X123215521Y-82349674D01*
X123098604Y-82067410D01*
X123039000Y-81767760D01*
X123039000Y-81462240D01*
X123098604Y-81162590D01*
X123215521Y-80880326D01*
X123385259Y-80626295D01*
X123601295Y-80410259D01*
X123855326Y-80240521D01*
X124137590Y-80123604D01*
X124287415Y-80093802D01*
X124437239Y-80064000D01*
X124742761Y-80064000D01*
X124892585Y-80093802D01*
X124892585Y-80093802D01*
G37*
G36*
X174892585Y-80093802D02*
G01*
X175042410Y-80123604D01*
X175324674Y-80240521D01*
X175578705Y-80410259D01*
X175794741Y-80626295D01*
X175964479Y-80880326D01*
X176081396Y-81162590D01*
X176141000Y-81462240D01*
X176141000Y-81767760D01*
X176081396Y-82067410D01*
X175964479Y-82349674D01*
X175794741Y-82603705D01*
X175578705Y-82819741D01*
X175324674Y-82989479D01*
X175042410Y-83106396D01*
X174892585Y-83136198D01*
X174742761Y-83166000D01*
X174437239Y-83166000D01*
X174287415Y-83136198D01*
X174137590Y-83106396D01*
X173855326Y-82989479D01*
X173601295Y-82819741D01*
X173385259Y-82603705D01*
X173215521Y-82349674D01*
X173098604Y-82067410D01*
X173039000Y-81767760D01*
X173039000Y-81462240D01*
X173098604Y-81162590D01*
X173215521Y-80880326D01*
X173385259Y-80626295D01*
X173601295Y-80410259D01*
X173855326Y-80240521D01*
X174137590Y-80123604D01*
X174287415Y-80093802D01*
X174437239Y-80064000D01*
X174742761Y-80064000D01*
X174892585Y-80093802D01*
X174892585Y-80093802D01*
G37*
G36*
X169812585Y-80093802D02*
G01*
X169962410Y-80123604D01*
X170244674Y-80240521D01*
X170498705Y-80410259D01*
X170714741Y-80626295D01*
X170884479Y-80880326D01*
X171001396Y-81162590D01*
X171061000Y-81462240D01*
X171061000Y-81767760D01*
X171001396Y-82067410D01*
X170884479Y-82349674D01*
X170714741Y-82603705D01*
X170498705Y-82819741D01*
X170244674Y-82989479D01*
X169962410Y-83106396D01*
X169812585Y-83136198D01*
X169662761Y-83166000D01*
X169357239Y-83166000D01*
X169207415Y-83136198D01*
X169057590Y-83106396D01*
X168775326Y-82989479D01*
X168521295Y-82819741D01*
X168305259Y-82603705D01*
X168135521Y-82349674D01*
X168018604Y-82067410D01*
X167959000Y-81767760D01*
X167959000Y-81462240D01*
X168018604Y-81162590D01*
X168135521Y-80880326D01*
X168305259Y-80626295D01*
X168521295Y-80410259D01*
X168775326Y-80240521D01*
X169057590Y-80123604D01*
X169207415Y-80093802D01*
X169357239Y-80064000D01*
X169662761Y-80064000D01*
X169812585Y-80093802D01*
X169812585Y-80093802D01*
G37*
G36*
X181221000Y-83166000D02*
G01*
X178119000Y-83166000D01*
X178119000Y-80064000D01*
X181221000Y-80064000D01*
X181221000Y-83166000D01*
X181221000Y-83166000D01*
G37*
G36*
X111012585Y-77888802D02*
G01*
X111162410Y-77918604D01*
X111444674Y-78035521D01*
X111698705Y-78205259D01*
X111914741Y-78421295D01*
X112084479Y-78675326D01*
X112201396Y-78957590D01*
X112261000Y-79257240D01*
X112261000Y-79562760D01*
X112201396Y-79862410D01*
X112084479Y-80144674D01*
X111914741Y-80398705D01*
X111698705Y-80614741D01*
X111444674Y-80784479D01*
X111162410Y-80901396D01*
X111012585Y-80931198D01*
X110862761Y-80961000D01*
X110557239Y-80961000D01*
X110407415Y-80931198D01*
X110257590Y-80901396D01*
X109975326Y-80784479D01*
X109721295Y-80614741D01*
X109505259Y-80398705D01*
X109335521Y-80144674D01*
X109218604Y-79862410D01*
X109159000Y-79562760D01*
X109159000Y-79257240D01*
X109218604Y-78957590D01*
X109335521Y-78675326D01*
X109505259Y-78421295D01*
X109721295Y-78205259D01*
X109975326Y-78035521D01*
X110257590Y-77918604D01*
X110407415Y-77888802D01*
X110557239Y-77859000D01*
X110862761Y-77859000D01*
X111012585Y-77888802D01*
X111012585Y-77888802D01*
G37*
G36*
X154012585Y-77888802D02*
G01*
X154162410Y-77918604D01*
X154444674Y-78035521D01*
X154698705Y-78205259D01*
X154914741Y-78421295D01*
X155084479Y-78675326D01*
X155201396Y-78957590D01*
X155261000Y-79257240D01*
X155261000Y-79562760D01*
X155201396Y-79862410D01*
X155084479Y-80144674D01*
X154914741Y-80398705D01*
X154698705Y-80614741D01*
X154444674Y-80784479D01*
X154162410Y-80901396D01*
X154012585Y-80931198D01*
X153862761Y-80961000D01*
X153557239Y-80961000D01*
X153407415Y-80931198D01*
X153257590Y-80901396D01*
X152975326Y-80784479D01*
X152721295Y-80614741D01*
X152505259Y-80398705D01*
X152335521Y-80144674D01*
X152218604Y-79862410D01*
X152159000Y-79562760D01*
X152159000Y-79257240D01*
X152218604Y-78957590D01*
X152335521Y-78675326D01*
X152505259Y-78421295D01*
X152721295Y-78205259D01*
X152975326Y-78035521D01*
X153257590Y-77918604D01*
X153407415Y-77888802D01*
X153557239Y-77859000D01*
X153862761Y-77859000D01*
X154012585Y-77888802D01*
X154012585Y-77888802D01*
G37*
G36*
X161012585Y-77888802D02*
G01*
X161162410Y-77918604D01*
X161444674Y-78035521D01*
X161698705Y-78205259D01*
X161914741Y-78421295D01*
X162084479Y-78675326D01*
X162201396Y-78957590D01*
X162261000Y-79257240D01*
X162261000Y-79562760D01*
X162201396Y-79862410D01*
X162084479Y-80144674D01*
X161914741Y-80398705D01*
X161698705Y-80614741D01*
X161444674Y-80784479D01*
X161162410Y-80901396D01*
X161012585Y-80931198D01*
X160862761Y-80961000D01*
X160557239Y-80961000D01*
X160407415Y-80931198D01*
X160257590Y-80901396D01*
X159975326Y-80784479D01*
X159721295Y-80614741D01*
X159505259Y-80398705D01*
X159335521Y-80144674D01*
X159218604Y-79862410D01*
X159159000Y-79562760D01*
X159159000Y-79257240D01*
X159218604Y-78957590D01*
X159335521Y-78675326D01*
X159505259Y-78421295D01*
X159721295Y-78205259D01*
X159975326Y-78035521D01*
X160257590Y-77918604D01*
X160407415Y-77888802D01*
X160557239Y-77859000D01*
X160862761Y-77859000D01*
X161012585Y-77888802D01*
X161012585Y-77888802D01*
G37*
G36*
X204012585Y-77888802D02*
G01*
X204162410Y-77918604D01*
X204444674Y-78035521D01*
X204698705Y-78205259D01*
X204914741Y-78421295D01*
X205084479Y-78675326D01*
X205201396Y-78957590D01*
X205261000Y-79257240D01*
X205261000Y-79562760D01*
X205201396Y-79862410D01*
X205084479Y-80144674D01*
X204914741Y-80398705D01*
X204698705Y-80614741D01*
X204444674Y-80784479D01*
X204162410Y-80901396D01*
X204012585Y-80931198D01*
X203862761Y-80961000D01*
X203557239Y-80961000D01*
X203407415Y-80931198D01*
X203257590Y-80901396D01*
X202975326Y-80784479D01*
X202721295Y-80614741D01*
X202505259Y-80398705D01*
X202335521Y-80144674D01*
X202218604Y-79862410D01*
X202159000Y-79562760D01*
X202159000Y-79257240D01*
X202218604Y-78957590D01*
X202335521Y-78675326D01*
X202505259Y-78421295D01*
X202721295Y-78205259D01*
X202975326Y-78035521D01*
X203257590Y-77918604D01*
X203407415Y-77888802D01*
X203557239Y-77859000D01*
X203862761Y-77859000D01*
X204012585Y-77888802D01*
X204012585Y-77888802D01*
G37*
G36*
X154012585Y-70888802D02*
G01*
X154162410Y-70918604D01*
X154444674Y-71035521D01*
X154698705Y-71205259D01*
X154914741Y-71421295D01*
X155084479Y-71675326D01*
X155201396Y-71957590D01*
X155261000Y-72257240D01*
X155261000Y-72562760D01*
X155201396Y-72862410D01*
X155084479Y-73144674D01*
X154914741Y-73398705D01*
X154698705Y-73614741D01*
X154444674Y-73784479D01*
X154162410Y-73901396D01*
X154012585Y-73931198D01*
X153862761Y-73961000D01*
X153557239Y-73961000D01*
X153407415Y-73931198D01*
X153257590Y-73901396D01*
X152975326Y-73784479D01*
X152721295Y-73614741D01*
X152505259Y-73398705D01*
X152335521Y-73144674D01*
X152218604Y-72862410D01*
X152159000Y-72562760D01*
X152159000Y-72257240D01*
X152218604Y-71957590D01*
X152335521Y-71675326D01*
X152505259Y-71421295D01*
X152721295Y-71205259D01*
X152975326Y-71035521D01*
X153257590Y-70918604D01*
X153407415Y-70888802D01*
X153557239Y-70859000D01*
X153862761Y-70859000D01*
X154012585Y-70888802D01*
X154012585Y-70888802D01*
G37*
G36*
X204012585Y-70888802D02*
G01*
X204162410Y-70918604D01*
X204444674Y-71035521D01*
X204698705Y-71205259D01*
X204914741Y-71421295D01*
X205084479Y-71675326D01*
X205201396Y-71957590D01*
X205261000Y-72257240D01*
X205261000Y-72562760D01*
X205201396Y-72862410D01*
X205084479Y-73144674D01*
X204914741Y-73398705D01*
X204698705Y-73614741D01*
X204444674Y-73784479D01*
X204162410Y-73901396D01*
X204012585Y-73931198D01*
X203862761Y-73961000D01*
X203557239Y-73961000D01*
X203407415Y-73931198D01*
X203257590Y-73901396D01*
X202975326Y-73784479D01*
X202721295Y-73614741D01*
X202505259Y-73398705D01*
X202335521Y-73144674D01*
X202218604Y-72862410D01*
X202159000Y-72562760D01*
X202159000Y-72257240D01*
X202218604Y-71957590D01*
X202335521Y-71675326D01*
X202505259Y-71421295D01*
X202721295Y-71205259D01*
X202975326Y-71035521D01*
X203257590Y-70918604D01*
X203407415Y-70888802D01*
X203557239Y-70859000D01*
X203862761Y-70859000D01*
X204012585Y-70888802D01*
X204012585Y-70888802D01*
G37*
G36*
X161012585Y-70888802D02*
G01*
X161162410Y-70918604D01*
X161444674Y-71035521D01*
X161698705Y-71205259D01*
X161914741Y-71421295D01*
X162084479Y-71675326D01*
X162201396Y-71957590D01*
X162261000Y-72257240D01*
X162261000Y-72562760D01*
X162201396Y-72862410D01*
X162084479Y-73144674D01*
X161914741Y-73398705D01*
X161698705Y-73614741D01*
X161444674Y-73784479D01*
X161162410Y-73901396D01*
X161012585Y-73931198D01*
X160862761Y-73961000D01*
X160557239Y-73961000D01*
X160407415Y-73931198D01*
X160257590Y-73901396D01*
X159975326Y-73784479D01*
X159721295Y-73614741D01*
X159505259Y-73398705D01*
X159335521Y-73144674D01*
X159218604Y-72862410D01*
X159159000Y-72562760D01*
X159159000Y-72257240D01*
X159218604Y-71957590D01*
X159335521Y-71675326D01*
X159505259Y-71421295D01*
X159721295Y-71205259D01*
X159975326Y-71035521D01*
X160257590Y-70918604D01*
X160407415Y-70888802D01*
X160557239Y-70859000D01*
X160862761Y-70859000D01*
X161012585Y-70888802D01*
X161012585Y-70888802D01*
G37*
G36*
X111012585Y-70888802D02*
G01*
X111162410Y-70918604D01*
X111444674Y-71035521D01*
X111698705Y-71205259D01*
X111914741Y-71421295D01*
X112084479Y-71675326D01*
X112201396Y-71957590D01*
X112261000Y-72257240D01*
X112261000Y-72562760D01*
X112201396Y-72862410D01*
X112084479Y-73144674D01*
X111914741Y-73398705D01*
X111698705Y-73614741D01*
X111444674Y-73784479D01*
X111162410Y-73901396D01*
X111012585Y-73931198D01*
X110862761Y-73961000D01*
X110557239Y-73961000D01*
X110407415Y-73931198D01*
X110257590Y-73901396D01*
X109975326Y-73784479D01*
X109721295Y-73614741D01*
X109505259Y-73398705D01*
X109335521Y-73144674D01*
X109218604Y-72862410D01*
X109159000Y-72562760D01*
X109159000Y-72257240D01*
X109218604Y-71957590D01*
X109335521Y-71675326D01*
X109505259Y-71421295D01*
X109721295Y-71205259D01*
X109975326Y-71035521D01*
X110257590Y-70918604D01*
X110407415Y-70888802D01*
X110557239Y-70859000D01*
X110862761Y-70859000D01*
X111012585Y-70888802D01*
X111012585Y-70888802D01*
G37*
G36*
X121061000Y-71756000D02*
G01*
X117959000Y-71756000D01*
X117959000Y-68654000D01*
X121061000Y-68654000D01*
X121061000Y-71756000D01*
X121061000Y-71756000D01*
G37*
G36*
X136301000Y-71756000D02*
G01*
X133199000Y-71756000D01*
X133199000Y-68654000D01*
X136301000Y-68654000D01*
X136301000Y-71756000D01*
X136301000Y-71756000D01*
G37*
G36*
X140132585Y-68683802D02*
G01*
X140282410Y-68713604D01*
X140564674Y-68830521D01*
X140818705Y-69000259D01*
X141034741Y-69216295D01*
X141204479Y-69470326D01*
X141321396Y-69752590D01*
X141381000Y-70052240D01*
X141381000Y-70357760D01*
X141321396Y-70657410D01*
X141204479Y-70939674D01*
X141034741Y-71193705D01*
X140818705Y-71409741D01*
X140564674Y-71579479D01*
X140282410Y-71696396D01*
X140132585Y-71726198D01*
X139982761Y-71756000D01*
X139677239Y-71756000D01*
X139527415Y-71726198D01*
X139377590Y-71696396D01*
X139095326Y-71579479D01*
X138841295Y-71409741D01*
X138625259Y-71193705D01*
X138455521Y-70939674D01*
X138338604Y-70657410D01*
X138279000Y-70357760D01*
X138279000Y-70052240D01*
X138338604Y-69752590D01*
X138455521Y-69470326D01*
X138625259Y-69216295D01*
X138841295Y-69000259D01*
X139095326Y-68830521D01*
X139377590Y-68713604D01*
X139527415Y-68683802D01*
X139677239Y-68654000D01*
X139982761Y-68654000D01*
X140132585Y-68683802D01*
X140132585Y-68683802D01*
G37*
G36*
X145212585Y-68683802D02*
G01*
X145362410Y-68713604D01*
X145644674Y-68830521D01*
X145898705Y-69000259D01*
X146114741Y-69216295D01*
X146284479Y-69470326D01*
X146401396Y-69752590D01*
X146461000Y-70052240D01*
X146461000Y-70357760D01*
X146401396Y-70657410D01*
X146284479Y-70939674D01*
X146114741Y-71193705D01*
X145898705Y-71409741D01*
X145644674Y-71579479D01*
X145362410Y-71696396D01*
X145212585Y-71726198D01*
X145062761Y-71756000D01*
X144757239Y-71756000D01*
X144607415Y-71726198D01*
X144457590Y-71696396D01*
X144175326Y-71579479D01*
X143921295Y-71409741D01*
X143705259Y-71193705D01*
X143535521Y-70939674D01*
X143418604Y-70657410D01*
X143359000Y-70357760D01*
X143359000Y-70052240D01*
X143418604Y-69752590D01*
X143535521Y-69470326D01*
X143705259Y-69216295D01*
X143921295Y-69000259D01*
X144175326Y-68830521D01*
X144457590Y-68713604D01*
X144607415Y-68683802D01*
X144757239Y-68654000D01*
X145062761Y-68654000D01*
X145212585Y-68683802D01*
X145212585Y-68683802D01*
G37*
G36*
X124892585Y-68683802D02*
G01*
X125042410Y-68713604D01*
X125324674Y-68830521D01*
X125578705Y-69000259D01*
X125794741Y-69216295D01*
X125964479Y-69470326D01*
X126081396Y-69752590D01*
X126141000Y-70052240D01*
X126141000Y-70357760D01*
X126081396Y-70657410D01*
X125964479Y-70939674D01*
X125794741Y-71193705D01*
X125578705Y-71409741D01*
X125324674Y-71579479D01*
X125042410Y-71696396D01*
X124892585Y-71726198D01*
X124742761Y-71756000D01*
X124437239Y-71756000D01*
X124287415Y-71726198D01*
X124137590Y-71696396D01*
X123855326Y-71579479D01*
X123601295Y-71409741D01*
X123385259Y-71193705D01*
X123215521Y-70939674D01*
X123098604Y-70657410D01*
X123039000Y-70357760D01*
X123039000Y-70052240D01*
X123098604Y-69752590D01*
X123215521Y-69470326D01*
X123385259Y-69216295D01*
X123601295Y-69000259D01*
X123855326Y-68830521D01*
X124137590Y-68713604D01*
X124287415Y-68683802D01*
X124437239Y-68654000D01*
X124742761Y-68654000D01*
X124892585Y-68683802D01*
X124892585Y-68683802D01*
G37*
G36*
X129972585Y-68683802D02*
G01*
X130122410Y-68713604D01*
X130404674Y-68830521D01*
X130658705Y-69000259D01*
X130874741Y-69216295D01*
X131044479Y-69470326D01*
X131161396Y-69752590D01*
X131221000Y-70052240D01*
X131221000Y-70357760D01*
X131161396Y-70657410D01*
X131044479Y-70939674D01*
X130874741Y-71193705D01*
X130658705Y-71409741D01*
X130404674Y-71579479D01*
X130122410Y-71696396D01*
X129972585Y-71726198D01*
X129822761Y-71756000D01*
X129517239Y-71756000D01*
X129367415Y-71726198D01*
X129217590Y-71696396D01*
X128935326Y-71579479D01*
X128681295Y-71409741D01*
X128465259Y-71193705D01*
X128295521Y-70939674D01*
X128178604Y-70657410D01*
X128119000Y-70357760D01*
X128119000Y-70052240D01*
X128178604Y-69752590D01*
X128295521Y-69470326D01*
X128465259Y-69216295D01*
X128681295Y-69000259D01*
X128935326Y-68830521D01*
X129217590Y-68713604D01*
X129367415Y-68683802D01*
X129517239Y-68654000D01*
X129822761Y-68654000D01*
X129972585Y-68683802D01*
X129972585Y-68683802D01*
G37*
G36*
X174892585Y-68683802D02*
G01*
X175042410Y-68713604D01*
X175324674Y-68830521D01*
X175578705Y-69000259D01*
X175794741Y-69216295D01*
X175964479Y-69470326D01*
X176081396Y-69752590D01*
X176141000Y-70052240D01*
X176141000Y-70357760D01*
X176081396Y-70657410D01*
X175964479Y-70939674D01*
X175794741Y-71193705D01*
X175578705Y-71409741D01*
X175324674Y-71579479D01*
X175042410Y-71696396D01*
X174892585Y-71726198D01*
X174742761Y-71756000D01*
X174437239Y-71756000D01*
X174287415Y-71726198D01*
X174137590Y-71696396D01*
X173855326Y-71579479D01*
X173601295Y-71409741D01*
X173385259Y-71193705D01*
X173215521Y-70939674D01*
X173098604Y-70657410D01*
X173039000Y-70357760D01*
X173039000Y-70052240D01*
X173098604Y-69752590D01*
X173215521Y-69470326D01*
X173385259Y-69216295D01*
X173601295Y-69000259D01*
X173855326Y-68830521D01*
X174137590Y-68713604D01*
X174287415Y-68683802D01*
X174437239Y-68654000D01*
X174742761Y-68654000D01*
X174892585Y-68683802D01*
X174892585Y-68683802D01*
G37*
G36*
X171061000Y-71756000D02*
G01*
X167959000Y-71756000D01*
X167959000Y-68654000D01*
X171061000Y-68654000D01*
X171061000Y-71756000D01*
X171061000Y-71756000D01*
G37*
G36*
X190132585Y-68683802D02*
G01*
X190282410Y-68713604D01*
X190564674Y-68830521D01*
X190818705Y-69000259D01*
X191034741Y-69216295D01*
X191204479Y-69470326D01*
X191321396Y-69752590D01*
X191381000Y-70052240D01*
X191381000Y-70357760D01*
X191321396Y-70657410D01*
X191204479Y-70939674D01*
X191034741Y-71193705D01*
X190818705Y-71409741D01*
X190564674Y-71579479D01*
X190282410Y-71696396D01*
X190132585Y-71726198D01*
X189982761Y-71756000D01*
X189677239Y-71756000D01*
X189527415Y-71726198D01*
X189377590Y-71696396D01*
X189095326Y-71579479D01*
X188841295Y-71409741D01*
X188625259Y-71193705D01*
X188455521Y-70939674D01*
X188338604Y-70657410D01*
X188279000Y-70357760D01*
X188279000Y-70052240D01*
X188338604Y-69752590D01*
X188455521Y-69470326D01*
X188625259Y-69216295D01*
X188841295Y-69000259D01*
X189095326Y-68830521D01*
X189377590Y-68713604D01*
X189527415Y-68683802D01*
X189677239Y-68654000D01*
X189982761Y-68654000D01*
X190132585Y-68683802D01*
X190132585Y-68683802D01*
G37*
G36*
X186301000Y-71756000D02*
G01*
X183199000Y-71756000D01*
X183199000Y-68654000D01*
X186301000Y-68654000D01*
X186301000Y-71756000D01*
X186301000Y-71756000D01*
G37*
G36*
X195212585Y-68683802D02*
G01*
X195362410Y-68713604D01*
X195644674Y-68830521D01*
X195898705Y-69000259D01*
X196114741Y-69216295D01*
X196284479Y-69470326D01*
X196401396Y-69752590D01*
X196461000Y-70052240D01*
X196461000Y-70357760D01*
X196401396Y-70657410D01*
X196284479Y-70939674D01*
X196114741Y-71193705D01*
X195898705Y-71409741D01*
X195644674Y-71579479D01*
X195362410Y-71696396D01*
X195212585Y-71726198D01*
X195062761Y-71756000D01*
X194757239Y-71756000D01*
X194607415Y-71726198D01*
X194457590Y-71696396D01*
X194175326Y-71579479D01*
X193921295Y-71409741D01*
X193705259Y-71193705D01*
X193535521Y-70939674D01*
X193418604Y-70657410D01*
X193359000Y-70357760D01*
X193359000Y-70052240D01*
X193418604Y-69752590D01*
X193535521Y-69470326D01*
X193705259Y-69216295D01*
X193921295Y-69000259D01*
X194175326Y-68830521D01*
X194457590Y-68713604D01*
X194607415Y-68683802D01*
X194757239Y-68654000D01*
X195062761Y-68654000D01*
X195212585Y-68683802D01*
X195212585Y-68683802D01*
G37*
G36*
X179972585Y-68683802D02*
G01*
X180122410Y-68713604D01*
X180404674Y-68830521D01*
X180658705Y-69000259D01*
X180874741Y-69216295D01*
X181044479Y-69470326D01*
X181161396Y-69752590D01*
X181221000Y-70052240D01*
X181221000Y-70357760D01*
X181161396Y-70657410D01*
X181044479Y-70939674D01*
X180874741Y-71193705D01*
X180658705Y-71409741D01*
X180404674Y-71579479D01*
X180122410Y-71696396D01*
X179972585Y-71726198D01*
X179822761Y-71756000D01*
X179517239Y-71756000D01*
X179367415Y-71726198D01*
X179217590Y-71696396D01*
X178935326Y-71579479D01*
X178681295Y-71409741D01*
X178465259Y-71193705D01*
X178295521Y-70939674D01*
X178178604Y-70657410D01*
X178119000Y-70357760D01*
X178119000Y-70052240D01*
X178178604Y-69752590D01*
X178295521Y-69470326D01*
X178465259Y-69216295D01*
X178681295Y-69000259D01*
X178935326Y-68830521D01*
X179217590Y-68713604D01*
X179367415Y-68683802D01*
X179517239Y-68654000D01*
X179822761Y-68654000D01*
X179972585Y-68683802D01*
X179972585Y-68683802D01*
G37*
G36*
X171004549Y-62091116D02*
G01*
X171115734Y-62113232D01*
X171325203Y-62199997D01*
X171513720Y-62325960D01*
X171674040Y-62486280D01*
X171800003Y-62674797D01*
X171886768Y-62884266D01*
X171931000Y-63106636D01*
X171931000Y-63333364D01*
X171886768Y-63555734D01*
X171800003Y-63765203D01*
X171674040Y-63953720D01*
X171513720Y-64114040D01*
X171325203Y-64240003D01*
X171115734Y-64326768D01*
X171004549Y-64348884D01*
X170893365Y-64371000D01*
X170666635Y-64371000D01*
X170555451Y-64348884D01*
X170444266Y-64326768D01*
X170234797Y-64240003D01*
X170046280Y-64114040D01*
X169885960Y-63953720D01*
X169759997Y-63765203D01*
X169673232Y-63555734D01*
X169629000Y-63333364D01*
X169629000Y-63106636D01*
X169673232Y-62884266D01*
X169759997Y-62674797D01*
X169885960Y-62486280D01*
X170046280Y-62325960D01*
X170234797Y-62199997D01*
X170444266Y-62113232D01*
X170555451Y-62091116D01*
X170666635Y-62069000D01*
X170893365Y-62069000D01*
X171004549Y-62091116D01*
X171004549Y-62091116D01*
G37*
G36*
X146404549Y-62091116D02*
G01*
X146515734Y-62113232D01*
X146725203Y-62199997D01*
X146913720Y-62325960D01*
X147074040Y-62486280D01*
X147200003Y-62674797D01*
X147286768Y-62884266D01*
X147331000Y-63106636D01*
X147331000Y-63333364D01*
X147286768Y-63555734D01*
X147200003Y-63765203D01*
X147074040Y-63953720D01*
X146913720Y-64114040D01*
X146725203Y-64240003D01*
X146515734Y-64326768D01*
X146404549Y-64348884D01*
X146293365Y-64371000D01*
X146066635Y-64371000D01*
X145955451Y-64348884D01*
X145844266Y-64326768D01*
X145634797Y-64240003D01*
X145446280Y-64114040D01*
X145285960Y-63953720D01*
X145159997Y-63765203D01*
X145073232Y-63555734D01*
X145029000Y-63333364D01*
X145029000Y-63106636D01*
X145073232Y-62884266D01*
X145159997Y-62674797D01*
X145285960Y-62486280D01*
X145446280Y-62325960D01*
X145634797Y-62199997D01*
X145844266Y-62113232D01*
X145955451Y-62091116D01*
X146066635Y-62069000D01*
X146293365Y-62069000D01*
X146404549Y-62091116D01*
X146404549Y-62091116D01*
G37*
G36*
X121004549Y-62091116D02*
G01*
X121115734Y-62113232D01*
X121325203Y-62199997D01*
X121513720Y-62325960D01*
X121674040Y-62486280D01*
X121800003Y-62674797D01*
X121886768Y-62884266D01*
X121931000Y-63106636D01*
X121931000Y-63333364D01*
X121886768Y-63555734D01*
X121800003Y-63765203D01*
X121674040Y-63953720D01*
X121513720Y-64114040D01*
X121325203Y-64240003D01*
X121115734Y-64326768D01*
X121004549Y-64348884D01*
X120893365Y-64371000D01*
X120666635Y-64371000D01*
X120555451Y-64348884D01*
X120444266Y-64326768D01*
X120234797Y-64240003D01*
X120046280Y-64114040D01*
X119885960Y-63953720D01*
X119759997Y-63765203D01*
X119673232Y-63555734D01*
X119629000Y-63333364D01*
X119629000Y-63106636D01*
X119673232Y-62884266D01*
X119759997Y-62674797D01*
X119885960Y-62486280D01*
X120046280Y-62325960D01*
X120234797Y-62199997D01*
X120444266Y-62113232D01*
X120555451Y-62091116D01*
X120666635Y-62069000D01*
X120893365Y-62069000D01*
X121004549Y-62091116D01*
X121004549Y-62091116D01*
G37*
G36*
X186244549Y-62091116D02*
G01*
X186355734Y-62113232D01*
X186565203Y-62199997D01*
X186753720Y-62325960D01*
X186914040Y-62486280D01*
X187040003Y-62674797D01*
X187126768Y-62884266D01*
X187171000Y-63106636D01*
X187171000Y-63333364D01*
X187126768Y-63555734D01*
X187040003Y-63765203D01*
X186914040Y-63953720D01*
X186753720Y-64114040D01*
X186565203Y-64240003D01*
X186355734Y-64326768D01*
X186244549Y-64348884D01*
X186133365Y-64371000D01*
X185906635Y-64371000D01*
X185795451Y-64348884D01*
X185684266Y-64326768D01*
X185474797Y-64240003D01*
X185286280Y-64114040D01*
X185125960Y-63953720D01*
X184999997Y-63765203D01*
X184913232Y-63555734D01*
X184869000Y-63333364D01*
X184869000Y-63106636D01*
X184913232Y-62884266D01*
X184999997Y-62674797D01*
X185125960Y-62486280D01*
X185286280Y-62325960D01*
X185474797Y-62199997D01*
X185684266Y-62113232D01*
X185795451Y-62091116D01*
X185906635Y-62069000D01*
X186133365Y-62069000D01*
X186244549Y-62091116D01*
X186244549Y-62091116D01*
G37*
G36*
X191324549Y-62091116D02*
G01*
X191435734Y-62113232D01*
X191645203Y-62199997D01*
X191833720Y-62325960D01*
X191994040Y-62486280D01*
X192120003Y-62674797D01*
X192206768Y-62884266D01*
X192251000Y-63106636D01*
X192251000Y-63333364D01*
X192206768Y-63555734D01*
X192120003Y-63765203D01*
X191994040Y-63953720D01*
X191833720Y-64114040D01*
X191645203Y-64240003D01*
X191435734Y-64326768D01*
X191324549Y-64348884D01*
X191213365Y-64371000D01*
X190986635Y-64371000D01*
X190875451Y-64348884D01*
X190764266Y-64326768D01*
X190554797Y-64240003D01*
X190366280Y-64114040D01*
X190205960Y-63953720D01*
X190079997Y-63765203D01*
X189993232Y-63555734D01*
X189949000Y-63333364D01*
X189949000Y-63106636D01*
X189993232Y-62884266D01*
X190079997Y-62674797D01*
X190205960Y-62486280D01*
X190366280Y-62325960D01*
X190554797Y-62199997D01*
X190764266Y-62113232D01*
X190875451Y-62091116D01*
X190986635Y-62069000D01*
X191213365Y-62069000D01*
X191324549Y-62091116D01*
X191324549Y-62091116D01*
G37*
G36*
X196404549Y-62091116D02*
G01*
X196515734Y-62113232D01*
X196725203Y-62199997D01*
X196913720Y-62325960D01*
X197074040Y-62486280D01*
X197200003Y-62674797D01*
X197286768Y-62884266D01*
X197331000Y-63106636D01*
X197331000Y-63333364D01*
X197286768Y-63555734D01*
X197200003Y-63765203D01*
X197074040Y-63953720D01*
X196913720Y-64114040D01*
X196725203Y-64240003D01*
X196515734Y-64326768D01*
X196404549Y-64348884D01*
X196293365Y-64371000D01*
X196066635Y-64371000D01*
X195955451Y-64348884D01*
X195844266Y-64326768D01*
X195634797Y-64240003D01*
X195446280Y-64114040D01*
X195285960Y-63953720D01*
X195159997Y-63765203D01*
X195073232Y-63555734D01*
X195029000Y-63333364D01*
X195029000Y-63106636D01*
X195073232Y-62884266D01*
X195159997Y-62674797D01*
X195285960Y-62486280D01*
X195446280Y-62325960D01*
X195634797Y-62199997D01*
X195844266Y-62113232D01*
X195955451Y-62091116D01*
X196066635Y-62069000D01*
X196293365Y-62069000D01*
X196404549Y-62091116D01*
X196404549Y-62091116D01*
G37*
G36*
X136244549Y-62091116D02*
G01*
X136355734Y-62113232D01*
X136565203Y-62199997D01*
X136753720Y-62325960D01*
X136914040Y-62486280D01*
X137040003Y-62674797D01*
X137126768Y-62884266D01*
X137171000Y-63106636D01*
X137171000Y-63333364D01*
X137126768Y-63555734D01*
X137040003Y-63765203D01*
X136914040Y-63953720D01*
X136753720Y-64114040D01*
X136565203Y-64240003D01*
X136355734Y-64326768D01*
X136244549Y-64348884D01*
X136133365Y-64371000D01*
X135906635Y-64371000D01*
X135795451Y-64348884D01*
X135684266Y-64326768D01*
X135474797Y-64240003D01*
X135286280Y-64114040D01*
X135125960Y-63953720D01*
X134999997Y-63765203D01*
X134913232Y-63555734D01*
X134869000Y-63333364D01*
X134869000Y-63106636D01*
X134913232Y-62884266D01*
X134999997Y-62674797D01*
X135125960Y-62486280D01*
X135286280Y-62325960D01*
X135474797Y-62199997D01*
X135684266Y-62113232D01*
X135795451Y-62091116D01*
X135906635Y-62069000D01*
X136133365Y-62069000D01*
X136244549Y-62091116D01*
X136244549Y-62091116D01*
G37*
G36*
X141324549Y-62091116D02*
G01*
X141435734Y-62113232D01*
X141645203Y-62199997D01*
X141833720Y-62325960D01*
X141994040Y-62486280D01*
X142120003Y-62674797D01*
X142206768Y-62884266D01*
X142251000Y-63106636D01*
X142251000Y-63333364D01*
X142206768Y-63555734D01*
X142120003Y-63765203D01*
X141994040Y-63953720D01*
X141833720Y-64114040D01*
X141645203Y-64240003D01*
X141435734Y-64326768D01*
X141324549Y-64348884D01*
X141213365Y-64371000D01*
X140986635Y-64371000D01*
X140875451Y-64348884D01*
X140764266Y-64326768D01*
X140554797Y-64240003D01*
X140366280Y-64114040D01*
X140205960Y-63953720D01*
X140079997Y-63765203D01*
X139993232Y-63555734D01*
X139949000Y-63333364D01*
X139949000Y-63106636D01*
X139993232Y-62884266D01*
X140079997Y-62674797D01*
X140205960Y-62486280D01*
X140366280Y-62325960D01*
X140554797Y-62199997D01*
X140764266Y-62113232D01*
X140875451Y-62091116D01*
X140986635Y-62069000D01*
X141213365Y-62069000D01*
X141324549Y-62091116D01*
X141324549Y-62091116D01*
G37*
G36*
X115906823Y-62381313D02*
G01*
X116067242Y-62429976D01*
X116172579Y-62486280D01*
X116215078Y-62508996D01*
X116344659Y-62615341D01*
X116451004Y-62744922D01*
X116451005Y-62744924D01*
X116530024Y-62892758D01*
X116578687Y-63053177D01*
X116595117Y-63220000D01*
X116578687Y-63386823D01*
X116530024Y-63547242D01*
X116459114Y-63679906D01*
X116451004Y-63695078D01*
X116344659Y-63824659D01*
X116215078Y-63931004D01*
X116215076Y-63931005D01*
X116067242Y-64010024D01*
X115906823Y-64058687D01*
X115781804Y-64071000D01*
X115698196Y-64071000D01*
X115573177Y-64058687D01*
X115412758Y-64010024D01*
X115264924Y-63931005D01*
X115264922Y-63931004D01*
X115135341Y-63824659D01*
X115028996Y-63695078D01*
X115020886Y-63679906D01*
X114949976Y-63547242D01*
X114901313Y-63386823D01*
X114884883Y-63220000D01*
X114901313Y-63053177D01*
X114949976Y-62892758D01*
X115028995Y-62744924D01*
X115028996Y-62744922D01*
X115135341Y-62615341D01*
X115264922Y-62508996D01*
X115307421Y-62486280D01*
X115412758Y-62429976D01*
X115573177Y-62381313D01*
X115698196Y-62369000D01*
X115781804Y-62369000D01*
X115906823Y-62381313D01*
X115906823Y-62381313D01*
G37*
G36*
X165906823Y-62381313D02*
G01*
X166067242Y-62429976D01*
X166172579Y-62486280D01*
X166215078Y-62508996D01*
X166344659Y-62615341D01*
X166451004Y-62744922D01*
X166451005Y-62744924D01*
X166530024Y-62892758D01*
X166578687Y-63053177D01*
X166595117Y-63220000D01*
X166578687Y-63386823D01*
X166530024Y-63547242D01*
X166459114Y-63679906D01*
X166451004Y-63695078D01*
X166344659Y-63824659D01*
X166215078Y-63931004D01*
X166215076Y-63931005D01*
X166067242Y-64010024D01*
X165906823Y-64058687D01*
X165781804Y-64071000D01*
X165698196Y-64071000D01*
X165573177Y-64058687D01*
X165412758Y-64010024D01*
X165264924Y-63931005D01*
X165264922Y-63931004D01*
X165135341Y-63824659D01*
X165028996Y-63695078D01*
X165020886Y-63679906D01*
X164949976Y-63547242D01*
X164901313Y-63386823D01*
X164884883Y-63220000D01*
X164901313Y-63053177D01*
X164949976Y-62892758D01*
X165028995Y-62744924D01*
X165028996Y-62744922D01*
X165135341Y-62615341D01*
X165264922Y-62508996D01*
X165307421Y-62486280D01*
X165412758Y-62429976D01*
X165573177Y-62381313D01*
X165698196Y-62369000D01*
X165781804Y-62369000D01*
X165906823Y-62381313D01*
X165906823Y-62381313D01*
G37*
G36*
X121004549Y-58281116D02*
G01*
X121115734Y-58303232D01*
X121325203Y-58389997D01*
X121513720Y-58515960D01*
X121674040Y-58676280D01*
X121800003Y-58864797D01*
X121886768Y-59074266D01*
X121931000Y-59296636D01*
X121931000Y-59523364D01*
X121886768Y-59745734D01*
X121800003Y-59955203D01*
X121674040Y-60143720D01*
X121513720Y-60304040D01*
X121325203Y-60430003D01*
X121115734Y-60516768D01*
X121004549Y-60538884D01*
X120893365Y-60561000D01*
X120666635Y-60561000D01*
X120555451Y-60538884D01*
X120444266Y-60516768D01*
X120234797Y-60430003D01*
X120046280Y-60304040D01*
X119885960Y-60143720D01*
X119759997Y-59955203D01*
X119673232Y-59745734D01*
X119629000Y-59523364D01*
X119629000Y-59296636D01*
X119673232Y-59074266D01*
X119759997Y-58864797D01*
X119885960Y-58676280D01*
X120046280Y-58515960D01*
X120234797Y-58389997D01*
X120444266Y-58303232D01*
X120555451Y-58281116D01*
X120666635Y-58259000D01*
X120893365Y-58259000D01*
X121004549Y-58281116D01*
X121004549Y-58281116D01*
G37*
G36*
X171004549Y-58281116D02*
G01*
X171115734Y-58303232D01*
X171325203Y-58389997D01*
X171513720Y-58515960D01*
X171674040Y-58676280D01*
X171800003Y-58864797D01*
X171886768Y-59074266D01*
X171931000Y-59296636D01*
X171931000Y-59523364D01*
X171886768Y-59745734D01*
X171800003Y-59955203D01*
X171674040Y-60143720D01*
X171513720Y-60304040D01*
X171325203Y-60430003D01*
X171115734Y-60516768D01*
X171004549Y-60538884D01*
X170893365Y-60561000D01*
X170666635Y-60561000D01*
X170555451Y-60538884D01*
X170444266Y-60516768D01*
X170234797Y-60430003D01*
X170046280Y-60304040D01*
X169885960Y-60143720D01*
X169759997Y-59955203D01*
X169673232Y-59745734D01*
X169629000Y-59523364D01*
X169629000Y-59296636D01*
X169673232Y-59074266D01*
X169759997Y-58864797D01*
X169885960Y-58676280D01*
X170046280Y-58515960D01*
X170234797Y-58389997D01*
X170444266Y-58303232D01*
X170555451Y-58281116D01*
X170666635Y-58259000D01*
X170893365Y-58259000D01*
X171004549Y-58281116D01*
X171004549Y-58281116D01*
G37*
G36*
X136244549Y-54471116D02*
G01*
X136355734Y-54493232D01*
X136565203Y-54579997D01*
X136753720Y-54705960D01*
X136914040Y-54866280D01*
X137040003Y-55054797D01*
X137040004Y-55054799D01*
X137126768Y-55264267D01*
X137171000Y-55486635D01*
X137171000Y-55713365D01*
X137126768Y-55935733D01*
X137041131Y-56142481D01*
X137040003Y-56145203D01*
X136914040Y-56333720D01*
X136753720Y-56494040D01*
X136565203Y-56620003D01*
X136355734Y-56706768D01*
X136244549Y-56728884D01*
X136133365Y-56751000D01*
X135906635Y-56751000D01*
X135795451Y-56728884D01*
X135684266Y-56706768D01*
X135474797Y-56620003D01*
X135286280Y-56494040D01*
X135125960Y-56333720D01*
X134999997Y-56145203D01*
X134998870Y-56142481D01*
X134913232Y-55935733D01*
X134869000Y-55713365D01*
X134869000Y-55486635D01*
X134913232Y-55264267D01*
X134999996Y-55054799D01*
X134999997Y-55054797D01*
X135125960Y-54866280D01*
X135286280Y-54705960D01*
X135474797Y-54579997D01*
X135684266Y-54493232D01*
X135795451Y-54471116D01*
X135906635Y-54449000D01*
X136133365Y-54449000D01*
X136244549Y-54471116D01*
X136244549Y-54471116D01*
G37*
G36*
X196404549Y-54471116D02*
G01*
X196515734Y-54493232D01*
X196725203Y-54579997D01*
X196913720Y-54705960D01*
X197074040Y-54866280D01*
X197200003Y-55054797D01*
X197200004Y-55054799D01*
X197286768Y-55264267D01*
X197331000Y-55486635D01*
X197331000Y-55713365D01*
X197286768Y-55935733D01*
X197201131Y-56142481D01*
X197200003Y-56145203D01*
X197074040Y-56333720D01*
X196913720Y-56494040D01*
X196725203Y-56620003D01*
X196515734Y-56706768D01*
X196404549Y-56728884D01*
X196293365Y-56751000D01*
X196066635Y-56751000D01*
X195955451Y-56728884D01*
X195844266Y-56706768D01*
X195634797Y-56620003D01*
X195446280Y-56494040D01*
X195285960Y-56333720D01*
X195159997Y-56145203D01*
X195158870Y-56142481D01*
X195073232Y-55935733D01*
X195029000Y-55713365D01*
X195029000Y-55486635D01*
X195073232Y-55264267D01*
X195159996Y-55054799D01*
X195159997Y-55054797D01*
X195285960Y-54866280D01*
X195446280Y-54705960D01*
X195634797Y-54579997D01*
X195844266Y-54493232D01*
X195955451Y-54471116D01*
X196066635Y-54449000D01*
X196293365Y-54449000D01*
X196404549Y-54471116D01*
X196404549Y-54471116D01*
G37*
G36*
X191324549Y-54471116D02*
G01*
X191435734Y-54493232D01*
X191645203Y-54579997D01*
X191833720Y-54705960D01*
X191994040Y-54866280D01*
X192120003Y-55054797D01*
X192120004Y-55054799D01*
X192206768Y-55264267D01*
X192251000Y-55486635D01*
X192251000Y-55713365D01*
X192206768Y-55935733D01*
X192121131Y-56142481D01*
X192120003Y-56145203D01*
X191994040Y-56333720D01*
X191833720Y-56494040D01*
X191645203Y-56620003D01*
X191435734Y-56706768D01*
X191324549Y-56728884D01*
X191213365Y-56751000D01*
X190986635Y-56751000D01*
X190875451Y-56728884D01*
X190764266Y-56706768D01*
X190554797Y-56620003D01*
X190366280Y-56494040D01*
X190205960Y-56333720D01*
X190079997Y-56145203D01*
X190078870Y-56142481D01*
X189993232Y-55935733D01*
X189949000Y-55713365D01*
X189949000Y-55486635D01*
X189993232Y-55264267D01*
X190079996Y-55054799D01*
X190079997Y-55054797D01*
X190205960Y-54866280D01*
X190366280Y-54705960D01*
X190554797Y-54579997D01*
X190764266Y-54493232D01*
X190875451Y-54471116D01*
X190986635Y-54449000D01*
X191213365Y-54449000D01*
X191324549Y-54471116D01*
X191324549Y-54471116D01*
G37*
G36*
X186244549Y-54471116D02*
G01*
X186355734Y-54493232D01*
X186565203Y-54579997D01*
X186753720Y-54705960D01*
X186914040Y-54866280D01*
X187040003Y-55054797D01*
X187040004Y-55054799D01*
X187126768Y-55264267D01*
X187171000Y-55486635D01*
X187171000Y-55713365D01*
X187126768Y-55935733D01*
X187041131Y-56142481D01*
X187040003Y-56145203D01*
X186914040Y-56333720D01*
X186753720Y-56494040D01*
X186565203Y-56620003D01*
X186355734Y-56706768D01*
X186244549Y-56728884D01*
X186133365Y-56751000D01*
X185906635Y-56751000D01*
X185795451Y-56728884D01*
X185684266Y-56706768D01*
X185474797Y-56620003D01*
X185286280Y-56494040D01*
X185125960Y-56333720D01*
X184999997Y-56145203D01*
X184998870Y-56142481D01*
X184913232Y-55935733D01*
X184869000Y-55713365D01*
X184869000Y-55486635D01*
X184913232Y-55264267D01*
X184999996Y-55054799D01*
X184999997Y-55054797D01*
X185125960Y-54866280D01*
X185286280Y-54705960D01*
X185474797Y-54579997D01*
X185684266Y-54493232D01*
X185795451Y-54471116D01*
X185906635Y-54449000D01*
X186133365Y-54449000D01*
X186244549Y-54471116D01*
X186244549Y-54471116D01*
G37*
G36*
X171931000Y-56751000D02*
G01*
X169629000Y-56751000D01*
X169629000Y-54449000D01*
X171931000Y-54449000D01*
X171931000Y-56751000D01*
X171931000Y-56751000D01*
G37*
G36*
X146404549Y-54471116D02*
G01*
X146515734Y-54493232D01*
X146725203Y-54579997D01*
X146913720Y-54705960D01*
X147074040Y-54866280D01*
X147200003Y-55054797D01*
X147200004Y-55054799D01*
X147286768Y-55264267D01*
X147331000Y-55486635D01*
X147331000Y-55713365D01*
X147286768Y-55935733D01*
X147201131Y-56142481D01*
X147200003Y-56145203D01*
X147074040Y-56333720D01*
X146913720Y-56494040D01*
X146725203Y-56620003D01*
X146515734Y-56706768D01*
X146404549Y-56728884D01*
X146293365Y-56751000D01*
X146066635Y-56751000D01*
X145955451Y-56728884D01*
X145844266Y-56706768D01*
X145634797Y-56620003D01*
X145446280Y-56494040D01*
X145285960Y-56333720D01*
X145159997Y-56145203D01*
X145158870Y-56142481D01*
X145073232Y-55935733D01*
X145029000Y-55713365D01*
X145029000Y-55486635D01*
X145073232Y-55264267D01*
X145159996Y-55054799D01*
X145159997Y-55054797D01*
X145285960Y-54866280D01*
X145446280Y-54705960D01*
X145634797Y-54579997D01*
X145844266Y-54493232D01*
X145955451Y-54471116D01*
X146066635Y-54449000D01*
X146293365Y-54449000D01*
X146404549Y-54471116D01*
X146404549Y-54471116D01*
G37*
G36*
X141324549Y-54471116D02*
G01*
X141435734Y-54493232D01*
X141645203Y-54579997D01*
X141833720Y-54705960D01*
X141994040Y-54866280D01*
X142120003Y-55054797D01*
X142120004Y-55054799D01*
X142206768Y-55264267D01*
X142251000Y-55486635D01*
X142251000Y-55713365D01*
X142206768Y-55935733D01*
X142121131Y-56142481D01*
X142120003Y-56145203D01*
X141994040Y-56333720D01*
X141833720Y-56494040D01*
X141645203Y-56620003D01*
X141435734Y-56706768D01*
X141324549Y-56728884D01*
X141213365Y-56751000D01*
X140986635Y-56751000D01*
X140875451Y-56728884D01*
X140764266Y-56706768D01*
X140554797Y-56620003D01*
X140366280Y-56494040D01*
X140205960Y-56333720D01*
X140079997Y-56145203D01*
X140078870Y-56142481D01*
X139993232Y-55935733D01*
X139949000Y-55713365D01*
X139949000Y-55486635D01*
X139993232Y-55264267D01*
X140079996Y-55054799D01*
X140079997Y-55054797D01*
X140205960Y-54866280D01*
X140366280Y-54705960D01*
X140554797Y-54579997D01*
X140764266Y-54493232D01*
X140875451Y-54471116D01*
X140986635Y-54449000D01*
X141213365Y-54449000D01*
X141324549Y-54471116D01*
X141324549Y-54471116D01*
G37*
G36*
X121931000Y-56751000D02*
G01*
X119629000Y-56751000D01*
X119629000Y-54449000D01*
X121931000Y-54449000D01*
X121931000Y-56751000D01*
X121931000Y-56751000D01*
G37*
G36*
X165988228Y-54781703D02*
G01*
X166143100Y-54845853D01*
X166282481Y-54938985D01*
X166401015Y-55057519D01*
X166494147Y-55196900D01*
X166558297Y-55351772D01*
X166591000Y-55516184D01*
X166591000Y-55683816D01*
X166558297Y-55848228D01*
X166494147Y-56003100D01*
X166401015Y-56142481D01*
X166282481Y-56261015D01*
X166143100Y-56354147D01*
X165988228Y-56418297D01*
X165823816Y-56451000D01*
X165656184Y-56451000D01*
X165491772Y-56418297D01*
X165336900Y-56354147D01*
X165197519Y-56261015D01*
X165078985Y-56142481D01*
X164985853Y-56003100D01*
X164921703Y-55848228D01*
X164889000Y-55683816D01*
X164889000Y-55516184D01*
X164921703Y-55351772D01*
X164985853Y-55196900D01*
X165078985Y-55057519D01*
X165197519Y-54938985D01*
X165336900Y-54845853D01*
X165491772Y-54781703D01*
X165656184Y-54749000D01*
X165823816Y-54749000D01*
X165988228Y-54781703D01*
X165988228Y-54781703D01*
G37*
G36*
X115988228Y-54781703D02*
G01*
X116143100Y-54845853D01*
X116282481Y-54938985D01*
X116401015Y-55057519D01*
X116494147Y-55196900D01*
X116558297Y-55351772D01*
X116591000Y-55516184D01*
X116591000Y-55683816D01*
X116558297Y-55848228D01*
X116494147Y-56003100D01*
X116401015Y-56142481D01*
X116282481Y-56261015D01*
X116143100Y-56354147D01*
X115988228Y-56418297D01*
X115823816Y-56451000D01*
X115656184Y-56451000D01*
X115491772Y-56418297D01*
X115336900Y-56354147D01*
X115197519Y-56261015D01*
X115078985Y-56142481D01*
X114985853Y-56003100D01*
X114921703Y-55848228D01*
X114889000Y-55683816D01*
X114889000Y-55516184D01*
X114921703Y-55351772D01*
X114985853Y-55196900D01*
X115078985Y-55057519D01*
X115197519Y-54938985D01*
X115336900Y-54845853D01*
X115491772Y-54781703D01*
X115656184Y-54749000D01*
X115823816Y-54749000D01*
X115988228Y-54781703D01*
X115988228Y-54781703D01*
G37*
G36*
X124892585Y-47093802D02*
G01*
X125042410Y-47123604D01*
X125324674Y-47240521D01*
X125578705Y-47410259D01*
X125794741Y-47626295D01*
X125964479Y-47880326D01*
X126081396Y-48162590D01*
X126141000Y-48462240D01*
X126141000Y-48767760D01*
X126081396Y-49067410D01*
X125964479Y-49349674D01*
X125794741Y-49603705D01*
X125578705Y-49819741D01*
X125324674Y-49989479D01*
X125042410Y-50106396D01*
X124892585Y-50136198D01*
X124742761Y-50166000D01*
X124437239Y-50166000D01*
X124287415Y-50136198D01*
X124137590Y-50106396D01*
X123855326Y-49989479D01*
X123601295Y-49819741D01*
X123385259Y-49603705D01*
X123215521Y-49349674D01*
X123098604Y-49067410D01*
X123039000Y-48767760D01*
X123039000Y-48462240D01*
X123098604Y-48162590D01*
X123215521Y-47880326D01*
X123385259Y-47626295D01*
X123601295Y-47410259D01*
X123855326Y-47240521D01*
X124137590Y-47123604D01*
X124287415Y-47093802D01*
X124437239Y-47064000D01*
X124742761Y-47064000D01*
X124892585Y-47093802D01*
X124892585Y-47093802D01*
G37*
G36*
X131221000Y-50166000D02*
G01*
X128119000Y-50166000D01*
X128119000Y-47064000D01*
X131221000Y-47064000D01*
X131221000Y-50166000D01*
X131221000Y-50166000D01*
G37*
G36*
X119812585Y-47093802D02*
G01*
X119962410Y-47123604D01*
X120244674Y-47240521D01*
X120498705Y-47410259D01*
X120714741Y-47626295D01*
X120884479Y-47880326D01*
X121001396Y-48162590D01*
X121061000Y-48462240D01*
X121061000Y-48767760D01*
X121001396Y-49067410D01*
X120884479Y-49349674D01*
X120714741Y-49603705D01*
X120498705Y-49819741D01*
X120244674Y-49989479D01*
X119962410Y-50106396D01*
X119812585Y-50136198D01*
X119662761Y-50166000D01*
X119357239Y-50166000D01*
X119207415Y-50136198D01*
X119057590Y-50106396D01*
X118775326Y-49989479D01*
X118521295Y-49819741D01*
X118305259Y-49603705D01*
X118135521Y-49349674D01*
X118018604Y-49067410D01*
X117959000Y-48767760D01*
X117959000Y-48462240D01*
X118018604Y-48162590D01*
X118135521Y-47880326D01*
X118305259Y-47626295D01*
X118521295Y-47410259D01*
X118775326Y-47240521D01*
X119057590Y-47123604D01*
X119207415Y-47093802D01*
X119357239Y-47064000D01*
X119662761Y-47064000D01*
X119812585Y-47093802D01*
X119812585Y-47093802D01*
G37*
G36*
X169812585Y-47093802D02*
G01*
X169962410Y-47123604D01*
X170244674Y-47240521D01*
X170498705Y-47410259D01*
X170714741Y-47626295D01*
X170884479Y-47880326D01*
X171001396Y-48162590D01*
X171061000Y-48462240D01*
X171061000Y-48767760D01*
X171001396Y-49067410D01*
X170884479Y-49349674D01*
X170714741Y-49603705D01*
X170498705Y-49819741D01*
X170244674Y-49989479D01*
X169962410Y-50106396D01*
X169812585Y-50136198D01*
X169662761Y-50166000D01*
X169357239Y-50166000D01*
X169207415Y-50136198D01*
X169057590Y-50106396D01*
X168775326Y-49989479D01*
X168521295Y-49819741D01*
X168305259Y-49603705D01*
X168135521Y-49349674D01*
X168018604Y-49067410D01*
X167959000Y-48767760D01*
X167959000Y-48462240D01*
X168018604Y-48162590D01*
X168135521Y-47880326D01*
X168305259Y-47626295D01*
X168521295Y-47410259D01*
X168775326Y-47240521D01*
X169057590Y-47123604D01*
X169207415Y-47093802D01*
X169357239Y-47064000D01*
X169662761Y-47064000D01*
X169812585Y-47093802D01*
X169812585Y-47093802D01*
G37*
G36*
X174892585Y-47093802D02*
G01*
X175042410Y-47123604D01*
X175324674Y-47240521D01*
X175578705Y-47410259D01*
X175794741Y-47626295D01*
X175964479Y-47880326D01*
X176081396Y-48162590D01*
X176141000Y-48462240D01*
X176141000Y-48767760D01*
X176081396Y-49067410D01*
X175964479Y-49349674D01*
X175794741Y-49603705D01*
X175578705Y-49819741D01*
X175324674Y-49989479D01*
X175042410Y-50106396D01*
X174892585Y-50136198D01*
X174742761Y-50166000D01*
X174437239Y-50166000D01*
X174287415Y-50136198D01*
X174137590Y-50106396D01*
X173855326Y-49989479D01*
X173601295Y-49819741D01*
X173385259Y-49603705D01*
X173215521Y-49349674D01*
X173098604Y-49067410D01*
X173039000Y-48767760D01*
X173039000Y-48462240D01*
X173098604Y-48162590D01*
X173215521Y-47880326D01*
X173385259Y-47626295D01*
X173601295Y-47410259D01*
X173855326Y-47240521D01*
X174137590Y-47123604D01*
X174287415Y-47093802D01*
X174437239Y-47064000D01*
X174742761Y-47064000D01*
X174892585Y-47093802D01*
X174892585Y-47093802D01*
G37*
G36*
X181221000Y-50166000D02*
G01*
X178119000Y-50166000D01*
X178119000Y-47064000D01*
X181221000Y-47064000D01*
X181221000Y-50166000D01*
X181221000Y-50166000D01*
G37*
G36*
X154012585Y-44888802D02*
G01*
X154162410Y-44918604D01*
X154444674Y-45035521D01*
X154698705Y-45205259D01*
X154914741Y-45421295D01*
X155084479Y-45675326D01*
X155201396Y-45957590D01*
X155261000Y-46257240D01*
X155261000Y-46562760D01*
X155201396Y-46862410D01*
X155084479Y-47144674D01*
X154914741Y-47398705D01*
X154698705Y-47614741D01*
X154444674Y-47784479D01*
X154162410Y-47901396D01*
X154012585Y-47931198D01*
X153862761Y-47961000D01*
X153557239Y-47961000D01*
X153407415Y-47931198D01*
X153257590Y-47901396D01*
X152975326Y-47784479D01*
X152721295Y-47614741D01*
X152505259Y-47398705D01*
X152335521Y-47144674D01*
X152218604Y-46862410D01*
X152159000Y-46562760D01*
X152159000Y-46257240D01*
X152218604Y-45957590D01*
X152335521Y-45675326D01*
X152505259Y-45421295D01*
X152721295Y-45205259D01*
X152975326Y-45035521D01*
X153257590Y-44918604D01*
X153407415Y-44888802D01*
X153557239Y-44859000D01*
X153862761Y-44859000D01*
X154012585Y-44888802D01*
X154012585Y-44888802D01*
G37*
G36*
X111012585Y-44888802D02*
G01*
X111162410Y-44918604D01*
X111444674Y-45035521D01*
X111698705Y-45205259D01*
X111914741Y-45421295D01*
X112084479Y-45675326D01*
X112201396Y-45957590D01*
X112261000Y-46257240D01*
X112261000Y-46562760D01*
X112201396Y-46862410D01*
X112084479Y-47144674D01*
X111914741Y-47398705D01*
X111698705Y-47614741D01*
X111444674Y-47784479D01*
X111162410Y-47901396D01*
X111012585Y-47931198D01*
X110862761Y-47961000D01*
X110557239Y-47961000D01*
X110407415Y-47931198D01*
X110257590Y-47901396D01*
X109975326Y-47784479D01*
X109721295Y-47614741D01*
X109505259Y-47398705D01*
X109335521Y-47144674D01*
X109218604Y-46862410D01*
X109159000Y-46562760D01*
X109159000Y-46257240D01*
X109218604Y-45957590D01*
X109335521Y-45675326D01*
X109505259Y-45421295D01*
X109721295Y-45205259D01*
X109975326Y-45035521D01*
X110257590Y-44918604D01*
X110407415Y-44888802D01*
X110557239Y-44859000D01*
X110862761Y-44859000D01*
X111012585Y-44888802D01*
X111012585Y-44888802D01*
G37*
G36*
X161012585Y-44888802D02*
G01*
X161162410Y-44918604D01*
X161444674Y-45035521D01*
X161698705Y-45205259D01*
X161914741Y-45421295D01*
X162084479Y-45675326D01*
X162201396Y-45957590D01*
X162261000Y-46257240D01*
X162261000Y-46562760D01*
X162201396Y-46862410D01*
X162084479Y-47144674D01*
X161914741Y-47398705D01*
X161698705Y-47614741D01*
X161444674Y-47784479D01*
X161162410Y-47901396D01*
X161012585Y-47931198D01*
X160862761Y-47961000D01*
X160557239Y-47961000D01*
X160407415Y-47931198D01*
X160257590Y-47901396D01*
X159975326Y-47784479D01*
X159721295Y-47614741D01*
X159505259Y-47398705D01*
X159335521Y-47144674D01*
X159218604Y-46862410D01*
X159159000Y-46562760D01*
X159159000Y-46257240D01*
X159218604Y-45957590D01*
X159335521Y-45675326D01*
X159505259Y-45421295D01*
X159721295Y-45205259D01*
X159975326Y-45035521D01*
X160257590Y-44918604D01*
X160407415Y-44888802D01*
X160557239Y-44859000D01*
X160862761Y-44859000D01*
X161012585Y-44888802D01*
X161012585Y-44888802D01*
G37*
G36*
X204012585Y-44888802D02*
G01*
X204162410Y-44918604D01*
X204444674Y-45035521D01*
X204698705Y-45205259D01*
X204914741Y-45421295D01*
X205084479Y-45675326D01*
X205201396Y-45957590D01*
X205261000Y-46257240D01*
X205261000Y-46562760D01*
X205201396Y-46862410D01*
X205084479Y-47144674D01*
X204914741Y-47398705D01*
X204698705Y-47614741D01*
X204444674Y-47784479D01*
X204162410Y-47901396D01*
X204012585Y-47931198D01*
X203862761Y-47961000D01*
X203557239Y-47961000D01*
X203407415Y-47931198D01*
X203257590Y-47901396D01*
X202975326Y-47784479D01*
X202721295Y-47614741D01*
X202505259Y-47398705D01*
X202335521Y-47144674D01*
X202218604Y-46862410D01*
X202159000Y-46562760D01*
X202159000Y-46257240D01*
X202218604Y-45957590D01*
X202335521Y-45675326D01*
X202505259Y-45421295D01*
X202721295Y-45205259D01*
X202975326Y-45035521D01*
X203257590Y-44918604D01*
X203407415Y-44888802D01*
X203557239Y-44859000D01*
X203862761Y-44859000D01*
X204012585Y-44888802D01*
X204012585Y-44888802D01*
G37*
M02*
