G04 #@! TF.GenerationSoftware,KiCad,Pcbnew,(5.1.4)-1*
G04 #@! TF.CreationDate,2019-09-09T12:01:26+02:00*
G04 #@! TF.ProjectId,SwitchRelay_panel,53776974-6368-4526-956c-61795f70616e,1.0*
G04 #@! TF.SameCoordinates,Original*
G04 #@! TF.FileFunction,Copper,L2,Bot*
G04 #@! TF.FilePolarity,Positive*
%FSLAX46Y46*%
G04 Gerber Fmt 4.6, Leading zero omitted, Abs format (unit mm)*
G04 Created by KiCad (PCBNEW (5.1.4)-1) date 2019-09-09 12:01:26*
%MOMM*%
%LPD*%
G04 APERTURE LIST*
%ADD10C,0.203200*%
%ADD11C,0.254000*%
%ADD12C,3.000000*%
%ADD13R,3.000000X3.000000*%
%ADD14C,2.200000*%
%ADD15R,2.200000X2.200000*%
%ADD16O,1.600000X1.600000*%
%ADD17C,1.600000*%
%ADD18C,1.016000*%
G04 APERTURE END LIST*
D10*
X163571238Y-119676857D02*
X163619619Y-119822000D01*
X163619619Y-120063904D01*
X163571238Y-120160666D01*
X163522857Y-120209047D01*
X163426095Y-120257428D01*
X163329333Y-120257428D01*
X163232571Y-120209047D01*
X163184190Y-120160666D01*
X163135809Y-120063904D01*
X163087428Y-119870380D01*
X163039047Y-119773619D01*
X162990666Y-119725238D01*
X162893904Y-119676857D01*
X162797142Y-119676857D01*
X162700380Y-119725238D01*
X162652000Y-119773619D01*
X162603619Y-119870380D01*
X162603619Y-120112285D01*
X162652000Y-120257428D01*
X163571238Y-121079904D02*
X163619619Y-120983142D01*
X163619619Y-120789619D01*
X163571238Y-120692857D01*
X163474476Y-120644476D01*
X163087428Y-120644476D01*
X162990666Y-120692857D01*
X162942285Y-120789619D01*
X162942285Y-120983142D01*
X162990666Y-121079904D01*
X163087428Y-121128285D01*
X163184190Y-121128285D01*
X163280952Y-120644476D01*
X162942285Y-121563714D02*
X163958285Y-121563714D01*
X162990666Y-121563714D02*
X162942285Y-121660476D01*
X162942285Y-121854000D01*
X162990666Y-121950761D01*
X163039047Y-121999142D01*
X163135809Y-122047523D01*
X163426095Y-122047523D01*
X163522857Y-121999142D01*
X163571238Y-121950761D01*
X163619619Y-121854000D01*
X163619619Y-121660476D01*
X163571238Y-121563714D01*
X162942285Y-122337809D02*
X162942285Y-122724857D01*
X162603619Y-122482952D02*
X163474476Y-122482952D01*
X163571238Y-122531333D01*
X163619619Y-122628095D01*
X163619619Y-122724857D01*
X163619619Y-123063523D02*
X162942285Y-123063523D01*
X162603619Y-123063523D02*
X162652000Y-123015142D01*
X162700380Y-123063523D01*
X162652000Y-123111904D01*
X162603619Y-123063523D01*
X162700380Y-123063523D01*
X163619619Y-123692476D02*
X163571238Y-123595714D01*
X163474476Y-123547333D01*
X162603619Y-123547333D01*
X163619619Y-124224666D02*
X163571238Y-124127904D01*
X163474476Y-124079523D01*
X162603619Y-124079523D01*
X163619619Y-124611714D02*
X162942285Y-124611714D01*
X162603619Y-124611714D02*
X162652000Y-124563333D01*
X162700380Y-124611714D01*
X162652000Y-124660095D01*
X162603619Y-124611714D01*
X162700380Y-124611714D01*
X163619619Y-125240666D02*
X163571238Y-125143904D01*
X163522857Y-125095523D01*
X163426095Y-125047142D01*
X163135809Y-125047142D01*
X163039047Y-125095523D01*
X162990666Y-125143904D01*
X162942285Y-125240666D01*
X162942285Y-125385809D01*
X162990666Y-125482571D01*
X163039047Y-125530952D01*
X163135809Y-125579333D01*
X163426095Y-125579333D01*
X163522857Y-125530952D01*
X163571238Y-125482571D01*
X163619619Y-125385809D01*
X163619619Y-125240666D01*
X162942285Y-126014761D02*
X163619619Y-126014761D01*
X163039047Y-126014761D02*
X162990666Y-126063142D01*
X162942285Y-126159904D01*
X162942285Y-126305047D01*
X162990666Y-126401809D01*
X163087428Y-126450190D01*
X163619619Y-126450190D01*
X162700380Y-127659714D02*
X162652000Y-127708095D01*
X162603619Y-127804857D01*
X162603619Y-128046761D01*
X162652000Y-128143523D01*
X162700380Y-128191904D01*
X162797142Y-128240285D01*
X162893904Y-128240285D01*
X163039047Y-128191904D01*
X163619619Y-127611333D01*
X163619619Y-128240285D01*
X162603619Y-128869238D02*
X162603619Y-128966000D01*
X162652000Y-129062761D01*
X162700380Y-129111142D01*
X162797142Y-129159523D01*
X162990666Y-129207904D01*
X163232571Y-129207904D01*
X163426095Y-129159523D01*
X163522857Y-129111142D01*
X163571238Y-129062761D01*
X163619619Y-128966000D01*
X163619619Y-128869238D01*
X163571238Y-128772476D01*
X163522857Y-128724095D01*
X163426095Y-128675714D01*
X163232571Y-128627333D01*
X162990666Y-128627333D01*
X162797142Y-128675714D01*
X162700380Y-128724095D01*
X162652000Y-128772476D01*
X162603619Y-128869238D01*
X163619619Y-130175523D02*
X163619619Y-129594952D01*
X163619619Y-129885238D02*
X162603619Y-129885238D01*
X162748761Y-129788476D01*
X162845523Y-129691714D01*
X162893904Y-129594952D01*
X163619619Y-130659333D02*
X163619619Y-130852857D01*
X163571238Y-130949619D01*
X163522857Y-130998000D01*
X163377714Y-131094761D01*
X163184190Y-131143142D01*
X162797142Y-131143142D01*
X162700380Y-131094761D01*
X162652000Y-131046380D01*
X162603619Y-130949619D01*
X162603619Y-130756095D01*
X162652000Y-130659333D01*
X162700380Y-130610952D01*
X162797142Y-130562571D01*
X163039047Y-130562571D01*
X163135809Y-130610952D01*
X163184190Y-130659333D01*
X163232571Y-130756095D01*
X163232571Y-130949619D01*
X163184190Y-131046380D01*
X163135809Y-131094761D01*
X163039047Y-131143142D01*
D11*
X160653261Y-116368809D02*
X160731880Y-116604666D01*
X160731880Y-116997761D01*
X160653261Y-117155000D01*
X160574642Y-117233619D01*
X160417404Y-117312238D01*
X160260166Y-117312238D01*
X160102928Y-117233619D01*
X160024309Y-117155000D01*
X159945690Y-116997761D01*
X159867071Y-116683285D01*
X159788452Y-116526047D01*
X159709833Y-116447428D01*
X159552595Y-116368809D01*
X159395357Y-116368809D01*
X159238119Y-116447428D01*
X159159500Y-116526047D01*
X159080880Y-116683285D01*
X159080880Y-117076380D01*
X159159500Y-117312238D01*
X159631214Y-117862571D02*
X160731880Y-118177047D01*
X159945690Y-118491523D01*
X160731880Y-118806000D01*
X159631214Y-119120476D01*
X160731880Y-119749428D02*
X159631214Y-119749428D01*
X159080880Y-119749428D02*
X159159500Y-119670809D01*
X159238119Y-119749428D01*
X159159500Y-119828047D01*
X159080880Y-119749428D01*
X159238119Y-119749428D01*
X159631214Y-120299761D02*
X159631214Y-120928714D01*
X159080880Y-120535619D02*
X160496023Y-120535619D01*
X160653261Y-120614238D01*
X160731880Y-120771476D01*
X160731880Y-120928714D01*
X160653261Y-122186619D02*
X160731880Y-122029380D01*
X160731880Y-121714904D01*
X160653261Y-121557666D01*
X160574642Y-121479047D01*
X160417404Y-121400428D01*
X159945690Y-121400428D01*
X159788452Y-121479047D01*
X159709833Y-121557666D01*
X159631214Y-121714904D01*
X159631214Y-122029380D01*
X159709833Y-122186619D01*
X160731880Y-122894190D02*
X159080880Y-122894190D01*
X160731880Y-123601761D02*
X159867071Y-123601761D01*
X159709833Y-123523142D01*
X159631214Y-123365904D01*
X159631214Y-123130047D01*
X159709833Y-122972809D01*
X159788452Y-122894190D01*
X160731880Y-125331380D02*
X159945690Y-124781047D01*
X160731880Y-124387952D02*
X159080880Y-124387952D01*
X159080880Y-125016904D01*
X159159500Y-125174142D01*
X159238119Y-125252761D01*
X159395357Y-125331380D01*
X159631214Y-125331380D01*
X159788452Y-125252761D01*
X159867071Y-125174142D01*
X159945690Y-125016904D01*
X159945690Y-124387952D01*
X160653261Y-126667904D02*
X160731880Y-126510666D01*
X160731880Y-126196190D01*
X160653261Y-126038952D01*
X160496023Y-125960333D01*
X159867071Y-125960333D01*
X159709833Y-126038952D01*
X159631214Y-126196190D01*
X159631214Y-126510666D01*
X159709833Y-126667904D01*
X159867071Y-126746523D01*
X160024309Y-126746523D01*
X160181547Y-125960333D01*
X160731880Y-127689952D02*
X160653261Y-127532714D01*
X160496023Y-127454095D01*
X159080880Y-127454095D01*
X160731880Y-129026476D02*
X159867071Y-129026476D01*
X159709833Y-128947857D01*
X159631214Y-128790619D01*
X159631214Y-128476142D01*
X159709833Y-128318904D01*
X160653261Y-129026476D02*
X160731880Y-128869238D01*
X160731880Y-128476142D01*
X160653261Y-128318904D01*
X160496023Y-128240285D01*
X160338785Y-128240285D01*
X160181547Y-128318904D01*
X160102928Y-128476142D01*
X160102928Y-128869238D01*
X160024309Y-129026476D01*
X159631214Y-129655428D02*
X160731880Y-130048523D01*
X159631214Y-130441619D02*
X160731880Y-130048523D01*
X161124976Y-129891285D01*
X161203595Y-129812666D01*
X161282214Y-129655428D01*
X159631214Y-132171238D02*
X160731880Y-132564333D01*
X159631214Y-132957428D01*
X159238119Y-133507761D02*
X159159500Y-133586380D01*
X159080880Y-133743619D01*
X159080880Y-134136714D01*
X159159500Y-134293952D01*
X159238119Y-134372571D01*
X159395357Y-134451190D01*
X159552595Y-134451190D01*
X159788452Y-134372571D01*
X160731880Y-133429142D01*
X160731880Y-134451190D01*
D10*
X113571238Y-119676857D02*
X113619619Y-119822000D01*
X113619619Y-120063904D01*
X113571238Y-120160666D01*
X113522857Y-120209047D01*
X113426095Y-120257428D01*
X113329333Y-120257428D01*
X113232571Y-120209047D01*
X113184190Y-120160666D01*
X113135809Y-120063904D01*
X113087428Y-119870380D01*
X113039047Y-119773619D01*
X112990666Y-119725238D01*
X112893904Y-119676857D01*
X112797142Y-119676857D01*
X112700380Y-119725238D01*
X112652000Y-119773619D01*
X112603619Y-119870380D01*
X112603619Y-120112285D01*
X112652000Y-120257428D01*
X113571238Y-121079904D02*
X113619619Y-120983142D01*
X113619619Y-120789619D01*
X113571238Y-120692857D01*
X113474476Y-120644476D01*
X113087428Y-120644476D01*
X112990666Y-120692857D01*
X112942285Y-120789619D01*
X112942285Y-120983142D01*
X112990666Y-121079904D01*
X113087428Y-121128285D01*
X113184190Y-121128285D01*
X113280952Y-120644476D01*
X112942285Y-121563714D02*
X113958285Y-121563714D01*
X112990666Y-121563714D02*
X112942285Y-121660476D01*
X112942285Y-121854000D01*
X112990666Y-121950761D01*
X113039047Y-121999142D01*
X113135809Y-122047523D01*
X113426095Y-122047523D01*
X113522857Y-121999142D01*
X113571238Y-121950761D01*
X113619619Y-121854000D01*
X113619619Y-121660476D01*
X113571238Y-121563714D01*
X112942285Y-122337809D02*
X112942285Y-122724857D01*
X112603619Y-122482952D02*
X113474476Y-122482952D01*
X113571238Y-122531333D01*
X113619619Y-122628095D01*
X113619619Y-122724857D01*
X113619619Y-123063523D02*
X112942285Y-123063523D01*
X112603619Y-123063523D02*
X112652000Y-123015142D01*
X112700380Y-123063523D01*
X112652000Y-123111904D01*
X112603619Y-123063523D01*
X112700380Y-123063523D01*
X113619619Y-123692476D02*
X113571238Y-123595714D01*
X113474476Y-123547333D01*
X112603619Y-123547333D01*
X113619619Y-124224666D02*
X113571238Y-124127904D01*
X113474476Y-124079523D01*
X112603619Y-124079523D01*
X113619619Y-124611714D02*
X112942285Y-124611714D01*
X112603619Y-124611714D02*
X112652000Y-124563333D01*
X112700380Y-124611714D01*
X112652000Y-124660095D01*
X112603619Y-124611714D01*
X112700380Y-124611714D01*
X113619619Y-125240666D02*
X113571238Y-125143904D01*
X113522857Y-125095523D01*
X113426095Y-125047142D01*
X113135809Y-125047142D01*
X113039047Y-125095523D01*
X112990666Y-125143904D01*
X112942285Y-125240666D01*
X112942285Y-125385809D01*
X112990666Y-125482571D01*
X113039047Y-125530952D01*
X113135809Y-125579333D01*
X113426095Y-125579333D01*
X113522857Y-125530952D01*
X113571238Y-125482571D01*
X113619619Y-125385809D01*
X113619619Y-125240666D01*
X112942285Y-126014761D02*
X113619619Y-126014761D01*
X113039047Y-126014761D02*
X112990666Y-126063142D01*
X112942285Y-126159904D01*
X112942285Y-126305047D01*
X112990666Y-126401809D01*
X113087428Y-126450190D01*
X113619619Y-126450190D01*
X112700380Y-127659714D02*
X112652000Y-127708095D01*
X112603619Y-127804857D01*
X112603619Y-128046761D01*
X112652000Y-128143523D01*
X112700380Y-128191904D01*
X112797142Y-128240285D01*
X112893904Y-128240285D01*
X113039047Y-128191904D01*
X113619619Y-127611333D01*
X113619619Y-128240285D01*
X112603619Y-128869238D02*
X112603619Y-128966000D01*
X112652000Y-129062761D01*
X112700380Y-129111142D01*
X112797142Y-129159523D01*
X112990666Y-129207904D01*
X113232571Y-129207904D01*
X113426095Y-129159523D01*
X113522857Y-129111142D01*
X113571238Y-129062761D01*
X113619619Y-128966000D01*
X113619619Y-128869238D01*
X113571238Y-128772476D01*
X113522857Y-128724095D01*
X113426095Y-128675714D01*
X113232571Y-128627333D01*
X112990666Y-128627333D01*
X112797142Y-128675714D01*
X112700380Y-128724095D01*
X112652000Y-128772476D01*
X112603619Y-128869238D01*
X113619619Y-130175523D02*
X113619619Y-129594952D01*
X113619619Y-129885238D02*
X112603619Y-129885238D01*
X112748761Y-129788476D01*
X112845523Y-129691714D01*
X112893904Y-129594952D01*
X113619619Y-130659333D02*
X113619619Y-130852857D01*
X113571238Y-130949619D01*
X113522857Y-130998000D01*
X113377714Y-131094761D01*
X113184190Y-131143142D01*
X112797142Y-131143142D01*
X112700380Y-131094761D01*
X112652000Y-131046380D01*
X112603619Y-130949619D01*
X112603619Y-130756095D01*
X112652000Y-130659333D01*
X112700380Y-130610952D01*
X112797142Y-130562571D01*
X113039047Y-130562571D01*
X113135809Y-130610952D01*
X113184190Y-130659333D01*
X113232571Y-130756095D01*
X113232571Y-130949619D01*
X113184190Y-131046380D01*
X113135809Y-131094761D01*
X113039047Y-131143142D01*
D11*
X110653261Y-116368809D02*
X110731880Y-116604666D01*
X110731880Y-116997761D01*
X110653261Y-117155000D01*
X110574642Y-117233619D01*
X110417404Y-117312238D01*
X110260166Y-117312238D01*
X110102928Y-117233619D01*
X110024309Y-117155000D01*
X109945690Y-116997761D01*
X109867071Y-116683285D01*
X109788452Y-116526047D01*
X109709833Y-116447428D01*
X109552595Y-116368809D01*
X109395357Y-116368809D01*
X109238119Y-116447428D01*
X109159500Y-116526047D01*
X109080880Y-116683285D01*
X109080880Y-117076380D01*
X109159500Y-117312238D01*
X109631214Y-117862571D02*
X110731880Y-118177047D01*
X109945690Y-118491523D01*
X110731880Y-118806000D01*
X109631214Y-119120476D01*
X110731880Y-119749428D02*
X109631214Y-119749428D01*
X109080880Y-119749428D02*
X109159500Y-119670809D01*
X109238119Y-119749428D01*
X109159500Y-119828047D01*
X109080880Y-119749428D01*
X109238119Y-119749428D01*
X109631214Y-120299761D02*
X109631214Y-120928714D01*
X109080880Y-120535619D02*
X110496023Y-120535619D01*
X110653261Y-120614238D01*
X110731880Y-120771476D01*
X110731880Y-120928714D01*
X110653261Y-122186619D02*
X110731880Y-122029380D01*
X110731880Y-121714904D01*
X110653261Y-121557666D01*
X110574642Y-121479047D01*
X110417404Y-121400428D01*
X109945690Y-121400428D01*
X109788452Y-121479047D01*
X109709833Y-121557666D01*
X109631214Y-121714904D01*
X109631214Y-122029380D01*
X109709833Y-122186619D01*
X110731880Y-122894190D02*
X109080880Y-122894190D01*
X110731880Y-123601761D02*
X109867071Y-123601761D01*
X109709833Y-123523142D01*
X109631214Y-123365904D01*
X109631214Y-123130047D01*
X109709833Y-122972809D01*
X109788452Y-122894190D01*
X110731880Y-125331380D02*
X109945690Y-124781047D01*
X110731880Y-124387952D02*
X109080880Y-124387952D01*
X109080880Y-125016904D01*
X109159500Y-125174142D01*
X109238119Y-125252761D01*
X109395357Y-125331380D01*
X109631214Y-125331380D01*
X109788452Y-125252761D01*
X109867071Y-125174142D01*
X109945690Y-125016904D01*
X109945690Y-124387952D01*
X110653261Y-126667904D02*
X110731880Y-126510666D01*
X110731880Y-126196190D01*
X110653261Y-126038952D01*
X110496023Y-125960333D01*
X109867071Y-125960333D01*
X109709833Y-126038952D01*
X109631214Y-126196190D01*
X109631214Y-126510666D01*
X109709833Y-126667904D01*
X109867071Y-126746523D01*
X110024309Y-126746523D01*
X110181547Y-125960333D01*
X110731880Y-127689952D02*
X110653261Y-127532714D01*
X110496023Y-127454095D01*
X109080880Y-127454095D01*
X110731880Y-129026476D02*
X109867071Y-129026476D01*
X109709833Y-128947857D01*
X109631214Y-128790619D01*
X109631214Y-128476142D01*
X109709833Y-128318904D01*
X110653261Y-129026476D02*
X110731880Y-128869238D01*
X110731880Y-128476142D01*
X110653261Y-128318904D01*
X110496023Y-128240285D01*
X110338785Y-128240285D01*
X110181547Y-128318904D01*
X110102928Y-128476142D01*
X110102928Y-128869238D01*
X110024309Y-129026476D01*
X109631214Y-129655428D02*
X110731880Y-130048523D01*
X109631214Y-130441619D02*
X110731880Y-130048523D01*
X111124976Y-129891285D01*
X111203595Y-129812666D01*
X111282214Y-129655428D01*
X109631214Y-132171238D02*
X110731880Y-132564333D01*
X109631214Y-132957428D01*
X109238119Y-133507761D02*
X109159500Y-133586380D01*
X109080880Y-133743619D01*
X109080880Y-134136714D01*
X109159500Y-134293952D01*
X109238119Y-134372571D01*
X109395357Y-134451190D01*
X109552595Y-134451190D01*
X109788452Y-134372571D01*
X110731880Y-133429142D01*
X110731880Y-134451190D01*
X160653261Y-83368809D02*
X160731880Y-83604666D01*
X160731880Y-83997761D01*
X160653261Y-84155000D01*
X160574642Y-84233619D01*
X160417404Y-84312238D01*
X160260166Y-84312238D01*
X160102928Y-84233619D01*
X160024309Y-84155000D01*
X159945690Y-83997761D01*
X159867071Y-83683285D01*
X159788452Y-83526047D01*
X159709833Y-83447428D01*
X159552595Y-83368809D01*
X159395357Y-83368809D01*
X159238119Y-83447428D01*
X159159500Y-83526047D01*
X159080880Y-83683285D01*
X159080880Y-84076380D01*
X159159500Y-84312238D01*
X159631214Y-84862571D02*
X160731880Y-85177047D01*
X159945690Y-85491523D01*
X160731880Y-85806000D01*
X159631214Y-86120476D01*
X160731880Y-86749428D02*
X159631214Y-86749428D01*
X159080880Y-86749428D02*
X159159500Y-86670809D01*
X159238119Y-86749428D01*
X159159500Y-86828047D01*
X159080880Y-86749428D01*
X159238119Y-86749428D01*
X159631214Y-87299761D02*
X159631214Y-87928714D01*
X159080880Y-87535619D02*
X160496023Y-87535619D01*
X160653261Y-87614238D01*
X160731880Y-87771476D01*
X160731880Y-87928714D01*
X160653261Y-89186619D02*
X160731880Y-89029380D01*
X160731880Y-88714904D01*
X160653261Y-88557666D01*
X160574642Y-88479047D01*
X160417404Y-88400428D01*
X159945690Y-88400428D01*
X159788452Y-88479047D01*
X159709833Y-88557666D01*
X159631214Y-88714904D01*
X159631214Y-89029380D01*
X159709833Y-89186619D01*
X160731880Y-89894190D02*
X159080880Y-89894190D01*
X160731880Y-90601761D02*
X159867071Y-90601761D01*
X159709833Y-90523142D01*
X159631214Y-90365904D01*
X159631214Y-90130047D01*
X159709833Y-89972809D01*
X159788452Y-89894190D01*
X160731880Y-92331380D02*
X159945690Y-91781047D01*
X160731880Y-91387952D02*
X159080880Y-91387952D01*
X159080880Y-92016904D01*
X159159500Y-92174142D01*
X159238119Y-92252761D01*
X159395357Y-92331380D01*
X159631214Y-92331380D01*
X159788452Y-92252761D01*
X159867071Y-92174142D01*
X159945690Y-92016904D01*
X159945690Y-91387952D01*
X160653261Y-93667904D02*
X160731880Y-93510666D01*
X160731880Y-93196190D01*
X160653261Y-93038952D01*
X160496023Y-92960333D01*
X159867071Y-92960333D01*
X159709833Y-93038952D01*
X159631214Y-93196190D01*
X159631214Y-93510666D01*
X159709833Y-93667904D01*
X159867071Y-93746523D01*
X160024309Y-93746523D01*
X160181547Y-92960333D01*
X160731880Y-94689952D02*
X160653261Y-94532714D01*
X160496023Y-94454095D01*
X159080880Y-94454095D01*
X160731880Y-96026476D02*
X159867071Y-96026476D01*
X159709833Y-95947857D01*
X159631214Y-95790619D01*
X159631214Y-95476142D01*
X159709833Y-95318904D01*
X160653261Y-96026476D02*
X160731880Y-95869238D01*
X160731880Y-95476142D01*
X160653261Y-95318904D01*
X160496023Y-95240285D01*
X160338785Y-95240285D01*
X160181547Y-95318904D01*
X160102928Y-95476142D01*
X160102928Y-95869238D01*
X160024309Y-96026476D01*
X159631214Y-96655428D02*
X160731880Y-97048523D01*
X159631214Y-97441619D02*
X160731880Y-97048523D01*
X161124976Y-96891285D01*
X161203595Y-96812666D01*
X161282214Y-96655428D01*
X159631214Y-99171238D02*
X160731880Y-99564333D01*
X159631214Y-99957428D01*
X159238119Y-100507761D02*
X159159500Y-100586380D01*
X159080880Y-100743619D01*
X159080880Y-101136714D01*
X159159500Y-101293952D01*
X159238119Y-101372571D01*
X159395357Y-101451190D01*
X159552595Y-101451190D01*
X159788452Y-101372571D01*
X160731880Y-100429142D01*
X160731880Y-101451190D01*
D10*
X163571238Y-86676857D02*
X163619619Y-86822000D01*
X163619619Y-87063904D01*
X163571238Y-87160666D01*
X163522857Y-87209047D01*
X163426095Y-87257428D01*
X163329333Y-87257428D01*
X163232571Y-87209047D01*
X163184190Y-87160666D01*
X163135809Y-87063904D01*
X163087428Y-86870380D01*
X163039047Y-86773619D01*
X162990666Y-86725238D01*
X162893904Y-86676857D01*
X162797142Y-86676857D01*
X162700380Y-86725238D01*
X162652000Y-86773619D01*
X162603619Y-86870380D01*
X162603619Y-87112285D01*
X162652000Y-87257428D01*
X163571238Y-88079904D02*
X163619619Y-87983142D01*
X163619619Y-87789619D01*
X163571238Y-87692857D01*
X163474476Y-87644476D01*
X163087428Y-87644476D01*
X162990666Y-87692857D01*
X162942285Y-87789619D01*
X162942285Y-87983142D01*
X162990666Y-88079904D01*
X163087428Y-88128285D01*
X163184190Y-88128285D01*
X163280952Y-87644476D01*
X162942285Y-88563714D02*
X163958285Y-88563714D01*
X162990666Y-88563714D02*
X162942285Y-88660476D01*
X162942285Y-88854000D01*
X162990666Y-88950761D01*
X163039047Y-88999142D01*
X163135809Y-89047523D01*
X163426095Y-89047523D01*
X163522857Y-88999142D01*
X163571238Y-88950761D01*
X163619619Y-88854000D01*
X163619619Y-88660476D01*
X163571238Y-88563714D01*
X162942285Y-89337809D02*
X162942285Y-89724857D01*
X162603619Y-89482952D02*
X163474476Y-89482952D01*
X163571238Y-89531333D01*
X163619619Y-89628095D01*
X163619619Y-89724857D01*
X163619619Y-90063523D02*
X162942285Y-90063523D01*
X162603619Y-90063523D02*
X162652000Y-90015142D01*
X162700380Y-90063523D01*
X162652000Y-90111904D01*
X162603619Y-90063523D01*
X162700380Y-90063523D01*
X163619619Y-90692476D02*
X163571238Y-90595714D01*
X163474476Y-90547333D01*
X162603619Y-90547333D01*
X163619619Y-91224666D02*
X163571238Y-91127904D01*
X163474476Y-91079523D01*
X162603619Y-91079523D01*
X163619619Y-91611714D02*
X162942285Y-91611714D01*
X162603619Y-91611714D02*
X162652000Y-91563333D01*
X162700380Y-91611714D01*
X162652000Y-91660095D01*
X162603619Y-91611714D01*
X162700380Y-91611714D01*
X163619619Y-92240666D02*
X163571238Y-92143904D01*
X163522857Y-92095523D01*
X163426095Y-92047142D01*
X163135809Y-92047142D01*
X163039047Y-92095523D01*
X162990666Y-92143904D01*
X162942285Y-92240666D01*
X162942285Y-92385809D01*
X162990666Y-92482571D01*
X163039047Y-92530952D01*
X163135809Y-92579333D01*
X163426095Y-92579333D01*
X163522857Y-92530952D01*
X163571238Y-92482571D01*
X163619619Y-92385809D01*
X163619619Y-92240666D01*
X162942285Y-93014761D02*
X163619619Y-93014761D01*
X163039047Y-93014761D02*
X162990666Y-93063142D01*
X162942285Y-93159904D01*
X162942285Y-93305047D01*
X162990666Y-93401809D01*
X163087428Y-93450190D01*
X163619619Y-93450190D01*
X162700380Y-94659714D02*
X162652000Y-94708095D01*
X162603619Y-94804857D01*
X162603619Y-95046761D01*
X162652000Y-95143523D01*
X162700380Y-95191904D01*
X162797142Y-95240285D01*
X162893904Y-95240285D01*
X163039047Y-95191904D01*
X163619619Y-94611333D01*
X163619619Y-95240285D01*
X162603619Y-95869238D02*
X162603619Y-95966000D01*
X162652000Y-96062761D01*
X162700380Y-96111142D01*
X162797142Y-96159523D01*
X162990666Y-96207904D01*
X163232571Y-96207904D01*
X163426095Y-96159523D01*
X163522857Y-96111142D01*
X163571238Y-96062761D01*
X163619619Y-95966000D01*
X163619619Y-95869238D01*
X163571238Y-95772476D01*
X163522857Y-95724095D01*
X163426095Y-95675714D01*
X163232571Y-95627333D01*
X162990666Y-95627333D01*
X162797142Y-95675714D01*
X162700380Y-95724095D01*
X162652000Y-95772476D01*
X162603619Y-95869238D01*
X163619619Y-97175523D02*
X163619619Y-96594952D01*
X163619619Y-96885238D02*
X162603619Y-96885238D01*
X162748761Y-96788476D01*
X162845523Y-96691714D01*
X162893904Y-96594952D01*
X163619619Y-97659333D02*
X163619619Y-97852857D01*
X163571238Y-97949619D01*
X163522857Y-97998000D01*
X163377714Y-98094761D01*
X163184190Y-98143142D01*
X162797142Y-98143142D01*
X162700380Y-98094761D01*
X162652000Y-98046380D01*
X162603619Y-97949619D01*
X162603619Y-97756095D01*
X162652000Y-97659333D01*
X162700380Y-97610952D01*
X162797142Y-97562571D01*
X163039047Y-97562571D01*
X163135809Y-97610952D01*
X163184190Y-97659333D01*
X163232571Y-97756095D01*
X163232571Y-97949619D01*
X163184190Y-98046380D01*
X163135809Y-98094761D01*
X163039047Y-98143142D01*
X113571238Y-86676857D02*
X113619619Y-86822000D01*
X113619619Y-87063904D01*
X113571238Y-87160666D01*
X113522857Y-87209047D01*
X113426095Y-87257428D01*
X113329333Y-87257428D01*
X113232571Y-87209047D01*
X113184190Y-87160666D01*
X113135809Y-87063904D01*
X113087428Y-86870380D01*
X113039047Y-86773619D01*
X112990666Y-86725238D01*
X112893904Y-86676857D01*
X112797142Y-86676857D01*
X112700380Y-86725238D01*
X112652000Y-86773619D01*
X112603619Y-86870380D01*
X112603619Y-87112285D01*
X112652000Y-87257428D01*
X113571238Y-88079904D02*
X113619619Y-87983142D01*
X113619619Y-87789619D01*
X113571238Y-87692857D01*
X113474476Y-87644476D01*
X113087428Y-87644476D01*
X112990666Y-87692857D01*
X112942285Y-87789619D01*
X112942285Y-87983142D01*
X112990666Y-88079904D01*
X113087428Y-88128285D01*
X113184190Y-88128285D01*
X113280952Y-87644476D01*
X112942285Y-88563714D02*
X113958285Y-88563714D01*
X112990666Y-88563714D02*
X112942285Y-88660476D01*
X112942285Y-88854000D01*
X112990666Y-88950761D01*
X113039047Y-88999142D01*
X113135809Y-89047523D01*
X113426095Y-89047523D01*
X113522857Y-88999142D01*
X113571238Y-88950761D01*
X113619619Y-88854000D01*
X113619619Y-88660476D01*
X113571238Y-88563714D01*
X112942285Y-89337809D02*
X112942285Y-89724857D01*
X112603619Y-89482952D02*
X113474476Y-89482952D01*
X113571238Y-89531333D01*
X113619619Y-89628095D01*
X113619619Y-89724857D01*
X113619619Y-90063523D02*
X112942285Y-90063523D01*
X112603619Y-90063523D02*
X112652000Y-90015142D01*
X112700380Y-90063523D01*
X112652000Y-90111904D01*
X112603619Y-90063523D01*
X112700380Y-90063523D01*
X113619619Y-90692476D02*
X113571238Y-90595714D01*
X113474476Y-90547333D01*
X112603619Y-90547333D01*
X113619619Y-91224666D02*
X113571238Y-91127904D01*
X113474476Y-91079523D01*
X112603619Y-91079523D01*
X113619619Y-91611714D02*
X112942285Y-91611714D01*
X112603619Y-91611714D02*
X112652000Y-91563333D01*
X112700380Y-91611714D01*
X112652000Y-91660095D01*
X112603619Y-91611714D01*
X112700380Y-91611714D01*
X113619619Y-92240666D02*
X113571238Y-92143904D01*
X113522857Y-92095523D01*
X113426095Y-92047142D01*
X113135809Y-92047142D01*
X113039047Y-92095523D01*
X112990666Y-92143904D01*
X112942285Y-92240666D01*
X112942285Y-92385809D01*
X112990666Y-92482571D01*
X113039047Y-92530952D01*
X113135809Y-92579333D01*
X113426095Y-92579333D01*
X113522857Y-92530952D01*
X113571238Y-92482571D01*
X113619619Y-92385809D01*
X113619619Y-92240666D01*
X112942285Y-93014761D02*
X113619619Y-93014761D01*
X113039047Y-93014761D02*
X112990666Y-93063142D01*
X112942285Y-93159904D01*
X112942285Y-93305047D01*
X112990666Y-93401809D01*
X113087428Y-93450190D01*
X113619619Y-93450190D01*
X112700380Y-94659714D02*
X112652000Y-94708095D01*
X112603619Y-94804857D01*
X112603619Y-95046761D01*
X112652000Y-95143523D01*
X112700380Y-95191904D01*
X112797142Y-95240285D01*
X112893904Y-95240285D01*
X113039047Y-95191904D01*
X113619619Y-94611333D01*
X113619619Y-95240285D01*
X112603619Y-95869238D02*
X112603619Y-95966000D01*
X112652000Y-96062761D01*
X112700380Y-96111142D01*
X112797142Y-96159523D01*
X112990666Y-96207904D01*
X113232571Y-96207904D01*
X113426095Y-96159523D01*
X113522857Y-96111142D01*
X113571238Y-96062761D01*
X113619619Y-95966000D01*
X113619619Y-95869238D01*
X113571238Y-95772476D01*
X113522857Y-95724095D01*
X113426095Y-95675714D01*
X113232571Y-95627333D01*
X112990666Y-95627333D01*
X112797142Y-95675714D01*
X112700380Y-95724095D01*
X112652000Y-95772476D01*
X112603619Y-95869238D01*
X113619619Y-97175523D02*
X113619619Y-96594952D01*
X113619619Y-96885238D02*
X112603619Y-96885238D01*
X112748761Y-96788476D01*
X112845523Y-96691714D01*
X112893904Y-96594952D01*
X113619619Y-97659333D02*
X113619619Y-97852857D01*
X113571238Y-97949619D01*
X113522857Y-97998000D01*
X113377714Y-98094761D01*
X113184190Y-98143142D01*
X112797142Y-98143142D01*
X112700380Y-98094761D01*
X112652000Y-98046380D01*
X112603619Y-97949619D01*
X112603619Y-97756095D01*
X112652000Y-97659333D01*
X112700380Y-97610952D01*
X112797142Y-97562571D01*
X113039047Y-97562571D01*
X113135809Y-97610952D01*
X113184190Y-97659333D01*
X113232571Y-97756095D01*
X113232571Y-97949619D01*
X113184190Y-98046380D01*
X113135809Y-98094761D01*
X113039047Y-98143142D01*
D11*
X110653261Y-83368809D02*
X110731880Y-83604666D01*
X110731880Y-83997761D01*
X110653261Y-84155000D01*
X110574642Y-84233619D01*
X110417404Y-84312238D01*
X110260166Y-84312238D01*
X110102928Y-84233619D01*
X110024309Y-84155000D01*
X109945690Y-83997761D01*
X109867071Y-83683285D01*
X109788452Y-83526047D01*
X109709833Y-83447428D01*
X109552595Y-83368809D01*
X109395357Y-83368809D01*
X109238119Y-83447428D01*
X109159500Y-83526047D01*
X109080880Y-83683285D01*
X109080880Y-84076380D01*
X109159500Y-84312238D01*
X109631214Y-84862571D02*
X110731880Y-85177047D01*
X109945690Y-85491523D01*
X110731880Y-85806000D01*
X109631214Y-86120476D01*
X110731880Y-86749428D02*
X109631214Y-86749428D01*
X109080880Y-86749428D02*
X109159500Y-86670809D01*
X109238119Y-86749428D01*
X109159500Y-86828047D01*
X109080880Y-86749428D01*
X109238119Y-86749428D01*
X109631214Y-87299761D02*
X109631214Y-87928714D01*
X109080880Y-87535619D02*
X110496023Y-87535619D01*
X110653261Y-87614238D01*
X110731880Y-87771476D01*
X110731880Y-87928714D01*
X110653261Y-89186619D02*
X110731880Y-89029380D01*
X110731880Y-88714904D01*
X110653261Y-88557666D01*
X110574642Y-88479047D01*
X110417404Y-88400428D01*
X109945690Y-88400428D01*
X109788452Y-88479047D01*
X109709833Y-88557666D01*
X109631214Y-88714904D01*
X109631214Y-89029380D01*
X109709833Y-89186619D01*
X110731880Y-89894190D02*
X109080880Y-89894190D01*
X110731880Y-90601761D02*
X109867071Y-90601761D01*
X109709833Y-90523142D01*
X109631214Y-90365904D01*
X109631214Y-90130047D01*
X109709833Y-89972809D01*
X109788452Y-89894190D01*
X110731880Y-92331380D02*
X109945690Y-91781047D01*
X110731880Y-91387952D02*
X109080880Y-91387952D01*
X109080880Y-92016904D01*
X109159500Y-92174142D01*
X109238119Y-92252761D01*
X109395357Y-92331380D01*
X109631214Y-92331380D01*
X109788452Y-92252761D01*
X109867071Y-92174142D01*
X109945690Y-92016904D01*
X109945690Y-91387952D01*
X110653261Y-93667904D02*
X110731880Y-93510666D01*
X110731880Y-93196190D01*
X110653261Y-93038952D01*
X110496023Y-92960333D01*
X109867071Y-92960333D01*
X109709833Y-93038952D01*
X109631214Y-93196190D01*
X109631214Y-93510666D01*
X109709833Y-93667904D01*
X109867071Y-93746523D01*
X110024309Y-93746523D01*
X110181547Y-92960333D01*
X110731880Y-94689952D02*
X110653261Y-94532714D01*
X110496023Y-94454095D01*
X109080880Y-94454095D01*
X110731880Y-96026476D02*
X109867071Y-96026476D01*
X109709833Y-95947857D01*
X109631214Y-95790619D01*
X109631214Y-95476142D01*
X109709833Y-95318904D01*
X110653261Y-96026476D02*
X110731880Y-95869238D01*
X110731880Y-95476142D01*
X110653261Y-95318904D01*
X110496023Y-95240285D01*
X110338785Y-95240285D01*
X110181547Y-95318904D01*
X110102928Y-95476142D01*
X110102928Y-95869238D01*
X110024309Y-96026476D01*
X109631214Y-96655428D02*
X110731880Y-97048523D01*
X109631214Y-97441619D02*
X110731880Y-97048523D01*
X111124976Y-96891285D01*
X111203595Y-96812666D01*
X111282214Y-96655428D01*
X109631214Y-99171238D02*
X110731880Y-99564333D01*
X109631214Y-99957428D01*
X109238119Y-100507761D02*
X109159500Y-100586380D01*
X109080880Y-100743619D01*
X109080880Y-101136714D01*
X109159500Y-101293952D01*
X109238119Y-101372571D01*
X109395357Y-101451190D01*
X109552595Y-101451190D01*
X109788452Y-101372571D01*
X110731880Y-100429142D01*
X110731880Y-101451190D01*
X160653261Y-50368809D02*
X160731880Y-50604666D01*
X160731880Y-50997761D01*
X160653261Y-51155000D01*
X160574642Y-51233619D01*
X160417404Y-51312238D01*
X160260166Y-51312238D01*
X160102928Y-51233619D01*
X160024309Y-51155000D01*
X159945690Y-50997761D01*
X159867071Y-50683285D01*
X159788452Y-50526047D01*
X159709833Y-50447428D01*
X159552595Y-50368809D01*
X159395357Y-50368809D01*
X159238119Y-50447428D01*
X159159500Y-50526047D01*
X159080880Y-50683285D01*
X159080880Y-51076380D01*
X159159500Y-51312238D01*
X159631214Y-51862571D02*
X160731880Y-52177047D01*
X159945690Y-52491523D01*
X160731880Y-52806000D01*
X159631214Y-53120476D01*
X160731880Y-53749428D02*
X159631214Y-53749428D01*
X159080880Y-53749428D02*
X159159500Y-53670809D01*
X159238119Y-53749428D01*
X159159500Y-53828047D01*
X159080880Y-53749428D01*
X159238119Y-53749428D01*
X159631214Y-54299761D02*
X159631214Y-54928714D01*
X159080880Y-54535619D02*
X160496023Y-54535619D01*
X160653261Y-54614238D01*
X160731880Y-54771476D01*
X160731880Y-54928714D01*
X160653261Y-56186619D02*
X160731880Y-56029380D01*
X160731880Y-55714904D01*
X160653261Y-55557666D01*
X160574642Y-55479047D01*
X160417404Y-55400428D01*
X159945690Y-55400428D01*
X159788452Y-55479047D01*
X159709833Y-55557666D01*
X159631214Y-55714904D01*
X159631214Y-56029380D01*
X159709833Y-56186619D01*
X160731880Y-56894190D02*
X159080880Y-56894190D01*
X160731880Y-57601761D02*
X159867071Y-57601761D01*
X159709833Y-57523142D01*
X159631214Y-57365904D01*
X159631214Y-57130047D01*
X159709833Y-56972809D01*
X159788452Y-56894190D01*
X160731880Y-59331380D02*
X159945690Y-58781047D01*
X160731880Y-58387952D02*
X159080880Y-58387952D01*
X159080880Y-59016904D01*
X159159500Y-59174142D01*
X159238119Y-59252761D01*
X159395357Y-59331380D01*
X159631214Y-59331380D01*
X159788452Y-59252761D01*
X159867071Y-59174142D01*
X159945690Y-59016904D01*
X159945690Y-58387952D01*
X160653261Y-60667904D02*
X160731880Y-60510666D01*
X160731880Y-60196190D01*
X160653261Y-60038952D01*
X160496023Y-59960333D01*
X159867071Y-59960333D01*
X159709833Y-60038952D01*
X159631214Y-60196190D01*
X159631214Y-60510666D01*
X159709833Y-60667904D01*
X159867071Y-60746523D01*
X160024309Y-60746523D01*
X160181547Y-59960333D01*
X160731880Y-61689952D02*
X160653261Y-61532714D01*
X160496023Y-61454095D01*
X159080880Y-61454095D01*
X160731880Y-63026476D02*
X159867071Y-63026476D01*
X159709833Y-62947857D01*
X159631214Y-62790619D01*
X159631214Y-62476142D01*
X159709833Y-62318904D01*
X160653261Y-63026476D02*
X160731880Y-62869238D01*
X160731880Y-62476142D01*
X160653261Y-62318904D01*
X160496023Y-62240285D01*
X160338785Y-62240285D01*
X160181547Y-62318904D01*
X160102928Y-62476142D01*
X160102928Y-62869238D01*
X160024309Y-63026476D01*
X159631214Y-63655428D02*
X160731880Y-64048523D01*
X159631214Y-64441619D02*
X160731880Y-64048523D01*
X161124976Y-63891285D01*
X161203595Y-63812666D01*
X161282214Y-63655428D01*
X159631214Y-66171238D02*
X160731880Y-66564333D01*
X159631214Y-66957428D01*
X159238119Y-67507761D02*
X159159500Y-67586380D01*
X159080880Y-67743619D01*
X159080880Y-68136714D01*
X159159500Y-68293952D01*
X159238119Y-68372571D01*
X159395357Y-68451190D01*
X159552595Y-68451190D01*
X159788452Y-68372571D01*
X160731880Y-67429142D01*
X160731880Y-68451190D01*
D10*
X163571238Y-53676857D02*
X163619619Y-53822000D01*
X163619619Y-54063904D01*
X163571238Y-54160666D01*
X163522857Y-54209047D01*
X163426095Y-54257428D01*
X163329333Y-54257428D01*
X163232571Y-54209047D01*
X163184190Y-54160666D01*
X163135809Y-54063904D01*
X163087428Y-53870380D01*
X163039047Y-53773619D01*
X162990666Y-53725238D01*
X162893904Y-53676857D01*
X162797142Y-53676857D01*
X162700380Y-53725238D01*
X162652000Y-53773619D01*
X162603619Y-53870380D01*
X162603619Y-54112285D01*
X162652000Y-54257428D01*
X163571238Y-55079904D02*
X163619619Y-54983142D01*
X163619619Y-54789619D01*
X163571238Y-54692857D01*
X163474476Y-54644476D01*
X163087428Y-54644476D01*
X162990666Y-54692857D01*
X162942285Y-54789619D01*
X162942285Y-54983142D01*
X162990666Y-55079904D01*
X163087428Y-55128285D01*
X163184190Y-55128285D01*
X163280952Y-54644476D01*
X162942285Y-55563714D02*
X163958285Y-55563714D01*
X162990666Y-55563714D02*
X162942285Y-55660476D01*
X162942285Y-55854000D01*
X162990666Y-55950761D01*
X163039047Y-55999142D01*
X163135809Y-56047523D01*
X163426095Y-56047523D01*
X163522857Y-55999142D01*
X163571238Y-55950761D01*
X163619619Y-55854000D01*
X163619619Y-55660476D01*
X163571238Y-55563714D01*
X162942285Y-56337809D02*
X162942285Y-56724857D01*
X162603619Y-56482952D02*
X163474476Y-56482952D01*
X163571238Y-56531333D01*
X163619619Y-56628095D01*
X163619619Y-56724857D01*
X163619619Y-57063523D02*
X162942285Y-57063523D01*
X162603619Y-57063523D02*
X162652000Y-57015142D01*
X162700380Y-57063523D01*
X162652000Y-57111904D01*
X162603619Y-57063523D01*
X162700380Y-57063523D01*
X163619619Y-57692476D02*
X163571238Y-57595714D01*
X163474476Y-57547333D01*
X162603619Y-57547333D01*
X163619619Y-58224666D02*
X163571238Y-58127904D01*
X163474476Y-58079523D01*
X162603619Y-58079523D01*
X163619619Y-58611714D02*
X162942285Y-58611714D01*
X162603619Y-58611714D02*
X162652000Y-58563333D01*
X162700380Y-58611714D01*
X162652000Y-58660095D01*
X162603619Y-58611714D01*
X162700380Y-58611714D01*
X163619619Y-59240666D02*
X163571238Y-59143904D01*
X163522857Y-59095523D01*
X163426095Y-59047142D01*
X163135809Y-59047142D01*
X163039047Y-59095523D01*
X162990666Y-59143904D01*
X162942285Y-59240666D01*
X162942285Y-59385809D01*
X162990666Y-59482571D01*
X163039047Y-59530952D01*
X163135809Y-59579333D01*
X163426095Y-59579333D01*
X163522857Y-59530952D01*
X163571238Y-59482571D01*
X163619619Y-59385809D01*
X163619619Y-59240666D01*
X162942285Y-60014761D02*
X163619619Y-60014761D01*
X163039047Y-60014761D02*
X162990666Y-60063142D01*
X162942285Y-60159904D01*
X162942285Y-60305047D01*
X162990666Y-60401809D01*
X163087428Y-60450190D01*
X163619619Y-60450190D01*
X162700380Y-61659714D02*
X162652000Y-61708095D01*
X162603619Y-61804857D01*
X162603619Y-62046761D01*
X162652000Y-62143523D01*
X162700380Y-62191904D01*
X162797142Y-62240285D01*
X162893904Y-62240285D01*
X163039047Y-62191904D01*
X163619619Y-61611333D01*
X163619619Y-62240285D01*
X162603619Y-62869238D02*
X162603619Y-62966000D01*
X162652000Y-63062761D01*
X162700380Y-63111142D01*
X162797142Y-63159523D01*
X162990666Y-63207904D01*
X163232571Y-63207904D01*
X163426095Y-63159523D01*
X163522857Y-63111142D01*
X163571238Y-63062761D01*
X163619619Y-62966000D01*
X163619619Y-62869238D01*
X163571238Y-62772476D01*
X163522857Y-62724095D01*
X163426095Y-62675714D01*
X163232571Y-62627333D01*
X162990666Y-62627333D01*
X162797142Y-62675714D01*
X162700380Y-62724095D01*
X162652000Y-62772476D01*
X162603619Y-62869238D01*
X163619619Y-64175523D02*
X163619619Y-63594952D01*
X163619619Y-63885238D02*
X162603619Y-63885238D01*
X162748761Y-63788476D01*
X162845523Y-63691714D01*
X162893904Y-63594952D01*
X163619619Y-64659333D02*
X163619619Y-64852857D01*
X163571238Y-64949619D01*
X163522857Y-64998000D01*
X163377714Y-65094761D01*
X163184190Y-65143142D01*
X162797142Y-65143142D01*
X162700380Y-65094761D01*
X162652000Y-65046380D01*
X162603619Y-64949619D01*
X162603619Y-64756095D01*
X162652000Y-64659333D01*
X162700380Y-64610952D01*
X162797142Y-64562571D01*
X163039047Y-64562571D01*
X163135809Y-64610952D01*
X163184190Y-64659333D01*
X163232571Y-64756095D01*
X163232571Y-64949619D01*
X163184190Y-65046380D01*
X163135809Y-65094761D01*
X163039047Y-65143142D01*
D11*
X110653261Y-50368809D02*
X110731880Y-50604666D01*
X110731880Y-50997761D01*
X110653261Y-51155000D01*
X110574642Y-51233619D01*
X110417404Y-51312238D01*
X110260166Y-51312238D01*
X110102928Y-51233619D01*
X110024309Y-51155000D01*
X109945690Y-50997761D01*
X109867071Y-50683285D01*
X109788452Y-50526047D01*
X109709833Y-50447428D01*
X109552595Y-50368809D01*
X109395357Y-50368809D01*
X109238119Y-50447428D01*
X109159500Y-50526047D01*
X109080880Y-50683285D01*
X109080880Y-51076380D01*
X109159500Y-51312238D01*
X109631214Y-51862571D02*
X110731880Y-52177047D01*
X109945690Y-52491523D01*
X110731880Y-52806000D01*
X109631214Y-53120476D01*
X110731880Y-53749428D02*
X109631214Y-53749428D01*
X109080880Y-53749428D02*
X109159500Y-53670809D01*
X109238119Y-53749428D01*
X109159500Y-53828047D01*
X109080880Y-53749428D01*
X109238119Y-53749428D01*
X109631214Y-54299761D02*
X109631214Y-54928714D01*
X109080880Y-54535619D02*
X110496023Y-54535619D01*
X110653261Y-54614238D01*
X110731880Y-54771476D01*
X110731880Y-54928714D01*
X110653261Y-56186619D02*
X110731880Y-56029380D01*
X110731880Y-55714904D01*
X110653261Y-55557666D01*
X110574642Y-55479047D01*
X110417404Y-55400428D01*
X109945690Y-55400428D01*
X109788452Y-55479047D01*
X109709833Y-55557666D01*
X109631214Y-55714904D01*
X109631214Y-56029380D01*
X109709833Y-56186619D01*
X110731880Y-56894190D02*
X109080880Y-56894190D01*
X110731880Y-57601761D02*
X109867071Y-57601761D01*
X109709833Y-57523142D01*
X109631214Y-57365904D01*
X109631214Y-57130047D01*
X109709833Y-56972809D01*
X109788452Y-56894190D01*
X110731880Y-59331380D02*
X109945690Y-58781047D01*
X110731880Y-58387952D02*
X109080880Y-58387952D01*
X109080880Y-59016904D01*
X109159500Y-59174142D01*
X109238119Y-59252761D01*
X109395357Y-59331380D01*
X109631214Y-59331380D01*
X109788452Y-59252761D01*
X109867071Y-59174142D01*
X109945690Y-59016904D01*
X109945690Y-58387952D01*
X110653261Y-60667904D02*
X110731880Y-60510666D01*
X110731880Y-60196190D01*
X110653261Y-60038952D01*
X110496023Y-59960333D01*
X109867071Y-59960333D01*
X109709833Y-60038952D01*
X109631214Y-60196190D01*
X109631214Y-60510666D01*
X109709833Y-60667904D01*
X109867071Y-60746523D01*
X110024309Y-60746523D01*
X110181547Y-59960333D01*
X110731880Y-61689952D02*
X110653261Y-61532714D01*
X110496023Y-61454095D01*
X109080880Y-61454095D01*
X110731880Y-63026476D02*
X109867071Y-63026476D01*
X109709833Y-62947857D01*
X109631214Y-62790619D01*
X109631214Y-62476142D01*
X109709833Y-62318904D01*
X110653261Y-63026476D02*
X110731880Y-62869238D01*
X110731880Y-62476142D01*
X110653261Y-62318904D01*
X110496023Y-62240285D01*
X110338785Y-62240285D01*
X110181547Y-62318904D01*
X110102928Y-62476142D01*
X110102928Y-62869238D01*
X110024309Y-63026476D01*
X109631214Y-63655428D02*
X110731880Y-64048523D01*
X109631214Y-64441619D02*
X110731880Y-64048523D01*
X111124976Y-63891285D01*
X111203595Y-63812666D01*
X111282214Y-63655428D01*
X109631214Y-66171238D02*
X110731880Y-66564333D01*
X109631214Y-66957428D01*
X109238119Y-67507761D02*
X109159500Y-67586380D01*
X109080880Y-67743619D01*
X109080880Y-68136714D01*
X109159500Y-68293952D01*
X109238119Y-68372571D01*
X109395357Y-68451190D01*
X109552595Y-68451190D01*
X109788452Y-68372571D01*
X110731880Y-67429142D01*
X110731880Y-68451190D01*
D10*
X113571238Y-53676857D02*
X113619619Y-53822000D01*
X113619619Y-54063904D01*
X113571238Y-54160666D01*
X113522857Y-54209047D01*
X113426095Y-54257428D01*
X113329333Y-54257428D01*
X113232571Y-54209047D01*
X113184190Y-54160666D01*
X113135809Y-54063904D01*
X113087428Y-53870380D01*
X113039047Y-53773619D01*
X112990666Y-53725238D01*
X112893904Y-53676857D01*
X112797142Y-53676857D01*
X112700380Y-53725238D01*
X112652000Y-53773619D01*
X112603619Y-53870380D01*
X112603619Y-54112285D01*
X112652000Y-54257428D01*
X113571238Y-55079904D02*
X113619619Y-54983142D01*
X113619619Y-54789619D01*
X113571238Y-54692857D01*
X113474476Y-54644476D01*
X113087428Y-54644476D01*
X112990666Y-54692857D01*
X112942285Y-54789619D01*
X112942285Y-54983142D01*
X112990666Y-55079904D01*
X113087428Y-55128285D01*
X113184190Y-55128285D01*
X113280952Y-54644476D01*
X112942285Y-55563714D02*
X113958285Y-55563714D01*
X112990666Y-55563714D02*
X112942285Y-55660476D01*
X112942285Y-55854000D01*
X112990666Y-55950761D01*
X113039047Y-55999142D01*
X113135809Y-56047523D01*
X113426095Y-56047523D01*
X113522857Y-55999142D01*
X113571238Y-55950761D01*
X113619619Y-55854000D01*
X113619619Y-55660476D01*
X113571238Y-55563714D01*
X112942285Y-56337809D02*
X112942285Y-56724857D01*
X112603619Y-56482952D02*
X113474476Y-56482952D01*
X113571238Y-56531333D01*
X113619619Y-56628095D01*
X113619619Y-56724857D01*
X113619619Y-57063523D02*
X112942285Y-57063523D01*
X112603619Y-57063523D02*
X112652000Y-57015142D01*
X112700380Y-57063523D01*
X112652000Y-57111904D01*
X112603619Y-57063523D01*
X112700380Y-57063523D01*
X113619619Y-57692476D02*
X113571238Y-57595714D01*
X113474476Y-57547333D01*
X112603619Y-57547333D01*
X113619619Y-58224666D02*
X113571238Y-58127904D01*
X113474476Y-58079523D01*
X112603619Y-58079523D01*
X113619619Y-58611714D02*
X112942285Y-58611714D01*
X112603619Y-58611714D02*
X112652000Y-58563333D01*
X112700380Y-58611714D01*
X112652000Y-58660095D01*
X112603619Y-58611714D01*
X112700380Y-58611714D01*
X113619619Y-59240666D02*
X113571238Y-59143904D01*
X113522857Y-59095523D01*
X113426095Y-59047142D01*
X113135809Y-59047142D01*
X113039047Y-59095523D01*
X112990666Y-59143904D01*
X112942285Y-59240666D01*
X112942285Y-59385809D01*
X112990666Y-59482571D01*
X113039047Y-59530952D01*
X113135809Y-59579333D01*
X113426095Y-59579333D01*
X113522857Y-59530952D01*
X113571238Y-59482571D01*
X113619619Y-59385809D01*
X113619619Y-59240666D01*
X112942285Y-60014761D02*
X113619619Y-60014761D01*
X113039047Y-60014761D02*
X112990666Y-60063142D01*
X112942285Y-60159904D01*
X112942285Y-60305047D01*
X112990666Y-60401809D01*
X113087428Y-60450190D01*
X113619619Y-60450190D01*
X112700380Y-61659714D02*
X112652000Y-61708095D01*
X112603619Y-61804857D01*
X112603619Y-62046761D01*
X112652000Y-62143523D01*
X112700380Y-62191904D01*
X112797142Y-62240285D01*
X112893904Y-62240285D01*
X113039047Y-62191904D01*
X113619619Y-61611333D01*
X113619619Y-62240285D01*
X112603619Y-62869238D02*
X112603619Y-62966000D01*
X112652000Y-63062761D01*
X112700380Y-63111142D01*
X112797142Y-63159523D01*
X112990666Y-63207904D01*
X113232571Y-63207904D01*
X113426095Y-63159523D01*
X113522857Y-63111142D01*
X113571238Y-63062761D01*
X113619619Y-62966000D01*
X113619619Y-62869238D01*
X113571238Y-62772476D01*
X113522857Y-62724095D01*
X113426095Y-62675714D01*
X113232571Y-62627333D01*
X112990666Y-62627333D01*
X112797142Y-62675714D01*
X112700380Y-62724095D01*
X112652000Y-62772476D01*
X112603619Y-62869238D01*
X113619619Y-64175523D02*
X113619619Y-63594952D01*
X113619619Y-63885238D02*
X112603619Y-63885238D01*
X112748761Y-63788476D01*
X112845523Y-63691714D01*
X112893904Y-63594952D01*
X113619619Y-64659333D02*
X113619619Y-64852857D01*
X113571238Y-64949619D01*
X113522857Y-64998000D01*
X113377714Y-65094761D01*
X113184190Y-65143142D01*
X112797142Y-65143142D01*
X112700380Y-65094761D01*
X112652000Y-65046380D01*
X112603619Y-64949619D01*
X112603619Y-64756095D01*
X112652000Y-64659333D01*
X112700380Y-64610952D01*
X112797142Y-64562571D01*
X113039047Y-64562571D01*
X113135809Y-64610952D01*
X113184190Y-64659333D01*
X113232571Y-64756095D01*
X113232571Y-64949619D01*
X113184190Y-65046380D01*
X113135809Y-65094761D01*
X113039047Y-65143142D01*
D12*
X119510000Y-114615000D03*
X124590000Y-114615000D03*
D13*
X129670000Y-114615000D03*
D12*
X144910000Y-136205000D03*
X139830000Y-136205000D03*
D13*
X134750000Y-136205000D03*
X169510000Y-136205000D03*
D12*
X174590000Y-136205000D03*
X179670000Y-136205000D03*
D13*
X184750000Y-136205000D03*
D12*
X189830000Y-136205000D03*
X194910000Y-136205000D03*
D14*
X120780000Y-125410000D03*
X120780000Y-129220000D03*
X136020000Y-129220000D03*
X141100000Y-129220000D03*
X146180000Y-129220000D03*
X146180000Y-121600000D03*
X141100000Y-121600000D03*
X136020000Y-121600000D03*
D15*
X120780000Y-121600000D03*
D16*
X115740000Y-129220000D03*
D17*
X115740000Y-121600000D03*
X165740000Y-121600000D03*
D16*
X165740000Y-129220000D03*
D15*
X170780000Y-121600000D03*
D14*
X186020000Y-121600000D03*
X191100000Y-121600000D03*
X196180000Y-121600000D03*
X196180000Y-129220000D03*
X191100000Y-129220000D03*
X186020000Y-129220000D03*
X170780000Y-129220000D03*
X170780000Y-125410000D03*
D13*
X179670000Y-114615000D03*
D12*
X174590000Y-114615000D03*
X169510000Y-114615000D03*
X129670000Y-136205000D03*
X124590000Y-136205000D03*
D13*
X119510000Y-136205000D03*
X119510000Y-103205000D03*
D12*
X124590000Y-103205000D03*
X129670000Y-103205000D03*
D16*
X165740000Y-96220000D03*
D17*
X165740000Y-88600000D03*
D12*
X169510000Y-81615000D03*
X174590000Y-81615000D03*
D13*
X179670000Y-81615000D03*
D14*
X170780000Y-92410000D03*
X170780000Y-96220000D03*
X186020000Y-96220000D03*
X191100000Y-96220000D03*
X196180000Y-96220000D03*
X196180000Y-88600000D03*
X191100000Y-88600000D03*
X186020000Y-88600000D03*
D15*
X170780000Y-88600000D03*
D12*
X179670000Y-103205000D03*
X174590000Y-103205000D03*
D13*
X169510000Y-103205000D03*
D12*
X194910000Y-103205000D03*
X189830000Y-103205000D03*
D13*
X184750000Y-103205000D03*
D15*
X120780000Y-88600000D03*
D14*
X136020000Y-88600000D03*
X141100000Y-88600000D03*
X146180000Y-88600000D03*
X146180000Y-96220000D03*
X141100000Y-96220000D03*
X136020000Y-96220000D03*
X120780000Y-96220000D03*
X120780000Y-92410000D03*
D17*
X115740000Y-88600000D03*
D16*
X115740000Y-96220000D03*
D13*
X129670000Y-81615000D03*
D12*
X124590000Y-81615000D03*
X119510000Y-81615000D03*
D13*
X134750000Y-103205000D03*
D12*
X139830000Y-103205000D03*
X144910000Y-103205000D03*
D13*
X184750000Y-70205000D03*
D12*
X189830000Y-70205000D03*
X194910000Y-70205000D03*
D17*
X165740000Y-55600000D03*
D16*
X165740000Y-63220000D03*
D15*
X170780000Y-55600000D03*
D14*
X186020000Y-55600000D03*
X191100000Y-55600000D03*
X196180000Y-55600000D03*
X196180000Y-63220000D03*
X191100000Y-63220000D03*
X186020000Y-63220000D03*
X170780000Y-63220000D03*
X170780000Y-59410000D03*
D13*
X179670000Y-48615000D03*
D12*
X174590000Y-48615000D03*
X169510000Y-48615000D03*
D13*
X169510000Y-70205000D03*
D12*
X174590000Y-70205000D03*
X179670000Y-70205000D03*
X129670000Y-70205000D03*
X124590000Y-70205000D03*
D13*
X119510000Y-70205000D03*
D14*
X120780000Y-59410000D03*
X120780000Y-63220000D03*
X136020000Y-63220000D03*
X141100000Y-63220000D03*
X146180000Y-63220000D03*
X146180000Y-55600000D03*
X141100000Y-55600000D03*
X136020000Y-55600000D03*
D15*
X120780000Y-55600000D03*
D12*
X119510000Y-48615000D03*
X124590000Y-48615000D03*
D13*
X129670000Y-48615000D03*
D16*
X115740000Y-63220000D03*
D17*
X115740000Y-55600000D03*
D12*
X144910000Y-70205000D03*
X139830000Y-70205000D03*
D13*
X134750000Y-70205000D03*
D18*
X122685000Y-63220000D02*
X129670000Y-70205000D01*
X120780000Y-63220000D02*
X122685000Y-63220000D01*
X172685000Y-63220000D02*
X179670000Y-70205000D01*
X170780000Y-63220000D02*
X172685000Y-63220000D01*
X172685000Y-96220000D02*
X179670000Y-103205000D01*
X170780000Y-96220000D02*
X172685000Y-96220000D01*
X122685000Y-96220000D02*
X129670000Y-103205000D01*
X120780000Y-96220000D02*
X122685000Y-96220000D01*
X120780000Y-129220000D02*
X122685000Y-129220000D01*
X122685000Y-129220000D02*
X129670000Y-136205000D01*
X170780000Y-129220000D02*
X172685000Y-129220000D01*
X172685000Y-129220000D02*
X179670000Y-136205000D01*
X129670000Y-51131000D02*
X129670000Y-48615000D01*
X125201000Y-55600000D02*
X129670000Y-51131000D01*
X120780000Y-55600000D02*
X125201000Y-55600000D01*
X118113000Y-58267000D02*
X120780000Y-55600000D01*
X118113000Y-66292000D02*
X118113000Y-58267000D01*
X119510000Y-70205000D02*
X119510000Y-67689000D01*
X119510000Y-67689000D02*
X118113000Y-66292000D01*
X170780000Y-55600000D02*
X175201000Y-55600000D01*
X168113000Y-58267000D02*
X170780000Y-55600000D01*
X168113000Y-66292000D02*
X168113000Y-58267000D01*
X169510000Y-67689000D02*
X168113000Y-66292000D01*
X179670000Y-51131000D02*
X179670000Y-48615000D01*
X169510000Y-70205000D02*
X169510000Y-67689000D01*
X175201000Y-55600000D02*
X179670000Y-51131000D01*
X170780000Y-88600000D02*
X175201000Y-88600000D01*
X168113000Y-91267000D02*
X170780000Y-88600000D01*
X169510000Y-100689000D02*
X168113000Y-99292000D01*
X168113000Y-99292000D02*
X168113000Y-91267000D01*
X179670000Y-84131000D02*
X179670000Y-81615000D01*
X175201000Y-88600000D02*
X179670000Y-84131000D01*
X169510000Y-103205000D02*
X169510000Y-100689000D01*
X119510000Y-103205000D02*
X119510000Y-100689000D01*
X125201000Y-88600000D02*
X129670000Y-84131000D01*
X119510000Y-100689000D02*
X118113000Y-99292000D01*
X118113000Y-91267000D02*
X120780000Y-88600000D01*
X129670000Y-84131000D02*
X129670000Y-81615000D01*
X118113000Y-99292000D02*
X118113000Y-91267000D01*
X120780000Y-88600000D02*
X125201000Y-88600000D01*
X169510000Y-136205000D02*
X169510000Y-133689000D01*
X120780000Y-121600000D02*
X125201000Y-121600000D01*
X179670000Y-117131000D02*
X179670000Y-114615000D01*
X119510000Y-133689000D02*
X118113000Y-132292000D01*
X118113000Y-124267000D02*
X120780000Y-121600000D01*
X129670000Y-117131000D02*
X129670000Y-114615000D01*
X118113000Y-132292000D02*
X118113000Y-124267000D01*
X168113000Y-132292000D02*
X168113000Y-124267000D01*
X175201000Y-121600000D02*
X179670000Y-117131000D01*
X119510000Y-136205000D02*
X119510000Y-133689000D01*
X125201000Y-121600000D02*
X129670000Y-117131000D01*
X169510000Y-133689000D02*
X168113000Y-132292000D01*
X170780000Y-121600000D02*
X175201000Y-121600000D01*
X168113000Y-124267000D02*
X170780000Y-121600000D01*
X144910000Y-64490000D02*
X146180000Y-63220000D01*
X144910000Y-70205000D02*
X144910000Y-64490000D01*
X146180000Y-63220000D02*
X146180000Y-55600000D01*
X194910000Y-70205000D02*
X194910000Y-64490000D01*
X196180000Y-63220000D02*
X196180000Y-55600000D01*
X194910000Y-64490000D02*
X196180000Y-63220000D01*
X196180000Y-96220000D02*
X196180000Y-88600000D01*
X194910000Y-103205000D02*
X194910000Y-97490000D01*
X194910000Y-97490000D02*
X196180000Y-96220000D01*
X144910000Y-97490000D02*
X146180000Y-96220000D01*
X146180000Y-96220000D02*
X146180000Y-88600000D01*
X144910000Y-103205000D02*
X144910000Y-97490000D01*
X144910000Y-136205000D02*
X144910000Y-130490000D01*
X146180000Y-129220000D02*
X146180000Y-121600000D01*
X194910000Y-130490000D02*
X196180000Y-129220000D01*
X144910000Y-130490000D02*
X146180000Y-129220000D01*
X196180000Y-129220000D02*
X196180000Y-121600000D01*
X194910000Y-136205000D02*
X194910000Y-130490000D01*
X139830000Y-64490000D02*
X141100000Y-63220000D01*
X139830000Y-70205000D02*
X139830000Y-64490000D01*
X141100000Y-63220000D02*
X141100000Y-55600000D01*
X191100000Y-63220000D02*
X191100000Y-55600000D01*
X189830000Y-70205000D02*
X189830000Y-64490000D01*
X189830000Y-64490000D02*
X191100000Y-63220000D01*
X189830000Y-97490000D02*
X191100000Y-96220000D01*
X191100000Y-96220000D02*
X191100000Y-88600000D01*
X189830000Y-103205000D02*
X189830000Y-97490000D01*
X139830000Y-103205000D02*
X139830000Y-97490000D01*
X139830000Y-97490000D02*
X141100000Y-96220000D01*
X141100000Y-96220000D02*
X141100000Y-88600000D01*
X141100000Y-129220000D02*
X141100000Y-121600000D01*
X139830000Y-136205000D02*
X139830000Y-130490000D01*
X139830000Y-130490000D02*
X141100000Y-129220000D01*
X189830000Y-136205000D02*
X189830000Y-130490000D01*
X189830000Y-130490000D02*
X191100000Y-129220000D01*
X191100000Y-129220000D02*
X191100000Y-121600000D01*
X136020000Y-55600000D02*
X136020000Y-63220000D01*
X134750000Y-64490000D02*
X136020000Y-63220000D01*
X134750000Y-70205000D02*
X134750000Y-64490000D01*
X184750000Y-64490000D02*
X186020000Y-63220000D01*
X184750000Y-70205000D02*
X184750000Y-64490000D01*
X186020000Y-55600000D02*
X186020000Y-63220000D01*
X184750000Y-97490000D02*
X186020000Y-96220000D01*
X184750000Y-103205000D02*
X184750000Y-97490000D01*
X186020000Y-88600000D02*
X186020000Y-96220000D01*
X136020000Y-88600000D02*
X136020000Y-96220000D01*
X134750000Y-97490000D02*
X136020000Y-96220000D01*
X134750000Y-103205000D02*
X134750000Y-97490000D01*
X134750000Y-136205000D02*
X134750000Y-130490000D01*
X134750000Y-130490000D02*
X136020000Y-129220000D01*
X136020000Y-121600000D02*
X136020000Y-129220000D01*
X184750000Y-136205000D02*
X184750000Y-130490000D01*
X184750000Y-130490000D02*
X186020000Y-129220000D01*
X186020000Y-121600000D02*
X186020000Y-129220000D01*
M02*
