M48
; DRILL file {KiCad (5.1.4)-1} date 9-9-2019 12:01:54
; FORMAT={-:-/ absolute / metric / decimal}
; #@! TF.CreationDate,2019-09-09T12:01:54+02:00
; #@! TF.GenerationSoftware,Kicad,Pcbnew,(5.1.4)-1
FMAT,2
METRIC
T1C0.800
T2C1.400
T3C1.520
T4C3.000
%
G90
G05
T1
X125.135Y-112.395
X125.135Y-120.015
T2
X130.175Y-112.395
X130.175Y-116.205
X130.175Y-120.015
X145.415Y-112.395
X145.415Y-120.015
X150.495Y-112.395
X150.495Y-120.015
X155.575Y-112.395
X155.575Y-120.015
T3
X128.905Y-105.41
X133.985Y-105.41
X139.065Y-105.41
X144.145Y-127.0
X149.225Y-127.0
X154.305Y-127.0
X128.905Y-127.0
X133.985Y-127.0
X139.065Y-127.0
T4
X163.105Y-103.205
X120.105Y-103.205
X163.105Y-129.205
X120.105Y-129.205
T0
M30
