G04 #@! TF.GenerationSoftware,KiCad,Pcbnew,(5.1.4)-1*
G04 #@! TF.CreationDate,2019-09-09T12:01:52+02:00*
G04 #@! TF.ProjectId,SwitchRelay,53776974-6368-4526-956c-61792e6b6963,1.0*
G04 #@! TF.SameCoordinates,Original*
G04 #@! TF.FileFunction,Soldermask,Top*
G04 #@! TF.FilePolarity,Negative*
%FSLAX46Y46*%
G04 Gerber Fmt 4.6, Leading zero omitted, Abs format (unit mm)*
G04 Created by KiCad (PCBNEW (5.1.4)-1) date 2019-09-09 12:01:52*
%MOMM*%
%LPD*%
G04 APERTURE LIST*
%ADD10C,0.100000*%
G04 APERTURE END LIST*
D10*
G36*
X163407585Y-127683802D02*
G01*
X163557410Y-127713604D01*
X163839674Y-127830521D01*
X164093705Y-128000259D01*
X164309741Y-128216295D01*
X164479479Y-128470326D01*
X164596396Y-128752590D01*
X164656000Y-129052240D01*
X164656000Y-129357760D01*
X164596396Y-129657410D01*
X164479479Y-129939674D01*
X164309741Y-130193705D01*
X164093705Y-130409741D01*
X163839674Y-130579479D01*
X163557410Y-130696396D01*
X163407585Y-130726198D01*
X163257761Y-130756000D01*
X162952239Y-130756000D01*
X162802415Y-130726198D01*
X162652590Y-130696396D01*
X162370326Y-130579479D01*
X162116295Y-130409741D01*
X161900259Y-130193705D01*
X161730521Y-129939674D01*
X161613604Y-129657410D01*
X161554000Y-129357760D01*
X161554000Y-129052240D01*
X161613604Y-128752590D01*
X161730521Y-128470326D01*
X161900259Y-128216295D01*
X162116295Y-128000259D01*
X162370326Y-127830521D01*
X162652590Y-127713604D01*
X162802415Y-127683802D01*
X162952239Y-127654000D01*
X163257761Y-127654000D01*
X163407585Y-127683802D01*
X163407585Y-127683802D01*
G37*
G36*
X120407585Y-127683802D02*
G01*
X120557410Y-127713604D01*
X120839674Y-127830521D01*
X121093705Y-128000259D01*
X121309741Y-128216295D01*
X121479479Y-128470326D01*
X121596396Y-128752590D01*
X121656000Y-129052240D01*
X121656000Y-129357760D01*
X121596396Y-129657410D01*
X121479479Y-129939674D01*
X121309741Y-130193705D01*
X121093705Y-130409741D01*
X120839674Y-130579479D01*
X120557410Y-130696396D01*
X120407585Y-130726198D01*
X120257761Y-130756000D01*
X119952239Y-130756000D01*
X119802415Y-130726198D01*
X119652590Y-130696396D01*
X119370326Y-130579479D01*
X119116295Y-130409741D01*
X118900259Y-130193705D01*
X118730521Y-129939674D01*
X118613604Y-129657410D01*
X118554000Y-129357760D01*
X118554000Y-129052240D01*
X118613604Y-128752590D01*
X118730521Y-128470326D01*
X118900259Y-128216295D01*
X119116295Y-128000259D01*
X119370326Y-127830521D01*
X119652590Y-127713604D01*
X119802415Y-127683802D01*
X119952239Y-127654000D01*
X120257761Y-127654000D01*
X120407585Y-127683802D01*
X120407585Y-127683802D01*
G37*
G36*
X130456000Y-128551000D02*
G01*
X127354000Y-128551000D01*
X127354000Y-125449000D01*
X130456000Y-125449000D01*
X130456000Y-128551000D01*
X130456000Y-128551000D01*
G37*
G36*
X154607585Y-125478802D02*
G01*
X154757410Y-125508604D01*
X155039674Y-125625521D01*
X155293705Y-125795259D01*
X155509741Y-126011295D01*
X155679479Y-126265326D01*
X155796396Y-126547590D01*
X155856000Y-126847240D01*
X155856000Y-127152760D01*
X155796396Y-127452410D01*
X155679479Y-127734674D01*
X155509741Y-127988705D01*
X155293705Y-128204741D01*
X155039674Y-128374479D01*
X154757410Y-128491396D01*
X154607585Y-128521198D01*
X154457761Y-128551000D01*
X154152239Y-128551000D01*
X154002415Y-128521198D01*
X153852590Y-128491396D01*
X153570326Y-128374479D01*
X153316295Y-128204741D01*
X153100259Y-127988705D01*
X152930521Y-127734674D01*
X152813604Y-127452410D01*
X152754000Y-127152760D01*
X152754000Y-126847240D01*
X152813604Y-126547590D01*
X152930521Y-126265326D01*
X153100259Y-126011295D01*
X153316295Y-125795259D01*
X153570326Y-125625521D01*
X153852590Y-125508604D01*
X154002415Y-125478802D01*
X154152239Y-125449000D01*
X154457761Y-125449000D01*
X154607585Y-125478802D01*
X154607585Y-125478802D01*
G37*
G36*
X145696000Y-128551000D02*
G01*
X142594000Y-128551000D01*
X142594000Y-125449000D01*
X145696000Y-125449000D01*
X145696000Y-128551000D01*
X145696000Y-128551000D01*
G37*
G36*
X149527585Y-125478802D02*
G01*
X149677410Y-125508604D01*
X149959674Y-125625521D01*
X150213705Y-125795259D01*
X150429741Y-126011295D01*
X150599479Y-126265326D01*
X150716396Y-126547590D01*
X150776000Y-126847240D01*
X150776000Y-127152760D01*
X150716396Y-127452410D01*
X150599479Y-127734674D01*
X150429741Y-127988705D01*
X150213705Y-128204741D01*
X149959674Y-128374479D01*
X149677410Y-128491396D01*
X149527585Y-128521198D01*
X149377761Y-128551000D01*
X149072239Y-128551000D01*
X148922415Y-128521198D01*
X148772590Y-128491396D01*
X148490326Y-128374479D01*
X148236295Y-128204741D01*
X148020259Y-127988705D01*
X147850521Y-127734674D01*
X147733604Y-127452410D01*
X147674000Y-127152760D01*
X147674000Y-126847240D01*
X147733604Y-126547590D01*
X147850521Y-126265326D01*
X148020259Y-126011295D01*
X148236295Y-125795259D01*
X148490326Y-125625521D01*
X148772590Y-125508604D01*
X148922415Y-125478802D01*
X149072239Y-125449000D01*
X149377761Y-125449000D01*
X149527585Y-125478802D01*
X149527585Y-125478802D01*
G37*
G36*
X134287585Y-125478802D02*
G01*
X134437410Y-125508604D01*
X134719674Y-125625521D01*
X134973705Y-125795259D01*
X135189741Y-126011295D01*
X135359479Y-126265326D01*
X135476396Y-126547590D01*
X135536000Y-126847240D01*
X135536000Y-127152760D01*
X135476396Y-127452410D01*
X135359479Y-127734674D01*
X135189741Y-127988705D01*
X134973705Y-128204741D01*
X134719674Y-128374479D01*
X134437410Y-128491396D01*
X134287585Y-128521198D01*
X134137761Y-128551000D01*
X133832239Y-128551000D01*
X133682415Y-128521198D01*
X133532590Y-128491396D01*
X133250326Y-128374479D01*
X132996295Y-128204741D01*
X132780259Y-127988705D01*
X132610521Y-127734674D01*
X132493604Y-127452410D01*
X132434000Y-127152760D01*
X132434000Y-126847240D01*
X132493604Y-126547590D01*
X132610521Y-126265326D01*
X132780259Y-126011295D01*
X132996295Y-125795259D01*
X133250326Y-125625521D01*
X133532590Y-125508604D01*
X133682415Y-125478802D01*
X133832239Y-125449000D01*
X134137761Y-125449000D01*
X134287585Y-125478802D01*
X134287585Y-125478802D01*
G37*
G36*
X139367585Y-125478802D02*
G01*
X139517410Y-125508604D01*
X139799674Y-125625521D01*
X140053705Y-125795259D01*
X140269741Y-126011295D01*
X140439479Y-126265326D01*
X140556396Y-126547590D01*
X140616000Y-126847240D01*
X140616000Y-127152760D01*
X140556396Y-127452410D01*
X140439479Y-127734674D01*
X140269741Y-127988705D01*
X140053705Y-128204741D01*
X139799674Y-128374479D01*
X139517410Y-128491396D01*
X139367585Y-128521198D01*
X139217761Y-128551000D01*
X138912239Y-128551000D01*
X138762415Y-128521198D01*
X138612590Y-128491396D01*
X138330326Y-128374479D01*
X138076295Y-128204741D01*
X137860259Y-127988705D01*
X137690521Y-127734674D01*
X137573604Y-127452410D01*
X137514000Y-127152760D01*
X137514000Y-126847240D01*
X137573604Y-126547590D01*
X137690521Y-126265326D01*
X137860259Y-126011295D01*
X138076295Y-125795259D01*
X138330326Y-125625521D01*
X138612590Y-125508604D01*
X138762415Y-125478802D01*
X138912239Y-125449000D01*
X139217761Y-125449000D01*
X139367585Y-125478802D01*
X139367585Y-125478802D01*
G37*
G36*
X150719549Y-118886116D02*
G01*
X150830734Y-118908232D01*
X151040203Y-118994997D01*
X151228720Y-119120960D01*
X151389040Y-119281280D01*
X151515003Y-119469797D01*
X151601768Y-119679266D01*
X151646000Y-119901636D01*
X151646000Y-120128364D01*
X151601768Y-120350734D01*
X151515003Y-120560203D01*
X151389040Y-120748720D01*
X151228720Y-120909040D01*
X151040203Y-121035003D01*
X150830734Y-121121768D01*
X150719549Y-121143884D01*
X150608365Y-121166000D01*
X150381635Y-121166000D01*
X150270451Y-121143884D01*
X150159266Y-121121768D01*
X149949797Y-121035003D01*
X149761280Y-120909040D01*
X149600960Y-120748720D01*
X149474997Y-120560203D01*
X149388232Y-120350734D01*
X149344000Y-120128364D01*
X149344000Y-119901636D01*
X149388232Y-119679266D01*
X149474997Y-119469797D01*
X149600960Y-119281280D01*
X149761280Y-119120960D01*
X149949797Y-118994997D01*
X150159266Y-118908232D01*
X150270451Y-118886116D01*
X150381635Y-118864000D01*
X150608365Y-118864000D01*
X150719549Y-118886116D01*
X150719549Y-118886116D01*
G37*
G36*
X155799549Y-118886116D02*
G01*
X155910734Y-118908232D01*
X156120203Y-118994997D01*
X156308720Y-119120960D01*
X156469040Y-119281280D01*
X156595003Y-119469797D01*
X156681768Y-119679266D01*
X156726000Y-119901636D01*
X156726000Y-120128364D01*
X156681768Y-120350734D01*
X156595003Y-120560203D01*
X156469040Y-120748720D01*
X156308720Y-120909040D01*
X156120203Y-121035003D01*
X155910734Y-121121768D01*
X155799549Y-121143884D01*
X155688365Y-121166000D01*
X155461635Y-121166000D01*
X155350451Y-121143884D01*
X155239266Y-121121768D01*
X155029797Y-121035003D01*
X154841280Y-120909040D01*
X154680960Y-120748720D01*
X154554997Y-120560203D01*
X154468232Y-120350734D01*
X154424000Y-120128364D01*
X154424000Y-119901636D01*
X154468232Y-119679266D01*
X154554997Y-119469797D01*
X154680960Y-119281280D01*
X154841280Y-119120960D01*
X155029797Y-118994997D01*
X155239266Y-118908232D01*
X155350451Y-118886116D01*
X155461635Y-118864000D01*
X155688365Y-118864000D01*
X155799549Y-118886116D01*
X155799549Y-118886116D01*
G37*
G36*
X145639549Y-118886116D02*
G01*
X145750734Y-118908232D01*
X145960203Y-118994997D01*
X146148720Y-119120960D01*
X146309040Y-119281280D01*
X146435003Y-119469797D01*
X146521768Y-119679266D01*
X146566000Y-119901636D01*
X146566000Y-120128364D01*
X146521768Y-120350734D01*
X146435003Y-120560203D01*
X146309040Y-120748720D01*
X146148720Y-120909040D01*
X145960203Y-121035003D01*
X145750734Y-121121768D01*
X145639549Y-121143884D01*
X145528365Y-121166000D01*
X145301635Y-121166000D01*
X145190451Y-121143884D01*
X145079266Y-121121768D01*
X144869797Y-121035003D01*
X144681280Y-120909040D01*
X144520960Y-120748720D01*
X144394997Y-120560203D01*
X144308232Y-120350734D01*
X144264000Y-120128364D01*
X144264000Y-119901636D01*
X144308232Y-119679266D01*
X144394997Y-119469797D01*
X144520960Y-119281280D01*
X144681280Y-119120960D01*
X144869797Y-118994997D01*
X145079266Y-118908232D01*
X145190451Y-118886116D01*
X145301635Y-118864000D01*
X145528365Y-118864000D01*
X145639549Y-118886116D01*
X145639549Y-118886116D01*
G37*
G36*
X130399549Y-118886116D02*
G01*
X130510734Y-118908232D01*
X130720203Y-118994997D01*
X130908720Y-119120960D01*
X131069040Y-119281280D01*
X131195003Y-119469797D01*
X131281768Y-119679266D01*
X131326000Y-119901636D01*
X131326000Y-120128364D01*
X131281768Y-120350734D01*
X131195003Y-120560203D01*
X131069040Y-120748720D01*
X130908720Y-120909040D01*
X130720203Y-121035003D01*
X130510734Y-121121768D01*
X130399549Y-121143884D01*
X130288365Y-121166000D01*
X130061635Y-121166000D01*
X129950451Y-121143884D01*
X129839266Y-121121768D01*
X129629797Y-121035003D01*
X129441280Y-120909040D01*
X129280960Y-120748720D01*
X129154997Y-120560203D01*
X129068232Y-120350734D01*
X129024000Y-120128364D01*
X129024000Y-119901636D01*
X129068232Y-119679266D01*
X129154997Y-119469797D01*
X129280960Y-119281280D01*
X129441280Y-119120960D01*
X129629797Y-118994997D01*
X129839266Y-118908232D01*
X129950451Y-118886116D01*
X130061635Y-118864000D01*
X130288365Y-118864000D01*
X130399549Y-118886116D01*
X130399549Y-118886116D01*
G37*
G36*
X125301823Y-119176313D02*
G01*
X125462242Y-119224976D01*
X125567579Y-119281280D01*
X125610078Y-119303996D01*
X125739659Y-119410341D01*
X125846004Y-119539922D01*
X125846005Y-119539924D01*
X125925024Y-119687758D01*
X125973687Y-119848177D01*
X125990117Y-120015000D01*
X125973687Y-120181823D01*
X125925024Y-120342242D01*
X125854114Y-120474906D01*
X125846004Y-120490078D01*
X125739659Y-120619659D01*
X125610078Y-120726004D01*
X125610076Y-120726005D01*
X125462242Y-120805024D01*
X125301823Y-120853687D01*
X125176804Y-120866000D01*
X125093196Y-120866000D01*
X124968177Y-120853687D01*
X124807758Y-120805024D01*
X124659924Y-120726005D01*
X124659922Y-120726004D01*
X124530341Y-120619659D01*
X124423996Y-120490078D01*
X124415886Y-120474906D01*
X124344976Y-120342242D01*
X124296313Y-120181823D01*
X124279883Y-120015000D01*
X124296313Y-119848177D01*
X124344976Y-119687758D01*
X124423995Y-119539924D01*
X124423996Y-119539922D01*
X124530341Y-119410341D01*
X124659922Y-119303996D01*
X124702421Y-119281280D01*
X124807758Y-119224976D01*
X124968177Y-119176313D01*
X125093196Y-119164000D01*
X125176804Y-119164000D01*
X125301823Y-119176313D01*
X125301823Y-119176313D01*
G37*
G36*
X125719468Y-116608565D02*
G01*
X125758138Y-116620296D01*
X125793777Y-116639346D01*
X125825017Y-116664983D01*
X125850654Y-116696223D01*
X125869704Y-116731862D01*
X125881435Y-116770532D01*
X125886000Y-116816888D01*
X125886000Y-117468112D01*
X125881435Y-117514468D01*
X125869704Y-117553138D01*
X125850654Y-117588777D01*
X125825017Y-117620017D01*
X125793777Y-117645654D01*
X125758138Y-117664704D01*
X125719468Y-117676435D01*
X125673112Y-117681000D01*
X124596888Y-117681000D01*
X124550532Y-117676435D01*
X124511862Y-117664704D01*
X124476223Y-117645654D01*
X124444983Y-117620017D01*
X124419346Y-117588777D01*
X124400296Y-117553138D01*
X124388565Y-117514468D01*
X124384000Y-117468112D01*
X124384000Y-116816888D01*
X124388565Y-116770532D01*
X124400296Y-116731862D01*
X124419346Y-116696223D01*
X124444983Y-116664983D01*
X124476223Y-116639346D01*
X124511862Y-116620296D01*
X124550532Y-116608565D01*
X124596888Y-116604000D01*
X125673112Y-116604000D01*
X125719468Y-116608565D01*
X125719468Y-116608565D01*
G37*
G36*
X120912199Y-115004954D02*
G01*
X120924450Y-115005556D01*
X120942869Y-115005556D01*
X120965149Y-115007750D01*
X121049233Y-115024476D01*
X121070660Y-115030976D01*
X121149858Y-115063780D01*
X121155303Y-115066691D01*
X121155309Y-115066693D01*
X121164169Y-115071429D01*
X121164173Y-115071432D01*
X121169614Y-115074340D01*
X121240899Y-115121971D01*
X121258204Y-115136172D01*
X121318828Y-115196796D01*
X121333029Y-115214101D01*
X121380660Y-115285386D01*
X121383568Y-115290827D01*
X121383571Y-115290831D01*
X121388307Y-115299691D01*
X121388309Y-115299697D01*
X121391220Y-115305142D01*
X121424024Y-115384340D01*
X121430524Y-115405767D01*
X121447250Y-115489851D01*
X121449444Y-115512131D01*
X121449444Y-115530550D01*
X121450046Y-115542801D01*
X121451852Y-115561139D01*
X121451852Y-116048860D01*
X121450263Y-116064999D01*
X121447348Y-116074608D01*
X121442610Y-116083472D01*
X121436237Y-116091237D01*
X121423794Y-116101448D01*
X121413425Y-116108378D01*
X121396098Y-116125705D01*
X121382485Y-116146080D01*
X121373109Y-116168720D01*
X121368329Y-116192753D01*
X121368330Y-116217257D01*
X121373112Y-116241290D01*
X121382490Y-116263929D01*
X121396105Y-116284302D01*
X121413432Y-116301629D01*
X121423802Y-116308558D01*
X121436237Y-116318763D01*
X121442610Y-116326528D01*
X121447348Y-116335392D01*
X121450263Y-116345001D01*
X121451852Y-116361140D01*
X121451852Y-116848862D01*
X121450046Y-116867199D01*
X121449444Y-116879450D01*
X121449444Y-116897869D01*
X121447250Y-116920149D01*
X121430524Y-117004233D01*
X121424024Y-117025660D01*
X121391220Y-117104858D01*
X121388309Y-117110303D01*
X121388307Y-117110309D01*
X121383571Y-117119169D01*
X121383568Y-117119173D01*
X121380660Y-117124614D01*
X121333029Y-117195899D01*
X121318828Y-117213204D01*
X121258204Y-117273828D01*
X121240899Y-117288029D01*
X121169614Y-117335660D01*
X121164173Y-117338568D01*
X121164169Y-117338571D01*
X121155309Y-117343307D01*
X121155303Y-117343309D01*
X121149858Y-117346220D01*
X121070660Y-117379024D01*
X121049233Y-117385524D01*
X120965149Y-117402250D01*
X120942869Y-117404444D01*
X120924450Y-117404444D01*
X120912199Y-117405046D01*
X120893862Y-117406852D01*
X120406138Y-117406852D01*
X120387801Y-117405046D01*
X120375550Y-117404444D01*
X120357131Y-117404444D01*
X120334851Y-117402250D01*
X120250767Y-117385524D01*
X120229340Y-117379024D01*
X120150142Y-117346220D01*
X120144697Y-117343309D01*
X120144691Y-117343307D01*
X120135831Y-117338571D01*
X120135827Y-117338568D01*
X120130386Y-117335660D01*
X120059101Y-117288029D01*
X120041796Y-117273828D01*
X119981172Y-117213204D01*
X119966971Y-117195899D01*
X119919340Y-117124614D01*
X119916432Y-117119173D01*
X119916429Y-117119169D01*
X119911693Y-117110309D01*
X119911691Y-117110303D01*
X119908780Y-117104858D01*
X119875976Y-117025660D01*
X119869476Y-117004233D01*
X119852750Y-116920149D01*
X119850556Y-116897869D01*
X119850556Y-116879450D01*
X119849954Y-116867199D01*
X119848148Y-116848862D01*
X119848148Y-116361140D01*
X119849737Y-116345001D01*
X119852652Y-116335392D01*
X119857390Y-116326528D01*
X119863763Y-116318763D01*
X119876206Y-116308552D01*
X119886575Y-116301622D01*
X119903902Y-116284295D01*
X119917515Y-116263920D01*
X119926891Y-116241280D01*
X119931671Y-116217247D01*
X119931670Y-116192743D01*
X119926888Y-116168710D01*
X119917510Y-116146071D01*
X119903895Y-116125698D01*
X119886568Y-116108371D01*
X119876198Y-116101442D01*
X119863763Y-116091237D01*
X119857390Y-116083472D01*
X119852652Y-116074608D01*
X119849737Y-116064999D01*
X119848148Y-116048860D01*
X119848148Y-115561139D01*
X119849954Y-115542801D01*
X119850556Y-115530550D01*
X119850556Y-115512131D01*
X119852750Y-115489851D01*
X119869476Y-115405767D01*
X119875976Y-115384340D01*
X119908780Y-115305142D01*
X119911691Y-115299697D01*
X119911693Y-115299691D01*
X119916429Y-115290831D01*
X119916432Y-115290827D01*
X119919340Y-115285386D01*
X119966971Y-115214101D01*
X119981172Y-115196796D01*
X120041796Y-115136172D01*
X120059101Y-115121971D01*
X120130386Y-115074340D01*
X120135827Y-115071432D01*
X120135831Y-115071429D01*
X120144691Y-115066693D01*
X120144697Y-115066691D01*
X120150142Y-115063780D01*
X120229340Y-115030976D01*
X120250767Y-115024476D01*
X120334851Y-115007750D01*
X120357131Y-115005556D01*
X120375550Y-115005556D01*
X120387801Y-115004954D01*
X120406139Y-115003148D01*
X120893861Y-115003148D01*
X120912199Y-115004954D01*
X120912199Y-115004954D01*
G37*
G36*
X130375986Y-115071429D02*
G01*
X130510734Y-115098232D01*
X130720203Y-115184997D01*
X130908720Y-115310960D01*
X131069040Y-115471280D01*
X131195003Y-115659797D01*
X131240922Y-115770654D01*
X131281768Y-115869267D01*
X131326000Y-116091635D01*
X131326000Y-116318365D01*
X131318713Y-116355000D01*
X131281768Y-116540734D01*
X131195003Y-116750203D01*
X131069040Y-116938720D01*
X130908720Y-117099040D01*
X130720203Y-117225003D01*
X130510734Y-117311768D01*
X130399549Y-117333884D01*
X130288365Y-117356000D01*
X130061635Y-117356000D01*
X129950451Y-117333884D01*
X129839266Y-117311768D01*
X129629797Y-117225003D01*
X129441280Y-117099040D01*
X129280960Y-116938720D01*
X129154997Y-116750203D01*
X129068232Y-116540734D01*
X129031287Y-116355000D01*
X129024000Y-116318365D01*
X129024000Y-116091635D01*
X129068232Y-115869267D01*
X129109079Y-115770654D01*
X129154997Y-115659797D01*
X129280960Y-115471280D01*
X129441280Y-115310960D01*
X129629797Y-115184997D01*
X129839266Y-115098232D01*
X129974014Y-115071429D01*
X130061635Y-115054000D01*
X130288365Y-115054000D01*
X130375986Y-115071429D01*
X130375986Y-115071429D01*
G37*
G36*
X125719468Y-114733565D02*
G01*
X125758138Y-114745296D01*
X125793777Y-114764346D01*
X125825017Y-114789983D01*
X125850654Y-114821223D01*
X125869704Y-114856862D01*
X125881435Y-114895532D01*
X125886000Y-114941888D01*
X125886000Y-115593112D01*
X125881435Y-115639468D01*
X125869704Y-115678138D01*
X125850654Y-115713777D01*
X125825017Y-115745017D01*
X125793777Y-115770654D01*
X125758138Y-115789704D01*
X125719468Y-115801435D01*
X125673112Y-115806000D01*
X124596888Y-115806000D01*
X124550532Y-115801435D01*
X124511862Y-115789704D01*
X124476223Y-115770654D01*
X124444983Y-115745017D01*
X124419346Y-115713777D01*
X124400296Y-115678138D01*
X124388565Y-115639468D01*
X124384000Y-115593112D01*
X124384000Y-114941888D01*
X124388565Y-114895532D01*
X124400296Y-114856862D01*
X124419346Y-114821223D01*
X124444983Y-114789983D01*
X124476223Y-114764346D01*
X124511862Y-114745296D01*
X124550532Y-114733565D01*
X124596888Y-114729000D01*
X125673112Y-114729000D01*
X125719468Y-114733565D01*
X125719468Y-114733565D01*
G37*
G36*
X155799549Y-111266116D02*
G01*
X155910734Y-111288232D01*
X156120203Y-111374997D01*
X156308720Y-111500960D01*
X156469040Y-111661280D01*
X156595003Y-111849797D01*
X156595004Y-111849799D01*
X156681768Y-112059267D01*
X156726000Y-112281635D01*
X156726000Y-112508365D01*
X156681768Y-112730733D01*
X156596131Y-112937481D01*
X156595003Y-112940203D01*
X156469040Y-113128720D01*
X156308720Y-113289040D01*
X156120203Y-113415003D01*
X155910734Y-113501768D01*
X155799549Y-113523884D01*
X155688365Y-113546000D01*
X155461635Y-113546000D01*
X155350451Y-113523884D01*
X155239266Y-113501768D01*
X155029797Y-113415003D01*
X154841280Y-113289040D01*
X154680960Y-113128720D01*
X154554997Y-112940203D01*
X154553870Y-112937481D01*
X154468232Y-112730733D01*
X154424000Y-112508365D01*
X154424000Y-112281635D01*
X154468232Y-112059267D01*
X154554996Y-111849799D01*
X154554997Y-111849797D01*
X154680960Y-111661280D01*
X154841280Y-111500960D01*
X155029797Y-111374997D01*
X155239266Y-111288232D01*
X155350451Y-111266116D01*
X155461635Y-111244000D01*
X155688365Y-111244000D01*
X155799549Y-111266116D01*
X155799549Y-111266116D01*
G37*
G36*
X131326000Y-113546000D02*
G01*
X129024000Y-113546000D01*
X129024000Y-111244000D01*
X131326000Y-111244000D01*
X131326000Y-113546000D01*
X131326000Y-113546000D01*
G37*
G36*
X145639549Y-111266116D02*
G01*
X145750734Y-111288232D01*
X145960203Y-111374997D01*
X146148720Y-111500960D01*
X146309040Y-111661280D01*
X146435003Y-111849797D01*
X146435004Y-111849799D01*
X146521768Y-112059267D01*
X146566000Y-112281635D01*
X146566000Y-112508365D01*
X146521768Y-112730733D01*
X146436131Y-112937481D01*
X146435003Y-112940203D01*
X146309040Y-113128720D01*
X146148720Y-113289040D01*
X145960203Y-113415003D01*
X145750734Y-113501768D01*
X145639549Y-113523884D01*
X145528365Y-113546000D01*
X145301635Y-113546000D01*
X145190451Y-113523884D01*
X145079266Y-113501768D01*
X144869797Y-113415003D01*
X144681280Y-113289040D01*
X144520960Y-113128720D01*
X144394997Y-112940203D01*
X144393870Y-112937481D01*
X144308232Y-112730733D01*
X144264000Y-112508365D01*
X144264000Y-112281635D01*
X144308232Y-112059267D01*
X144394996Y-111849799D01*
X144394997Y-111849797D01*
X144520960Y-111661280D01*
X144681280Y-111500960D01*
X144869797Y-111374997D01*
X145079266Y-111288232D01*
X145190451Y-111266116D01*
X145301635Y-111244000D01*
X145528365Y-111244000D01*
X145639549Y-111266116D01*
X145639549Y-111266116D01*
G37*
G36*
X150719549Y-111266116D02*
G01*
X150830734Y-111288232D01*
X151040203Y-111374997D01*
X151228720Y-111500960D01*
X151389040Y-111661280D01*
X151515003Y-111849797D01*
X151515004Y-111849799D01*
X151601768Y-112059267D01*
X151646000Y-112281635D01*
X151646000Y-112508365D01*
X151601768Y-112730733D01*
X151516131Y-112937481D01*
X151515003Y-112940203D01*
X151389040Y-113128720D01*
X151228720Y-113289040D01*
X151040203Y-113415003D01*
X150830734Y-113501768D01*
X150719549Y-113523884D01*
X150608365Y-113546000D01*
X150381635Y-113546000D01*
X150270451Y-113523884D01*
X150159266Y-113501768D01*
X149949797Y-113415003D01*
X149761280Y-113289040D01*
X149600960Y-113128720D01*
X149474997Y-112940203D01*
X149473870Y-112937481D01*
X149388232Y-112730733D01*
X149344000Y-112508365D01*
X149344000Y-112281635D01*
X149388232Y-112059267D01*
X149474996Y-111849799D01*
X149474997Y-111849797D01*
X149600960Y-111661280D01*
X149761280Y-111500960D01*
X149949797Y-111374997D01*
X150159266Y-111288232D01*
X150270451Y-111266116D01*
X150381635Y-111244000D01*
X150608365Y-111244000D01*
X150719549Y-111266116D01*
X150719549Y-111266116D01*
G37*
G36*
X125383228Y-111576703D02*
G01*
X125538100Y-111640853D01*
X125677481Y-111733985D01*
X125796015Y-111852519D01*
X125889147Y-111991900D01*
X125953297Y-112146772D01*
X125986000Y-112311184D01*
X125986000Y-112478816D01*
X125953297Y-112643228D01*
X125889147Y-112798100D01*
X125796015Y-112937481D01*
X125677481Y-113056015D01*
X125538100Y-113149147D01*
X125383228Y-113213297D01*
X125218816Y-113246000D01*
X125051184Y-113246000D01*
X124886772Y-113213297D01*
X124731900Y-113149147D01*
X124592519Y-113056015D01*
X124473985Y-112937481D01*
X124380853Y-112798100D01*
X124316703Y-112643228D01*
X124284000Y-112478816D01*
X124284000Y-112311184D01*
X124316703Y-112146772D01*
X124380853Y-111991900D01*
X124473985Y-111852519D01*
X124592519Y-111733985D01*
X124731900Y-111640853D01*
X124886772Y-111576703D01*
X125051184Y-111544000D01*
X125218816Y-111544000D01*
X125383228Y-111576703D01*
X125383228Y-111576703D01*
G37*
G36*
X129207585Y-103888802D02*
G01*
X129357410Y-103918604D01*
X129639674Y-104035521D01*
X129893705Y-104205259D01*
X130109741Y-104421295D01*
X130279479Y-104675326D01*
X130396396Y-104957590D01*
X130456000Y-105257240D01*
X130456000Y-105562760D01*
X130396396Y-105862410D01*
X130279479Y-106144674D01*
X130109741Y-106398705D01*
X129893705Y-106614741D01*
X129639674Y-106784479D01*
X129357410Y-106901396D01*
X129207585Y-106931198D01*
X129057761Y-106961000D01*
X128752239Y-106961000D01*
X128602415Y-106931198D01*
X128452590Y-106901396D01*
X128170326Y-106784479D01*
X127916295Y-106614741D01*
X127700259Y-106398705D01*
X127530521Y-106144674D01*
X127413604Y-105862410D01*
X127354000Y-105562760D01*
X127354000Y-105257240D01*
X127413604Y-104957590D01*
X127530521Y-104675326D01*
X127700259Y-104421295D01*
X127916295Y-104205259D01*
X128170326Y-104035521D01*
X128452590Y-103918604D01*
X128602415Y-103888802D01*
X128752239Y-103859000D01*
X129057761Y-103859000D01*
X129207585Y-103888802D01*
X129207585Y-103888802D01*
G37*
G36*
X140616000Y-106961000D02*
G01*
X137514000Y-106961000D01*
X137514000Y-103859000D01*
X140616000Y-103859000D01*
X140616000Y-106961000D01*
X140616000Y-106961000D01*
G37*
G36*
X134287585Y-103888802D02*
G01*
X134437410Y-103918604D01*
X134719674Y-104035521D01*
X134973705Y-104205259D01*
X135189741Y-104421295D01*
X135359479Y-104675326D01*
X135476396Y-104957590D01*
X135536000Y-105257240D01*
X135536000Y-105562760D01*
X135476396Y-105862410D01*
X135359479Y-106144674D01*
X135189741Y-106398705D01*
X134973705Y-106614741D01*
X134719674Y-106784479D01*
X134437410Y-106901396D01*
X134287585Y-106931198D01*
X134137761Y-106961000D01*
X133832239Y-106961000D01*
X133682415Y-106931198D01*
X133532590Y-106901396D01*
X133250326Y-106784479D01*
X132996295Y-106614741D01*
X132780259Y-106398705D01*
X132610521Y-106144674D01*
X132493604Y-105862410D01*
X132434000Y-105562760D01*
X132434000Y-105257240D01*
X132493604Y-104957590D01*
X132610521Y-104675326D01*
X132780259Y-104421295D01*
X132996295Y-104205259D01*
X133250326Y-104035521D01*
X133532590Y-103918604D01*
X133682415Y-103888802D01*
X133832239Y-103859000D01*
X134137761Y-103859000D01*
X134287585Y-103888802D01*
X134287585Y-103888802D01*
G37*
G36*
X120407585Y-101683802D02*
G01*
X120557410Y-101713604D01*
X120839674Y-101830521D01*
X121093705Y-102000259D01*
X121309741Y-102216295D01*
X121479479Y-102470326D01*
X121596396Y-102752590D01*
X121656000Y-103052240D01*
X121656000Y-103357760D01*
X121596396Y-103657410D01*
X121479479Y-103939674D01*
X121309741Y-104193705D01*
X121093705Y-104409741D01*
X120839674Y-104579479D01*
X120557410Y-104696396D01*
X120407585Y-104726198D01*
X120257761Y-104756000D01*
X119952239Y-104756000D01*
X119802415Y-104726198D01*
X119652590Y-104696396D01*
X119370326Y-104579479D01*
X119116295Y-104409741D01*
X118900259Y-104193705D01*
X118730521Y-103939674D01*
X118613604Y-103657410D01*
X118554000Y-103357760D01*
X118554000Y-103052240D01*
X118613604Y-102752590D01*
X118730521Y-102470326D01*
X118900259Y-102216295D01*
X119116295Y-102000259D01*
X119370326Y-101830521D01*
X119652590Y-101713604D01*
X119802415Y-101683802D01*
X119952239Y-101654000D01*
X120257761Y-101654000D01*
X120407585Y-101683802D01*
X120407585Y-101683802D01*
G37*
G36*
X163407585Y-101683802D02*
G01*
X163557410Y-101713604D01*
X163839674Y-101830521D01*
X164093705Y-102000259D01*
X164309741Y-102216295D01*
X164479479Y-102470326D01*
X164596396Y-102752590D01*
X164656000Y-103052240D01*
X164656000Y-103357760D01*
X164596396Y-103657410D01*
X164479479Y-103939674D01*
X164309741Y-104193705D01*
X164093705Y-104409741D01*
X163839674Y-104579479D01*
X163557410Y-104696396D01*
X163407585Y-104726198D01*
X163257761Y-104756000D01*
X162952239Y-104756000D01*
X162802415Y-104726198D01*
X162652590Y-104696396D01*
X162370326Y-104579479D01*
X162116295Y-104409741D01*
X161900259Y-104193705D01*
X161730521Y-103939674D01*
X161613604Y-103657410D01*
X161554000Y-103357760D01*
X161554000Y-103052240D01*
X161613604Y-102752590D01*
X161730521Y-102470326D01*
X161900259Y-102216295D01*
X162116295Y-102000259D01*
X162370326Y-101830521D01*
X162652590Y-101713604D01*
X162802415Y-101683802D01*
X162952239Y-101654000D01*
X163257761Y-101654000D01*
X163407585Y-101683802D01*
X163407585Y-101683802D01*
G37*
M02*
