G04 #@! TF.GenerationSoftware,KiCad,Pcbnew,(5.1.4)-1*
G04 #@! TF.CreationDate,2019-08-31T15:58:00+02:00*
G04 #@! TF.ProjectId,SwitchRelay,53776974-6368-4526-956c-61792e6b6963,1.0*
G04 #@! TF.SameCoordinates,Original*
G04 #@! TF.FileFunction,Legend,Bot*
G04 #@! TF.FilePolarity,Positive*
%FSLAX46Y46*%
G04 Gerber Fmt 4.6, Leading zero omitted, Abs format (unit mm)*
G04 Created by KiCad (PCBNEW (5.1.4)-1) date 2019-08-31 15:58:00*
%MOMM*%
%LPD*%
G04 APERTURE LIST*
%ADD10C,0.254000*%
%ADD11C,0.150000*%
%ADD12C,0.381000*%
%ADD13C,0.152400*%
G04 APERTURE END LIST*
D10*
X141605000Y-132715000D02*
X141605000Y-123825000D01*
X141605000Y-108585000D02*
X141605000Y-99695000D01*
D11*
X138993571Y-130103571D02*
X138850714Y-130151190D01*
X138803095Y-130198809D01*
X138755476Y-130294047D01*
X138755476Y-130436904D01*
X138803095Y-130532142D01*
X138850714Y-130579761D01*
X138945952Y-130627380D01*
X139326904Y-130627380D01*
X139326904Y-129627380D01*
X138993571Y-129627380D01*
X138898333Y-129675000D01*
X138850714Y-129722619D01*
X138803095Y-129817857D01*
X138803095Y-129913095D01*
X138850714Y-130008333D01*
X138898333Y-130055952D01*
X138993571Y-130103571D01*
X139326904Y-130103571D01*
X154233571Y-130103571D02*
X154090714Y-130151190D01*
X154043095Y-130198809D01*
X153995476Y-130294047D01*
X153995476Y-130436904D01*
X154043095Y-130532142D01*
X154090714Y-130579761D01*
X154185952Y-130627380D01*
X154566904Y-130627380D01*
X154566904Y-129627380D01*
X154233571Y-129627380D01*
X154138333Y-129675000D01*
X154090714Y-129722619D01*
X154043095Y-129817857D01*
X154043095Y-129913095D01*
X154090714Y-130008333D01*
X154138333Y-130055952D01*
X154233571Y-130103571D01*
X154566904Y-130103571D01*
X128976428Y-102306428D02*
X129119285Y-102258809D01*
X129166904Y-102211190D01*
X129214523Y-102115952D01*
X129214523Y-101973095D01*
X129166904Y-101877857D01*
X129119285Y-101830238D01*
X129024047Y-101782619D01*
X128643095Y-101782619D01*
X128643095Y-102782619D01*
X128976428Y-102782619D01*
X129071666Y-102735000D01*
X129119285Y-102687380D01*
X129166904Y-102592142D01*
X129166904Y-102496904D01*
X129119285Y-102401666D01*
X129071666Y-102354047D01*
X128976428Y-102306428D01*
X128643095Y-102306428D01*
X144216428Y-102306428D02*
X144359285Y-102258809D01*
X144406904Y-102211190D01*
X144454523Y-102115952D01*
X144454523Y-101973095D01*
X144406904Y-101877857D01*
X144359285Y-101830238D01*
X144264047Y-101782619D01*
X143883095Y-101782619D01*
X143883095Y-102782619D01*
X144216428Y-102782619D01*
X144311666Y-102735000D01*
X144359285Y-102687380D01*
X144406904Y-102592142D01*
X144406904Y-102496904D01*
X144359285Y-102401666D01*
X144311666Y-102354047D01*
X144216428Y-102306428D01*
X143883095Y-102306428D01*
X154066904Y-102068333D02*
X154543095Y-102068333D01*
X153971666Y-101782619D02*
X154305000Y-102782619D01*
X154638333Y-101782619D01*
X138826904Y-102068333D02*
X139303095Y-102068333D01*
X138731666Y-101782619D02*
X139065000Y-102782619D01*
X139398333Y-101782619D01*
X129143095Y-130341666D02*
X128666904Y-130341666D01*
X129238333Y-130627380D02*
X128905000Y-129627380D01*
X128571666Y-130627380D01*
X144383095Y-130341666D02*
X143906904Y-130341666D01*
X144478333Y-130627380D02*
X144145000Y-129627380D01*
X143811666Y-130627380D01*
X164917380Y-111728809D02*
X163917380Y-111728809D01*
X164631666Y-112062142D01*
X163917380Y-112395476D01*
X164917380Y-112395476D01*
X164917380Y-113300238D02*
X164393571Y-113300238D01*
X164298333Y-113252619D01*
X164250714Y-113157380D01*
X164250714Y-112966904D01*
X164298333Y-112871666D01*
X164869761Y-113300238D02*
X164917380Y-113205000D01*
X164917380Y-112966904D01*
X164869761Y-112871666D01*
X164774523Y-112824047D01*
X164679285Y-112824047D01*
X164584047Y-112871666D01*
X164536428Y-112966904D01*
X164536428Y-113205000D01*
X164488809Y-113300238D01*
X164917380Y-113681190D02*
X164250714Y-114205000D01*
X164250714Y-113681190D02*
X164917380Y-114205000D01*
X164822142Y-114585952D02*
X164869761Y-114633571D01*
X164917380Y-114585952D01*
X164869761Y-114538333D01*
X164822142Y-114585952D01*
X164917380Y-114585952D01*
X163917380Y-115728809D02*
X163917380Y-116347857D01*
X164298333Y-116014523D01*
X164298333Y-116157380D01*
X164345952Y-116252619D01*
X164393571Y-116300238D01*
X164488809Y-116347857D01*
X164726904Y-116347857D01*
X164822142Y-116300238D01*
X164869761Y-116252619D01*
X164917380Y-116157380D01*
X164917380Y-115871666D01*
X164869761Y-115776428D01*
X164822142Y-115728809D01*
X163917380Y-116966904D02*
X163917380Y-117062142D01*
X163965000Y-117157380D01*
X164012619Y-117205000D01*
X164107857Y-117252619D01*
X164298333Y-117300238D01*
X164536428Y-117300238D01*
X164726904Y-117252619D01*
X164822142Y-117205000D01*
X164869761Y-117157380D01*
X164917380Y-117062142D01*
X164917380Y-116966904D01*
X164869761Y-116871666D01*
X164822142Y-116824047D01*
X164726904Y-116776428D01*
X164536428Y-116728809D01*
X164298333Y-116728809D01*
X164107857Y-116776428D01*
X164012619Y-116824047D01*
X163965000Y-116871666D01*
X163917380Y-116966904D01*
X163917380Y-117585952D02*
X164917380Y-117919285D01*
X163917380Y-118252619D01*
X163917380Y-119252619D02*
X163917380Y-119871666D01*
X164298333Y-119538333D01*
X164298333Y-119681190D01*
X164345952Y-119776428D01*
X164393571Y-119824047D01*
X164488809Y-119871666D01*
X164726904Y-119871666D01*
X164822142Y-119824047D01*
X164869761Y-119776428D01*
X164917380Y-119681190D01*
X164917380Y-119395476D01*
X164869761Y-119300238D01*
X164822142Y-119252619D01*
X164631666Y-120252619D02*
X164631666Y-120728809D01*
X164917380Y-120157380D02*
X163917380Y-120490714D01*
X164917380Y-120824047D01*
X154692142Y-116657380D02*
X154692142Y-115657380D01*
X154358809Y-116371666D01*
X154025476Y-115657380D01*
X154025476Y-116657380D01*
X153549285Y-116657380D02*
X153549285Y-115990714D01*
X153549285Y-115657380D02*
X153596904Y-115705000D01*
X153549285Y-115752619D01*
X153501666Y-115705000D01*
X153549285Y-115657380D01*
X153549285Y-115752619D01*
X152644523Y-116657380D02*
X152644523Y-115657380D01*
X152644523Y-116609761D02*
X152739761Y-116657380D01*
X152930238Y-116657380D01*
X153025476Y-116609761D01*
X153073095Y-116562142D01*
X153120714Y-116466904D01*
X153120714Y-116181190D01*
X153073095Y-116085952D01*
X153025476Y-116038333D01*
X152930238Y-115990714D01*
X152739761Y-115990714D01*
X152644523Y-116038333D01*
X151739761Y-116657380D02*
X151739761Y-115657380D01*
X151739761Y-116609761D02*
X151835000Y-116657380D01*
X152025476Y-116657380D01*
X152120714Y-116609761D01*
X152168333Y-116562142D01*
X152215952Y-116466904D01*
X152215952Y-116181190D01*
X152168333Y-116085952D01*
X152120714Y-116038333D01*
X152025476Y-115990714D01*
X151835000Y-115990714D01*
X151739761Y-116038333D01*
X151120714Y-116657380D02*
X151215952Y-116609761D01*
X151263571Y-116514523D01*
X151263571Y-115657380D01*
X150358809Y-116609761D02*
X150454047Y-116657380D01*
X150644523Y-116657380D01*
X150739761Y-116609761D01*
X150787380Y-116514523D01*
X150787380Y-116133571D01*
X150739761Y-116038333D01*
X150644523Y-115990714D01*
X150454047Y-115990714D01*
X150358809Y-116038333D01*
X150311190Y-116133571D01*
X150311190Y-116228809D01*
X150787380Y-116324047D01*
X148835000Y-117038333D02*
X148882619Y-116990714D01*
X148977857Y-116847857D01*
X149025476Y-116752619D01*
X149073095Y-116609761D01*
X149120714Y-116371666D01*
X149120714Y-116181190D01*
X149073095Y-115943095D01*
X149025476Y-115800238D01*
X148977857Y-115705000D01*
X148882619Y-115562142D01*
X148835000Y-115514523D01*
X147882619Y-116562142D02*
X147930238Y-116609761D01*
X148073095Y-116657380D01*
X148168333Y-116657380D01*
X148311190Y-116609761D01*
X148406428Y-116514523D01*
X148454047Y-116419285D01*
X148501666Y-116228809D01*
X148501666Y-116085952D01*
X148454047Y-115895476D01*
X148406428Y-115800238D01*
X148311190Y-115705000D01*
X148168333Y-115657380D01*
X148073095Y-115657380D01*
X147930238Y-115705000D01*
X147882619Y-115752619D01*
X147549285Y-117038333D02*
X147501666Y-116990714D01*
X147406428Y-116847857D01*
X147358809Y-116752619D01*
X147311190Y-116609761D01*
X147263571Y-116371666D01*
X147263571Y-116181190D01*
X147311190Y-115943095D01*
X147358809Y-115800238D01*
X147406428Y-115705000D01*
X147501666Y-115562142D01*
X147549285Y-115514523D01*
X146168333Y-115990714D02*
X145787380Y-115990714D01*
X146025476Y-115657380D02*
X146025476Y-116514523D01*
X145977857Y-116609761D01*
X145882619Y-116657380D01*
X145787380Y-116657380D01*
X145073095Y-116609761D02*
X145168333Y-116657380D01*
X145358809Y-116657380D01*
X145454047Y-116609761D01*
X145501666Y-116514523D01*
X145501666Y-116133571D01*
X145454047Y-116038333D01*
X145358809Y-115990714D01*
X145168333Y-115990714D01*
X145073095Y-116038333D01*
X145025476Y-116133571D01*
X145025476Y-116228809D01*
X145501666Y-116324047D01*
X144596904Y-116657380D02*
X144596904Y-115990714D01*
X144596904Y-116181190D02*
X144549285Y-116085952D01*
X144501666Y-116038333D01*
X144406428Y-115990714D01*
X144311190Y-115990714D01*
X143977857Y-116657380D02*
X143977857Y-115990714D01*
X143977857Y-116085952D02*
X143930238Y-116038333D01*
X143835000Y-115990714D01*
X143692142Y-115990714D01*
X143596904Y-116038333D01*
X143549285Y-116133571D01*
X143549285Y-116657380D01*
X143549285Y-116133571D02*
X143501666Y-116038333D01*
X143406428Y-115990714D01*
X143263571Y-115990714D01*
X143168333Y-116038333D01*
X143120714Y-116133571D01*
X143120714Y-116657380D01*
X142644523Y-116657380D02*
X142644523Y-115990714D01*
X142644523Y-115657380D02*
X142692142Y-115705000D01*
X142644523Y-115752619D01*
X142596904Y-115705000D01*
X142644523Y-115657380D01*
X142644523Y-115752619D01*
X142168333Y-115990714D02*
X142168333Y-116657380D01*
X142168333Y-116085952D02*
X142120714Y-116038333D01*
X142025476Y-115990714D01*
X141882619Y-115990714D01*
X141787380Y-116038333D01*
X141739761Y-116133571D01*
X141739761Y-116657380D01*
X140835000Y-116657380D02*
X140835000Y-116133571D01*
X140882619Y-116038333D01*
X140977857Y-115990714D01*
X141168333Y-115990714D01*
X141263571Y-116038333D01*
X140835000Y-116609761D02*
X140930238Y-116657380D01*
X141168333Y-116657380D01*
X141263571Y-116609761D01*
X141311190Y-116514523D01*
X141311190Y-116419285D01*
X141263571Y-116324047D01*
X141168333Y-116276428D01*
X140930238Y-116276428D01*
X140835000Y-116228809D01*
X140215952Y-116657380D02*
X140311190Y-116609761D01*
X140358809Y-116514523D01*
X140358809Y-115657380D01*
X139073095Y-116657380D02*
X139073095Y-115990714D01*
X139073095Y-115657380D02*
X139120714Y-115705000D01*
X139073095Y-115752619D01*
X139025476Y-115705000D01*
X139073095Y-115657380D01*
X139073095Y-115752619D01*
X138644523Y-116609761D02*
X138549285Y-116657380D01*
X138358809Y-116657380D01*
X138263571Y-116609761D01*
X138215952Y-116514523D01*
X138215952Y-116466904D01*
X138263571Y-116371666D01*
X138358809Y-116324047D01*
X138501666Y-116324047D01*
X138596904Y-116276428D01*
X138644523Y-116181190D01*
X138644523Y-116133571D01*
X138596904Y-116038333D01*
X138501666Y-115990714D01*
X138358809Y-115990714D01*
X138263571Y-116038333D01*
X136596904Y-116609761D02*
X136692142Y-116657380D01*
X136882619Y-116657380D01*
X136977857Y-116609761D01*
X137025476Y-116562142D01*
X137073095Y-116466904D01*
X137073095Y-116181190D01*
X137025476Y-116085952D01*
X136977857Y-116038333D01*
X136882619Y-115990714D01*
X136692142Y-115990714D01*
X136596904Y-116038333D01*
X136025476Y-116657380D02*
X136120714Y-116609761D01*
X136168333Y-116562142D01*
X136215952Y-116466904D01*
X136215952Y-116181190D01*
X136168333Y-116085952D01*
X136120714Y-116038333D01*
X136025476Y-115990714D01*
X135882619Y-115990714D01*
X135787380Y-116038333D01*
X135739761Y-116085952D01*
X135692142Y-116181190D01*
X135692142Y-116466904D01*
X135739761Y-116562142D01*
X135787380Y-116609761D01*
X135882619Y-116657380D01*
X136025476Y-116657380D01*
X135263571Y-116657380D02*
X135263571Y-115990714D01*
X135263571Y-116085952D02*
X135215952Y-116038333D01*
X135120714Y-115990714D01*
X134977857Y-115990714D01*
X134882619Y-116038333D01*
X134835000Y-116133571D01*
X134835000Y-116657380D01*
X134835000Y-116133571D02*
X134787380Y-116038333D01*
X134692142Y-115990714D01*
X134549285Y-115990714D01*
X134454047Y-116038333D01*
X134406428Y-116133571D01*
X134406428Y-116657380D01*
X133930238Y-116657380D02*
X133930238Y-115990714D01*
X133930238Y-116085952D02*
X133882619Y-116038333D01*
X133787380Y-115990714D01*
X133644523Y-115990714D01*
X133549285Y-116038333D01*
X133501666Y-116133571D01*
X133501666Y-116657380D01*
X133501666Y-116133571D02*
X133454047Y-116038333D01*
X133358809Y-115990714D01*
X133215952Y-115990714D01*
X133120714Y-116038333D01*
X133073095Y-116133571D01*
X133073095Y-116657380D01*
X132454047Y-116657380D02*
X132549285Y-116609761D01*
X132596904Y-116562142D01*
X132644523Y-116466904D01*
X132644523Y-116181190D01*
X132596904Y-116085952D01*
X132549285Y-116038333D01*
X132454047Y-115990714D01*
X132311190Y-115990714D01*
X132215952Y-116038333D01*
X132168333Y-116085952D01*
X132120714Y-116181190D01*
X132120714Y-116466904D01*
X132168333Y-116562142D01*
X132215952Y-116609761D01*
X132311190Y-116657380D01*
X132454047Y-116657380D01*
X131692142Y-115990714D02*
X131692142Y-116657380D01*
X131692142Y-116085952D02*
X131644523Y-116038333D01*
X131549285Y-115990714D01*
X131406428Y-115990714D01*
X131311190Y-116038333D01*
X131263571Y-116133571D01*
X131263571Y-116657380D01*
X129882619Y-116657380D02*
X129977857Y-116609761D01*
X130025476Y-116562142D01*
X130073095Y-116466904D01*
X130073095Y-116181190D01*
X130025476Y-116085952D01*
X129977857Y-116038333D01*
X129882619Y-115990714D01*
X129739761Y-115990714D01*
X129644523Y-116038333D01*
X129596904Y-116085952D01*
X129549285Y-116181190D01*
X129549285Y-116466904D01*
X129596904Y-116562142D01*
X129644523Y-116609761D01*
X129739761Y-116657380D01*
X129882619Y-116657380D01*
X129120714Y-115990714D02*
X129120714Y-116657380D01*
X129120714Y-116085952D02*
X129073095Y-116038333D01*
X128977857Y-115990714D01*
X128835000Y-115990714D01*
X128739761Y-116038333D01*
X128692142Y-116133571D01*
X128692142Y-116657380D01*
X127025476Y-116657380D02*
X127025476Y-116133571D01*
X127073095Y-116038333D01*
X127168333Y-115990714D01*
X127358809Y-115990714D01*
X127454047Y-116038333D01*
X127025476Y-116609761D02*
X127120714Y-116657380D01*
X127358809Y-116657380D01*
X127454047Y-116609761D01*
X127501666Y-116514523D01*
X127501666Y-116419285D01*
X127454047Y-116324047D01*
X127358809Y-116276428D01*
X127120714Y-116276428D01*
X127025476Y-116228809D01*
X126406428Y-116657380D02*
X126501666Y-116609761D01*
X126549285Y-116514523D01*
X126549285Y-115657380D01*
X125882619Y-116657380D02*
X125977857Y-116609761D01*
X126025476Y-116514523D01*
X126025476Y-115657380D01*
D12*
X133513285Y-130719285D02*
X133585857Y-130791857D01*
X133803571Y-130864428D01*
X133948714Y-130864428D01*
X134166428Y-130791857D01*
X134311571Y-130646714D01*
X134384142Y-130501571D01*
X134456714Y-130211285D01*
X134456714Y-129993571D01*
X134384142Y-129703285D01*
X134311571Y-129558142D01*
X134166428Y-129413000D01*
X133948714Y-129340428D01*
X133803571Y-129340428D01*
X133585857Y-129413000D01*
X133513285Y-129485571D01*
X148753285Y-130719285D02*
X148825857Y-130791857D01*
X149043571Y-130864428D01*
X149188714Y-130864428D01*
X149406428Y-130791857D01*
X149551571Y-130646714D01*
X149624142Y-130501571D01*
X149696714Y-130211285D01*
X149696714Y-129993571D01*
X149624142Y-129703285D01*
X149551571Y-129558142D01*
X149406428Y-129413000D01*
X149188714Y-129340428D01*
X149043571Y-129340428D01*
X148825857Y-129413000D01*
X148753285Y-129485571D01*
X134456714Y-101690714D02*
X134384142Y-101618142D01*
X134166428Y-101545571D01*
X134021285Y-101545571D01*
X133803571Y-101618142D01*
X133658428Y-101763285D01*
X133585857Y-101908428D01*
X133513285Y-102198714D01*
X133513285Y-102416428D01*
X133585857Y-102706714D01*
X133658428Y-102851857D01*
X133803571Y-102997000D01*
X134021285Y-103069571D01*
X134166428Y-103069571D01*
X134384142Y-102997000D01*
X134456714Y-102924428D01*
X149696714Y-101690714D02*
X149624142Y-101618142D01*
X149406428Y-101545571D01*
X149261285Y-101545571D01*
X149043571Y-101618142D01*
X148898428Y-101763285D01*
X148825857Y-101908428D01*
X148753285Y-102198714D01*
X148753285Y-102416428D01*
X148825857Y-102706714D01*
X148898428Y-102851857D01*
X149043571Y-102997000D01*
X149261285Y-103069571D01*
X149406428Y-103069571D01*
X149624142Y-102997000D01*
X149696714Y-102924428D01*
D13*
X157550019Y-103045380D02*
X156534019Y-103045380D01*
X156534019Y-103432428D01*
X156582400Y-103529190D01*
X156630780Y-103577571D01*
X156727542Y-103625952D01*
X156872685Y-103625952D01*
X156969447Y-103577571D01*
X157017828Y-103529190D01*
X157066209Y-103432428D01*
X157066209Y-103045380D01*
X157550019Y-104061380D02*
X156872685Y-104061380D01*
X156534019Y-104061380D02*
X156582400Y-104013000D01*
X156630780Y-104061380D01*
X156582400Y-104109761D01*
X156534019Y-104061380D01*
X156630780Y-104061380D01*
X157501638Y-104980619D02*
X157550019Y-104883857D01*
X157550019Y-104690333D01*
X157501638Y-104593571D01*
X157453257Y-104545190D01*
X157356495Y-104496809D01*
X157066209Y-104496809D01*
X156969447Y-104545190D01*
X156921066Y-104593571D01*
X156872685Y-104690333D01*
X156872685Y-104883857D01*
X156921066Y-104980619D01*
X157550019Y-105416047D02*
X156534019Y-105416047D01*
X157162971Y-105512809D02*
X157550019Y-105803095D01*
X156872685Y-105803095D02*
X157259733Y-105416047D01*
X157550019Y-107012619D02*
X156872685Y-107012619D01*
X157066209Y-107012619D02*
X156969447Y-107061000D01*
X156921066Y-107109380D01*
X156872685Y-107206142D01*
X156872685Y-107302904D01*
X157501638Y-108028619D02*
X157550019Y-107931857D01*
X157550019Y-107738333D01*
X157501638Y-107641571D01*
X157404876Y-107593190D01*
X157017828Y-107593190D01*
X156921066Y-107641571D01*
X156872685Y-107738333D01*
X156872685Y-107931857D01*
X156921066Y-108028619D01*
X157017828Y-108077000D01*
X157114590Y-108077000D01*
X157211352Y-107593190D01*
X157550019Y-108657571D02*
X157501638Y-108560809D01*
X157404876Y-108512428D01*
X156534019Y-108512428D01*
X157550019Y-109480047D02*
X157017828Y-109480047D01*
X156921066Y-109431666D01*
X156872685Y-109334904D01*
X156872685Y-109141380D01*
X156921066Y-109044619D01*
X157501638Y-109480047D02*
X157550019Y-109383285D01*
X157550019Y-109141380D01*
X157501638Y-109044619D01*
X157404876Y-108996238D01*
X157308114Y-108996238D01*
X157211352Y-109044619D01*
X157162971Y-109141380D01*
X157162971Y-109383285D01*
X157114590Y-109480047D01*
X156872685Y-109867095D02*
X157550019Y-110109000D01*
X156872685Y-110350904D02*
X157550019Y-110109000D01*
X157791923Y-110012238D01*
X157840304Y-109963857D01*
X157888685Y-109867095D01*
X156872685Y-111415285D02*
X157550019Y-111657190D01*
X156872685Y-111899095D01*
X157550019Y-112431285D02*
X157501638Y-112334523D01*
X157453257Y-112286142D01*
X157356495Y-112237761D01*
X157066209Y-112237761D01*
X156969447Y-112286142D01*
X156921066Y-112334523D01*
X156872685Y-112431285D01*
X156872685Y-112576428D01*
X156921066Y-112673190D01*
X156969447Y-112721571D01*
X157066209Y-112769952D01*
X157356495Y-112769952D01*
X157453257Y-112721571D01*
X157501638Y-112673190D01*
X157550019Y-112576428D01*
X157550019Y-112431285D01*
X157550019Y-113350523D02*
X157501638Y-113253761D01*
X157404876Y-113205380D01*
X156534019Y-113205380D01*
X156872685Y-113592428D02*
X156872685Y-113979476D01*
X156534019Y-113737571D02*
X157404876Y-113737571D01*
X157501638Y-113785952D01*
X157550019Y-113882714D01*
X157550019Y-113979476D01*
X157550019Y-114753571D02*
X157017828Y-114753571D01*
X156921066Y-114705190D01*
X156872685Y-114608428D01*
X156872685Y-114414904D01*
X156921066Y-114318142D01*
X157501638Y-114753571D02*
X157550019Y-114656809D01*
X157550019Y-114414904D01*
X157501638Y-114318142D01*
X157404876Y-114269761D01*
X157308114Y-114269761D01*
X157211352Y-114318142D01*
X157162971Y-114414904D01*
X157162971Y-114656809D01*
X157114590Y-114753571D01*
X156872685Y-115672809D02*
X157695161Y-115672809D01*
X157791923Y-115624428D01*
X157840304Y-115576047D01*
X157888685Y-115479285D01*
X157888685Y-115334142D01*
X157840304Y-115237380D01*
X157501638Y-115672809D02*
X157550019Y-115576047D01*
X157550019Y-115382523D01*
X157501638Y-115285761D01*
X157453257Y-115237380D01*
X157356495Y-115189000D01*
X157066209Y-115189000D01*
X156969447Y-115237380D01*
X156921066Y-115285761D01*
X156872685Y-115382523D01*
X156872685Y-115576047D01*
X156921066Y-115672809D01*
X157501638Y-116543666D02*
X157550019Y-116446904D01*
X157550019Y-116253380D01*
X157501638Y-116156619D01*
X157404876Y-116108238D01*
X157017828Y-116108238D01*
X156921066Y-116156619D01*
X156872685Y-116253380D01*
X156872685Y-116446904D01*
X156921066Y-116543666D01*
X157017828Y-116592047D01*
X157114590Y-116592047D01*
X157211352Y-116108238D01*
X156872685Y-117656428D02*
X156872685Y-118043476D01*
X157550019Y-117801571D02*
X156679161Y-117801571D01*
X156582400Y-117849952D01*
X156534019Y-117946714D01*
X156534019Y-118043476D01*
X157550019Y-118527285D02*
X157501638Y-118430523D01*
X157453257Y-118382142D01*
X157356495Y-118333761D01*
X157066209Y-118333761D01*
X156969447Y-118382142D01*
X156921066Y-118430523D01*
X156872685Y-118527285D01*
X156872685Y-118672428D01*
X156921066Y-118769190D01*
X156969447Y-118817571D01*
X157066209Y-118865952D01*
X157356495Y-118865952D01*
X157453257Y-118817571D01*
X157501638Y-118769190D01*
X157550019Y-118672428D01*
X157550019Y-118527285D01*
X157550019Y-119301380D02*
X156872685Y-119301380D01*
X157066209Y-119301380D02*
X156969447Y-119349761D01*
X156921066Y-119398142D01*
X156872685Y-119494904D01*
X156872685Y-119591666D01*
X156872685Y-120607666D02*
X157550019Y-120849571D01*
X156872685Y-121091476D02*
X157550019Y-120849571D01*
X157791923Y-120752809D01*
X157840304Y-120704428D01*
X157888685Y-120607666D01*
X157550019Y-121623666D02*
X157501638Y-121526904D01*
X157453257Y-121478523D01*
X157356495Y-121430142D01*
X157066209Y-121430142D01*
X156969447Y-121478523D01*
X156921066Y-121526904D01*
X156872685Y-121623666D01*
X156872685Y-121768809D01*
X156921066Y-121865571D01*
X156969447Y-121913952D01*
X157066209Y-121962333D01*
X157356495Y-121962333D01*
X157453257Y-121913952D01*
X157501638Y-121865571D01*
X157550019Y-121768809D01*
X157550019Y-121623666D01*
X156872685Y-122833190D02*
X157550019Y-122833190D01*
X156872685Y-122397761D02*
X157404876Y-122397761D01*
X157501638Y-122446142D01*
X157550019Y-122542904D01*
X157550019Y-122688047D01*
X157501638Y-122784809D01*
X157453257Y-122833190D01*
X157550019Y-123317000D02*
X156872685Y-123317000D01*
X157066209Y-123317000D02*
X156969447Y-123365380D01*
X156921066Y-123413761D01*
X156872685Y-123510523D01*
X156872685Y-123607285D01*
X157550019Y-124865190D02*
X157501638Y-124768428D01*
X157404876Y-124720047D01*
X156534019Y-124720047D01*
X157550019Y-125687666D02*
X157017828Y-125687666D01*
X156921066Y-125639285D01*
X156872685Y-125542523D01*
X156872685Y-125349000D01*
X156921066Y-125252238D01*
X157501638Y-125687666D02*
X157550019Y-125590904D01*
X157550019Y-125349000D01*
X157501638Y-125252238D01*
X157404876Y-125203857D01*
X157308114Y-125203857D01*
X157211352Y-125252238D01*
X157162971Y-125349000D01*
X157162971Y-125590904D01*
X157114590Y-125687666D01*
X156872685Y-126074714D02*
X157550019Y-126316619D01*
X156872685Y-126558523D02*
X157550019Y-126316619D01*
X157791923Y-126219857D01*
X157840304Y-126171476D01*
X157888685Y-126074714D01*
X157550019Y-127090714D02*
X157501638Y-126993952D01*
X157453257Y-126945571D01*
X157356495Y-126897190D01*
X157066209Y-126897190D01*
X156969447Y-126945571D01*
X156921066Y-126993952D01*
X156872685Y-127090714D01*
X156872685Y-127235857D01*
X156921066Y-127332619D01*
X156969447Y-127381000D01*
X157066209Y-127429380D01*
X157356495Y-127429380D01*
X157453257Y-127381000D01*
X157501638Y-127332619D01*
X157550019Y-127235857D01*
X157550019Y-127090714D01*
X156872685Y-128300238D02*
X157550019Y-128300238D01*
X156872685Y-127864809D02*
X157404876Y-127864809D01*
X157501638Y-127913190D01*
X157550019Y-128009952D01*
X157550019Y-128155095D01*
X157501638Y-128251857D01*
X157453257Y-128300238D01*
X156872685Y-128638904D02*
X156872685Y-129025952D01*
X156534019Y-128784047D02*
X157404876Y-128784047D01*
X157501638Y-128832428D01*
X157550019Y-128929190D01*
X157550019Y-129025952D01*
X157453257Y-129364619D02*
X157501638Y-129413000D01*
X157550019Y-129364619D01*
X157501638Y-129316238D01*
X157453257Y-129364619D01*
X157550019Y-129364619D01*
X159226419Y-109068809D02*
X158742609Y-108730142D01*
X159226419Y-108488238D02*
X158210419Y-108488238D01*
X158210419Y-108875285D01*
X158258800Y-108972047D01*
X158307180Y-109020428D01*
X158403942Y-109068809D01*
X158549085Y-109068809D01*
X158645847Y-109020428D01*
X158694228Y-108972047D01*
X158742609Y-108875285D01*
X158742609Y-108488238D01*
X159178038Y-110713761D02*
X159226419Y-110617000D01*
X159226419Y-110423476D01*
X159178038Y-110326714D01*
X159129657Y-110278333D01*
X159032895Y-110229952D01*
X158742609Y-110229952D01*
X158645847Y-110278333D01*
X158597466Y-110326714D01*
X158549085Y-110423476D01*
X158549085Y-110617000D01*
X158597466Y-110713761D01*
X159226419Y-111584619D02*
X158694228Y-111584619D01*
X158597466Y-111536238D01*
X158549085Y-111439476D01*
X158549085Y-111245952D01*
X158597466Y-111149190D01*
X159178038Y-111584619D02*
X159226419Y-111487857D01*
X159226419Y-111245952D01*
X159178038Y-111149190D01*
X159081276Y-111100809D01*
X158984514Y-111100809D01*
X158887752Y-111149190D01*
X158839371Y-111245952D01*
X158839371Y-111487857D01*
X158790990Y-111584619D01*
X158549085Y-112068428D02*
X159226419Y-112068428D01*
X158645847Y-112068428D02*
X158597466Y-112116809D01*
X158549085Y-112213571D01*
X158549085Y-112358714D01*
X158597466Y-112455476D01*
X158694228Y-112503857D01*
X159226419Y-112503857D01*
X159226419Y-113761761D02*
X158210419Y-113761761D01*
X158597466Y-113761761D02*
X158549085Y-113858523D01*
X158549085Y-114052047D01*
X158597466Y-114148809D01*
X158645847Y-114197190D01*
X158742609Y-114245571D01*
X159032895Y-114245571D01*
X159129657Y-114197190D01*
X159178038Y-114148809D01*
X159226419Y-114052047D01*
X159226419Y-113858523D01*
X159178038Y-113761761D01*
X159178038Y-115068047D02*
X159226419Y-114971285D01*
X159226419Y-114777761D01*
X159178038Y-114681000D01*
X159081276Y-114632619D01*
X158694228Y-114632619D01*
X158597466Y-114681000D01*
X158549085Y-114777761D01*
X158549085Y-114971285D01*
X158597466Y-115068047D01*
X158694228Y-115116428D01*
X158790990Y-115116428D01*
X158887752Y-114632619D01*
X158549085Y-116325952D02*
X159565085Y-116325952D01*
X158597466Y-116325952D02*
X158549085Y-116422714D01*
X158549085Y-116616238D01*
X158597466Y-116713000D01*
X158645847Y-116761380D01*
X158742609Y-116809761D01*
X159032895Y-116809761D01*
X159129657Y-116761380D01*
X159178038Y-116713000D01*
X159226419Y-116616238D01*
X159226419Y-116422714D01*
X159178038Y-116325952D01*
X159226419Y-117390333D02*
X159178038Y-117293571D01*
X159081276Y-117245190D01*
X158210419Y-117245190D01*
X159226419Y-118212809D02*
X158694228Y-118212809D01*
X158597466Y-118164428D01*
X158549085Y-118067666D01*
X158549085Y-117874142D01*
X158597466Y-117777380D01*
X159178038Y-118212809D02*
X159226419Y-118116047D01*
X159226419Y-117874142D01*
X159178038Y-117777380D01*
X159081276Y-117729000D01*
X158984514Y-117729000D01*
X158887752Y-117777380D01*
X158839371Y-117874142D01*
X158839371Y-118116047D01*
X158790990Y-118212809D01*
X159178038Y-119132047D02*
X159226419Y-119035285D01*
X159226419Y-118841761D01*
X159178038Y-118745000D01*
X159129657Y-118696619D01*
X159032895Y-118648238D01*
X158742609Y-118648238D01*
X158645847Y-118696619D01*
X158597466Y-118745000D01*
X158549085Y-118841761D01*
X158549085Y-119035285D01*
X158597466Y-119132047D01*
X159178038Y-119954523D02*
X159226419Y-119857761D01*
X159226419Y-119664238D01*
X159178038Y-119567476D01*
X159081276Y-119519095D01*
X158694228Y-119519095D01*
X158597466Y-119567476D01*
X158549085Y-119664238D01*
X158549085Y-119857761D01*
X158597466Y-119954523D01*
X158694228Y-120002904D01*
X158790990Y-120002904D01*
X158887752Y-119519095D01*
X159226419Y-120873761D02*
X158210419Y-120873761D01*
X159178038Y-120873761D02*
X159226419Y-120777000D01*
X159226419Y-120583476D01*
X159178038Y-120486714D01*
X159129657Y-120438333D01*
X159032895Y-120389952D01*
X158742609Y-120389952D01*
X158645847Y-120438333D01*
X158597466Y-120486714D01*
X158549085Y-120583476D01*
X158549085Y-120777000D01*
X158597466Y-120873761D01*
X158549085Y-121986523D02*
X158549085Y-122373571D01*
X158210419Y-122131666D02*
X159081276Y-122131666D01*
X159178038Y-122180047D01*
X159226419Y-122276809D01*
X159226419Y-122373571D01*
X159226419Y-122857380D02*
X159178038Y-122760619D01*
X159129657Y-122712238D01*
X159032895Y-122663857D01*
X158742609Y-122663857D01*
X158645847Y-122712238D01*
X158597466Y-122760619D01*
X158549085Y-122857380D01*
X158549085Y-123002523D01*
X158597466Y-123099285D01*
X158645847Y-123147666D01*
X158742609Y-123196047D01*
X159032895Y-123196047D01*
X159129657Y-123147666D01*
X159178038Y-123099285D01*
X159226419Y-123002523D01*
X159226419Y-122857380D01*
X160225485Y-108585000D02*
X160225485Y-108972047D01*
X160902819Y-108730142D02*
X160031961Y-108730142D01*
X159935200Y-108778523D01*
X159886819Y-108875285D01*
X159886819Y-108972047D01*
X160902819Y-109310714D02*
X160225485Y-109310714D01*
X159886819Y-109310714D02*
X159935200Y-109262333D01*
X159983580Y-109310714D01*
X159935200Y-109359095D01*
X159886819Y-109310714D01*
X159983580Y-109310714D01*
X160225485Y-109794523D02*
X160902819Y-109794523D01*
X160322247Y-109794523D02*
X160273866Y-109842904D01*
X160225485Y-109939666D01*
X160225485Y-110084809D01*
X160273866Y-110181571D01*
X160370628Y-110229952D01*
X160902819Y-110229952D01*
X160854438Y-111100809D02*
X160902819Y-111004047D01*
X160902819Y-110810523D01*
X160854438Y-110713761D01*
X160757676Y-110665380D01*
X160370628Y-110665380D01*
X160273866Y-110713761D01*
X160225485Y-110810523D01*
X160225485Y-111004047D01*
X160273866Y-111100809D01*
X160370628Y-111149190D01*
X160467390Y-111149190D01*
X160564152Y-110665380D01*
X160225485Y-111439476D02*
X160225485Y-111826523D01*
X159886819Y-111584619D02*
X160757676Y-111584619D01*
X160854438Y-111633000D01*
X160902819Y-111729761D01*
X160902819Y-111826523D01*
X160225485Y-112600619D02*
X160902819Y-112600619D01*
X160225485Y-112165190D02*
X160757676Y-112165190D01*
X160854438Y-112213571D01*
X160902819Y-112310333D01*
X160902819Y-112455476D01*
X160854438Y-112552238D01*
X160806057Y-112600619D01*
X160225485Y-113084428D02*
X160902819Y-113084428D01*
X160322247Y-113084428D02*
X160273866Y-113132809D01*
X160225485Y-113229571D01*
X160225485Y-113374714D01*
X160273866Y-113471476D01*
X160370628Y-113519857D01*
X160902819Y-113519857D01*
X160854438Y-114390714D02*
X160902819Y-114293952D01*
X160902819Y-114100428D01*
X160854438Y-114003666D01*
X160757676Y-113955285D01*
X160370628Y-113955285D01*
X160273866Y-114003666D01*
X160225485Y-114100428D01*
X160225485Y-114293952D01*
X160273866Y-114390714D01*
X160370628Y-114439095D01*
X160467390Y-114439095D01*
X160564152Y-113955285D01*
X159838438Y-115600238D02*
X161144723Y-114729380D01*
X160902819Y-115938904D02*
X160225485Y-115938904D01*
X160419009Y-115938904D02*
X160322247Y-115987285D01*
X160273866Y-116035666D01*
X160225485Y-116132428D01*
X160225485Y-116229190D01*
X160854438Y-116954904D02*
X160902819Y-116858142D01*
X160902819Y-116664619D01*
X160854438Y-116567857D01*
X160757676Y-116519476D01*
X160370628Y-116519476D01*
X160273866Y-116567857D01*
X160225485Y-116664619D01*
X160225485Y-116858142D01*
X160273866Y-116954904D01*
X160370628Y-117003285D01*
X160467390Y-117003285D01*
X160564152Y-116519476D01*
X160902819Y-117874142D02*
X159886819Y-117874142D01*
X160854438Y-117874142D02*
X160902819Y-117777380D01*
X160902819Y-117583857D01*
X160854438Y-117487095D01*
X160806057Y-117438714D01*
X160709295Y-117390333D01*
X160419009Y-117390333D01*
X160322247Y-117438714D01*
X160273866Y-117487095D01*
X160225485Y-117583857D01*
X160225485Y-117777380D01*
X160273866Y-117874142D01*
X160225485Y-118793380D02*
X160902819Y-118793380D01*
X160225485Y-118357952D02*
X160757676Y-118357952D01*
X160854438Y-118406333D01*
X160902819Y-118503095D01*
X160902819Y-118648238D01*
X160854438Y-118745000D01*
X160806057Y-118793380D01*
X160854438Y-119712619D02*
X160902819Y-119615857D01*
X160902819Y-119422333D01*
X160854438Y-119325571D01*
X160806057Y-119277190D01*
X160709295Y-119228809D01*
X160419009Y-119228809D01*
X160322247Y-119277190D01*
X160273866Y-119325571D01*
X160225485Y-119422333D01*
X160225485Y-119615857D01*
X160273866Y-119712619D01*
X160854438Y-120535095D02*
X160902819Y-120438333D01*
X160902819Y-120244809D01*
X160854438Y-120148047D01*
X160757676Y-120099666D01*
X160370628Y-120099666D01*
X160273866Y-120148047D01*
X160225485Y-120244809D01*
X160225485Y-120438333D01*
X160273866Y-120535095D01*
X160370628Y-120583476D01*
X160467390Y-120583476D01*
X160564152Y-120099666D01*
X160225485Y-121647857D02*
X160225485Y-122034904D01*
X159886819Y-121793000D02*
X160757676Y-121793000D01*
X160854438Y-121841380D01*
X160902819Y-121938142D01*
X160902819Y-122034904D01*
X160902819Y-122373571D02*
X159886819Y-122373571D01*
X160902819Y-122809000D02*
X160370628Y-122809000D01*
X160273866Y-122760619D01*
X160225485Y-122663857D01*
X160225485Y-122518714D01*
X160273866Y-122421952D01*
X160322247Y-122373571D01*
X160854438Y-123679857D02*
X160902819Y-123583095D01*
X160902819Y-123389571D01*
X160854438Y-123292809D01*
X160757676Y-123244428D01*
X160370628Y-123244428D01*
X160273866Y-123292809D01*
X160225485Y-123389571D01*
X160225485Y-123583095D01*
X160273866Y-123679857D01*
X160370628Y-123728238D01*
X160467390Y-123728238D01*
X160564152Y-123244428D01*
X161901885Y-107617380D02*
X162579219Y-107859285D01*
X161901885Y-108101190D01*
X162579219Y-108633380D02*
X162530838Y-108536619D01*
X162482457Y-108488238D01*
X162385695Y-108439857D01*
X162095409Y-108439857D01*
X161998647Y-108488238D01*
X161950266Y-108536619D01*
X161901885Y-108633380D01*
X161901885Y-108778523D01*
X161950266Y-108875285D01*
X161998647Y-108923666D01*
X162095409Y-108972047D01*
X162385695Y-108972047D01*
X162482457Y-108923666D01*
X162530838Y-108875285D01*
X162579219Y-108778523D01*
X162579219Y-108633380D01*
X162579219Y-109552619D02*
X162530838Y-109455857D01*
X162434076Y-109407476D01*
X161563219Y-109407476D01*
X161901885Y-109794523D02*
X161901885Y-110181571D01*
X161563219Y-109939666D02*
X162434076Y-109939666D01*
X162530838Y-109988047D01*
X162579219Y-110084809D01*
X162579219Y-110181571D01*
X162579219Y-110955666D02*
X162047028Y-110955666D01*
X161950266Y-110907285D01*
X161901885Y-110810523D01*
X161901885Y-110617000D01*
X161950266Y-110520238D01*
X162530838Y-110955666D02*
X162579219Y-110858904D01*
X162579219Y-110617000D01*
X162530838Y-110520238D01*
X162434076Y-110471857D01*
X162337314Y-110471857D01*
X162240552Y-110520238D01*
X162192171Y-110617000D01*
X162192171Y-110858904D01*
X162143790Y-110955666D01*
X161901885Y-111874904D02*
X162724361Y-111874904D01*
X162821123Y-111826523D01*
X162869504Y-111778142D01*
X162917885Y-111681380D01*
X162917885Y-111536238D01*
X162869504Y-111439476D01*
X162530838Y-111874904D02*
X162579219Y-111778142D01*
X162579219Y-111584619D01*
X162530838Y-111487857D01*
X162482457Y-111439476D01*
X162385695Y-111391095D01*
X162095409Y-111391095D01*
X161998647Y-111439476D01*
X161950266Y-111487857D01*
X161901885Y-111584619D01*
X161901885Y-111778142D01*
X161950266Y-111874904D01*
X162530838Y-112745761D02*
X162579219Y-112649000D01*
X162579219Y-112455476D01*
X162530838Y-112358714D01*
X162434076Y-112310333D01*
X162047028Y-112310333D01*
X161950266Y-112358714D01*
X161901885Y-112455476D01*
X161901885Y-112649000D01*
X161950266Y-112745761D01*
X162047028Y-112794142D01*
X162143790Y-112794142D01*
X162240552Y-112310333D01*
X161901885Y-113858523D02*
X161901885Y-114245571D01*
X162579219Y-114003666D02*
X161708361Y-114003666D01*
X161611600Y-114052047D01*
X161563219Y-114148809D01*
X161563219Y-114245571D01*
X162579219Y-114729380D02*
X162530838Y-114632619D01*
X162482457Y-114584238D01*
X162385695Y-114535857D01*
X162095409Y-114535857D01*
X161998647Y-114584238D01*
X161950266Y-114632619D01*
X161901885Y-114729380D01*
X161901885Y-114874523D01*
X161950266Y-114971285D01*
X161998647Y-115019666D01*
X162095409Y-115068047D01*
X162385695Y-115068047D01*
X162482457Y-115019666D01*
X162530838Y-114971285D01*
X162579219Y-114874523D01*
X162579219Y-114729380D01*
X162579219Y-115503476D02*
X161901885Y-115503476D01*
X162095409Y-115503476D02*
X161998647Y-115551857D01*
X161950266Y-115600238D01*
X161901885Y-115697000D01*
X161901885Y-115793761D01*
X161901885Y-116761380D02*
X161901885Y-117148428D01*
X161563219Y-116906523D02*
X162434076Y-116906523D01*
X162530838Y-116954904D01*
X162579219Y-117051666D01*
X162579219Y-117148428D01*
X162579219Y-117487095D02*
X161563219Y-117487095D01*
X162579219Y-117922523D02*
X162047028Y-117922523D01*
X161950266Y-117874142D01*
X161901885Y-117777380D01*
X161901885Y-117632238D01*
X161950266Y-117535476D01*
X161998647Y-117487095D01*
X162530838Y-118793380D02*
X162579219Y-118696619D01*
X162579219Y-118503095D01*
X162530838Y-118406333D01*
X162434076Y-118357952D01*
X162047028Y-118357952D01*
X161950266Y-118406333D01*
X161901885Y-118503095D01*
X161901885Y-118696619D01*
X161950266Y-118793380D01*
X162047028Y-118841761D01*
X162143790Y-118841761D01*
X162240552Y-118357952D01*
X162579219Y-120196428D02*
X162530838Y-120099666D01*
X162434076Y-120051285D01*
X161563219Y-120051285D01*
X162579219Y-121018904D02*
X162047028Y-121018904D01*
X161950266Y-120970523D01*
X161901885Y-120873761D01*
X161901885Y-120680238D01*
X161950266Y-120583476D01*
X162530838Y-121018904D02*
X162579219Y-120922142D01*
X162579219Y-120680238D01*
X162530838Y-120583476D01*
X162434076Y-120535095D01*
X162337314Y-120535095D01*
X162240552Y-120583476D01*
X162192171Y-120680238D01*
X162192171Y-120922142D01*
X162143790Y-121018904D01*
X161901885Y-121405952D02*
X162579219Y-121647857D01*
X161901885Y-121889761D02*
X162579219Y-121647857D01*
X162821123Y-121551095D01*
X162869504Y-121502714D01*
X162917885Y-121405952D01*
X162579219Y-122421952D02*
X162530838Y-122325190D01*
X162482457Y-122276809D01*
X162385695Y-122228428D01*
X162095409Y-122228428D01*
X161998647Y-122276809D01*
X161950266Y-122325190D01*
X161901885Y-122421952D01*
X161901885Y-122567095D01*
X161950266Y-122663857D01*
X161998647Y-122712238D01*
X162095409Y-122760619D01*
X162385695Y-122760619D01*
X162482457Y-122712238D01*
X162530838Y-122663857D01*
X162579219Y-122567095D01*
X162579219Y-122421952D01*
X161901885Y-123631476D02*
X162579219Y-123631476D01*
X161901885Y-123196047D02*
X162434076Y-123196047D01*
X162530838Y-123244428D01*
X162579219Y-123341190D01*
X162579219Y-123486333D01*
X162530838Y-123583095D01*
X162482457Y-123631476D01*
X161901885Y-123970142D02*
X161901885Y-124357190D01*
X161563219Y-124115285D02*
X162434076Y-124115285D01*
X162530838Y-124163666D01*
X162579219Y-124260428D01*
X162579219Y-124357190D01*
X162482457Y-124695857D02*
X162530838Y-124744238D01*
X162579219Y-124695857D01*
X162530838Y-124647476D01*
X162482457Y-124695857D01*
X162579219Y-124695857D01*
M02*
