G04 #@! TF.GenerationSoftware,KiCad,Pcbnew,(5.1.4)-1*
G04 #@! TF.CreationDate,2019-08-31T15:58:00+02:00*
G04 #@! TF.ProjectId,SwitchRelay,53776974-6368-4526-956c-61792e6b6963,1.0*
G04 #@! TF.SameCoordinates,Original*
G04 #@! TF.FileFunction,Copper,L2,Bot*
G04 #@! TF.FilePolarity,Positive*
%FSLAX46Y46*%
G04 Gerber Fmt 4.6, Leading zero omitted, Abs format (unit mm)*
G04 Created by KiCad (PCBNEW (5.1.4)-1) date 2019-08-31 15:58:00*
%MOMM*%
%LPD*%
G04 APERTURE LIST*
%ADD10C,0.254000*%
%ADD11C,0.203200*%
%ADD12C,3.000000*%
%ADD13R,3.000000X3.000000*%
%ADD14O,1.600000X1.600000*%
%ADD15C,1.600000*%
%ADD16R,1.600000X1.600000*%
%ADD17C,1.016000*%
%ADD18C,0.250000*%
G04 APERTURE END LIST*
D10*
X120773261Y-107163809D02*
X120851880Y-107399666D01*
X120851880Y-107792761D01*
X120773261Y-107950000D01*
X120694642Y-108028619D01*
X120537404Y-108107238D01*
X120380166Y-108107238D01*
X120222928Y-108028619D01*
X120144309Y-107950000D01*
X120065690Y-107792761D01*
X119987071Y-107478285D01*
X119908452Y-107321047D01*
X119829833Y-107242428D01*
X119672595Y-107163809D01*
X119515357Y-107163809D01*
X119358119Y-107242428D01*
X119279500Y-107321047D01*
X119200880Y-107478285D01*
X119200880Y-107871380D01*
X119279500Y-108107238D01*
X119751214Y-108657571D02*
X120851880Y-108972047D01*
X120065690Y-109286523D01*
X120851880Y-109601000D01*
X119751214Y-109915476D01*
X120851880Y-110544428D02*
X119751214Y-110544428D01*
X119200880Y-110544428D02*
X119279500Y-110465809D01*
X119358119Y-110544428D01*
X119279500Y-110623047D01*
X119200880Y-110544428D01*
X119358119Y-110544428D01*
X119751214Y-111094761D02*
X119751214Y-111723714D01*
X119200880Y-111330619D02*
X120616023Y-111330619D01*
X120773261Y-111409238D01*
X120851880Y-111566476D01*
X120851880Y-111723714D01*
X120773261Y-112981619D02*
X120851880Y-112824380D01*
X120851880Y-112509904D01*
X120773261Y-112352666D01*
X120694642Y-112274047D01*
X120537404Y-112195428D01*
X120065690Y-112195428D01*
X119908452Y-112274047D01*
X119829833Y-112352666D01*
X119751214Y-112509904D01*
X119751214Y-112824380D01*
X119829833Y-112981619D01*
X120851880Y-113689190D02*
X119200880Y-113689190D01*
X120851880Y-114396761D02*
X119987071Y-114396761D01*
X119829833Y-114318142D01*
X119751214Y-114160904D01*
X119751214Y-113925047D01*
X119829833Y-113767809D01*
X119908452Y-113689190D01*
X120851880Y-116126380D02*
X120065690Y-115576047D01*
X120851880Y-115182952D02*
X119200880Y-115182952D01*
X119200880Y-115811904D01*
X119279500Y-115969142D01*
X119358119Y-116047761D01*
X119515357Y-116126380D01*
X119751214Y-116126380D01*
X119908452Y-116047761D01*
X119987071Y-115969142D01*
X120065690Y-115811904D01*
X120065690Y-115182952D01*
X120773261Y-117462904D02*
X120851880Y-117305666D01*
X120851880Y-116991190D01*
X120773261Y-116833952D01*
X120616023Y-116755333D01*
X119987071Y-116755333D01*
X119829833Y-116833952D01*
X119751214Y-116991190D01*
X119751214Y-117305666D01*
X119829833Y-117462904D01*
X119987071Y-117541523D01*
X120144309Y-117541523D01*
X120301547Y-116755333D01*
X120851880Y-118484952D02*
X120773261Y-118327714D01*
X120616023Y-118249095D01*
X119200880Y-118249095D01*
X120851880Y-119821476D02*
X119987071Y-119821476D01*
X119829833Y-119742857D01*
X119751214Y-119585619D01*
X119751214Y-119271142D01*
X119829833Y-119113904D01*
X120773261Y-119821476D02*
X120851880Y-119664238D01*
X120851880Y-119271142D01*
X120773261Y-119113904D01*
X120616023Y-119035285D01*
X120458785Y-119035285D01*
X120301547Y-119113904D01*
X120222928Y-119271142D01*
X120222928Y-119664238D01*
X120144309Y-119821476D01*
X119751214Y-120450428D02*
X120851880Y-120843523D01*
X119751214Y-121236619D02*
X120851880Y-120843523D01*
X121244976Y-120686285D01*
X121323595Y-120607666D01*
X121402214Y-120450428D01*
X119751214Y-122966238D02*
X120851880Y-123359333D01*
X119751214Y-123752428D01*
X120851880Y-125246190D02*
X120851880Y-124302761D01*
X120851880Y-124774476D02*
X119200880Y-124774476D01*
X119436738Y-124617238D01*
X119593976Y-124460000D01*
X119672595Y-124302761D01*
D11*
X124516238Y-110471857D02*
X124564619Y-110617000D01*
X124564619Y-110858904D01*
X124516238Y-110955666D01*
X124467857Y-111004047D01*
X124371095Y-111052428D01*
X124274333Y-111052428D01*
X124177571Y-111004047D01*
X124129190Y-110955666D01*
X124080809Y-110858904D01*
X124032428Y-110665380D01*
X123984047Y-110568619D01*
X123935666Y-110520238D01*
X123838904Y-110471857D01*
X123742142Y-110471857D01*
X123645380Y-110520238D01*
X123597000Y-110568619D01*
X123548619Y-110665380D01*
X123548619Y-110907285D01*
X123597000Y-111052428D01*
X124516238Y-111874904D02*
X124564619Y-111778142D01*
X124564619Y-111584619D01*
X124516238Y-111487857D01*
X124419476Y-111439476D01*
X124032428Y-111439476D01*
X123935666Y-111487857D01*
X123887285Y-111584619D01*
X123887285Y-111778142D01*
X123935666Y-111874904D01*
X124032428Y-111923285D01*
X124129190Y-111923285D01*
X124225952Y-111439476D01*
X123887285Y-112358714D02*
X124903285Y-112358714D01*
X123935666Y-112358714D02*
X123887285Y-112455476D01*
X123887285Y-112649000D01*
X123935666Y-112745761D01*
X123984047Y-112794142D01*
X124080809Y-112842523D01*
X124371095Y-112842523D01*
X124467857Y-112794142D01*
X124516238Y-112745761D01*
X124564619Y-112649000D01*
X124564619Y-112455476D01*
X124516238Y-112358714D01*
X123887285Y-113132809D02*
X123887285Y-113519857D01*
X123548619Y-113277952D02*
X124419476Y-113277952D01*
X124516238Y-113326333D01*
X124564619Y-113423095D01*
X124564619Y-113519857D01*
X124564619Y-113858523D02*
X123887285Y-113858523D01*
X123548619Y-113858523D02*
X123597000Y-113810142D01*
X123645380Y-113858523D01*
X123597000Y-113906904D01*
X123548619Y-113858523D01*
X123645380Y-113858523D01*
X124564619Y-114487476D02*
X124516238Y-114390714D01*
X124419476Y-114342333D01*
X123548619Y-114342333D01*
X124564619Y-115019666D02*
X124516238Y-114922904D01*
X124419476Y-114874523D01*
X123548619Y-114874523D01*
X124564619Y-115406714D02*
X123887285Y-115406714D01*
X123548619Y-115406714D02*
X123597000Y-115358333D01*
X123645380Y-115406714D01*
X123597000Y-115455095D01*
X123548619Y-115406714D01*
X123645380Y-115406714D01*
X124564619Y-116035666D02*
X124516238Y-115938904D01*
X124467857Y-115890523D01*
X124371095Y-115842142D01*
X124080809Y-115842142D01*
X123984047Y-115890523D01*
X123935666Y-115938904D01*
X123887285Y-116035666D01*
X123887285Y-116180809D01*
X123935666Y-116277571D01*
X123984047Y-116325952D01*
X124080809Y-116374333D01*
X124371095Y-116374333D01*
X124467857Y-116325952D01*
X124516238Y-116277571D01*
X124564619Y-116180809D01*
X124564619Y-116035666D01*
X123887285Y-116809761D02*
X124564619Y-116809761D01*
X123984047Y-116809761D02*
X123935666Y-116858142D01*
X123887285Y-116954904D01*
X123887285Y-117100047D01*
X123935666Y-117196809D01*
X124032428Y-117245190D01*
X124564619Y-117245190D01*
X123645380Y-118454714D02*
X123597000Y-118503095D01*
X123548619Y-118599857D01*
X123548619Y-118841761D01*
X123597000Y-118938523D01*
X123645380Y-118986904D01*
X123742142Y-119035285D01*
X123838904Y-119035285D01*
X123984047Y-118986904D01*
X124564619Y-118406333D01*
X124564619Y-119035285D01*
X123548619Y-119664238D02*
X123548619Y-119761000D01*
X123597000Y-119857761D01*
X123645380Y-119906142D01*
X123742142Y-119954523D01*
X123935666Y-120002904D01*
X124177571Y-120002904D01*
X124371095Y-119954523D01*
X124467857Y-119906142D01*
X124516238Y-119857761D01*
X124564619Y-119761000D01*
X124564619Y-119664238D01*
X124516238Y-119567476D01*
X124467857Y-119519095D01*
X124371095Y-119470714D01*
X124177571Y-119422333D01*
X123935666Y-119422333D01*
X123742142Y-119470714D01*
X123645380Y-119519095D01*
X123597000Y-119567476D01*
X123548619Y-119664238D01*
X124564619Y-120970523D02*
X124564619Y-120389952D01*
X124564619Y-120680238D02*
X123548619Y-120680238D01*
X123693761Y-120583476D01*
X123790523Y-120486714D01*
X123838904Y-120389952D01*
X124564619Y-121454333D02*
X124564619Y-121647857D01*
X124516238Y-121744619D01*
X124467857Y-121793000D01*
X124322714Y-121889761D01*
X124129190Y-121938142D01*
X123742142Y-121938142D01*
X123645380Y-121889761D01*
X123597000Y-121841380D01*
X123548619Y-121744619D01*
X123548619Y-121551095D01*
X123597000Y-121454333D01*
X123645380Y-121405952D01*
X123742142Y-121357571D01*
X123984047Y-121357571D01*
X124080809Y-121405952D01*
X124129190Y-121454333D01*
X124177571Y-121551095D01*
X124177571Y-121744619D01*
X124129190Y-121841380D01*
X124080809Y-121889761D01*
X123984047Y-121938142D01*
D12*
X139065000Y-126365000D03*
X133985000Y-126365000D03*
D13*
X128905000Y-126365000D03*
D12*
X154305000Y-126365000D03*
X149225000Y-126365000D03*
D13*
X144145000Y-126365000D03*
D12*
X144145000Y-106045000D03*
X149225000Y-106045000D03*
D13*
X154305000Y-106045000D03*
D14*
X127635000Y-120015000D03*
D15*
X127635000Y-112395000D03*
X135255000Y-120015000D03*
X135255000Y-112395000D03*
X132715000Y-120015000D03*
X140335000Y-120015000D03*
X145415000Y-120015000D03*
X150495000Y-120015000D03*
X150495000Y-112395000D03*
X145415000Y-112395000D03*
X140335000Y-112395000D03*
D16*
X132715000Y-112395000D03*
D12*
X128905000Y-106045000D03*
X133985000Y-106045000D03*
D13*
X139065000Y-106045000D03*
D17*
X139065000Y-123825000D02*
X135255000Y-120015000D01*
X139065000Y-126365000D02*
X139065000Y-123825000D01*
X139700000Y-123190000D02*
X139065000Y-123825000D01*
X154305000Y-126365000D02*
X151130000Y-123190000D01*
X151130000Y-123190000D02*
X139700000Y-123190000D01*
X127635000Y-120015000D02*
X133985000Y-126365000D01*
X147725001Y-127864999D02*
X149225000Y-126365000D01*
X146050000Y-129540000D02*
X147725001Y-127864999D01*
X133985000Y-126365000D02*
X137160000Y-129540000D01*
X137160000Y-129540000D02*
X146050000Y-129540000D01*
X130404999Y-107544999D02*
X128905000Y-106045000D01*
X132715000Y-109855000D02*
X130404999Y-107544999D01*
X135255000Y-109855000D02*
X132715000Y-109855000D01*
X141605000Y-116205000D02*
X135255000Y-109855000D01*
X150495000Y-120015000D02*
X146685000Y-116205000D01*
X146685000Y-116205000D02*
X141605000Y-116205000D01*
X147725001Y-107544999D02*
X149225000Y-106045000D01*
X145415000Y-109855000D02*
X147725001Y-107544999D01*
X140335000Y-112395000D02*
X142875000Y-109855000D01*
X142875000Y-109855000D02*
X145415000Y-109855000D01*
X147955000Y-112395000D02*
X154305000Y-106045000D01*
X145415000Y-112395000D02*
X147955000Y-112395000D01*
D18*
X135255000Y-112395000D02*
X132715000Y-112395000D01*
X132715000Y-112395000D02*
X127635000Y-112395000D01*
M02*
