G04 #@! TF.GenerationSoftware,KiCad,Pcbnew,(5.1.4)-1*
G04 #@! TF.CreationDate,2019-08-31T15:58:00+02:00*
G04 #@! TF.ProjectId,SwitchRelay,53776974-6368-4526-956c-61792e6b6963,1.0*
G04 #@! TF.SameCoordinates,Original*
G04 #@! TF.FileFunction,Soldermask,Bot*
G04 #@! TF.FilePolarity,Negative*
%FSLAX46Y46*%
G04 Gerber Fmt 4.6, Leading zero omitted, Abs format (unit mm)*
G04 Created by KiCad (PCBNEW (5.1.4)-1) date 2019-08-31 15:58:00*
%MOMM*%
%LPD*%
G04 APERTURE LIST*
%ADD10C,0.203200*%
%ADD11C,0.254000*%
%ADD12C,0.100000*%
G04 APERTURE END LIST*
D10*
X124516238Y-110471857D02*
X124564619Y-110617000D01*
X124564619Y-110858904D01*
X124516238Y-110955666D01*
X124467857Y-111004047D01*
X124371095Y-111052428D01*
X124274333Y-111052428D01*
X124177571Y-111004047D01*
X124129190Y-110955666D01*
X124080809Y-110858904D01*
X124032428Y-110665380D01*
X123984047Y-110568619D01*
X123935666Y-110520238D01*
X123838904Y-110471857D01*
X123742142Y-110471857D01*
X123645380Y-110520238D01*
X123597000Y-110568619D01*
X123548619Y-110665380D01*
X123548619Y-110907285D01*
X123597000Y-111052428D01*
X124516238Y-111874904D02*
X124564619Y-111778142D01*
X124564619Y-111584619D01*
X124516238Y-111487857D01*
X124419476Y-111439476D01*
X124032428Y-111439476D01*
X123935666Y-111487857D01*
X123887285Y-111584619D01*
X123887285Y-111778142D01*
X123935666Y-111874904D01*
X124032428Y-111923285D01*
X124129190Y-111923285D01*
X124225952Y-111439476D01*
X123887285Y-112358714D02*
X124903285Y-112358714D01*
X123935666Y-112358714D02*
X123887285Y-112455476D01*
X123887285Y-112649000D01*
X123935666Y-112745761D01*
X123984047Y-112794142D01*
X124080809Y-112842523D01*
X124371095Y-112842523D01*
X124467857Y-112794142D01*
X124516238Y-112745761D01*
X124564619Y-112649000D01*
X124564619Y-112455476D01*
X124516238Y-112358714D01*
X123887285Y-113132809D02*
X123887285Y-113519857D01*
X123548619Y-113277952D02*
X124419476Y-113277952D01*
X124516238Y-113326333D01*
X124564619Y-113423095D01*
X124564619Y-113519857D01*
X124564619Y-113858523D02*
X123887285Y-113858523D01*
X123548619Y-113858523D02*
X123597000Y-113810142D01*
X123645380Y-113858523D01*
X123597000Y-113906904D01*
X123548619Y-113858523D01*
X123645380Y-113858523D01*
X124564619Y-114487476D02*
X124516238Y-114390714D01*
X124419476Y-114342333D01*
X123548619Y-114342333D01*
X124564619Y-115019666D02*
X124516238Y-114922904D01*
X124419476Y-114874523D01*
X123548619Y-114874523D01*
X124564619Y-115406714D02*
X123887285Y-115406714D01*
X123548619Y-115406714D02*
X123597000Y-115358333D01*
X123645380Y-115406714D01*
X123597000Y-115455095D01*
X123548619Y-115406714D01*
X123645380Y-115406714D01*
X124564619Y-116035666D02*
X124516238Y-115938904D01*
X124467857Y-115890523D01*
X124371095Y-115842142D01*
X124080809Y-115842142D01*
X123984047Y-115890523D01*
X123935666Y-115938904D01*
X123887285Y-116035666D01*
X123887285Y-116180809D01*
X123935666Y-116277571D01*
X123984047Y-116325952D01*
X124080809Y-116374333D01*
X124371095Y-116374333D01*
X124467857Y-116325952D01*
X124516238Y-116277571D01*
X124564619Y-116180809D01*
X124564619Y-116035666D01*
X123887285Y-116809761D02*
X124564619Y-116809761D01*
X123984047Y-116809761D02*
X123935666Y-116858142D01*
X123887285Y-116954904D01*
X123887285Y-117100047D01*
X123935666Y-117196809D01*
X124032428Y-117245190D01*
X124564619Y-117245190D01*
X123645380Y-118454714D02*
X123597000Y-118503095D01*
X123548619Y-118599857D01*
X123548619Y-118841761D01*
X123597000Y-118938523D01*
X123645380Y-118986904D01*
X123742142Y-119035285D01*
X123838904Y-119035285D01*
X123984047Y-118986904D01*
X124564619Y-118406333D01*
X124564619Y-119035285D01*
X123548619Y-119664238D02*
X123548619Y-119761000D01*
X123597000Y-119857761D01*
X123645380Y-119906142D01*
X123742142Y-119954523D01*
X123935666Y-120002904D01*
X124177571Y-120002904D01*
X124371095Y-119954523D01*
X124467857Y-119906142D01*
X124516238Y-119857761D01*
X124564619Y-119761000D01*
X124564619Y-119664238D01*
X124516238Y-119567476D01*
X124467857Y-119519095D01*
X124371095Y-119470714D01*
X124177571Y-119422333D01*
X123935666Y-119422333D01*
X123742142Y-119470714D01*
X123645380Y-119519095D01*
X123597000Y-119567476D01*
X123548619Y-119664238D01*
X124564619Y-120970523D02*
X124564619Y-120389952D01*
X124564619Y-120680238D02*
X123548619Y-120680238D01*
X123693761Y-120583476D01*
X123790523Y-120486714D01*
X123838904Y-120389952D01*
X124564619Y-121454333D02*
X124564619Y-121647857D01*
X124516238Y-121744619D01*
X124467857Y-121793000D01*
X124322714Y-121889761D01*
X124129190Y-121938142D01*
X123742142Y-121938142D01*
X123645380Y-121889761D01*
X123597000Y-121841380D01*
X123548619Y-121744619D01*
X123548619Y-121551095D01*
X123597000Y-121454333D01*
X123645380Y-121405952D01*
X123742142Y-121357571D01*
X123984047Y-121357571D01*
X124080809Y-121405952D01*
X124129190Y-121454333D01*
X124177571Y-121551095D01*
X124177571Y-121744619D01*
X124129190Y-121841380D01*
X124080809Y-121889761D01*
X123984047Y-121938142D01*
D11*
X120773261Y-107163809D02*
X120851880Y-107399666D01*
X120851880Y-107792761D01*
X120773261Y-107950000D01*
X120694642Y-108028619D01*
X120537404Y-108107238D01*
X120380166Y-108107238D01*
X120222928Y-108028619D01*
X120144309Y-107950000D01*
X120065690Y-107792761D01*
X119987071Y-107478285D01*
X119908452Y-107321047D01*
X119829833Y-107242428D01*
X119672595Y-107163809D01*
X119515357Y-107163809D01*
X119358119Y-107242428D01*
X119279500Y-107321047D01*
X119200880Y-107478285D01*
X119200880Y-107871380D01*
X119279500Y-108107238D01*
X119751214Y-108657571D02*
X120851880Y-108972047D01*
X120065690Y-109286523D01*
X120851880Y-109601000D01*
X119751214Y-109915476D01*
X120851880Y-110544428D02*
X119751214Y-110544428D01*
X119200880Y-110544428D02*
X119279500Y-110465809D01*
X119358119Y-110544428D01*
X119279500Y-110623047D01*
X119200880Y-110544428D01*
X119358119Y-110544428D01*
X119751214Y-111094761D02*
X119751214Y-111723714D01*
X119200880Y-111330619D02*
X120616023Y-111330619D01*
X120773261Y-111409238D01*
X120851880Y-111566476D01*
X120851880Y-111723714D01*
X120773261Y-112981619D02*
X120851880Y-112824380D01*
X120851880Y-112509904D01*
X120773261Y-112352666D01*
X120694642Y-112274047D01*
X120537404Y-112195428D01*
X120065690Y-112195428D01*
X119908452Y-112274047D01*
X119829833Y-112352666D01*
X119751214Y-112509904D01*
X119751214Y-112824380D01*
X119829833Y-112981619D01*
X120851880Y-113689190D02*
X119200880Y-113689190D01*
X120851880Y-114396761D02*
X119987071Y-114396761D01*
X119829833Y-114318142D01*
X119751214Y-114160904D01*
X119751214Y-113925047D01*
X119829833Y-113767809D01*
X119908452Y-113689190D01*
X120851880Y-116126380D02*
X120065690Y-115576047D01*
X120851880Y-115182952D02*
X119200880Y-115182952D01*
X119200880Y-115811904D01*
X119279500Y-115969142D01*
X119358119Y-116047761D01*
X119515357Y-116126380D01*
X119751214Y-116126380D01*
X119908452Y-116047761D01*
X119987071Y-115969142D01*
X120065690Y-115811904D01*
X120065690Y-115182952D01*
X120773261Y-117462904D02*
X120851880Y-117305666D01*
X120851880Y-116991190D01*
X120773261Y-116833952D01*
X120616023Y-116755333D01*
X119987071Y-116755333D01*
X119829833Y-116833952D01*
X119751214Y-116991190D01*
X119751214Y-117305666D01*
X119829833Y-117462904D01*
X119987071Y-117541523D01*
X120144309Y-117541523D01*
X120301547Y-116755333D01*
X120851880Y-118484952D02*
X120773261Y-118327714D01*
X120616023Y-118249095D01*
X119200880Y-118249095D01*
X120851880Y-119821476D02*
X119987071Y-119821476D01*
X119829833Y-119742857D01*
X119751214Y-119585619D01*
X119751214Y-119271142D01*
X119829833Y-119113904D01*
X120773261Y-119821476D02*
X120851880Y-119664238D01*
X120851880Y-119271142D01*
X120773261Y-119113904D01*
X120616023Y-119035285D01*
X120458785Y-119035285D01*
X120301547Y-119113904D01*
X120222928Y-119271142D01*
X120222928Y-119664238D01*
X120144309Y-119821476D01*
X119751214Y-120450428D02*
X120851880Y-120843523D01*
X119751214Y-121236619D02*
X120851880Y-120843523D01*
X121244976Y-120686285D01*
X121323595Y-120607666D01*
X121402214Y-120450428D01*
X119751214Y-122966238D02*
X120851880Y-123359333D01*
X119751214Y-123752428D01*
X120851880Y-125246190D02*
X120851880Y-124302761D01*
X120851880Y-124774476D02*
X119200880Y-124774476D01*
X119436738Y-124617238D01*
X119593976Y-124460000D01*
X119672595Y-124302761D01*
D12*
G36*
X163407585Y-127683802D02*
G01*
X163557410Y-127713604D01*
X163839674Y-127830521D01*
X164093705Y-128000259D01*
X164309741Y-128216295D01*
X164479479Y-128470326D01*
X164596396Y-128752590D01*
X164656000Y-129052240D01*
X164656000Y-129357760D01*
X164596396Y-129657410D01*
X164479479Y-129939674D01*
X164309741Y-130193705D01*
X164093705Y-130409741D01*
X163839674Y-130579479D01*
X163557410Y-130696396D01*
X163407585Y-130726198D01*
X163257761Y-130756000D01*
X162952239Y-130756000D01*
X162802415Y-130726198D01*
X162652590Y-130696396D01*
X162370326Y-130579479D01*
X162116295Y-130409741D01*
X161900259Y-130193705D01*
X161730521Y-129939674D01*
X161613604Y-129657410D01*
X161554000Y-129357760D01*
X161554000Y-129052240D01*
X161613604Y-128752590D01*
X161730521Y-128470326D01*
X161900259Y-128216295D01*
X162116295Y-128000259D01*
X162370326Y-127830521D01*
X162652590Y-127713604D01*
X162802415Y-127683802D01*
X162952239Y-127654000D01*
X163257761Y-127654000D01*
X163407585Y-127683802D01*
X163407585Y-127683802D01*
G37*
G36*
X120407585Y-127683802D02*
G01*
X120557410Y-127713604D01*
X120839674Y-127830521D01*
X121093705Y-128000259D01*
X121309741Y-128216295D01*
X121479479Y-128470326D01*
X121596396Y-128752590D01*
X121656000Y-129052240D01*
X121656000Y-129357760D01*
X121596396Y-129657410D01*
X121479479Y-129939674D01*
X121309741Y-130193705D01*
X121093705Y-130409741D01*
X120839674Y-130579479D01*
X120557410Y-130696396D01*
X120407585Y-130726198D01*
X120257761Y-130756000D01*
X119952239Y-130756000D01*
X119802415Y-130726198D01*
X119652590Y-130696396D01*
X119370326Y-130579479D01*
X119116295Y-130409741D01*
X118900259Y-130193705D01*
X118730521Y-129939674D01*
X118613604Y-129657410D01*
X118554000Y-129357760D01*
X118554000Y-129052240D01*
X118613604Y-128752590D01*
X118730521Y-128470326D01*
X118900259Y-128216295D01*
X119116295Y-128000259D01*
X119370326Y-127830521D01*
X119652590Y-127713604D01*
X119802415Y-127683802D01*
X119952239Y-127654000D01*
X120257761Y-127654000D01*
X120407585Y-127683802D01*
X120407585Y-127683802D01*
G37*
G36*
X134287585Y-124843802D02*
G01*
X134437410Y-124873604D01*
X134719674Y-124990521D01*
X134973705Y-125160259D01*
X135189741Y-125376295D01*
X135359479Y-125630326D01*
X135476396Y-125912590D01*
X135536000Y-126212240D01*
X135536000Y-126517760D01*
X135476396Y-126817410D01*
X135359479Y-127099674D01*
X135189741Y-127353705D01*
X134973705Y-127569741D01*
X134719674Y-127739479D01*
X134437410Y-127856396D01*
X134287585Y-127886198D01*
X134137761Y-127916000D01*
X133832239Y-127916000D01*
X133682415Y-127886198D01*
X133532590Y-127856396D01*
X133250326Y-127739479D01*
X132996295Y-127569741D01*
X132780259Y-127353705D01*
X132610521Y-127099674D01*
X132493604Y-126817410D01*
X132434000Y-126517760D01*
X132434000Y-126212240D01*
X132493604Y-125912590D01*
X132610521Y-125630326D01*
X132780259Y-125376295D01*
X132996295Y-125160259D01*
X133250326Y-124990521D01*
X133532590Y-124873604D01*
X133682415Y-124843802D01*
X133832239Y-124814000D01*
X134137761Y-124814000D01*
X134287585Y-124843802D01*
X134287585Y-124843802D01*
G37*
G36*
X154607585Y-124843802D02*
G01*
X154757410Y-124873604D01*
X155039674Y-124990521D01*
X155293705Y-125160259D01*
X155509741Y-125376295D01*
X155679479Y-125630326D01*
X155796396Y-125912590D01*
X155856000Y-126212240D01*
X155856000Y-126517760D01*
X155796396Y-126817410D01*
X155679479Y-127099674D01*
X155509741Y-127353705D01*
X155293705Y-127569741D01*
X155039674Y-127739479D01*
X154757410Y-127856396D01*
X154607585Y-127886198D01*
X154457761Y-127916000D01*
X154152239Y-127916000D01*
X154002415Y-127886198D01*
X153852590Y-127856396D01*
X153570326Y-127739479D01*
X153316295Y-127569741D01*
X153100259Y-127353705D01*
X152930521Y-127099674D01*
X152813604Y-126817410D01*
X152754000Y-126517760D01*
X152754000Y-126212240D01*
X152813604Y-125912590D01*
X152930521Y-125630326D01*
X153100259Y-125376295D01*
X153316295Y-125160259D01*
X153570326Y-124990521D01*
X153852590Y-124873604D01*
X154002415Y-124843802D01*
X154152239Y-124814000D01*
X154457761Y-124814000D01*
X154607585Y-124843802D01*
X154607585Y-124843802D01*
G37*
G36*
X145696000Y-127916000D02*
G01*
X142594000Y-127916000D01*
X142594000Y-124814000D01*
X145696000Y-124814000D01*
X145696000Y-127916000D01*
X145696000Y-127916000D01*
G37*
G36*
X149527585Y-124843802D02*
G01*
X149677410Y-124873604D01*
X149959674Y-124990521D01*
X150213705Y-125160259D01*
X150429741Y-125376295D01*
X150599479Y-125630326D01*
X150716396Y-125912590D01*
X150776000Y-126212240D01*
X150776000Y-126517760D01*
X150716396Y-126817410D01*
X150599479Y-127099674D01*
X150429741Y-127353705D01*
X150213705Y-127569741D01*
X149959674Y-127739479D01*
X149677410Y-127856396D01*
X149527585Y-127886198D01*
X149377761Y-127916000D01*
X149072239Y-127916000D01*
X148922415Y-127886198D01*
X148772590Y-127856396D01*
X148490326Y-127739479D01*
X148236295Y-127569741D01*
X148020259Y-127353705D01*
X147850521Y-127099674D01*
X147733604Y-126817410D01*
X147674000Y-126517760D01*
X147674000Y-126212240D01*
X147733604Y-125912590D01*
X147850521Y-125630326D01*
X148020259Y-125376295D01*
X148236295Y-125160259D01*
X148490326Y-124990521D01*
X148772590Y-124873604D01*
X148922415Y-124843802D01*
X149072239Y-124814000D01*
X149377761Y-124814000D01*
X149527585Y-124843802D01*
X149527585Y-124843802D01*
G37*
G36*
X130456000Y-127916000D02*
G01*
X127354000Y-127916000D01*
X127354000Y-124814000D01*
X130456000Y-124814000D01*
X130456000Y-127916000D01*
X130456000Y-127916000D01*
G37*
G36*
X139367585Y-124843802D02*
G01*
X139517410Y-124873604D01*
X139799674Y-124990521D01*
X140053705Y-125160259D01*
X140269741Y-125376295D01*
X140439479Y-125630326D01*
X140556396Y-125912590D01*
X140616000Y-126212240D01*
X140616000Y-126517760D01*
X140556396Y-126817410D01*
X140439479Y-127099674D01*
X140269741Y-127353705D01*
X140053705Y-127569741D01*
X139799674Y-127739479D01*
X139517410Y-127856396D01*
X139367585Y-127886198D01*
X139217761Y-127916000D01*
X138912239Y-127916000D01*
X138762415Y-127886198D01*
X138612590Y-127856396D01*
X138330326Y-127739479D01*
X138076295Y-127569741D01*
X137860259Y-127353705D01*
X137690521Y-127099674D01*
X137573604Y-126817410D01*
X137514000Y-126517760D01*
X137514000Y-126212240D01*
X137573604Y-125912590D01*
X137690521Y-125630326D01*
X137860259Y-125376295D01*
X138076295Y-125160259D01*
X138330326Y-124990521D01*
X138612590Y-124873604D01*
X138762415Y-124843802D01*
X138912239Y-124814000D01*
X139217761Y-124814000D01*
X139367585Y-124843802D01*
X139367585Y-124843802D01*
G37*
G36*
X127801823Y-119176313D02*
G01*
X127962242Y-119224976D01*
X128029361Y-119260852D01*
X128110078Y-119303996D01*
X128239659Y-119410341D01*
X128346004Y-119539922D01*
X128346005Y-119539924D01*
X128425024Y-119687758D01*
X128473687Y-119848177D01*
X128490117Y-120015000D01*
X128473687Y-120181823D01*
X128425024Y-120342242D01*
X128384477Y-120418100D01*
X128346004Y-120490078D01*
X128239659Y-120619659D01*
X128110078Y-120726004D01*
X128110076Y-120726005D01*
X127962242Y-120805024D01*
X127801823Y-120853687D01*
X127676804Y-120866000D01*
X127593196Y-120866000D01*
X127468177Y-120853687D01*
X127307758Y-120805024D01*
X127159924Y-120726005D01*
X127159922Y-120726004D01*
X127030341Y-120619659D01*
X126923996Y-120490078D01*
X126885523Y-120418100D01*
X126844976Y-120342242D01*
X126796313Y-120181823D01*
X126779883Y-120015000D01*
X126796313Y-119848177D01*
X126844976Y-119687758D01*
X126923995Y-119539924D01*
X126923996Y-119539922D01*
X127030341Y-119410341D01*
X127159922Y-119303996D01*
X127240639Y-119260852D01*
X127307758Y-119224976D01*
X127468177Y-119176313D01*
X127593196Y-119164000D01*
X127676804Y-119164000D01*
X127801823Y-119176313D01*
X127801823Y-119176313D01*
G37*
G36*
X135503228Y-119196703D02*
G01*
X135658100Y-119260853D01*
X135797481Y-119353985D01*
X135916015Y-119472519D01*
X136009147Y-119611900D01*
X136073297Y-119766772D01*
X136106000Y-119931184D01*
X136106000Y-120098816D01*
X136073297Y-120263228D01*
X136009147Y-120418100D01*
X135916015Y-120557481D01*
X135797481Y-120676015D01*
X135658100Y-120769147D01*
X135503228Y-120833297D01*
X135338816Y-120866000D01*
X135171184Y-120866000D01*
X135006772Y-120833297D01*
X134851900Y-120769147D01*
X134712519Y-120676015D01*
X134593985Y-120557481D01*
X134500853Y-120418100D01*
X134436703Y-120263228D01*
X134404000Y-120098816D01*
X134404000Y-119931184D01*
X134436703Y-119766772D01*
X134500853Y-119611900D01*
X134593985Y-119472519D01*
X134712519Y-119353985D01*
X134851900Y-119260853D01*
X135006772Y-119196703D01*
X135171184Y-119164000D01*
X135338816Y-119164000D01*
X135503228Y-119196703D01*
X135503228Y-119196703D01*
G37*
G36*
X132963228Y-119196703D02*
G01*
X133118100Y-119260853D01*
X133257481Y-119353985D01*
X133376015Y-119472519D01*
X133469147Y-119611900D01*
X133533297Y-119766772D01*
X133566000Y-119931184D01*
X133566000Y-120098816D01*
X133533297Y-120263228D01*
X133469147Y-120418100D01*
X133376015Y-120557481D01*
X133257481Y-120676015D01*
X133118100Y-120769147D01*
X132963228Y-120833297D01*
X132798816Y-120866000D01*
X132631184Y-120866000D01*
X132466772Y-120833297D01*
X132311900Y-120769147D01*
X132172519Y-120676015D01*
X132053985Y-120557481D01*
X131960853Y-120418100D01*
X131896703Y-120263228D01*
X131864000Y-120098816D01*
X131864000Y-119931184D01*
X131896703Y-119766772D01*
X131960853Y-119611900D01*
X132053985Y-119472519D01*
X132172519Y-119353985D01*
X132311900Y-119260853D01*
X132466772Y-119196703D01*
X132631184Y-119164000D01*
X132798816Y-119164000D01*
X132963228Y-119196703D01*
X132963228Y-119196703D01*
G37*
G36*
X140583228Y-119196703D02*
G01*
X140738100Y-119260853D01*
X140877481Y-119353985D01*
X140996015Y-119472519D01*
X141089147Y-119611900D01*
X141153297Y-119766772D01*
X141186000Y-119931184D01*
X141186000Y-120098816D01*
X141153297Y-120263228D01*
X141089147Y-120418100D01*
X140996015Y-120557481D01*
X140877481Y-120676015D01*
X140738100Y-120769147D01*
X140583228Y-120833297D01*
X140418816Y-120866000D01*
X140251184Y-120866000D01*
X140086772Y-120833297D01*
X139931900Y-120769147D01*
X139792519Y-120676015D01*
X139673985Y-120557481D01*
X139580853Y-120418100D01*
X139516703Y-120263228D01*
X139484000Y-120098816D01*
X139484000Y-119931184D01*
X139516703Y-119766772D01*
X139580853Y-119611900D01*
X139673985Y-119472519D01*
X139792519Y-119353985D01*
X139931900Y-119260853D01*
X140086772Y-119196703D01*
X140251184Y-119164000D01*
X140418816Y-119164000D01*
X140583228Y-119196703D01*
X140583228Y-119196703D01*
G37*
G36*
X145663228Y-119196703D02*
G01*
X145818100Y-119260853D01*
X145957481Y-119353985D01*
X146076015Y-119472519D01*
X146169147Y-119611900D01*
X146233297Y-119766772D01*
X146266000Y-119931184D01*
X146266000Y-120098816D01*
X146233297Y-120263228D01*
X146169147Y-120418100D01*
X146076015Y-120557481D01*
X145957481Y-120676015D01*
X145818100Y-120769147D01*
X145663228Y-120833297D01*
X145498816Y-120866000D01*
X145331184Y-120866000D01*
X145166772Y-120833297D01*
X145011900Y-120769147D01*
X144872519Y-120676015D01*
X144753985Y-120557481D01*
X144660853Y-120418100D01*
X144596703Y-120263228D01*
X144564000Y-120098816D01*
X144564000Y-119931184D01*
X144596703Y-119766772D01*
X144660853Y-119611900D01*
X144753985Y-119472519D01*
X144872519Y-119353985D01*
X145011900Y-119260853D01*
X145166772Y-119196703D01*
X145331184Y-119164000D01*
X145498816Y-119164000D01*
X145663228Y-119196703D01*
X145663228Y-119196703D01*
G37*
G36*
X150743228Y-119196703D02*
G01*
X150898100Y-119260853D01*
X151037481Y-119353985D01*
X151156015Y-119472519D01*
X151249147Y-119611900D01*
X151313297Y-119766772D01*
X151346000Y-119931184D01*
X151346000Y-120098816D01*
X151313297Y-120263228D01*
X151249147Y-120418100D01*
X151156015Y-120557481D01*
X151037481Y-120676015D01*
X150898100Y-120769147D01*
X150743228Y-120833297D01*
X150578816Y-120866000D01*
X150411184Y-120866000D01*
X150246772Y-120833297D01*
X150091900Y-120769147D01*
X149952519Y-120676015D01*
X149833985Y-120557481D01*
X149740853Y-120418100D01*
X149676703Y-120263228D01*
X149644000Y-120098816D01*
X149644000Y-119931184D01*
X149676703Y-119766772D01*
X149740853Y-119611900D01*
X149833985Y-119472519D01*
X149952519Y-119353985D01*
X150091900Y-119260853D01*
X150246772Y-119196703D01*
X150411184Y-119164000D01*
X150578816Y-119164000D01*
X150743228Y-119196703D01*
X150743228Y-119196703D01*
G37*
G36*
X133566000Y-113246000D02*
G01*
X131864000Y-113246000D01*
X131864000Y-111544000D01*
X133566000Y-111544000D01*
X133566000Y-113246000D01*
X133566000Y-113246000D01*
G37*
G36*
X127883228Y-111576703D02*
G01*
X128038100Y-111640853D01*
X128177481Y-111733985D01*
X128296015Y-111852519D01*
X128389147Y-111991900D01*
X128453297Y-112146772D01*
X128486000Y-112311184D01*
X128486000Y-112478816D01*
X128453297Y-112643228D01*
X128389147Y-112798100D01*
X128296015Y-112937481D01*
X128177481Y-113056015D01*
X128038100Y-113149147D01*
X127883228Y-113213297D01*
X127718816Y-113246000D01*
X127551184Y-113246000D01*
X127386772Y-113213297D01*
X127231900Y-113149147D01*
X127092519Y-113056015D01*
X126973985Y-112937481D01*
X126880853Y-112798100D01*
X126816703Y-112643228D01*
X126784000Y-112478816D01*
X126784000Y-112311184D01*
X126816703Y-112146772D01*
X126880853Y-111991900D01*
X126973985Y-111852519D01*
X127092519Y-111733985D01*
X127231900Y-111640853D01*
X127386772Y-111576703D01*
X127551184Y-111544000D01*
X127718816Y-111544000D01*
X127883228Y-111576703D01*
X127883228Y-111576703D01*
G37*
G36*
X135503228Y-111576703D02*
G01*
X135658100Y-111640853D01*
X135797481Y-111733985D01*
X135916015Y-111852519D01*
X136009147Y-111991900D01*
X136073297Y-112146772D01*
X136106000Y-112311184D01*
X136106000Y-112478816D01*
X136073297Y-112643228D01*
X136009147Y-112798100D01*
X135916015Y-112937481D01*
X135797481Y-113056015D01*
X135658100Y-113149147D01*
X135503228Y-113213297D01*
X135338816Y-113246000D01*
X135171184Y-113246000D01*
X135006772Y-113213297D01*
X134851900Y-113149147D01*
X134712519Y-113056015D01*
X134593985Y-112937481D01*
X134500853Y-112798100D01*
X134436703Y-112643228D01*
X134404000Y-112478816D01*
X134404000Y-112311184D01*
X134436703Y-112146772D01*
X134500853Y-111991900D01*
X134593985Y-111852519D01*
X134712519Y-111733985D01*
X134851900Y-111640853D01*
X135006772Y-111576703D01*
X135171184Y-111544000D01*
X135338816Y-111544000D01*
X135503228Y-111576703D01*
X135503228Y-111576703D01*
G37*
G36*
X145663228Y-111576703D02*
G01*
X145818100Y-111640853D01*
X145957481Y-111733985D01*
X146076015Y-111852519D01*
X146169147Y-111991900D01*
X146233297Y-112146772D01*
X146266000Y-112311184D01*
X146266000Y-112478816D01*
X146233297Y-112643228D01*
X146169147Y-112798100D01*
X146076015Y-112937481D01*
X145957481Y-113056015D01*
X145818100Y-113149147D01*
X145663228Y-113213297D01*
X145498816Y-113246000D01*
X145331184Y-113246000D01*
X145166772Y-113213297D01*
X145011900Y-113149147D01*
X144872519Y-113056015D01*
X144753985Y-112937481D01*
X144660853Y-112798100D01*
X144596703Y-112643228D01*
X144564000Y-112478816D01*
X144564000Y-112311184D01*
X144596703Y-112146772D01*
X144660853Y-111991900D01*
X144753985Y-111852519D01*
X144872519Y-111733985D01*
X145011900Y-111640853D01*
X145166772Y-111576703D01*
X145331184Y-111544000D01*
X145498816Y-111544000D01*
X145663228Y-111576703D01*
X145663228Y-111576703D01*
G37*
G36*
X140583228Y-111576703D02*
G01*
X140738100Y-111640853D01*
X140877481Y-111733985D01*
X140996015Y-111852519D01*
X141089147Y-111991900D01*
X141153297Y-112146772D01*
X141186000Y-112311184D01*
X141186000Y-112478816D01*
X141153297Y-112643228D01*
X141089147Y-112798100D01*
X140996015Y-112937481D01*
X140877481Y-113056015D01*
X140738100Y-113149147D01*
X140583228Y-113213297D01*
X140418816Y-113246000D01*
X140251184Y-113246000D01*
X140086772Y-113213297D01*
X139931900Y-113149147D01*
X139792519Y-113056015D01*
X139673985Y-112937481D01*
X139580853Y-112798100D01*
X139516703Y-112643228D01*
X139484000Y-112478816D01*
X139484000Y-112311184D01*
X139516703Y-112146772D01*
X139580853Y-111991900D01*
X139673985Y-111852519D01*
X139792519Y-111733985D01*
X139931900Y-111640853D01*
X140086772Y-111576703D01*
X140251184Y-111544000D01*
X140418816Y-111544000D01*
X140583228Y-111576703D01*
X140583228Y-111576703D01*
G37*
G36*
X150743228Y-111576703D02*
G01*
X150898100Y-111640853D01*
X151037481Y-111733985D01*
X151156015Y-111852519D01*
X151249147Y-111991900D01*
X151313297Y-112146772D01*
X151346000Y-112311184D01*
X151346000Y-112478816D01*
X151313297Y-112643228D01*
X151249147Y-112798100D01*
X151156015Y-112937481D01*
X151037481Y-113056015D01*
X150898100Y-113149147D01*
X150743228Y-113213297D01*
X150578816Y-113246000D01*
X150411184Y-113246000D01*
X150246772Y-113213297D01*
X150091900Y-113149147D01*
X149952519Y-113056015D01*
X149833985Y-112937481D01*
X149740853Y-112798100D01*
X149676703Y-112643228D01*
X149644000Y-112478816D01*
X149644000Y-112311184D01*
X149676703Y-112146772D01*
X149740853Y-111991900D01*
X149833985Y-111852519D01*
X149952519Y-111733985D01*
X150091900Y-111640853D01*
X150246772Y-111576703D01*
X150411184Y-111544000D01*
X150578816Y-111544000D01*
X150743228Y-111576703D01*
X150743228Y-111576703D01*
G37*
G36*
X155856000Y-107596000D02*
G01*
X152754000Y-107596000D01*
X152754000Y-104494000D01*
X155856000Y-104494000D01*
X155856000Y-107596000D01*
X155856000Y-107596000D01*
G37*
G36*
X129207585Y-104523802D02*
G01*
X129357410Y-104553604D01*
X129639674Y-104670521D01*
X129893705Y-104840259D01*
X130109741Y-105056295D01*
X130279479Y-105310326D01*
X130396396Y-105592590D01*
X130456000Y-105892240D01*
X130456000Y-106197760D01*
X130396396Y-106497410D01*
X130279479Y-106779674D01*
X130109741Y-107033705D01*
X129893705Y-107249741D01*
X129639674Y-107419479D01*
X129357410Y-107536396D01*
X129207585Y-107566198D01*
X129057761Y-107596000D01*
X128752239Y-107596000D01*
X128602415Y-107566198D01*
X128452590Y-107536396D01*
X128170326Y-107419479D01*
X127916295Y-107249741D01*
X127700259Y-107033705D01*
X127530521Y-106779674D01*
X127413604Y-106497410D01*
X127354000Y-106197760D01*
X127354000Y-105892240D01*
X127413604Y-105592590D01*
X127530521Y-105310326D01*
X127700259Y-105056295D01*
X127916295Y-104840259D01*
X128170326Y-104670521D01*
X128452590Y-104553604D01*
X128602415Y-104523802D01*
X128752239Y-104494000D01*
X129057761Y-104494000D01*
X129207585Y-104523802D01*
X129207585Y-104523802D01*
G37*
G36*
X140616000Y-107596000D02*
G01*
X137514000Y-107596000D01*
X137514000Y-104494000D01*
X140616000Y-104494000D01*
X140616000Y-107596000D01*
X140616000Y-107596000D01*
G37*
G36*
X134287585Y-104523802D02*
G01*
X134437410Y-104553604D01*
X134719674Y-104670521D01*
X134973705Y-104840259D01*
X135189741Y-105056295D01*
X135359479Y-105310326D01*
X135476396Y-105592590D01*
X135536000Y-105892240D01*
X135536000Y-106197760D01*
X135476396Y-106497410D01*
X135359479Y-106779674D01*
X135189741Y-107033705D01*
X134973705Y-107249741D01*
X134719674Y-107419479D01*
X134437410Y-107536396D01*
X134287585Y-107566198D01*
X134137761Y-107596000D01*
X133832239Y-107596000D01*
X133682415Y-107566198D01*
X133532590Y-107536396D01*
X133250326Y-107419479D01*
X132996295Y-107249741D01*
X132780259Y-107033705D01*
X132610521Y-106779674D01*
X132493604Y-106497410D01*
X132434000Y-106197760D01*
X132434000Y-105892240D01*
X132493604Y-105592590D01*
X132610521Y-105310326D01*
X132780259Y-105056295D01*
X132996295Y-104840259D01*
X133250326Y-104670521D01*
X133532590Y-104553604D01*
X133682415Y-104523802D01*
X133832239Y-104494000D01*
X134137761Y-104494000D01*
X134287585Y-104523802D01*
X134287585Y-104523802D01*
G37*
G36*
X144447585Y-104523802D02*
G01*
X144597410Y-104553604D01*
X144879674Y-104670521D01*
X145133705Y-104840259D01*
X145349741Y-105056295D01*
X145519479Y-105310326D01*
X145636396Y-105592590D01*
X145696000Y-105892240D01*
X145696000Y-106197760D01*
X145636396Y-106497410D01*
X145519479Y-106779674D01*
X145349741Y-107033705D01*
X145133705Y-107249741D01*
X144879674Y-107419479D01*
X144597410Y-107536396D01*
X144447585Y-107566198D01*
X144297761Y-107596000D01*
X143992239Y-107596000D01*
X143842415Y-107566198D01*
X143692590Y-107536396D01*
X143410326Y-107419479D01*
X143156295Y-107249741D01*
X142940259Y-107033705D01*
X142770521Y-106779674D01*
X142653604Y-106497410D01*
X142594000Y-106197760D01*
X142594000Y-105892240D01*
X142653604Y-105592590D01*
X142770521Y-105310326D01*
X142940259Y-105056295D01*
X143156295Y-104840259D01*
X143410326Y-104670521D01*
X143692590Y-104553604D01*
X143842415Y-104523802D01*
X143992239Y-104494000D01*
X144297761Y-104494000D01*
X144447585Y-104523802D01*
X144447585Y-104523802D01*
G37*
G36*
X149527585Y-104523802D02*
G01*
X149677410Y-104553604D01*
X149959674Y-104670521D01*
X150213705Y-104840259D01*
X150429741Y-105056295D01*
X150599479Y-105310326D01*
X150716396Y-105592590D01*
X150776000Y-105892240D01*
X150776000Y-106197760D01*
X150716396Y-106497410D01*
X150599479Y-106779674D01*
X150429741Y-107033705D01*
X150213705Y-107249741D01*
X149959674Y-107419479D01*
X149677410Y-107536396D01*
X149527585Y-107566198D01*
X149377761Y-107596000D01*
X149072239Y-107596000D01*
X148922415Y-107566198D01*
X148772590Y-107536396D01*
X148490326Y-107419479D01*
X148236295Y-107249741D01*
X148020259Y-107033705D01*
X147850521Y-106779674D01*
X147733604Y-106497410D01*
X147674000Y-106197760D01*
X147674000Y-105892240D01*
X147733604Y-105592590D01*
X147850521Y-105310326D01*
X148020259Y-105056295D01*
X148236295Y-104840259D01*
X148490326Y-104670521D01*
X148772590Y-104553604D01*
X148922415Y-104523802D01*
X149072239Y-104494000D01*
X149377761Y-104494000D01*
X149527585Y-104523802D01*
X149527585Y-104523802D01*
G37*
G36*
X120407585Y-101683802D02*
G01*
X120557410Y-101713604D01*
X120839674Y-101830521D01*
X121093705Y-102000259D01*
X121309741Y-102216295D01*
X121479479Y-102470326D01*
X121596396Y-102752590D01*
X121656000Y-103052240D01*
X121656000Y-103357760D01*
X121596396Y-103657410D01*
X121479479Y-103939674D01*
X121309741Y-104193705D01*
X121093705Y-104409741D01*
X120839674Y-104579479D01*
X120557410Y-104696396D01*
X120407585Y-104726198D01*
X120257761Y-104756000D01*
X119952239Y-104756000D01*
X119802415Y-104726198D01*
X119652590Y-104696396D01*
X119370326Y-104579479D01*
X119116295Y-104409741D01*
X118900259Y-104193705D01*
X118730521Y-103939674D01*
X118613604Y-103657410D01*
X118554000Y-103357760D01*
X118554000Y-103052240D01*
X118613604Y-102752590D01*
X118730521Y-102470326D01*
X118900259Y-102216295D01*
X119116295Y-102000259D01*
X119370326Y-101830521D01*
X119652590Y-101713604D01*
X119802415Y-101683802D01*
X119952239Y-101654000D01*
X120257761Y-101654000D01*
X120407585Y-101683802D01*
X120407585Y-101683802D01*
G37*
G36*
X163407585Y-101683802D02*
G01*
X163557410Y-101713604D01*
X163839674Y-101830521D01*
X164093705Y-102000259D01*
X164309741Y-102216295D01*
X164479479Y-102470326D01*
X164596396Y-102752590D01*
X164656000Y-103052240D01*
X164656000Y-103357760D01*
X164596396Y-103657410D01*
X164479479Y-103939674D01*
X164309741Y-104193705D01*
X164093705Y-104409741D01*
X163839674Y-104579479D01*
X163557410Y-104696396D01*
X163407585Y-104726198D01*
X163257761Y-104756000D01*
X162952239Y-104756000D01*
X162802415Y-104726198D01*
X162652590Y-104696396D01*
X162370326Y-104579479D01*
X162116295Y-104409741D01*
X161900259Y-104193705D01*
X161730521Y-103939674D01*
X161613604Y-103657410D01*
X161554000Y-103357760D01*
X161554000Y-103052240D01*
X161613604Y-102752590D01*
X161730521Y-102470326D01*
X161900259Y-102216295D01*
X162116295Y-102000259D01*
X162370326Y-101830521D01*
X162652590Y-101713604D01*
X162802415Y-101683802D01*
X162952239Y-101654000D01*
X163257761Y-101654000D01*
X163407585Y-101683802D01*
X163407585Y-101683802D01*
G37*
M02*
