M48
; DRILL file {KiCad (5.1.4)-1} date 31-8-2019 15:58:14
; FORMAT={-:-/ absolute / metric / decimal}
; #@! TF.CreationDate,2019-08-31T15:58:14+02:00
; #@! TF.GenerationSoftware,Kicad,Pcbnew,(5.1.4)-1
FMAT,2
METRIC
T1C0.800
T2C1.100
T3C1.520
T4C3.000
%
G90
G05
T1
X127.635Y-112.395
X127.635Y-120.015
T2
X132.715Y-112.395
X132.715Y-120.015
X135.255Y-112.395
X135.255Y-120.015
X140.335Y-112.395
X140.335Y-120.015
X145.415Y-112.395
X145.415Y-120.015
X150.495Y-112.395
X150.495Y-120.015
T3
X128.905Y-106.045
X133.985Y-106.045
X139.065Y-106.045
X144.145Y-106.045
X149.225Y-106.045
X154.305Y-106.045
X128.905Y-126.365
X133.985Y-126.365
X139.065Y-126.365
X144.145Y-126.365
X149.225Y-126.365
X154.305Y-126.365
T4
X163.105Y-129.205
X120.105Y-103.205
X163.105Y-103.205
X120.105Y-129.205
T0
M30
