G04 #@! TF.GenerationSoftware,KiCad,Pcbnew,(5.1.4)-1*
G04 #@! TF.CreationDate,2019-08-31T15:58:00+02:00*
G04 #@! TF.ProjectId,SwitchRelay,53776974-6368-4526-956c-61792e6b6963,1.0*
G04 #@! TF.SameCoordinates,Original*
G04 #@! TF.FileFunction,Legend,Top*
G04 #@! TF.FilePolarity,Positive*
%FSLAX46Y46*%
G04 Gerber Fmt 4.6, Leading zero omitted, Abs format (unit mm)*
G04 Created by KiCad (PCBNEW (5.1.4)-1) date 2019-08-31 15:58:00*
%MOMM*%
%LPD*%
G04 APERTURE LIST*
%ADD10C,0.203200*%
%ADD11C,0.120000*%
%ADD12C,0.150000*%
%ADD13C,0.254000*%
%ADD14C,0.152400*%
G04 APERTURE END LIST*
D10*
X119606785Y-110408357D02*
X119552357Y-110353928D01*
X119497928Y-110190642D01*
X119497928Y-110081785D01*
X119552357Y-109918500D01*
X119661214Y-109809642D01*
X119770071Y-109755214D01*
X119987785Y-109700785D01*
X120151071Y-109700785D01*
X120368785Y-109755214D01*
X120477642Y-109809642D01*
X120586500Y-109918500D01*
X120640928Y-110081785D01*
X120640928Y-110190642D01*
X120586500Y-110353928D01*
X120532071Y-110408357D01*
X120259928Y-111388071D02*
X119497928Y-111388071D01*
X120259928Y-110898214D02*
X119661214Y-110898214D01*
X119552357Y-110952642D01*
X119497928Y-111061500D01*
X119497928Y-111224785D01*
X119552357Y-111333642D01*
X119606785Y-111388071D01*
X120259928Y-111769071D02*
X120259928Y-112204500D01*
X120640928Y-111932357D02*
X119661214Y-111932357D01*
X119552357Y-111986785D01*
X119497928Y-112095642D01*
X119497928Y-112204500D01*
X119497928Y-113456357D02*
X120259928Y-113456357D01*
X120640928Y-113456357D02*
X120586500Y-113401928D01*
X120532071Y-113456357D01*
X120586500Y-113510785D01*
X120640928Y-113456357D01*
X120532071Y-113456357D01*
X120259928Y-113837357D02*
X120259928Y-114272785D01*
X119497928Y-114000642D02*
X120477642Y-114000642D01*
X120586500Y-114055071D01*
X120640928Y-114163928D01*
X120640928Y-114272785D01*
X119497928Y-116177785D02*
X120042214Y-115796785D01*
X119497928Y-115524642D02*
X120640928Y-115524642D01*
X120640928Y-115960071D01*
X120586500Y-116068928D01*
X120532071Y-116123357D01*
X120423214Y-116177785D01*
X120259928Y-116177785D01*
X120151071Y-116123357D01*
X120096642Y-116068928D01*
X120042214Y-115960071D01*
X120042214Y-115524642D01*
X120259928Y-117538500D02*
X119116928Y-117538500D01*
X120205500Y-117538500D02*
X120259928Y-117647357D01*
X120259928Y-117865071D01*
X120205500Y-117973928D01*
X120151071Y-118028357D01*
X120042214Y-118082785D01*
X119715642Y-118082785D01*
X119606785Y-118028357D01*
X119552357Y-117973928D01*
X119497928Y-117865071D01*
X119497928Y-117647357D01*
X119552357Y-117538500D01*
X119497928Y-118735928D02*
X119552357Y-118627071D01*
X119661214Y-118572642D01*
X120640928Y-118572642D01*
X119497928Y-119661214D02*
X120096642Y-119661214D01*
X120205500Y-119606785D01*
X120259928Y-119497928D01*
X120259928Y-119280214D01*
X120205500Y-119171357D01*
X119552357Y-119661214D02*
X119497928Y-119552357D01*
X119497928Y-119280214D01*
X119552357Y-119171357D01*
X119661214Y-119116928D01*
X119770071Y-119116928D01*
X119878928Y-119171357D01*
X119933357Y-119280214D01*
X119933357Y-119552357D01*
X119987785Y-119661214D01*
X119552357Y-120695357D02*
X119497928Y-120586500D01*
X119497928Y-120368785D01*
X119552357Y-120259928D01*
X119606785Y-120205500D01*
X119715642Y-120151071D01*
X120042214Y-120151071D01*
X120151071Y-120205500D01*
X120205500Y-120259928D01*
X120259928Y-120368785D01*
X120259928Y-120586500D01*
X120205500Y-120695357D01*
X119552357Y-121620642D02*
X119497928Y-121511785D01*
X119497928Y-121294071D01*
X119552357Y-121185214D01*
X119661214Y-121130785D01*
X120096642Y-121130785D01*
X120205500Y-121185214D01*
X120259928Y-121294071D01*
X120259928Y-121511785D01*
X120205500Y-121620642D01*
X120096642Y-121675071D01*
X119987785Y-121675071D01*
X119878928Y-121130785D01*
X119497928Y-122654785D02*
X120640928Y-122654785D01*
X119552357Y-122654785D02*
X119497928Y-122545928D01*
X119497928Y-122328214D01*
X119552357Y-122219357D01*
X119606785Y-122164928D01*
X119715642Y-122110500D01*
X120042214Y-122110500D01*
X120151071Y-122164928D01*
X120205500Y-122219357D01*
X120259928Y-122328214D01*
X120259928Y-122545928D01*
X120205500Y-122654785D01*
D11*
X126365000Y-130175000D02*
X141605000Y-130175000D01*
X126365000Y-122555000D02*
X141605000Y-122555000D01*
X126365000Y-128905000D02*
X141605000Y-128905000D01*
X141605000Y-130175000D02*
X141605000Y-122555000D01*
X126365000Y-130175000D02*
X126365000Y-122555000D01*
X141605000Y-130175000D02*
X156845000Y-130175000D01*
X141605000Y-122555000D02*
X156845000Y-122555000D01*
X141605000Y-128905000D02*
X156845000Y-128905000D01*
X156845000Y-130175000D02*
X156845000Y-122555000D01*
X141605000Y-130175000D02*
X141605000Y-122555000D01*
X156845000Y-102235000D02*
X141605000Y-102235000D01*
X156845000Y-109855000D02*
X141605000Y-109855000D01*
X156845000Y-103505000D02*
X141605000Y-103505000D01*
X141605000Y-102235000D02*
X141605000Y-109855000D01*
X156845000Y-102235000D02*
X156845000Y-109855000D01*
X126925000Y-115946422D02*
X126925000Y-116463578D01*
X128345000Y-115946422D02*
X128345000Y-116463578D01*
X126265000Y-119475000D02*
X126595000Y-119475000D01*
X126265000Y-112935000D02*
X126265000Y-119475000D01*
X126595000Y-112935000D02*
X126265000Y-112935000D01*
X129005000Y-119475000D02*
X128675000Y-119475000D01*
X129005000Y-112935000D02*
X129005000Y-119475000D01*
X128675000Y-112935000D02*
X129005000Y-112935000D01*
D12*
X133985000Y-114935000D02*
X135890000Y-117475000D01*
X133985000Y-118110000D02*
X133985000Y-114935000D01*
X132080000Y-114935000D02*
X133985000Y-117475000D01*
X133985000Y-114300000D02*
X133985000Y-118110000D01*
X132080000Y-118110000D02*
X132080000Y-114300000D01*
X135890000Y-118110000D02*
X132080000Y-118110000D01*
X135890000Y-114300000D02*
X135890000Y-118110000D01*
X132080000Y-114300000D02*
X135890000Y-114300000D01*
D13*
X131445000Y-121285000D02*
X131445000Y-111125000D01*
X151765000Y-121285000D02*
X131445000Y-121285000D01*
X151765000Y-111125000D02*
X151765000Y-121285000D01*
X131445000Y-111125000D02*
X151765000Y-111125000D01*
D11*
X121555000Y-116905000D02*
X121555000Y-115505000D01*
X122255000Y-114805000D02*
X122855000Y-114805000D01*
X123555000Y-115505000D02*
X123555000Y-116905000D01*
X122855000Y-117605000D02*
X122255000Y-117605000D01*
X122255000Y-117605000D02*
G75*
G02X121555000Y-116905000I0J700000D01*
G01*
X123555000Y-116905000D02*
G75*
G02X122855000Y-117605000I-700000J0D01*
G01*
X122855000Y-114805000D02*
G75*
G02X123555000Y-115505000I0J-700000D01*
G01*
X121555000Y-115505000D02*
G75*
G02X122255000Y-114805000I700000J0D01*
G01*
X141605000Y-102235000D02*
X126365000Y-102235000D01*
X141605000Y-109855000D02*
X126365000Y-109855000D01*
X141605000Y-103505000D02*
X126365000Y-103505000D01*
X126365000Y-102235000D02*
X126365000Y-109855000D01*
X141605000Y-102235000D02*
X141605000Y-109855000D01*
D12*
X124761666Y-125817380D02*
X124761666Y-126531666D01*
X124714047Y-126674523D01*
X124618809Y-126769761D01*
X124475952Y-126817380D01*
X124380714Y-126817380D01*
X125761666Y-126817380D02*
X125190238Y-126817380D01*
X125475952Y-126817380D02*
X125475952Y-125817380D01*
X125380714Y-125960238D01*
X125285476Y-126055476D01*
X125190238Y-126103095D01*
D10*
X130828142Y-131962071D02*
X130828142Y-130819071D01*
X131100285Y-130819071D01*
X131263571Y-130873500D01*
X131372428Y-130982357D01*
X131426857Y-131091214D01*
X131481285Y-131308928D01*
X131481285Y-131472214D01*
X131426857Y-131689928D01*
X131372428Y-131798785D01*
X131263571Y-131907642D01*
X131100285Y-131962071D01*
X130828142Y-131962071D01*
X132406571Y-131907642D02*
X132297714Y-131962071D01*
X132080000Y-131962071D01*
X131971142Y-131907642D01*
X131916714Y-131798785D01*
X131916714Y-131363357D01*
X131971142Y-131254500D01*
X132080000Y-131200071D01*
X132297714Y-131200071D01*
X132406571Y-131254500D01*
X132461000Y-131363357D01*
X132461000Y-131472214D01*
X131916714Y-131581071D01*
X133440714Y-131907642D02*
X133331857Y-131962071D01*
X133114142Y-131962071D01*
X133005285Y-131907642D01*
X132950857Y-131853214D01*
X132896428Y-131744357D01*
X132896428Y-131417785D01*
X132950857Y-131308928D01*
X133005285Y-131254500D01*
X133114142Y-131200071D01*
X133331857Y-131200071D01*
X133440714Y-131254500D01*
X134093857Y-131962071D02*
X133985000Y-131907642D01*
X133930571Y-131853214D01*
X133876142Y-131744357D01*
X133876142Y-131417785D01*
X133930571Y-131308928D01*
X133985000Y-131254500D01*
X134093857Y-131200071D01*
X134257142Y-131200071D01*
X134366000Y-131254500D01*
X134420428Y-131308928D01*
X134474857Y-131417785D01*
X134474857Y-131744357D01*
X134420428Y-131853214D01*
X134366000Y-131907642D01*
X134257142Y-131962071D01*
X134093857Y-131962071D01*
X135454571Y-131962071D02*
X135454571Y-130819071D01*
X135454571Y-131907642D02*
X135345714Y-131962071D01*
X135128000Y-131962071D01*
X135019142Y-131907642D01*
X134964714Y-131853214D01*
X134910285Y-131744357D01*
X134910285Y-131417785D01*
X134964714Y-131308928D01*
X135019142Y-131254500D01*
X135128000Y-131200071D01*
X135345714Y-131200071D01*
X135454571Y-131254500D01*
X136434285Y-131907642D02*
X136325428Y-131962071D01*
X136107714Y-131962071D01*
X135998857Y-131907642D01*
X135944428Y-131798785D01*
X135944428Y-131363357D01*
X135998857Y-131254500D01*
X136107714Y-131200071D01*
X136325428Y-131200071D01*
X136434285Y-131254500D01*
X136488714Y-131363357D01*
X136488714Y-131472214D01*
X135944428Y-131581071D01*
X136978571Y-131962071D02*
X136978571Y-131200071D01*
X136978571Y-131417785D02*
X137033000Y-131308928D01*
X137087428Y-131254500D01*
X137196285Y-131200071D01*
X137305142Y-131200071D01*
D12*
X157781666Y-125817380D02*
X157781666Y-126531666D01*
X157734047Y-126674523D01*
X157638809Y-126769761D01*
X157495952Y-126817380D01*
X157400714Y-126817380D01*
X158210238Y-125912619D02*
X158257857Y-125865000D01*
X158353095Y-125817380D01*
X158591190Y-125817380D01*
X158686428Y-125865000D01*
X158734047Y-125912619D01*
X158781666Y-126007857D01*
X158781666Y-126103095D01*
X158734047Y-126245952D01*
X158162619Y-126817380D01*
X158781666Y-126817380D01*
D10*
X146694071Y-131907642D02*
X146857357Y-131962071D01*
X147129500Y-131962071D01*
X147238357Y-131907642D01*
X147292785Y-131853214D01*
X147347214Y-131744357D01*
X147347214Y-131635500D01*
X147292785Y-131526642D01*
X147238357Y-131472214D01*
X147129500Y-131417785D01*
X146911785Y-131363357D01*
X146802928Y-131308928D01*
X146748500Y-131254500D01*
X146694071Y-131145642D01*
X146694071Y-131036785D01*
X146748500Y-130927928D01*
X146802928Y-130873500D01*
X146911785Y-130819071D01*
X147183928Y-130819071D01*
X147347214Y-130873500D01*
X147728214Y-131200071D02*
X147945928Y-131962071D01*
X148163642Y-131417785D01*
X148381357Y-131962071D01*
X148599071Y-131200071D01*
X149034500Y-131962071D02*
X149034500Y-131200071D01*
X149034500Y-130819071D02*
X148980071Y-130873500D01*
X149034500Y-130927928D01*
X149088928Y-130873500D01*
X149034500Y-130819071D01*
X149034500Y-130927928D01*
X149415500Y-131200071D02*
X149850928Y-131200071D01*
X149578785Y-130819071D02*
X149578785Y-131798785D01*
X149633214Y-131907642D01*
X149742071Y-131962071D01*
X149850928Y-131962071D01*
X150721785Y-131907642D02*
X150612928Y-131962071D01*
X150395214Y-131962071D01*
X150286357Y-131907642D01*
X150231928Y-131853214D01*
X150177500Y-131744357D01*
X150177500Y-131417785D01*
X150231928Y-131308928D01*
X150286357Y-131254500D01*
X150395214Y-131200071D01*
X150612928Y-131200071D01*
X150721785Y-131254500D01*
X151211642Y-131962071D02*
X151211642Y-130819071D01*
X151701500Y-131962071D02*
X151701500Y-131363357D01*
X151647071Y-131254500D01*
X151538214Y-131200071D01*
X151374928Y-131200071D01*
X151266071Y-131254500D01*
X151211642Y-131308928D01*
D12*
X157781666Y-105497380D02*
X157781666Y-106211666D01*
X157734047Y-106354523D01*
X157638809Y-106449761D01*
X157495952Y-106497380D01*
X157400714Y-106497380D01*
X158686428Y-105830714D02*
X158686428Y-106497380D01*
X158448333Y-105449761D02*
X158210238Y-106164047D01*
X158829285Y-106164047D01*
D10*
X150640142Y-100774500D02*
X150095857Y-100774500D01*
X150749000Y-100447928D02*
X150368000Y-101590928D01*
X149987000Y-100447928D01*
X149606000Y-101590928D02*
X149606000Y-100665642D01*
X149551571Y-100556785D01*
X149497142Y-100502357D01*
X149388285Y-100447928D01*
X149170571Y-100447928D01*
X149061714Y-100502357D01*
X149007285Y-100556785D01*
X148952857Y-100665642D01*
X148952857Y-101590928D01*
X148517428Y-101590928D02*
X147755428Y-100447928D01*
X147755428Y-101590928D02*
X148517428Y-100447928D01*
D12*
X124642619Y-116514523D02*
X125118809Y-116181190D01*
X124642619Y-115943095D02*
X125642619Y-115943095D01*
X125642619Y-116324047D01*
X125595000Y-116419285D01*
X125547380Y-116466904D01*
X125452142Y-116514523D01*
X125309285Y-116514523D01*
X125214047Y-116466904D01*
X125166428Y-116419285D01*
X125118809Y-116324047D01*
X125118809Y-115943095D01*
X153487380Y-116943095D02*
X152487380Y-116943095D01*
X153487380Y-116371666D02*
X152915952Y-116800238D01*
X152487380Y-116371666D02*
X153058809Y-116943095D01*
X153487380Y-115419285D02*
X153487380Y-115990714D01*
X153487380Y-115705000D02*
X152487380Y-115705000D01*
X152630238Y-115800238D01*
X152725476Y-115895476D01*
X152773095Y-115990714D01*
X137700476Y-116657380D02*
X137700476Y-115657380D01*
X137700476Y-116133571D02*
X138271904Y-116133571D01*
X138271904Y-116657380D02*
X138271904Y-115657380D01*
X139081428Y-116133571D02*
X138748095Y-116133571D01*
X138748095Y-116657380D02*
X138748095Y-115657380D01*
X139224285Y-115657380D01*
X139605238Y-116657380D02*
X139605238Y-115657380D01*
X139843333Y-115657380D01*
X139986190Y-115705000D01*
X140081428Y-115800238D01*
X140129047Y-115895476D01*
X140176666Y-116085952D01*
X140176666Y-116228809D01*
X140129047Y-116419285D01*
X140081428Y-116514523D01*
X139986190Y-116609761D01*
X139843333Y-116657380D01*
X139605238Y-116657380D01*
X140557619Y-115752619D02*
X140605238Y-115705000D01*
X140700476Y-115657380D01*
X140938571Y-115657380D01*
X141033809Y-115705000D01*
X141081428Y-115752619D01*
X141129047Y-115847857D01*
X141129047Y-115943095D01*
X141081428Y-116085952D01*
X140510000Y-116657380D01*
X141129047Y-116657380D01*
X141319523Y-116752619D02*
X142081428Y-116752619D01*
X142224285Y-116657380D02*
X142748095Y-115990714D01*
X142224285Y-115990714D02*
X142748095Y-116657380D01*
X143033809Y-116657380D02*
X143557619Y-115990714D01*
X143033809Y-115990714D02*
X143557619Y-116657380D01*
X143843333Y-116657380D02*
X144367142Y-115990714D01*
X143843333Y-115990714D02*
X144367142Y-116657380D01*
X144748095Y-116276428D02*
X145510000Y-116276428D01*
X145890952Y-116657380D02*
X146414761Y-115990714D01*
X145890952Y-115990714D02*
X146414761Y-116657380D01*
X146795714Y-116276428D02*
X147557619Y-116276428D01*
X148510000Y-116657380D02*
X148033809Y-116657380D01*
X148033809Y-115657380D01*
X148795714Y-115752619D02*
X148843333Y-115705000D01*
X148938571Y-115657380D01*
X149176666Y-115657380D01*
X149271904Y-115705000D01*
X149319523Y-115752619D01*
X149367142Y-115847857D01*
X149367142Y-115943095D01*
X149319523Y-116085952D01*
X148748095Y-116657380D01*
X149367142Y-116657380D01*
D14*
X133694714Y-113719428D02*
X134275285Y-113719428D01*
X133985000Y-114009714D02*
X133985000Y-113429142D01*
D12*
X124761666Y-105497380D02*
X124761666Y-106211666D01*
X124714047Y-106354523D01*
X124618809Y-106449761D01*
X124475952Y-106497380D01*
X124380714Y-106497380D01*
X125142619Y-105497380D02*
X125761666Y-105497380D01*
X125428333Y-105878333D01*
X125571190Y-105878333D01*
X125666428Y-105925952D01*
X125714047Y-105973571D01*
X125761666Y-106068809D01*
X125761666Y-106306904D01*
X125714047Y-106402142D01*
X125666428Y-106449761D01*
X125571190Y-106497380D01*
X125285476Y-106497380D01*
X125190238Y-106449761D01*
X125142619Y-106402142D01*
D10*
X135917214Y-100447928D02*
X135917214Y-101590928D01*
X135481785Y-101590928D01*
X135372928Y-101536500D01*
X135318500Y-101482071D01*
X135264071Y-101373214D01*
X135264071Y-101209928D01*
X135318500Y-101101071D01*
X135372928Y-101046642D01*
X135481785Y-100992214D01*
X135917214Y-100992214D01*
X134610928Y-100447928D02*
X134719785Y-100502357D01*
X134774214Y-100556785D01*
X134828642Y-100665642D01*
X134828642Y-100992214D01*
X134774214Y-101101071D01*
X134719785Y-101155500D01*
X134610928Y-101209928D01*
X134447642Y-101209928D01*
X134338785Y-101155500D01*
X134284357Y-101101071D01*
X134229928Y-100992214D01*
X134229928Y-100665642D01*
X134284357Y-100556785D01*
X134338785Y-100502357D01*
X134447642Y-100447928D01*
X134610928Y-100447928D01*
X133740071Y-100447928D02*
X133740071Y-101209928D01*
X133740071Y-101590928D02*
X133794500Y-101536500D01*
X133740071Y-101482071D01*
X133685642Y-101536500D01*
X133740071Y-101590928D01*
X133740071Y-101482071D01*
X133195785Y-101209928D02*
X133195785Y-100447928D01*
X133195785Y-101101071D02*
X133141357Y-101155500D01*
X133032500Y-101209928D01*
X132869214Y-101209928D01*
X132760357Y-101155500D01*
X132705928Y-101046642D01*
X132705928Y-100447928D01*
X132324928Y-101209928D02*
X131889500Y-101209928D01*
X132161642Y-101590928D02*
X132161642Y-100611214D01*
X132107214Y-100502357D01*
X131998357Y-100447928D01*
X131889500Y-100447928D01*
M02*
