G04 #@! TF.GenerationSoftware,KiCad,Pcbnew,(5.1.4)-1*
G04 #@! TF.CreationDate,2019-09-09T12:01:52+02:00*
G04 #@! TF.ProjectId,SwitchRelay,53776974-6368-4526-956c-61792e6b6963,1.0*
G04 #@! TF.SameCoordinates,Original*
G04 #@! TF.FileFunction,Copper,L2,Bot*
G04 #@! TF.FilePolarity,Positive*
%FSLAX46Y46*%
G04 Gerber Fmt 4.6, Leading zero omitted, Abs format (unit mm)*
G04 Created by KiCad (PCBNEW (5.1.4)-1) date 2019-09-09 12:01:52*
%MOMM*%
%LPD*%
G04 APERTURE LIST*
%ADD10C,0.254000*%
%ADD11C,0.203200*%
%ADD12C,3.000000*%
%ADD13R,3.000000X3.000000*%
%ADD14C,2.200000*%
%ADD15R,2.200000X2.200000*%
%ADD16O,1.600000X1.600000*%
%ADD17C,1.600000*%
%ADD18C,1.016000*%
G04 APERTURE END LIST*
D10*
X120048261Y-107163809D02*
X120126880Y-107399666D01*
X120126880Y-107792761D01*
X120048261Y-107950000D01*
X119969642Y-108028619D01*
X119812404Y-108107238D01*
X119655166Y-108107238D01*
X119497928Y-108028619D01*
X119419309Y-107950000D01*
X119340690Y-107792761D01*
X119262071Y-107478285D01*
X119183452Y-107321047D01*
X119104833Y-107242428D01*
X118947595Y-107163809D01*
X118790357Y-107163809D01*
X118633119Y-107242428D01*
X118554500Y-107321047D01*
X118475880Y-107478285D01*
X118475880Y-107871380D01*
X118554500Y-108107238D01*
X119026214Y-108657571D02*
X120126880Y-108972047D01*
X119340690Y-109286523D01*
X120126880Y-109601000D01*
X119026214Y-109915476D01*
X120126880Y-110544428D02*
X119026214Y-110544428D01*
X118475880Y-110544428D02*
X118554500Y-110465809D01*
X118633119Y-110544428D01*
X118554500Y-110623047D01*
X118475880Y-110544428D01*
X118633119Y-110544428D01*
X119026214Y-111094761D02*
X119026214Y-111723714D01*
X118475880Y-111330619D02*
X119891023Y-111330619D01*
X120048261Y-111409238D01*
X120126880Y-111566476D01*
X120126880Y-111723714D01*
X120048261Y-112981619D02*
X120126880Y-112824380D01*
X120126880Y-112509904D01*
X120048261Y-112352666D01*
X119969642Y-112274047D01*
X119812404Y-112195428D01*
X119340690Y-112195428D01*
X119183452Y-112274047D01*
X119104833Y-112352666D01*
X119026214Y-112509904D01*
X119026214Y-112824380D01*
X119104833Y-112981619D01*
X120126880Y-113689190D02*
X118475880Y-113689190D01*
X120126880Y-114396761D02*
X119262071Y-114396761D01*
X119104833Y-114318142D01*
X119026214Y-114160904D01*
X119026214Y-113925047D01*
X119104833Y-113767809D01*
X119183452Y-113689190D01*
X120126880Y-116126380D02*
X119340690Y-115576047D01*
X120126880Y-115182952D02*
X118475880Y-115182952D01*
X118475880Y-115811904D01*
X118554500Y-115969142D01*
X118633119Y-116047761D01*
X118790357Y-116126380D01*
X119026214Y-116126380D01*
X119183452Y-116047761D01*
X119262071Y-115969142D01*
X119340690Y-115811904D01*
X119340690Y-115182952D01*
X120048261Y-117462904D02*
X120126880Y-117305666D01*
X120126880Y-116991190D01*
X120048261Y-116833952D01*
X119891023Y-116755333D01*
X119262071Y-116755333D01*
X119104833Y-116833952D01*
X119026214Y-116991190D01*
X119026214Y-117305666D01*
X119104833Y-117462904D01*
X119262071Y-117541523D01*
X119419309Y-117541523D01*
X119576547Y-116755333D01*
X120126880Y-118484952D02*
X120048261Y-118327714D01*
X119891023Y-118249095D01*
X118475880Y-118249095D01*
X120126880Y-119821476D02*
X119262071Y-119821476D01*
X119104833Y-119742857D01*
X119026214Y-119585619D01*
X119026214Y-119271142D01*
X119104833Y-119113904D01*
X120048261Y-119821476D02*
X120126880Y-119664238D01*
X120126880Y-119271142D01*
X120048261Y-119113904D01*
X119891023Y-119035285D01*
X119733785Y-119035285D01*
X119576547Y-119113904D01*
X119497928Y-119271142D01*
X119497928Y-119664238D01*
X119419309Y-119821476D01*
X119026214Y-120450428D02*
X120126880Y-120843523D01*
X119026214Y-121236619D02*
X120126880Y-120843523D01*
X120519976Y-120686285D01*
X120598595Y-120607666D01*
X120677214Y-120450428D01*
X119026214Y-122966238D02*
X120126880Y-123359333D01*
X119026214Y-123752428D01*
X118633119Y-124302761D02*
X118554500Y-124381380D01*
X118475880Y-124538619D01*
X118475880Y-124931714D01*
X118554500Y-125088952D01*
X118633119Y-125167571D01*
X118790357Y-125246190D01*
X118947595Y-125246190D01*
X119183452Y-125167571D01*
X120126880Y-124224142D01*
X120126880Y-125246190D01*
D11*
X122966238Y-110471857D02*
X123014619Y-110617000D01*
X123014619Y-110858904D01*
X122966238Y-110955666D01*
X122917857Y-111004047D01*
X122821095Y-111052428D01*
X122724333Y-111052428D01*
X122627571Y-111004047D01*
X122579190Y-110955666D01*
X122530809Y-110858904D01*
X122482428Y-110665380D01*
X122434047Y-110568619D01*
X122385666Y-110520238D01*
X122288904Y-110471857D01*
X122192142Y-110471857D01*
X122095380Y-110520238D01*
X122047000Y-110568619D01*
X121998619Y-110665380D01*
X121998619Y-110907285D01*
X122047000Y-111052428D01*
X122966238Y-111874904D02*
X123014619Y-111778142D01*
X123014619Y-111584619D01*
X122966238Y-111487857D01*
X122869476Y-111439476D01*
X122482428Y-111439476D01*
X122385666Y-111487857D01*
X122337285Y-111584619D01*
X122337285Y-111778142D01*
X122385666Y-111874904D01*
X122482428Y-111923285D01*
X122579190Y-111923285D01*
X122675952Y-111439476D01*
X122337285Y-112358714D02*
X123353285Y-112358714D01*
X122385666Y-112358714D02*
X122337285Y-112455476D01*
X122337285Y-112649000D01*
X122385666Y-112745761D01*
X122434047Y-112794142D01*
X122530809Y-112842523D01*
X122821095Y-112842523D01*
X122917857Y-112794142D01*
X122966238Y-112745761D01*
X123014619Y-112649000D01*
X123014619Y-112455476D01*
X122966238Y-112358714D01*
X122337285Y-113132809D02*
X122337285Y-113519857D01*
X121998619Y-113277952D02*
X122869476Y-113277952D01*
X122966238Y-113326333D01*
X123014619Y-113423095D01*
X123014619Y-113519857D01*
X123014619Y-113858523D02*
X122337285Y-113858523D01*
X121998619Y-113858523D02*
X122047000Y-113810142D01*
X122095380Y-113858523D01*
X122047000Y-113906904D01*
X121998619Y-113858523D01*
X122095380Y-113858523D01*
X123014619Y-114487476D02*
X122966238Y-114390714D01*
X122869476Y-114342333D01*
X121998619Y-114342333D01*
X123014619Y-115019666D02*
X122966238Y-114922904D01*
X122869476Y-114874523D01*
X121998619Y-114874523D01*
X123014619Y-115406714D02*
X122337285Y-115406714D01*
X121998619Y-115406714D02*
X122047000Y-115358333D01*
X122095380Y-115406714D01*
X122047000Y-115455095D01*
X121998619Y-115406714D01*
X122095380Y-115406714D01*
X123014619Y-116035666D02*
X122966238Y-115938904D01*
X122917857Y-115890523D01*
X122821095Y-115842142D01*
X122530809Y-115842142D01*
X122434047Y-115890523D01*
X122385666Y-115938904D01*
X122337285Y-116035666D01*
X122337285Y-116180809D01*
X122385666Y-116277571D01*
X122434047Y-116325952D01*
X122530809Y-116374333D01*
X122821095Y-116374333D01*
X122917857Y-116325952D01*
X122966238Y-116277571D01*
X123014619Y-116180809D01*
X123014619Y-116035666D01*
X122337285Y-116809761D02*
X123014619Y-116809761D01*
X122434047Y-116809761D02*
X122385666Y-116858142D01*
X122337285Y-116954904D01*
X122337285Y-117100047D01*
X122385666Y-117196809D01*
X122482428Y-117245190D01*
X123014619Y-117245190D01*
X122095380Y-118454714D02*
X122047000Y-118503095D01*
X121998619Y-118599857D01*
X121998619Y-118841761D01*
X122047000Y-118938523D01*
X122095380Y-118986904D01*
X122192142Y-119035285D01*
X122288904Y-119035285D01*
X122434047Y-118986904D01*
X123014619Y-118406333D01*
X123014619Y-119035285D01*
X121998619Y-119664238D02*
X121998619Y-119761000D01*
X122047000Y-119857761D01*
X122095380Y-119906142D01*
X122192142Y-119954523D01*
X122385666Y-120002904D01*
X122627571Y-120002904D01*
X122821095Y-119954523D01*
X122917857Y-119906142D01*
X122966238Y-119857761D01*
X123014619Y-119761000D01*
X123014619Y-119664238D01*
X122966238Y-119567476D01*
X122917857Y-119519095D01*
X122821095Y-119470714D01*
X122627571Y-119422333D01*
X122385666Y-119422333D01*
X122192142Y-119470714D01*
X122095380Y-119519095D01*
X122047000Y-119567476D01*
X121998619Y-119664238D01*
X123014619Y-120970523D02*
X123014619Y-120389952D01*
X123014619Y-120680238D02*
X121998619Y-120680238D01*
X122143761Y-120583476D01*
X122240523Y-120486714D01*
X122288904Y-120389952D01*
X123014619Y-121454333D02*
X123014619Y-121647857D01*
X122966238Y-121744619D01*
X122917857Y-121793000D01*
X122772714Y-121889761D01*
X122579190Y-121938142D01*
X122192142Y-121938142D01*
X122095380Y-121889761D01*
X122047000Y-121841380D01*
X121998619Y-121744619D01*
X121998619Y-121551095D01*
X122047000Y-121454333D01*
X122095380Y-121405952D01*
X122192142Y-121357571D01*
X122434047Y-121357571D01*
X122530809Y-121405952D01*
X122579190Y-121454333D01*
X122627571Y-121551095D01*
X122627571Y-121744619D01*
X122579190Y-121841380D01*
X122530809Y-121889761D01*
X122434047Y-121938142D01*
D12*
X139065000Y-127000000D03*
X133985000Y-127000000D03*
D13*
X128905000Y-127000000D03*
D14*
X130175000Y-116205000D03*
X130175000Y-120015000D03*
X145415000Y-120015000D03*
X150495000Y-120015000D03*
X155575000Y-120015000D03*
X155575000Y-112395000D03*
X150495000Y-112395000D03*
X145415000Y-112395000D03*
D15*
X130175000Y-112395000D03*
D12*
X128905000Y-105410000D03*
X133985000Y-105410000D03*
D13*
X139065000Y-105410000D03*
D16*
X125135000Y-120015000D03*
D17*
X125135000Y-112395000D03*
D12*
X154305000Y-127000000D03*
X149225000Y-127000000D03*
D13*
X144145000Y-127000000D03*
D18*
X132080000Y-120015000D02*
X139065000Y-127000000D01*
X130175000Y-120015000D02*
X132080000Y-120015000D01*
X139065000Y-107926000D02*
X139065000Y-105410000D01*
X134596000Y-112395000D02*
X139065000Y-107926000D01*
X130175000Y-112395000D02*
X134596000Y-112395000D01*
X127508000Y-115062000D02*
X130175000Y-112395000D01*
X127508000Y-123087000D02*
X127508000Y-115062000D01*
X128905000Y-127000000D02*
X128905000Y-124484000D01*
X128905000Y-124484000D02*
X127508000Y-123087000D01*
X154305000Y-121285000D02*
X155575000Y-120015000D01*
X154305000Y-127000000D02*
X154305000Y-121285000D01*
X155575000Y-120015000D02*
X155575000Y-112395000D01*
X149225000Y-121285000D02*
X150495000Y-120015000D01*
X149225000Y-127000000D02*
X149225000Y-121285000D01*
X150495000Y-120015000D02*
X150495000Y-112395000D01*
X145415000Y-112395000D02*
X145415000Y-120015000D01*
X144145000Y-121285000D02*
X145415000Y-120015000D01*
X144145000Y-127000000D02*
X144145000Y-121285000D01*
M02*
