G04 #@! TF.GenerationSoftware,KiCad,Pcbnew,(5.1.4)-1*
G04 #@! TF.CreationDate,2019-09-09T12:01:52+02:00*
G04 #@! TF.ProjectId,SwitchRelay,53776974-6368-4526-956c-61792e6b6963,1.0*
G04 #@! TF.SameCoordinates,Original*
G04 #@! TF.FileFunction,Copper,L1,Top*
G04 #@! TF.FilePolarity,Positive*
%FSLAX46Y46*%
G04 Gerber Fmt 4.6, Leading zero omitted, Abs format (unit mm)*
G04 Created by KiCad (PCBNEW (5.1.4)-1) date 2019-09-09 12:01:52*
%MOMM*%
%LPD*%
G04 APERTURE LIST*
%ADD10C,0.150000*%
%ADD11C,0.010000*%
%ADD12C,0.100000*%
%ADD13C,3.000000*%
%ADD14R,3.000000X3.000000*%
%ADD15C,2.200000*%
%ADD16R,2.200000X2.200000*%
%ADD17C,0.975000*%
%ADD18O,1.600000X1.600000*%
%ADD19C,1.600000*%
%ADD20C,0.500000*%
%ADD21C,1.016000*%
%ADD22C,0.250000*%
G04 APERTURE END LIST*
D10*
X128833571Y-100782428D02*
X128690714Y-100734809D01*
X128643095Y-100687190D01*
X128595476Y-100591952D01*
X128595476Y-100449095D01*
X128643095Y-100353857D01*
X128690714Y-100306238D01*
X128785952Y-100258619D01*
X129166904Y-100258619D01*
X129166904Y-101258619D01*
X128833571Y-101258619D01*
X128738333Y-101211000D01*
X128690714Y-101163380D01*
X128643095Y-101068142D01*
X128643095Y-100972904D01*
X128690714Y-100877666D01*
X128738333Y-100830047D01*
X128833571Y-100782428D01*
X129166904Y-100782428D01*
X139303095Y-100544333D02*
X138826904Y-100544333D01*
X139398333Y-100258619D02*
X139065000Y-101258619D01*
X138731666Y-100258619D01*
X154376428Y-131754571D02*
X154519285Y-131802190D01*
X154566904Y-131849809D01*
X154614523Y-131945047D01*
X154614523Y-132087904D01*
X154566904Y-132183142D01*
X154519285Y-132230761D01*
X154424047Y-132278380D01*
X154043095Y-132278380D01*
X154043095Y-131278380D01*
X154376428Y-131278380D01*
X154471666Y-131326000D01*
X154519285Y-131373619D01*
X154566904Y-131468857D01*
X154566904Y-131564095D01*
X154519285Y-131659333D01*
X154471666Y-131706952D01*
X154376428Y-131754571D01*
X154043095Y-131754571D01*
X143906904Y-131992666D02*
X144383095Y-131992666D01*
X143811666Y-132278380D02*
X144145000Y-131278380D01*
X144478333Y-132278380D01*
X139136428Y-131627571D02*
X139279285Y-131675190D01*
X139326904Y-131722809D01*
X139374523Y-131818047D01*
X139374523Y-131960904D01*
X139326904Y-132056142D01*
X139279285Y-132103761D01*
X139184047Y-132151380D01*
X138803095Y-132151380D01*
X138803095Y-131151380D01*
X139136428Y-131151380D01*
X139231666Y-131199000D01*
X139279285Y-131246619D01*
X139326904Y-131341857D01*
X139326904Y-131437095D01*
X139279285Y-131532333D01*
X139231666Y-131579952D01*
X139136428Y-131627571D01*
X138803095Y-131627571D01*
X128666904Y-131865666D02*
X129143095Y-131865666D01*
X128571666Y-132151380D02*
X128905000Y-131151380D01*
X129238333Y-132151380D01*
D11*
G36*
X157892776Y-116065122D02*
G01*
X157893355Y-115959388D01*
X157894922Y-115882868D01*
X157897972Y-115830628D01*
X157902996Y-115797737D01*
X157910489Y-115779263D01*
X157920944Y-115770273D01*
X157934853Y-115765837D01*
X157936654Y-115765406D01*
X157969145Y-115758667D01*
X158033252Y-115746192D01*
X158122151Y-115729281D01*
X158229019Y-115709229D01*
X158347033Y-115687336D01*
X158351178Y-115686571D01*
X158466831Y-115664641D01*
X158569014Y-115644123D01*
X158651598Y-115626341D01*
X158708456Y-115612619D01*
X158733458Y-115604282D01*
X158733901Y-115603884D01*
X158746110Y-115579323D01*
X158766456Y-115528685D01*
X158790545Y-115462905D01*
X158790674Y-115462539D01*
X158821818Y-115379683D01*
X158861491Y-115282000D01*
X158901381Y-115189923D01*
X158903353Y-115185566D01*
X158971420Y-115035593D01*
X158744639Y-114703502D01*
X158675504Y-114601626D01*
X158613697Y-114509343D01*
X158562733Y-114431997D01*
X158526127Y-114374936D01*
X158507394Y-114343505D01*
X158506004Y-114340521D01*
X158512190Y-114317679D01*
X158542035Y-114275018D01*
X158596947Y-114210872D01*
X158678334Y-114123579D01*
X158764922Y-114034465D01*
X158850247Y-113948559D01*
X158928108Y-113871673D01*
X158993697Y-113808436D01*
X159042205Y-113763477D01*
X159068825Y-113741424D01*
X159070195Y-113740604D01*
X159088463Y-113738166D01*
X159118295Y-113747350D01*
X159163721Y-113770426D01*
X159228770Y-113809663D01*
X159317470Y-113867330D01*
X159431657Y-113944205D01*
X159532162Y-114012430D01*
X159622303Y-114073418D01*
X159696849Y-114123644D01*
X159750565Y-114159584D01*
X159778218Y-114177713D01*
X159780095Y-114178854D01*
X159806590Y-114176641D01*
X159858086Y-114159862D01*
X159924851Y-114131858D01*
X159946172Y-114121878D01*
X160041159Y-114078328D01*
X160148937Y-114031866D01*
X160242192Y-113994123D01*
X160311406Y-113966927D01*
X160364006Y-113945325D01*
X160391497Y-113932842D01*
X160393616Y-113931291D01*
X160397124Y-113908332D01*
X160406738Y-113854214D01*
X160421089Y-113776132D01*
X160438807Y-113681281D01*
X160458525Y-113576857D01*
X160478874Y-113470056D01*
X160498486Y-113368074D01*
X160515991Y-113278106D01*
X160530022Y-113207347D01*
X160539209Y-113162994D01*
X160541807Y-113152115D01*
X160548218Y-113140878D01*
X160562697Y-113132395D01*
X160590133Y-113126286D01*
X160635411Y-113122168D01*
X160703420Y-113119659D01*
X160799047Y-113118379D01*
X160927180Y-113117946D01*
X160979701Y-113117923D01*
X161406845Y-113117923D01*
X161427091Y-113220500D01*
X161438070Y-113277569D01*
X161454095Y-113362731D01*
X161473233Y-113465628D01*
X161493551Y-113575904D01*
X161499132Y-113606385D01*
X161518917Y-113708145D01*
X161538373Y-113796795D01*
X161555697Y-113864892D01*
X161569088Y-113904996D01*
X161573079Y-113911677D01*
X161601342Y-113928081D01*
X161656109Y-113951601D01*
X161726588Y-113977684D01*
X161741769Y-113982858D01*
X161835896Y-114017044D01*
X161942101Y-114059477D01*
X162037473Y-114101003D01*
X162037916Y-114101208D01*
X162187525Y-114170360D01*
X162856617Y-113715488D01*
X163149116Y-114007500D01*
X163236170Y-114095820D01*
X163312909Y-114176375D01*
X163375237Y-114244640D01*
X163419056Y-114296092D01*
X163440270Y-114326206D01*
X163441616Y-114330526D01*
X163431016Y-114355889D01*
X163401547Y-114407642D01*
X163356705Y-114480132D01*
X163299984Y-114567706D01*
X163236462Y-114662388D01*
X163171668Y-114758484D01*
X163115287Y-114844163D01*
X163070788Y-114913984D01*
X163041639Y-114962506D01*
X163031308Y-114984218D01*
X163040050Y-115010707D01*
X163063087Y-115060938D01*
X163095631Y-115124549D01*
X163099249Y-115131292D01*
X163142210Y-115216954D01*
X163163279Y-115275694D01*
X163163503Y-115312228D01*
X163143928Y-115331269D01*
X163143654Y-115331380D01*
X163120472Y-115340898D01*
X163065441Y-115363597D01*
X162982822Y-115397718D01*
X162876872Y-115441500D01*
X162751852Y-115493184D01*
X162612020Y-115551008D01*
X162476637Y-115607009D01*
X162327234Y-115668553D01*
X162188832Y-115725061D01*
X162065673Y-115774839D01*
X161962002Y-115816194D01*
X161882059Y-115847432D01*
X161830088Y-115866859D01*
X161810692Y-115872846D01*
X161788443Y-115857832D01*
X161752982Y-115818561D01*
X161713887Y-115766193D01*
X161590245Y-115617059D01*
X161448522Y-115500489D01*
X161291704Y-115417882D01*
X161122775Y-115370634D01*
X160944722Y-115360143D01*
X160862539Y-115367769D01*
X160692031Y-115409318D01*
X160541459Y-115480877D01*
X160412309Y-115578005D01*
X160306064Y-115696266D01*
X160224210Y-115831220D01*
X160168232Y-115978429D01*
X160139615Y-116133456D01*
X160139844Y-116291861D01*
X160170405Y-116449206D01*
X160232782Y-116601054D01*
X160328460Y-116742965D01*
X160382572Y-116802197D01*
X160521520Y-116915797D01*
X160673361Y-116994894D01*
X160833667Y-117040014D01*
X160998012Y-117051684D01*
X161161971Y-117030431D01*
X161321118Y-116976780D01*
X161471025Y-116891260D01*
X161607267Y-116774395D01*
X161713887Y-116643807D01*
X161754642Y-116589412D01*
X161789718Y-116550986D01*
X161810726Y-116537154D01*
X161833635Y-116544397D01*
X161888365Y-116564995D01*
X161970672Y-116597254D01*
X162076315Y-116639479D01*
X162201050Y-116689977D01*
X162340636Y-116747052D01*
X162476670Y-116803146D01*
X162626201Y-116865033D01*
X162764767Y-116922356D01*
X162888107Y-116973356D01*
X162991964Y-117016273D01*
X163072080Y-117049347D01*
X163124195Y-117070819D01*
X163143654Y-117078775D01*
X163163423Y-117097571D01*
X163163365Y-117133926D01*
X163142441Y-117192521D01*
X163099613Y-117278032D01*
X163099249Y-117278708D01*
X163066012Y-117343093D01*
X163041802Y-117395139D01*
X163031404Y-117424488D01*
X163031308Y-117425783D01*
X163041855Y-117447876D01*
X163071184Y-117496652D01*
X163115827Y-117566669D01*
X163172314Y-117652486D01*
X163236462Y-117747612D01*
X163301411Y-117844460D01*
X163357896Y-117931747D01*
X163402421Y-118003819D01*
X163431490Y-118055023D01*
X163441616Y-118079474D01*
X163428307Y-118101990D01*
X163391112Y-118147258D01*
X163334128Y-118210756D01*
X163261449Y-118287961D01*
X163177171Y-118374349D01*
X163149016Y-118402601D01*
X162856416Y-118694713D01*
X162530104Y-118472369D01*
X162429897Y-118404798D01*
X162339963Y-118345493D01*
X162265510Y-118297783D01*
X162211751Y-118264993D01*
X162183894Y-118250452D01*
X162181912Y-118250026D01*
X162155655Y-118257692D01*
X162102837Y-118278311D01*
X162032310Y-118308315D01*
X161985093Y-118329375D01*
X161894694Y-118368752D01*
X161803366Y-118405835D01*
X161726200Y-118434585D01*
X161702692Y-118442395D01*
X161639916Y-118464583D01*
X161591411Y-118486273D01*
X161573079Y-118498187D01*
X161561859Y-118524477D01*
X161545954Y-118581858D01*
X161527167Y-118662882D01*
X161507299Y-118760105D01*
X161499132Y-118803615D01*
X161478829Y-118914104D01*
X161459170Y-119020084D01*
X161442088Y-119111199D01*
X161429518Y-119177092D01*
X161427091Y-119189500D01*
X161406845Y-119292077D01*
X160979701Y-119292077D01*
X160839246Y-119291847D01*
X160732979Y-119290901D01*
X160656013Y-119288859D01*
X160603460Y-119285338D01*
X160570433Y-119279957D01*
X160552045Y-119272334D01*
X160543408Y-119262088D01*
X160541807Y-119257885D01*
X160536127Y-119232530D01*
X160524795Y-119176516D01*
X160509179Y-119097036D01*
X160490647Y-119001288D01*
X160470569Y-118896467D01*
X160450312Y-118789768D01*
X160431246Y-118688387D01*
X160414739Y-118599521D01*
X160402159Y-118530363D01*
X160394875Y-118488111D01*
X160393616Y-118478710D01*
X160376763Y-118470193D01*
X160331870Y-118451340D01*
X160267430Y-118425676D01*
X160242192Y-118415877D01*
X160144686Y-118376352D01*
X160036959Y-118329808D01*
X159946172Y-118288123D01*
X159876753Y-118257450D01*
X159819710Y-118237044D01*
X159784777Y-118230232D01*
X159780095Y-118231318D01*
X159757991Y-118245715D01*
X159708831Y-118278588D01*
X159637848Y-118326410D01*
X159550278Y-118385652D01*
X159451357Y-118452785D01*
X159431830Y-118466059D01*
X159316140Y-118543954D01*
X159228044Y-118601213D01*
X159163486Y-118640119D01*
X159118411Y-118662956D01*
X159088763Y-118672006D01*
X159070485Y-118669552D01*
X159070369Y-118669489D01*
X159046361Y-118650173D01*
X158999947Y-118607449D01*
X158935937Y-118545949D01*
X158859145Y-118470302D01*
X158774382Y-118385139D01*
X158764922Y-118375535D01*
X158660989Y-118268210D01*
X158584675Y-118185385D01*
X158534571Y-118125395D01*
X158509270Y-118086577D01*
X158506004Y-118069480D01*
X158520250Y-118044527D01*
X158553156Y-117992745D01*
X158601208Y-117919480D01*
X158660890Y-117830080D01*
X158728688Y-117729889D01*
X158744639Y-117706499D01*
X158971420Y-117374407D01*
X158903353Y-117224435D01*
X158863685Y-117133230D01*
X158823791Y-117035331D01*
X158791983Y-116951169D01*
X158790674Y-116947462D01*
X158766576Y-116881631D01*
X158746200Y-116830884D01*
X158733936Y-116806158D01*
X158733901Y-116806116D01*
X158711734Y-116798271D01*
X158657217Y-116784934D01*
X158576480Y-116767430D01*
X158475650Y-116747083D01*
X158360856Y-116725218D01*
X158351178Y-116723429D01*
X158232904Y-116701496D01*
X158125542Y-116681360D01*
X158035917Y-116664320D01*
X157970851Y-116651672D01*
X157937168Y-116644716D01*
X157936654Y-116644594D01*
X157922325Y-116640361D01*
X157911507Y-116632129D01*
X157903706Y-116614967D01*
X157898429Y-116583942D01*
X157895182Y-116534122D01*
X157893472Y-116460576D01*
X157892807Y-116358371D01*
X157892693Y-116222575D01*
X157892692Y-116205000D01*
X157892776Y-116065122D01*
X157892776Y-116065122D01*
G37*
X157892776Y-116065122D02*
X157893355Y-115959388D01*
X157894922Y-115882868D01*
X157897972Y-115830628D01*
X157902996Y-115797737D01*
X157910489Y-115779263D01*
X157920944Y-115770273D01*
X157934853Y-115765837D01*
X157936654Y-115765406D01*
X157969145Y-115758667D01*
X158033252Y-115746192D01*
X158122151Y-115729281D01*
X158229019Y-115709229D01*
X158347033Y-115687336D01*
X158351178Y-115686571D01*
X158466831Y-115664641D01*
X158569014Y-115644123D01*
X158651598Y-115626341D01*
X158708456Y-115612619D01*
X158733458Y-115604282D01*
X158733901Y-115603884D01*
X158746110Y-115579323D01*
X158766456Y-115528685D01*
X158790545Y-115462905D01*
X158790674Y-115462539D01*
X158821818Y-115379683D01*
X158861491Y-115282000D01*
X158901381Y-115189923D01*
X158903353Y-115185566D01*
X158971420Y-115035593D01*
X158744639Y-114703502D01*
X158675504Y-114601626D01*
X158613697Y-114509343D01*
X158562733Y-114431997D01*
X158526127Y-114374936D01*
X158507394Y-114343505D01*
X158506004Y-114340521D01*
X158512190Y-114317679D01*
X158542035Y-114275018D01*
X158596947Y-114210872D01*
X158678334Y-114123579D01*
X158764922Y-114034465D01*
X158850247Y-113948559D01*
X158928108Y-113871673D01*
X158993697Y-113808436D01*
X159042205Y-113763477D01*
X159068825Y-113741424D01*
X159070195Y-113740604D01*
X159088463Y-113738166D01*
X159118295Y-113747350D01*
X159163721Y-113770426D01*
X159228770Y-113809663D01*
X159317470Y-113867330D01*
X159431657Y-113944205D01*
X159532162Y-114012430D01*
X159622303Y-114073418D01*
X159696849Y-114123644D01*
X159750565Y-114159584D01*
X159778218Y-114177713D01*
X159780095Y-114178854D01*
X159806590Y-114176641D01*
X159858086Y-114159862D01*
X159924851Y-114131858D01*
X159946172Y-114121878D01*
X160041159Y-114078328D01*
X160148937Y-114031866D01*
X160242192Y-113994123D01*
X160311406Y-113966927D01*
X160364006Y-113945325D01*
X160391497Y-113932842D01*
X160393616Y-113931291D01*
X160397124Y-113908332D01*
X160406738Y-113854214D01*
X160421089Y-113776132D01*
X160438807Y-113681281D01*
X160458525Y-113576857D01*
X160478874Y-113470056D01*
X160498486Y-113368074D01*
X160515991Y-113278106D01*
X160530022Y-113207347D01*
X160539209Y-113162994D01*
X160541807Y-113152115D01*
X160548218Y-113140878D01*
X160562697Y-113132395D01*
X160590133Y-113126286D01*
X160635411Y-113122168D01*
X160703420Y-113119659D01*
X160799047Y-113118379D01*
X160927180Y-113117946D01*
X160979701Y-113117923D01*
X161406845Y-113117923D01*
X161427091Y-113220500D01*
X161438070Y-113277569D01*
X161454095Y-113362731D01*
X161473233Y-113465628D01*
X161493551Y-113575904D01*
X161499132Y-113606385D01*
X161518917Y-113708145D01*
X161538373Y-113796795D01*
X161555697Y-113864892D01*
X161569088Y-113904996D01*
X161573079Y-113911677D01*
X161601342Y-113928081D01*
X161656109Y-113951601D01*
X161726588Y-113977684D01*
X161741769Y-113982858D01*
X161835896Y-114017044D01*
X161942101Y-114059477D01*
X162037473Y-114101003D01*
X162037916Y-114101208D01*
X162187525Y-114170360D01*
X162856617Y-113715488D01*
X163149116Y-114007500D01*
X163236170Y-114095820D01*
X163312909Y-114176375D01*
X163375237Y-114244640D01*
X163419056Y-114296092D01*
X163440270Y-114326206D01*
X163441616Y-114330526D01*
X163431016Y-114355889D01*
X163401547Y-114407642D01*
X163356705Y-114480132D01*
X163299984Y-114567706D01*
X163236462Y-114662388D01*
X163171668Y-114758484D01*
X163115287Y-114844163D01*
X163070788Y-114913984D01*
X163041639Y-114962506D01*
X163031308Y-114984218D01*
X163040050Y-115010707D01*
X163063087Y-115060938D01*
X163095631Y-115124549D01*
X163099249Y-115131292D01*
X163142210Y-115216954D01*
X163163279Y-115275694D01*
X163163503Y-115312228D01*
X163143928Y-115331269D01*
X163143654Y-115331380D01*
X163120472Y-115340898D01*
X163065441Y-115363597D01*
X162982822Y-115397718D01*
X162876872Y-115441500D01*
X162751852Y-115493184D01*
X162612020Y-115551008D01*
X162476637Y-115607009D01*
X162327234Y-115668553D01*
X162188832Y-115725061D01*
X162065673Y-115774839D01*
X161962002Y-115816194D01*
X161882059Y-115847432D01*
X161830088Y-115866859D01*
X161810692Y-115872846D01*
X161788443Y-115857832D01*
X161752982Y-115818561D01*
X161713887Y-115766193D01*
X161590245Y-115617059D01*
X161448522Y-115500489D01*
X161291704Y-115417882D01*
X161122775Y-115370634D01*
X160944722Y-115360143D01*
X160862539Y-115367769D01*
X160692031Y-115409318D01*
X160541459Y-115480877D01*
X160412309Y-115578005D01*
X160306064Y-115696266D01*
X160224210Y-115831220D01*
X160168232Y-115978429D01*
X160139615Y-116133456D01*
X160139844Y-116291861D01*
X160170405Y-116449206D01*
X160232782Y-116601054D01*
X160328460Y-116742965D01*
X160382572Y-116802197D01*
X160521520Y-116915797D01*
X160673361Y-116994894D01*
X160833667Y-117040014D01*
X160998012Y-117051684D01*
X161161971Y-117030431D01*
X161321118Y-116976780D01*
X161471025Y-116891260D01*
X161607267Y-116774395D01*
X161713887Y-116643807D01*
X161754642Y-116589412D01*
X161789718Y-116550986D01*
X161810726Y-116537154D01*
X161833635Y-116544397D01*
X161888365Y-116564995D01*
X161970672Y-116597254D01*
X162076315Y-116639479D01*
X162201050Y-116689977D01*
X162340636Y-116747052D01*
X162476670Y-116803146D01*
X162626201Y-116865033D01*
X162764767Y-116922356D01*
X162888107Y-116973356D01*
X162991964Y-117016273D01*
X163072080Y-117049347D01*
X163124195Y-117070819D01*
X163143654Y-117078775D01*
X163163423Y-117097571D01*
X163163365Y-117133926D01*
X163142441Y-117192521D01*
X163099613Y-117278032D01*
X163099249Y-117278708D01*
X163066012Y-117343093D01*
X163041802Y-117395139D01*
X163031404Y-117424488D01*
X163031308Y-117425783D01*
X163041855Y-117447876D01*
X163071184Y-117496652D01*
X163115827Y-117566669D01*
X163172314Y-117652486D01*
X163236462Y-117747612D01*
X163301411Y-117844460D01*
X163357896Y-117931747D01*
X163402421Y-118003819D01*
X163431490Y-118055023D01*
X163441616Y-118079474D01*
X163428307Y-118101990D01*
X163391112Y-118147258D01*
X163334128Y-118210756D01*
X163261449Y-118287961D01*
X163177171Y-118374349D01*
X163149016Y-118402601D01*
X162856416Y-118694713D01*
X162530104Y-118472369D01*
X162429897Y-118404798D01*
X162339963Y-118345493D01*
X162265510Y-118297783D01*
X162211751Y-118264993D01*
X162183894Y-118250452D01*
X162181912Y-118250026D01*
X162155655Y-118257692D01*
X162102837Y-118278311D01*
X162032310Y-118308315D01*
X161985093Y-118329375D01*
X161894694Y-118368752D01*
X161803366Y-118405835D01*
X161726200Y-118434585D01*
X161702692Y-118442395D01*
X161639916Y-118464583D01*
X161591411Y-118486273D01*
X161573079Y-118498187D01*
X161561859Y-118524477D01*
X161545954Y-118581858D01*
X161527167Y-118662882D01*
X161507299Y-118760105D01*
X161499132Y-118803615D01*
X161478829Y-118914104D01*
X161459170Y-119020084D01*
X161442088Y-119111199D01*
X161429518Y-119177092D01*
X161427091Y-119189500D01*
X161406845Y-119292077D01*
X160979701Y-119292077D01*
X160839246Y-119291847D01*
X160732979Y-119290901D01*
X160656013Y-119288859D01*
X160603460Y-119285338D01*
X160570433Y-119279957D01*
X160552045Y-119272334D01*
X160543408Y-119262088D01*
X160541807Y-119257885D01*
X160536127Y-119232530D01*
X160524795Y-119176516D01*
X160509179Y-119097036D01*
X160490647Y-119001288D01*
X160470569Y-118896467D01*
X160450312Y-118789768D01*
X160431246Y-118688387D01*
X160414739Y-118599521D01*
X160402159Y-118530363D01*
X160394875Y-118488111D01*
X160393616Y-118478710D01*
X160376763Y-118470193D01*
X160331870Y-118451340D01*
X160267430Y-118425676D01*
X160242192Y-118415877D01*
X160144686Y-118376352D01*
X160036959Y-118329808D01*
X159946172Y-118288123D01*
X159876753Y-118257450D01*
X159819710Y-118237044D01*
X159784777Y-118230232D01*
X159780095Y-118231318D01*
X159757991Y-118245715D01*
X159708831Y-118278588D01*
X159637848Y-118326410D01*
X159550278Y-118385652D01*
X159451357Y-118452785D01*
X159431830Y-118466059D01*
X159316140Y-118543954D01*
X159228044Y-118601213D01*
X159163486Y-118640119D01*
X159118411Y-118662956D01*
X159088763Y-118672006D01*
X159070485Y-118669552D01*
X159070369Y-118669489D01*
X159046361Y-118650173D01*
X158999947Y-118607449D01*
X158935937Y-118545949D01*
X158859145Y-118470302D01*
X158774382Y-118385139D01*
X158764922Y-118375535D01*
X158660989Y-118268210D01*
X158584675Y-118185385D01*
X158534571Y-118125395D01*
X158509270Y-118086577D01*
X158506004Y-118069480D01*
X158520250Y-118044527D01*
X158553156Y-117992745D01*
X158601208Y-117919480D01*
X158660890Y-117830080D01*
X158728688Y-117729889D01*
X158744639Y-117706499D01*
X158971420Y-117374407D01*
X158903353Y-117224435D01*
X158863685Y-117133230D01*
X158823791Y-117035331D01*
X158791983Y-116951169D01*
X158790674Y-116947462D01*
X158766576Y-116881631D01*
X158746200Y-116830884D01*
X158733936Y-116806158D01*
X158733901Y-116806116D01*
X158711734Y-116798271D01*
X158657217Y-116784934D01*
X158576480Y-116767430D01*
X158475650Y-116747083D01*
X158360856Y-116725218D01*
X158351178Y-116723429D01*
X158232904Y-116701496D01*
X158125542Y-116681360D01*
X158035917Y-116664320D01*
X157970851Y-116651672D01*
X157937168Y-116644716D01*
X157936654Y-116644594D01*
X157922325Y-116640361D01*
X157911507Y-116632129D01*
X157903706Y-116614967D01*
X157898429Y-116583942D01*
X157895182Y-116534122D01*
X157893472Y-116460576D01*
X157892807Y-116358371D01*
X157892693Y-116222575D01*
X157892692Y-116205000D01*
X157892776Y-116065122D01*
G36*
X164252838Y-111959776D02*
G01*
X164303361Y-111882472D01*
X164348590Y-111845186D01*
X164430663Y-111815647D01*
X164495607Y-111813301D01*
X164582445Y-111818615D01*
X164670103Y-112018885D01*
X164714887Y-112116261D01*
X164750913Y-112179887D01*
X164782117Y-112212971D01*
X164812436Y-112218720D01*
X164845805Y-112200342D01*
X164867923Y-112180077D01*
X164903393Y-112121111D01*
X164905879Y-112056976D01*
X164878235Y-111998074D01*
X164823320Y-111954803D01*
X164803928Y-111947064D01*
X164743364Y-111909994D01*
X164717552Y-111867346D01*
X164695471Y-111808846D01*
X164779184Y-111808846D01*
X164836150Y-111814018D01*
X164884189Y-111834277D01*
X164939346Y-111876738D01*
X164946514Y-111883049D01*
X164995585Y-111930280D01*
X165021920Y-111970879D01*
X165034035Y-112021672D01*
X165038003Y-112063780D01*
X165038991Y-112139098D01*
X165026466Y-112192714D01*
X165007869Y-112226162D01*
X164966975Y-112278732D01*
X164922748Y-112315121D01*
X164867126Y-112338150D01*
X164792047Y-112350641D01*
X164689449Y-112355413D01*
X164637376Y-112355794D01*
X164574948Y-112354499D01*
X164574948Y-112236529D01*
X164608438Y-112235161D01*
X164613923Y-112231751D01*
X164606472Y-112209247D01*
X164586753Y-112160818D01*
X164558718Y-112096092D01*
X164552692Y-112082557D01*
X164511096Y-112000756D01*
X164474538Y-111955688D01*
X164440296Y-111945783D01*
X164405648Y-111969474D01*
X164390339Y-111989040D01*
X164359721Y-112059640D01*
X164364780Y-112125720D01*
X164402151Y-112181041D01*
X164468473Y-112219364D01*
X164521116Y-112231651D01*
X164574948Y-112236529D01*
X164574948Y-112354499D01*
X164515720Y-112353270D01*
X164425710Y-112343968D01*
X164360167Y-112325540D01*
X164311912Y-112295640D01*
X164273767Y-112251920D01*
X164261440Y-112232859D01*
X164229336Y-112146274D01*
X164227316Y-112051478D01*
X164252838Y-111959776D01*
X164252838Y-111959776D01*
G37*
X164252838Y-111959776D02*
X164303361Y-111882472D01*
X164348590Y-111845186D01*
X164430663Y-111815647D01*
X164495607Y-111813301D01*
X164582445Y-111818615D01*
X164670103Y-112018885D01*
X164714887Y-112116261D01*
X164750913Y-112179887D01*
X164782117Y-112212971D01*
X164812436Y-112218720D01*
X164845805Y-112200342D01*
X164867923Y-112180077D01*
X164903393Y-112121111D01*
X164905879Y-112056976D01*
X164878235Y-111998074D01*
X164823320Y-111954803D01*
X164803928Y-111947064D01*
X164743364Y-111909994D01*
X164717552Y-111867346D01*
X164695471Y-111808846D01*
X164779184Y-111808846D01*
X164836150Y-111814018D01*
X164884189Y-111834277D01*
X164939346Y-111876738D01*
X164946514Y-111883049D01*
X164995585Y-111930280D01*
X165021920Y-111970879D01*
X165034035Y-112021672D01*
X165038003Y-112063780D01*
X165038991Y-112139098D01*
X165026466Y-112192714D01*
X165007869Y-112226162D01*
X164966975Y-112278732D01*
X164922748Y-112315121D01*
X164867126Y-112338150D01*
X164792047Y-112350641D01*
X164689449Y-112355413D01*
X164637376Y-112355794D01*
X164574948Y-112354499D01*
X164574948Y-112236529D01*
X164608438Y-112235161D01*
X164613923Y-112231751D01*
X164606472Y-112209247D01*
X164586753Y-112160818D01*
X164558718Y-112096092D01*
X164552692Y-112082557D01*
X164511096Y-112000756D01*
X164474538Y-111955688D01*
X164440296Y-111945783D01*
X164405648Y-111969474D01*
X164390339Y-111989040D01*
X164359721Y-112059640D01*
X164364780Y-112125720D01*
X164402151Y-112181041D01*
X164468473Y-112219364D01*
X164521116Y-112231651D01*
X164574948Y-112236529D01*
X164574948Y-112354499D01*
X164515720Y-112353270D01*
X164425710Y-112343968D01*
X164360167Y-112325540D01*
X164311912Y-112295640D01*
X164273767Y-112251920D01*
X164261440Y-112232859D01*
X164229336Y-112146274D01*
X164227316Y-112051478D01*
X164252838Y-111959776D01*
G36*
X164241782Y-112634193D02*
G01*
X164251988Y-112610839D01*
X164296134Y-112555098D01*
X164359967Y-112507431D01*
X164428087Y-112477952D01*
X164461670Y-112473154D01*
X164508556Y-112489240D01*
X164533365Y-112524525D01*
X164548387Y-112562356D01*
X164551155Y-112579679D01*
X164531066Y-112588114D01*
X164487351Y-112604770D01*
X164467598Y-112612077D01*
X164399271Y-112653052D01*
X164365191Y-112712378D01*
X164366239Y-112788448D01*
X164367581Y-112794082D01*
X164386836Y-112834695D01*
X164424375Y-112864552D01*
X164484809Y-112884945D01*
X164572751Y-112897164D01*
X164692813Y-112902500D01*
X164756698Y-112903000D01*
X164857403Y-112903248D01*
X164926054Y-112904874D01*
X164969673Y-112909199D01*
X164995282Y-112917546D01*
X165009903Y-112931235D01*
X165020558Y-112951589D01*
X165021095Y-112952766D01*
X165037667Y-112991962D01*
X165043769Y-113011381D01*
X165025319Y-113014365D01*
X164974323Y-113016919D01*
X164897308Y-113018860D01*
X164800805Y-113020003D01*
X164730184Y-113020231D01*
X164593525Y-113019068D01*
X164489851Y-113014521D01*
X164413108Y-113005001D01*
X164357246Y-112988919D01*
X164316212Y-112964687D01*
X164283954Y-112930714D01*
X164261440Y-112897167D01*
X164231476Y-112816501D01*
X164224718Y-112722619D01*
X164241782Y-112634193D01*
X164241782Y-112634193D01*
G37*
X164241782Y-112634193D02*
X164251988Y-112610839D01*
X164296134Y-112555098D01*
X164359967Y-112507431D01*
X164428087Y-112477952D01*
X164461670Y-112473154D01*
X164508556Y-112489240D01*
X164533365Y-112524525D01*
X164548387Y-112562356D01*
X164551155Y-112579679D01*
X164531066Y-112588114D01*
X164487351Y-112604770D01*
X164467598Y-112612077D01*
X164399271Y-112653052D01*
X164365191Y-112712378D01*
X164366239Y-112788448D01*
X164367581Y-112794082D01*
X164386836Y-112834695D01*
X164424375Y-112864552D01*
X164484809Y-112884945D01*
X164572751Y-112897164D01*
X164692813Y-112902500D01*
X164756698Y-112903000D01*
X164857403Y-112903248D01*
X164926054Y-112904874D01*
X164969673Y-112909199D01*
X164995282Y-112917546D01*
X165009903Y-112931235D01*
X165020558Y-112951589D01*
X165021095Y-112952766D01*
X165037667Y-112991962D01*
X165043769Y-113011381D01*
X165025319Y-113014365D01*
X164974323Y-113016919D01*
X164897308Y-113018860D01*
X164800805Y-113020003D01*
X164730184Y-113020231D01*
X164593525Y-113019068D01*
X164489851Y-113014521D01*
X164413108Y-113005001D01*
X164357246Y-112988919D01*
X164316212Y-112964687D01*
X164283954Y-112930714D01*
X164261440Y-112897167D01*
X164231476Y-112816501D01*
X164224718Y-112722619D01*
X164241782Y-112634193D01*
G36*
X164238528Y-113317667D02*
G01*
X164264117Y-113261410D01*
X164295124Y-113217253D01*
X164329795Y-113184899D01*
X164374520Y-113162562D01*
X164435692Y-113148454D01*
X164519701Y-113140789D01*
X164632940Y-113137780D01*
X164707509Y-113137462D01*
X164998420Y-113137462D01*
X165021095Y-113187227D01*
X165037667Y-113226424D01*
X165043769Y-113245843D01*
X165025610Y-113249558D01*
X164976648Y-113252505D01*
X164905153Y-113254309D01*
X164848385Y-113254692D01*
X164766371Y-113256339D01*
X164701309Y-113260778D01*
X164661467Y-113267260D01*
X164653000Y-113272410D01*
X164661646Y-113307023D01*
X164683823Y-113361360D01*
X164713886Y-113424278D01*
X164746192Y-113484632D01*
X164775098Y-113531279D01*
X164794961Y-113553074D01*
X164795175Y-113553161D01*
X164831935Y-113551286D01*
X164867026Y-113534475D01*
X164895528Y-113504961D01*
X164905061Y-113461884D01*
X164903950Y-113425068D01*
X164903133Y-113372926D01*
X164915349Y-113345556D01*
X164947624Y-113329118D01*
X164953710Y-113327045D01*
X164999739Y-113319919D01*
X165027687Y-113338976D01*
X165041007Y-113388647D01*
X165043470Y-113442303D01*
X165025210Y-113538858D01*
X164999131Y-113588841D01*
X164937868Y-113650571D01*
X164862670Y-113683310D01*
X164783211Y-113686247D01*
X164709167Y-113658576D01*
X164662769Y-113616953D01*
X164636793Y-113575396D01*
X164603907Y-113510078D01*
X164570557Y-113433962D01*
X164565461Y-113421274D01*
X164528565Y-113337667D01*
X164496046Y-113289470D01*
X164463718Y-113273970D01*
X164427394Y-113288450D01*
X164399000Y-113313308D01*
X164364039Y-113372061D01*
X164361417Y-113436707D01*
X164388358Y-113495992D01*
X164442088Y-113538661D01*
X164455950Y-113544261D01*
X164506936Y-113576867D01*
X164544787Y-113624470D01*
X164575850Y-113684539D01*
X164487768Y-113684539D01*
X164433951Y-113681003D01*
X164391534Y-113665844D01*
X164346279Y-113632232D01*
X164311420Y-113599965D01*
X164262062Y-113549791D01*
X164235547Y-113510807D01*
X164224911Y-113468936D01*
X164223154Y-113421540D01*
X164238528Y-113317667D01*
X164238528Y-113317667D01*
G37*
X164238528Y-113317667D02*
X164264117Y-113261410D01*
X164295124Y-113217253D01*
X164329795Y-113184899D01*
X164374520Y-113162562D01*
X164435692Y-113148454D01*
X164519701Y-113140789D01*
X164632940Y-113137780D01*
X164707509Y-113137462D01*
X164998420Y-113137462D01*
X165021095Y-113187227D01*
X165037667Y-113226424D01*
X165043769Y-113245843D01*
X165025610Y-113249558D01*
X164976648Y-113252505D01*
X164905153Y-113254309D01*
X164848385Y-113254692D01*
X164766371Y-113256339D01*
X164701309Y-113260778D01*
X164661467Y-113267260D01*
X164653000Y-113272410D01*
X164661646Y-113307023D01*
X164683823Y-113361360D01*
X164713886Y-113424278D01*
X164746192Y-113484632D01*
X164775098Y-113531279D01*
X164794961Y-113553074D01*
X164795175Y-113553161D01*
X164831935Y-113551286D01*
X164867026Y-113534475D01*
X164895528Y-113504961D01*
X164905061Y-113461884D01*
X164903950Y-113425068D01*
X164903133Y-113372926D01*
X164915349Y-113345556D01*
X164947624Y-113329118D01*
X164953710Y-113327045D01*
X164999739Y-113319919D01*
X165027687Y-113338976D01*
X165041007Y-113388647D01*
X165043470Y-113442303D01*
X165025210Y-113538858D01*
X164999131Y-113588841D01*
X164937868Y-113650571D01*
X164862670Y-113683310D01*
X164783211Y-113686247D01*
X164709167Y-113658576D01*
X164662769Y-113616953D01*
X164636793Y-113575396D01*
X164603907Y-113510078D01*
X164570557Y-113433962D01*
X164565461Y-113421274D01*
X164528565Y-113337667D01*
X164496046Y-113289470D01*
X164463718Y-113273970D01*
X164427394Y-113288450D01*
X164399000Y-113313308D01*
X164364039Y-113372061D01*
X164361417Y-113436707D01*
X164388358Y-113495992D01*
X164442088Y-113538661D01*
X164455950Y-113544261D01*
X164506936Y-113576867D01*
X164544787Y-113624470D01*
X164575850Y-113684539D01*
X164487768Y-113684539D01*
X164433951Y-113681003D01*
X164391534Y-113665844D01*
X164346279Y-113632232D01*
X164311420Y-113599965D01*
X164262062Y-113549791D01*
X164235547Y-113510807D01*
X164224911Y-113468936D01*
X164223154Y-113421540D01*
X164238528Y-113317667D01*
G36*
X164241662Y-113809071D02*
G01*
X164293068Y-113806089D01*
X164371192Y-113803753D01*
X164469857Y-113802251D01*
X164573343Y-113801769D01*
X164923533Y-113801769D01*
X164985363Y-113863599D01*
X165023462Y-113906207D01*
X165038895Y-113943610D01*
X165037918Y-113994730D01*
X165035433Y-114015022D01*
X165028200Y-114078446D01*
X165024055Y-114130905D01*
X165023672Y-114143692D01*
X165026176Y-114186801D01*
X165032462Y-114248456D01*
X165035433Y-114272362D01*
X165040028Y-114331078D01*
X165030046Y-114370536D01*
X164999228Y-114409662D01*
X164985363Y-114423785D01*
X164923533Y-114485615D01*
X164268503Y-114485615D01*
X164245829Y-114435850D01*
X164229034Y-114392998D01*
X164223154Y-114367927D01*
X164241736Y-114361499D01*
X164293655Y-114355491D01*
X164373172Y-114350303D01*
X164474546Y-114346336D01*
X164560192Y-114344423D01*
X164897231Y-114339077D01*
X164903825Y-114292440D01*
X164899214Y-114250024D01*
X164884287Y-114229240D01*
X164856377Y-114223430D01*
X164796925Y-114218470D01*
X164713466Y-114214754D01*
X164613532Y-114212676D01*
X164562104Y-114212376D01*
X164266054Y-114212077D01*
X164244604Y-114150546D01*
X164230020Y-114106996D01*
X164223219Y-114083306D01*
X164223154Y-114082623D01*
X164241642Y-114080246D01*
X164292906Y-114077634D01*
X164370649Y-114075005D01*
X164468574Y-114072579D01*
X164560192Y-114070885D01*
X164897231Y-114065539D01*
X164897231Y-113948308D01*
X164589746Y-113942928D01*
X164282261Y-113937549D01*
X164252707Y-113880399D01*
X164232413Y-113838203D01*
X164223204Y-113813230D01*
X164223154Y-113812509D01*
X164241662Y-113809071D01*
X164241662Y-113809071D01*
G37*
X164241662Y-113809071D02*
X164293068Y-113806089D01*
X164371192Y-113803753D01*
X164469857Y-113802251D01*
X164573343Y-113801769D01*
X164923533Y-113801769D01*
X164985363Y-113863599D01*
X165023462Y-113906207D01*
X165038895Y-113943610D01*
X165037918Y-113994730D01*
X165035433Y-114015022D01*
X165028200Y-114078446D01*
X165024055Y-114130905D01*
X165023672Y-114143692D01*
X165026176Y-114186801D01*
X165032462Y-114248456D01*
X165035433Y-114272362D01*
X165040028Y-114331078D01*
X165030046Y-114370536D01*
X164999228Y-114409662D01*
X164985363Y-114423785D01*
X164923533Y-114485615D01*
X164268503Y-114485615D01*
X164245829Y-114435850D01*
X164229034Y-114392998D01*
X164223154Y-114367927D01*
X164241736Y-114361499D01*
X164293655Y-114355491D01*
X164373172Y-114350303D01*
X164474546Y-114346336D01*
X164560192Y-114344423D01*
X164897231Y-114339077D01*
X164903825Y-114292440D01*
X164899214Y-114250024D01*
X164884287Y-114229240D01*
X164856377Y-114223430D01*
X164796925Y-114218470D01*
X164713466Y-114214754D01*
X164613532Y-114212676D01*
X164562104Y-114212376D01*
X164266054Y-114212077D01*
X164244604Y-114150546D01*
X164230020Y-114106996D01*
X164223219Y-114083306D01*
X164223154Y-114082623D01*
X164241642Y-114080246D01*
X164292906Y-114077634D01*
X164370649Y-114075005D01*
X164468574Y-114072579D01*
X164560192Y-114070885D01*
X164897231Y-114065539D01*
X164897231Y-113948308D01*
X164589746Y-113942928D01*
X164282261Y-113937549D01*
X164252707Y-113880399D01*
X164232413Y-113838203D01*
X164223204Y-113813230D01*
X164223154Y-113812509D01*
X164241662Y-113809071D01*
G36*
X164385289Y-114602919D02*
G01*
X164531320Y-114603167D01*
X164643655Y-114604128D01*
X164727678Y-114606206D01*
X164788769Y-114609807D01*
X164832309Y-114615335D01*
X164863679Y-114623196D01*
X164888262Y-114633793D01*
X164902294Y-114641818D01*
X164978388Y-114708272D01*
X165026084Y-114792530D01*
X165043199Y-114885751D01*
X165027546Y-114979100D01*
X164999418Y-115034688D01*
X164950760Y-115093043D01*
X164891333Y-115132814D01*
X164813507Y-115156810D01*
X164709652Y-115167839D01*
X164633462Y-115169401D01*
X164627986Y-115169191D01*
X164627986Y-115032692D01*
X164715355Y-115031859D01*
X164773192Y-115028039D01*
X164811029Y-115019254D01*
X164838398Y-115003526D01*
X164859042Y-114984734D01*
X164898890Y-114921625D01*
X164902295Y-114853863D01*
X164869025Y-114789821D01*
X164864517Y-114784836D01*
X164841067Y-114763561D01*
X164813166Y-114750221D01*
X164771641Y-114742999D01*
X164707316Y-114740077D01*
X164636200Y-114739615D01*
X164546858Y-114740617D01*
X164487258Y-114744762D01*
X164448089Y-114753764D01*
X164420040Y-114769333D01*
X164405144Y-114782098D01*
X164367575Y-114841400D01*
X164363057Y-114909699D01*
X164391753Y-114974890D01*
X164402406Y-114987472D01*
X164426063Y-115008889D01*
X164454251Y-115022256D01*
X164496245Y-115029434D01*
X164561319Y-115032281D01*
X164627986Y-115032692D01*
X164627986Y-115169191D01*
X164510765Y-115164678D01*
X164418577Y-115148638D01*
X164349269Y-115118472D01*
X164295211Y-115071371D01*
X164267505Y-115034688D01*
X164237572Y-114968010D01*
X164223678Y-114890728D01*
X164227397Y-114818890D01*
X164242400Y-114778692D01*
X164246670Y-114762918D01*
X164230750Y-114752450D01*
X164188089Y-114745144D01*
X164123106Y-114739615D01*
X164050732Y-114733563D01*
X164007187Y-114725156D01*
X163982287Y-114709859D01*
X163965845Y-114683136D01*
X163958564Y-114666346D01*
X163931963Y-114602846D01*
X164385289Y-114602919D01*
X164385289Y-114602919D01*
G37*
X164385289Y-114602919D02*
X164531320Y-114603167D01*
X164643655Y-114604128D01*
X164727678Y-114606206D01*
X164788769Y-114609807D01*
X164832309Y-114615335D01*
X164863679Y-114623196D01*
X164888262Y-114633793D01*
X164902294Y-114641818D01*
X164978388Y-114708272D01*
X165026084Y-114792530D01*
X165043199Y-114885751D01*
X165027546Y-114979100D01*
X164999418Y-115034688D01*
X164950760Y-115093043D01*
X164891333Y-115132814D01*
X164813507Y-115156810D01*
X164709652Y-115167839D01*
X164633462Y-115169401D01*
X164627986Y-115169191D01*
X164627986Y-115032692D01*
X164715355Y-115031859D01*
X164773192Y-115028039D01*
X164811029Y-115019254D01*
X164838398Y-115003526D01*
X164859042Y-114984734D01*
X164898890Y-114921625D01*
X164902295Y-114853863D01*
X164869025Y-114789821D01*
X164864517Y-114784836D01*
X164841067Y-114763561D01*
X164813166Y-114750221D01*
X164771641Y-114742999D01*
X164707316Y-114740077D01*
X164636200Y-114739615D01*
X164546858Y-114740617D01*
X164487258Y-114744762D01*
X164448089Y-114753764D01*
X164420040Y-114769333D01*
X164405144Y-114782098D01*
X164367575Y-114841400D01*
X164363057Y-114909699D01*
X164391753Y-114974890D01*
X164402406Y-114987472D01*
X164426063Y-115008889D01*
X164454251Y-115022256D01*
X164496245Y-115029434D01*
X164561319Y-115032281D01*
X164627986Y-115032692D01*
X164627986Y-115169191D01*
X164510765Y-115164678D01*
X164418577Y-115148638D01*
X164349269Y-115118472D01*
X164295211Y-115071371D01*
X164267505Y-115034688D01*
X164237572Y-114968010D01*
X164223678Y-114890728D01*
X164227397Y-114818890D01*
X164242400Y-114778692D01*
X164246670Y-114762918D01*
X164230750Y-114752450D01*
X164188089Y-114745144D01*
X164123106Y-114739615D01*
X164050732Y-114733563D01*
X164007187Y-114725156D01*
X163982287Y-114709859D01*
X163965845Y-114683136D01*
X163958564Y-114666346D01*
X163931963Y-114602846D01*
X164385289Y-114602919D01*
G36*
X164229670Y-115491638D02*
G01*
X164262421Y-115402883D01*
X164320350Y-115330978D01*
X164361128Y-115302856D01*
X164435954Y-115272198D01*
X164490058Y-115272835D01*
X164526446Y-115305013D01*
X164532633Y-115316919D01*
X164551925Y-115368325D01*
X164546982Y-115394578D01*
X164514587Y-115403470D01*
X164496692Y-115403923D01*
X164430859Y-115420203D01*
X164384807Y-115462635D01*
X164362564Y-115521612D01*
X164368161Y-115587525D01*
X164397229Y-115641105D01*
X164413810Y-115659202D01*
X164433925Y-115672029D01*
X164464332Y-115680694D01*
X164511788Y-115686304D01*
X164583050Y-115689965D01*
X164684875Y-115692785D01*
X164717115Y-115693516D01*
X164827410Y-115696180D01*
X164905036Y-115699208D01*
X164956396Y-115703750D01*
X164987890Y-115710954D01*
X165005920Y-115721967D01*
X165016888Y-115737940D01*
X165021733Y-115748166D01*
X165038301Y-115791594D01*
X165043769Y-115817158D01*
X165025507Y-115825605D01*
X164970296Y-115830761D01*
X164877499Y-115832654D01*
X164746478Y-115831311D01*
X164726269Y-115830893D01*
X164606733Y-115827942D01*
X164519449Y-115824452D01*
X164457591Y-115819486D01*
X164414336Y-115812107D01*
X164382860Y-115801376D01*
X164356339Y-115786355D01*
X164344975Y-115778498D01*
X164294692Y-115733447D01*
X164255581Y-115683060D01*
X164252167Y-115676892D01*
X164225212Y-115586542D01*
X164229670Y-115491638D01*
X164229670Y-115491638D01*
G37*
X164229670Y-115491638D02*
X164262421Y-115402883D01*
X164320350Y-115330978D01*
X164361128Y-115302856D01*
X164435954Y-115272198D01*
X164490058Y-115272835D01*
X164526446Y-115305013D01*
X164532633Y-115316919D01*
X164551925Y-115368325D01*
X164546982Y-115394578D01*
X164514587Y-115403470D01*
X164496692Y-115403923D01*
X164430859Y-115420203D01*
X164384807Y-115462635D01*
X164362564Y-115521612D01*
X164368161Y-115587525D01*
X164397229Y-115641105D01*
X164413810Y-115659202D01*
X164433925Y-115672029D01*
X164464332Y-115680694D01*
X164511788Y-115686304D01*
X164583050Y-115689965D01*
X164684875Y-115692785D01*
X164717115Y-115693516D01*
X164827410Y-115696180D01*
X164905036Y-115699208D01*
X164956396Y-115703750D01*
X164987890Y-115710954D01*
X165005920Y-115721967D01*
X165016888Y-115737940D01*
X165021733Y-115748166D01*
X165038301Y-115791594D01*
X165043769Y-115817158D01*
X165025507Y-115825605D01*
X164970296Y-115830761D01*
X164877499Y-115832654D01*
X164746478Y-115831311D01*
X164726269Y-115830893D01*
X164606733Y-115827942D01*
X164519449Y-115824452D01*
X164457591Y-115819486D01*
X164414336Y-115812107D01*
X164382860Y-115801376D01*
X164356339Y-115786355D01*
X164344975Y-115778498D01*
X164294692Y-115733447D01*
X164255581Y-115683060D01*
X164252167Y-115676892D01*
X164225212Y-115586542D01*
X164229670Y-115491638D01*
G36*
X164231303Y-116151499D02*
G01*
X164259733Y-116074940D01*
X164260279Y-116074064D01*
X164295127Y-116026715D01*
X164335852Y-115991759D01*
X164388925Y-115967175D01*
X164460814Y-115950938D01*
X164557992Y-115941025D01*
X164686928Y-115935414D01*
X164705298Y-115934923D01*
X164982287Y-115927859D01*
X165013028Y-115987305D01*
X165033802Y-116030319D01*
X165043646Y-116056290D01*
X165043769Y-116057491D01*
X165025606Y-116061986D01*
X164976612Y-116065556D01*
X164905031Y-116067752D01*
X164847068Y-116068231D01*
X164753170Y-116068242D01*
X164694203Y-116072534D01*
X164666079Y-116087497D01*
X164664706Y-116119518D01*
X164685998Y-116174986D01*
X164725136Y-116258731D01*
X164757643Y-116320311D01*
X164785845Y-116351983D01*
X164816582Y-116361294D01*
X164818104Y-116361308D01*
X164871054Y-116345943D01*
X164899660Y-116300453D01*
X164903803Y-116230834D01*
X164903084Y-116180687D01*
X164917527Y-116154246D01*
X164952218Y-116137757D01*
X164996416Y-116128267D01*
X165021493Y-116141943D01*
X165025082Y-116147093D01*
X165039496Y-116195575D01*
X165041537Y-116263469D01*
X165031983Y-116333388D01*
X165014522Y-116382932D01*
X164956364Y-116451430D01*
X164875408Y-116490366D01*
X164812160Y-116498077D01*
X164755111Y-116492193D01*
X164708542Y-116470899D01*
X164667181Y-116428735D01*
X164625755Y-116360241D01*
X164578993Y-116259956D01*
X164576350Y-116253846D01*
X164534617Y-116163510D01*
X164500391Y-116107765D01*
X164469635Y-116083871D01*
X164438311Y-116089087D01*
X164402383Y-116120672D01*
X164394116Y-116130117D01*
X164362058Y-116193383D01*
X164363407Y-116258936D01*
X164394838Y-116316028D01*
X164453024Y-116353907D01*
X164464446Y-116357426D01*
X164519837Y-116391700D01*
X164546518Y-116435191D01*
X164572960Y-116498077D01*
X164504548Y-116498077D01*
X164405110Y-116478948D01*
X164313902Y-116422169D01*
X164283389Y-116392622D01*
X164244228Y-116325458D01*
X164226500Y-116240044D01*
X164231303Y-116151499D01*
X164231303Y-116151499D01*
G37*
X164231303Y-116151499D02*
X164259733Y-116074940D01*
X164260279Y-116074064D01*
X164295127Y-116026715D01*
X164335852Y-115991759D01*
X164388925Y-115967175D01*
X164460814Y-115950938D01*
X164557992Y-115941025D01*
X164686928Y-115935414D01*
X164705298Y-115934923D01*
X164982287Y-115927859D01*
X165013028Y-115987305D01*
X165033802Y-116030319D01*
X165043646Y-116056290D01*
X165043769Y-116057491D01*
X165025606Y-116061986D01*
X164976612Y-116065556D01*
X164905031Y-116067752D01*
X164847068Y-116068231D01*
X164753170Y-116068242D01*
X164694203Y-116072534D01*
X164666079Y-116087497D01*
X164664706Y-116119518D01*
X164685998Y-116174986D01*
X164725136Y-116258731D01*
X164757643Y-116320311D01*
X164785845Y-116351983D01*
X164816582Y-116361294D01*
X164818104Y-116361308D01*
X164871054Y-116345943D01*
X164899660Y-116300453D01*
X164903803Y-116230834D01*
X164903084Y-116180687D01*
X164917527Y-116154246D01*
X164952218Y-116137757D01*
X164996416Y-116128267D01*
X165021493Y-116141943D01*
X165025082Y-116147093D01*
X165039496Y-116195575D01*
X165041537Y-116263469D01*
X165031983Y-116333388D01*
X165014522Y-116382932D01*
X164956364Y-116451430D01*
X164875408Y-116490366D01*
X164812160Y-116498077D01*
X164755111Y-116492193D01*
X164708542Y-116470899D01*
X164667181Y-116428735D01*
X164625755Y-116360241D01*
X164578993Y-116259956D01*
X164576350Y-116253846D01*
X164534617Y-116163510D01*
X164500391Y-116107765D01*
X164469635Y-116083871D01*
X164438311Y-116089087D01*
X164402383Y-116120672D01*
X164394116Y-116130117D01*
X164362058Y-116193383D01*
X164363407Y-116258936D01*
X164394838Y-116316028D01*
X164453024Y-116353907D01*
X164464446Y-116357426D01*
X164519837Y-116391700D01*
X164546518Y-116435191D01*
X164572960Y-116498077D01*
X164504548Y-116498077D01*
X164405110Y-116478948D01*
X164313902Y-116422169D01*
X164283389Y-116392622D01*
X164244228Y-116325458D01*
X164226500Y-116240044D01*
X164231303Y-116151499D01*
G36*
X164097120Y-117045154D02*
G01*
X164176980Y-117039428D01*
X164224039Y-117032851D01*
X164244566Y-117023738D01*
X164244829Y-117010402D01*
X164242378Y-117006077D01*
X164224636Y-116948556D01*
X164225672Y-116873732D01*
X164243910Y-116797661D01*
X164267505Y-116750082D01*
X164305198Y-116701298D01*
X164347855Y-116665636D01*
X164402057Y-116641155D01*
X164474384Y-116625913D01*
X164571419Y-116617970D01*
X164699742Y-116615384D01*
X164724358Y-116615338D01*
X165000870Y-116615308D01*
X165022320Y-116676839D01*
X165036912Y-116720541D01*
X165043706Y-116744518D01*
X165043769Y-116745223D01*
X165025345Y-116747585D01*
X164974526Y-116749594D01*
X164897993Y-116751099D01*
X164802430Y-116751947D01*
X164744329Y-116752077D01*
X164629771Y-116752349D01*
X164547667Y-116753748D01*
X164491393Y-116757151D01*
X164454326Y-116763433D01*
X164429844Y-116773471D01*
X164411325Y-116788139D01*
X164402406Y-116797298D01*
X164366466Y-116860211D01*
X164363775Y-116928864D01*
X164394170Y-116991152D01*
X164405144Y-117002671D01*
X164425779Y-117019567D01*
X164450256Y-117031286D01*
X164485647Y-117038767D01*
X164539026Y-117042946D01*
X164617466Y-117044763D01*
X164725617Y-117045154D01*
X165000870Y-117045154D01*
X165022320Y-117106685D01*
X165036912Y-117150387D01*
X165043706Y-117174364D01*
X165043769Y-117175070D01*
X165025069Y-117176874D01*
X164972322Y-117178500D01*
X164890557Y-117179883D01*
X164784805Y-117180958D01*
X164660094Y-117181660D01*
X164521455Y-117181923D01*
X163986806Y-117181923D01*
X163933236Y-117054923D01*
X164097120Y-117045154D01*
X164097120Y-117045154D01*
G37*
X164097120Y-117045154D02*
X164176980Y-117039428D01*
X164224039Y-117032851D01*
X164244566Y-117023738D01*
X164244829Y-117010402D01*
X164242378Y-117006077D01*
X164224636Y-116948556D01*
X164225672Y-116873732D01*
X164243910Y-116797661D01*
X164267505Y-116750082D01*
X164305198Y-116701298D01*
X164347855Y-116665636D01*
X164402057Y-116641155D01*
X164474384Y-116625913D01*
X164571419Y-116617970D01*
X164699742Y-116615384D01*
X164724358Y-116615338D01*
X165000870Y-116615308D01*
X165022320Y-116676839D01*
X165036912Y-116720541D01*
X165043706Y-116744518D01*
X165043769Y-116745223D01*
X165025345Y-116747585D01*
X164974526Y-116749594D01*
X164897993Y-116751099D01*
X164802430Y-116751947D01*
X164744329Y-116752077D01*
X164629771Y-116752349D01*
X164547667Y-116753748D01*
X164491393Y-116757151D01*
X164454326Y-116763433D01*
X164429844Y-116773471D01*
X164411325Y-116788139D01*
X164402406Y-116797298D01*
X164366466Y-116860211D01*
X164363775Y-116928864D01*
X164394170Y-116991152D01*
X164405144Y-117002671D01*
X164425779Y-117019567D01*
X164450256Y-117031286D01*
X164485647Y-117038767D01*
X164539026Y-117042946D01*
X164617466Y-117044763D01*
X164725617Y-117045154D01*
X165000870Y-117045154D01*
X165022320Y-117106685D01*
X165036912Y-117150387D01*
X165043706Y-117174364D01*
X165043769Y-117175070D01*
X165025069Y-117176874D01*
X164972322Y-117178500D01*
X164890557Y-117179883D01*
X164784805Y-117180958D01*
X164660094Y-117181660D01*
X164521455Y-117181923D01*
X163986806Y-117181923D01*
X163933236Y-117054923D01*
X164097120Y-117045154D01*
G36*
X164204745Y-118670746D02*
G01*
X164256567Y-118593714D01*
X164331412Y-118534184D01*
X164426654Y-118498622D01*
X164496756Y-118491429D01*
X164526009Y-118492246D01*
X164548407Y-118499086D01*
X164568474Y-118517888D01*
X164590733Y-118554592D01*
X164619709Y-118615138D01*
X164659927Y-118705466D01*
X164660129Y-118705923D01*
X164698210Y-118789067D01*
X164732025Y-118857247D01*
X164757933Y-118903495D01*
X164772295Y-118920842D01*
X164772411Y-118920846D01*
X164803685Y-118905557D01*
X164838157Y-118869804D01*
X164862990Y-118828758D01*
X164867923Y-118807963D01*
X164850862Y-118751230D01*
X164808133Y-118702373D01*
X164761155Y-118678535D01*
X164726522Y-118655603D01*
X164687081Y-118610682D01*
X164653009Y-118557877D01*
X164634480Y-118511290D01*
X164633462Y-118501548D01*
X164650215Y-118490582D01*
X164693039Y-118489921D01*
X164750781Y-118497980D01*
X164812289Y-118513173D01*
X164866409Y-118533914D01*
X164868510Y-118534962D01*
X164955660Y-118597379D01*
X165014939Y-118678274D01*
X165044034Y-118770144D01*
X165040634Y-118865487D01*
X165002428Y-118956802D01*
X164999741Y-118960862D01*
X164934642Y-119032694D01*
X164849705Y-119079927D01*
X164738021Y-119106066D01*
X164706643Y-119109574D01*
X164558536Y-119115787D01*
X164489468Y-119108339D01*
X164489468Y-118920846D01*
X164532552Y-118918410D01*
X164545126Y-118905086D01*
X164535719Y-118871868D01*
X164513483Y-118819506D01*
X164485610Y-118760976D01*
X164484872Y-118759521D01*
X164458777Y-118709911D01*
X164441363Y-118690000D01*
X164423107Y-118694910D01*
X164399120Y-118715584D01*
X164364406Y-118768181D01*
X164361856Y-118824823D01*
X164387119Y-118875631D01*
X164435847Y-118910724D01*
X164489468Y-118920846D01*
X164489468Y-119108339D01*
X164440036Y-119103008D01*
X164346055Y-119070222D01*
X164280215Y-119024579D01*
X164213681Y-118942198D01*
X164180676Y-118851454D01*
X164178573Y-118758815D01*
X164204745Y-118670746D01*
X164204745Y-118670746D01*
G37*
X164204745Y-118670746D02*
X164256567Y-118593714D01*
X164331412Y-118534184D01*
X164426654Y-118498622D01*
X164496756Y-118491429D01*
X164526009Y-118492246D01*
X164548407Y-118499086D01*
X164568474Y-118517888D01*
X164590733Y-118554592D01*
X164619709Y-118615138D01*
X164659927Y-118705466D01*
X164660129Y-118705923D01*
X164698210Y-118789067D01*
X164732025Y-118857247D01*
X164757933Y-118903495D01*
X164772295Y-118920842D01*
X164772411Y-118920846D01*
X164803685Y-118905557D01*
X164838157Y-118869804D01*
X164862990Y-118828758D01*
X164867923Y-118807963D01*
X164850862Y-118751230D01*
X164808133Y-118702373D01*
X164761155Y-118678535D01*
X164726522Y-118655603D01*
X164687081Y-118610682D01*
X164653009Y-118557877D01*
X164634480Y-118511290D01*
X164633462Y-118501548D01*
X164650215Y-118490582D01*
X164693039Y-118489921D01*
X164750781Y-118497980D01*
X164812289Y-118513173D01*
X164866409Y-118533914D01*
X164868510Y-118534962D01*
X164955660Y-118597379D01*
X165014939Y-118678274D01*
X165044034Y-118770144D01*
X165040634Y-118865487D01*
X165002428Y-118956802D01*
X164999741Y-118960862D01*
X164934642Y-119032694D01*
X164849705Y-119079927D01*
X164738021Y-119106066D01*
X164706643Y-119109574D01*
X164558536Y-119115787D01*
X164489468Y-119108339D01*
X164489468Y-118920846D01*
X164532552Y-118918410D01*
X164545126Y-118905086D01*
X164535719Y-118871868D01*
X164513483Y-118819506D01*
X164485610Y-118760976D01*
X164484872Y-118759521D01*
X164458777Y-118709911D01*
X164441363Y-118690000D01*
X164423107Y-118694910D01*
X164399120Y-118715584D01*
X164364406Y-118768181D01*
X164361856Y-118824823D01*
X164387119Y-118875631D01*
X164435847Y-118910724D01*
X164489468Y-118920846D01*
X164489468Y-119108339D01*
X164440036Y-119103008D01*
X164346055Y-119070222D01*
X164280215Y-119024579D01*
X164213681Y-118942198D01*
X164180676Y-118851454D01*
X164178573Y-118758815D01*
X164204745Y-118670746D01*
G36*
X164192256Y-120188114D02*
G01*
X164240409Y-120096536D01*
X164317905Y-120028951D01*
X164367727Y-120004943D01*
X164442533Y-119986262D01*
X164537052Y-119976699D01*
X164640210Y-119975792D01*
X164740935Y-119983079D01*
X164828153Y-119998097D01*
X164890791Y-120020385D01*
X164901579Y-120027235D01*
X164982105Y-120108368D01*
X165030336Y-120204734D01*
X165044450Y-120309299D01*
X165022629Y-120415032D01*
X165009547Y-120444457D01*
X164969231Y-120501759D01*
X164915775Y-120552050D01*
X164908995Y-120556803D01*
X164876321Y-120576122D01*
X164841394Y-120588892D01*
X164795414Y-120596436D01*
X164729584Y-120600076D01*
X164635105Y-120601135D01*
X164613923Y-120601154D01*
X164607182Y-120601106D01*
X164607182Y-120405769D01*
X164696349Y-120404632D01*
X164755520Y-120400159D01*
X164793741Y-120390754D01*
X164820053Y-120374824D01*
X164828846Y-120366692D01*
X164862261Y-120319942D01*
X164860737Y-120274553D01*
X164831752Y-120228660D01*
X164800809Y-120201288D01*
X164755643Y-120185077D01*
X164684420Y-120175974D01*
X164676114Y-120175349D01*
X164547037Y-120173796D01*
X164451172Y-120190035D01*
X164389107Y-120223848D01*
X164361432Y-120275016D01*
X164359923Y-120293280D01*
X164367513Y-120341240D01*
X164393808Y-120374047D01*
X164444095Y-120394105D01*
X164523664Y-120403822D01*
X164607182Y-120405769D01*
X164607182Y-120601106D01*
X164513249Y-120600426D01*
X164442906Y-120597371D01*
X164394163Y-120590678D01*
X164358288Y-120579040D01*
X164326548Y-120561147D01*
X164320648Y-120557192D01*
X164241104Y-120490733D01*
X164194929Y-120418315D01*
X164176599Y-120330151D01*
X164175703Y-120300213D01*
X164192256Y-120188114D01*
X164192256Y-120188114D01*
G37*
X164192256Y-120188114D02*
X164240409Y-120096536D01*
X164317905Y-120028951D01*
X164367727Y-120004943D01*
X164442533Y-119986262D01*
X164537052Y-119976699D01*
X164640210Y-119975792D01*
X164740935Y-119983079D01*
X164828153Y-119998097D01*
X164890791Y-120020385D01*
X164901579Y-120027235D01*
X164982105Y-120108368D01*
X165030336Y-120204734D01*
X165044450Y-120309299D01*
X165022629Y-120415032D01*
X165009547Y-120444457D01*
X164969231Y-120501759D01*
X164915775Y-120552050D01*
X164908995Y-120556803D01*
X164876321Y-120576122D01*
X164841394Y-120588892D01*
X164795414Y-120596436D01*
X164729584Y-120600076D01*
X164635105Y-120601135D01*
X164613923Y-120601154D01*
X164607182Y-120601106D01*
X164607182Y-120405769D01*
X164696349Y-120404632D01*
X164755520Y-120400159D01*
X164793741Y-120390754D01*
X164820053Y-120374824D01*
X164828846Y-120366692D01*
X164862261Y-120319942D01*
X164860737Y-120274553D01*
X164831752Y-120228660D01*
X164800809Y-120201288D01*
X164755643Y-120185077D01*
X164684420Y-120175974D01*
X164676114Y-120175349D01*
X164547037Y-120173796D01*
X164451172Y-120190035D01*
X164389107Y-120223848D01*
X164361432Y-120275016D01*
X164359923Y-120293280D01*
X164367513Y-120341240D01*
X164393808Y-120374047D01*
X164444095Y-120394105D01*
X164523664Y-120403822D01*
X164607182Y-120405769D01*
X164607182Y-120601106D01*
X164513249Y-120600426D01*
X164442906Y-120597371D01*
X164394163Y-120590678D01*
X164358288Y-120579040D01*
X164326548Y-120561147D01*
X164320648Y-120557192D01*
X164241104Y-120490733D01*
X164194929Y-120418315D01*
X164176599Y-120330151D01*
X164175703Y-120300213D01*
X164192256Y-120188114D01*
G36*
X164200089Y-117933336D02*
G01*
X164236358Y-117870633D01*
X164272358Y-117827039D01*
X164310075Y-117795155D01*
X164356199Y-117773190D01*
X164417421Y-117759351D01*
X164500431Y-117751847D01*
X164611919Y-117748883D01*
X164692062Y-117748539D01*
X164987065Y-117748539D01*
X165061515Y-117914615D01*
X164738402Y-117924385D01*
X164617729Y-117928421D01*
X164530141Y-117932656D01*
X164469650Y-117937903D01*
X164430268Y-117944975D01*
X164406007Y-117954689D01*
X164390880Y-117967856D01*
X164387606Y-117972081D01*
X164362034Y-118036091D01*
X164372153Y-118100792D01*
X164399000Y-118139308D01*
X164418024Y-118154975D01*
X164442988Y-118165820D01*
X164480834Y-118172712D01*
X164538502Y-118176521D01*
X164622935Y-118178117D01*
X164710928Y-118178385D01*
X164821323Y-118178437D01*
X164899463Y-118180328D01*
X164952165Y-118186655D01*
X164986242Y-118200017D01*
X165008511Y-118223015D01*
X165025787Y-118258246D01*
X165043738Y-118305303D01*
X165063278Y-118356697D01*
X164716485Y-118350579D01*
X164591468Y-118348116D01*
X164499082Y-118345233D01*
X164432881Y-118341102D01*
X164386420Y-118334893D01*
X164353256Y-118325774D01*
X164326944Y-118312917D01*
X164303729Y-118297416D01*
X164229569Y-118222629D01*
X164186684Y-118131372D01*
X164176412Y-118032117D01*
X164200089Y-117933336D01*
X164200089Y-117933336D01*
G37*
X164200089Y-117933336D02*
X164236358Y-117870633D01*
X164272358Y-117827039D01*
X164310075Y-117795155D01*
X164356199Y-117773190D01*
X164417421Y-117759351D01*
X164500431Y-117751847D01*
X164611919Y-117748883D01*
X164692062Y-117748539D01*
X164987065Y-117748539D01*
X165061515Y-117914615D01*
X164738402Y-117924385D01*
X164617729Y-117928421D01*
X164530141Y-117932656D01*
X164469650Y-117937903D01*
X164430268Y-117944975D01*
X164406007Y-117954689D01*
X164390880Y-117967856D01*
X164387606Y-117972081D01*
X164362034Y-118036091D01*
X164372153Y-118100792D01*
X164399000Y-118139308D01*
X164418024Y-118154975D01*
X164442988Y-118165820D01*
X164480834Y-118172712D01*
X164538502Y-118176521D01*
X164622935Y-118178117D01*
X164710928Y-118178385D01*
X164821323Y-118178437D01*
X164899463Y-118180328D01*
X164952165Y-118186655D01*
X164986242Y-118200017D01*
X165008511Y-118223015D01*
X165025787Y-118258246D01*
X165043738Y-118305303D01*
X165063278Y-118356697D01*
X164716485Y-118350579D01*
X164591468Y-118348116D01*
X164499082Y-118345233D01*
X164432881Y-118341102D01*
X164386420Y-118334893D01*
X164353256Y-118325774D01*
X164326944Y-118312917D01*
X164303729Y-118297416D01*
X164229569Y-118222629D01*
X164186684Y-118131372D01*
X164176412Y-118032117D01*
X164200089Y-117933336D01*
G36*
X164189505Y-119436114D02*
G01*
X164226727Y-119361461D01*
X164295261Y-119295569D01*
X164320648Y-119277423D01*
X164353866Y-119257655D01*
X164389945Y-119244828D01*
X164438098Y-119237490D01*
X164507536Y-119234187D01*
X164599206Y-119233462D01*
X164724830Y-119236737D01*
X164819154Y-119248123D01*
X164889523Y-119269959D01*
X164943286Y-119304581D01*
X164987788Y-119354330D01*
X164990423Y-119357986D01*
X165017377Y-119407015D01*
X165030712Y-119466055D01*
X165034000Y-119541141D01*
X165034000Y-119663205D01*
X165152497Y-119663256D01*
X165218492Y-119664392D01*
X165257202Y-119671314D01*
X165280419Y-119689402D01*
X165299933Y-119724038D01*
X165303920Y-119732355D01*
X165322603Y-119771280D01*
X165334403Y-119801417D01*
X165335422Y-119823826D01*
X165321761Y-119839567D01*
X165289522Y-119849698D01*
X165234804Y-119855277D01*
X165153711Y-119857365D01*
X165042344Y-119857019D01*
X164896802Y-119855300D01*
X164853269Y-119854763D01*
X164703205Y-119852828D01*
X164605042Y-119851096D01*
X164605042Y-119663308D01*
X164688364Y-119662252D01*
X164742880Y-119657562D01*
X164778837Y-119646949D01*
X164806482Y-119628128D01*
X164819965Y-119615350D01*
X164859417Y-119563110D01*
X164862628Y-119516858D01*
X164830049Y-119469133D01*
X164828846Y-119467923D01*
X164803668Y-119448506D01*
X164769447Y-119436693D01*
X164716748Y-119430735D01*
X164636131Y-119428880D01*
X164618271Y-119428846D01*
X164507175Y-119433330D01*
X164430161Y-119447926D01*
X164383147Y-119474350D01*
X164362050Y-119514317D01*
X164359923Y-119537416D01*
X164369900Y-119592238D01*
X164402752Y-119629842D01*
X164462857Y-119652477D01*
X164554598Y-119662394D01*
X164605042Y-119663308D01*
X164605042Y-119851096D01*
X164587060Y-119850778D01*
X164499679Y-119848127D01*
X164435905Y-119844394D01*
X164390582Y-119839093D01*
X164358555Y-119831742D01*
X164334668Y-119821857D01*
X164313764Y-119808954D01*
X164305898Y-119803421D01*
X164231595Y-119730031D01*
X164189467Y-119637240D01*
X164177722Y-119529904D01*
X164189505Y-119436114D01*
X164189505Y-119436114D01*
G37*
X164189505Y-119436114D02*
X164226727Y-119361461D01*
X164295261Y-119295569D01*
X164320648Y-119277423D01*
X164353866Y-119257655D01*
X164389945Y-119244828D01*
X164438098Y-119237490D01*
X164507536Y-119234187D01*
X164599206Y-119233462D01*
X164724830Y-119236737D01*
X164819154Y-119248123D01*
X164889523Y-119269959D01*
X164943286Y-119304581D01*
X164987788Y-119354330D01*
X164990423Y-119357986D01*
X165017377Y-119407015D01*
X165030712Y-119466055D01*
X165034000Y-119541141D01*
X165034000Y-119663205D01*
X165152497Y-119663256D01*
X165218492Y-119664392D01*
X165257202Y-119671314D01*
X165280419Y-119689402D01*
X165299933Y-119724038D01*
X165303920Y-119732355D01*
X165322603Y-119771280D01*
X165334403Y-119801417D01*
X165335422Y-119823826D01*
X165321761Y-119839567D01*
X165289522Y-119849698D01*
X165234804Y-119855277D01*
X165153711Y-119857365D01*
X165042344Y-119857019D01*
X164896802Y-119855300D01*
X164853269Y-119854763D01*
X164703205Y-119852828D01*
X164605042Y-119851096D01*
X164605042Y-119663308D01*
X164688364Y-119662252D01*
X164742880Y-119657562D01*
X164778837Y-119646949D01*
X164806482Y-119628128D01*
X164819965Y-119615350D01*
X164859417Y-119563110D01*
X164862628Y-119516858D01*
X164830049Y-119469133D01*
X164828846Y-119467923D01*
X164803668Y-119448506D01*
X164769447Y-119436693D01*
X164716748Y-119430735D01*
X164636131Y-119428880D01*
X164618271Y-119428846D01*
X164507175Y-119433330D01*
X164430161Y-119447926D01*
X164383147Y-119474350D01*
X164362050Y-119514317D01*
X164359923Y-119537416D01*
X164369900Y-119592238D01*
X164402752Y-119629842D01*
X164462857Y-119652477D01*
X164554598Y-119662394D01*
X164605042Y-119663308D01*
X164605042Y-119851096D01*
X164587060Y-119850778D01*
X164499679Y-119848127D01*
X164435905Y-119844394D01*
X164390582Y-119839093D01*
X164358555Y-119831742D01*
X164334668Y-119821857D01*
X164313764Y-119808954D01*
X164305898Y-119803421D01*
X164231595Y-119730031D01*
X164189467Y-119637240D01*
X164177722Y-119529904D01*
X164189505Y-119436114D01*
D12*
G36*
X120350000Y-115955000D02*
G01*
X120350000Y-116455000D01*
X120950000Y-116455000D01*
X120950000Y-115955000D01*
X120350000Y-115955000D01*
G37*
D13*
X139065000Y-127000000D03*
X133985000Y-127000000D03*
D14*
X128905000Y-127000000D03*
D15*
X130175000Y-116205000D03*
X130175000Y-120015000D03*
X145415000Y-120015000D03*
X150495000Y-120015000D03*
X155575000Y-120015000D03*
X155575000Y-112395000D03*
X150495000Y-112395000D03*
X145415000Y-112395000D03*
D16*
X130175000Y-112395000D03*
D13*
X128905000Y-105410000D03*
X133985000Y-105410000D03*
D14*
X139065000Y-105410000D03*
D12*
G36*
X125615142Y-116656174D02*
G01*
X125638803Y-116659684D01*
X125662007Y-116665496D01*
X125684529Y-116673554D01*
X125706153Y-116683782D01*
X125726670Y-116696079D01*
X125745883Y-116710329D01*
X125763607Y-116726393D01*
X125779671Y-116744117D01*
X125793921Y-116763330D01*
X125806218Y-116783847D01*
X125816446Y-116805471D01*
X125824504Y-116827993D01*
X125830316Y-116851197D01*
X125833826Y-116874858D01*
X125835000Y-116898750D01*
X125835000Y-117386250D01*
X125833826Y-117410142D01*
X125830316Y-117433803D01*
X125824504Y-117457007D01*
X125816446Y-117479529D01*
X125806218Y-117501153D01*
X125793921Y-117521670D01*
X125779671Y-117540883D01*
X125763607Y-117558607D01*
X125745883Y-117574671D01*
X125726670Y-117588921D01*
X125706153Y-117601218D01*
X125684529Y-117611446D01*
X125662007Y-117619504D01*
X125638803Y-117625316D01*
X125615142Y-117628826D01*
X125591250Y-117630000D01*
X124678750Y-117630000D01*
X124654858Y-117628826D01*
X124631197Y-117625316D01*
X124607993Y-117619504D01*
X124585471Y-117611446D01*
X124563847Y-117601218D01*
X124543330Y-117588921D01*
X124524117Y-117574671D01*
X124506393Y-117558607D01*
X124490329Y-117540883D01*
X124476079Y-117521670D01*
X124463782Y-117501153D01*
X124453554Y-117479529D01*
X124445496Y-117457007D01*
X124439684Y-117433803D01*
X124436174Y-117410142D01*
X124435000Y-117386250D01*
X124435000Y-116898750D01*
X124436174Y-116874858D01*
X124439684Y-116851197D01*
X124445496Y-116827993D01*
X124453554Y-116805471D01*
X124463782Y-116783847D01*
X124476079Y-116763330D01*
X124490329Y-116744117D01*
X124506393Y-116726393D01*
X124524117Y-116710329D01*
X124543330Y-116696079D01*
X124563847Y-116683782D01*
X124585471Y-116673554D01*
X124607993Y-116665496D01*
X124631197Y-116659684D01*
X124654858Y-116656174D01*
X124678750Y-116655000D01*
X125591250Y-116655000D01*
X125615142Y-116656174D01*
X125615142Y-116656174D01*
G37*
D17*
X125135000Y-117142500D03*
D12*
G36*
X125615142Y-114781174D02*
G01*
X125638803Y-114784684D01*
X125662007Y-114790496D01*
X125684529Y-114798554D01*
X125706153Y-114808782D01*
X125726670Y-114821079D01*
X125745883Y-114835329D01*
X125763607Y-114851393D01*
X125779671Y-114869117D01*
X125793921Y-114888330D01*
X125806218Y-114908847D01*
X125816446Y-114930471D01*
X125824504Y-114952993D01*
X125830316Y-114976197D01*
X125833826Y-114999858D01*
X125835000Y-115023750D01*
X125835000Y-115511250D01*
X125833826Y-115535142D01*
X125830316Y-115558803D01*
X125824504Y-115582007D01*
X125816446Y-115604529D01*
X125806218Y-115626153D01*
X125793921Y-115646670D01*
X125779671Y-115665883D01*
X125763607Y-115683607D01*
X125745883Y-115699671D01*
X125726670Y-115713921D01*
X125706153Y-115726218D01*
X125684529Y-115736446D01*
X125662007Y-115744504D01*
X125638803Y-115750316D01*
X125615142Y-115753826D01*
X125591250Y-115755000D01*
X124678750Y-115755000D01*
X124654858Y-115753826D01*
X124631197Y-115750316D01*
X124607993Y-115744504D01*
X124585471Y-115736446D01*
X124563847Y-115726218D01*
X124543330Y-115713921D01*
X124524117Y-115699671D01*
X124506393Y-115683607D01*
X124490329Y-115665883D01*
X124476079Y-115646670D01*
X124463782Y-115626153D01*
X124453554Y-115604529D01*
X124445496Y-115582007D01*
X124439684Y-115558803D01*
X124436174Y-115535142D01*
X124435000Y-115511250D01*
X124435000Y-115023750D01*
X124436174Y-114999858D01*
X124439684Y-114976197D01*
X124445496Y-114952993D01*
X124453554Y-114930471D01*
X124463782Y-114908847D01*
X124476079Y-114888330D01*
X124490329Y-114869117D01*
X124506393Y-114851393D01*
X124524117Y-114835329D01*
X124543330Y-114821079D01*
X124563847Y-114808782D01*
X124585471Y-114798554D01*
X124607993Y-114790496D01*
X124631197Y-114784684D01*
X124654858Y-114781174D01*
X124678750Y-114780000D01*
X125591250Y-114780000D01*
X125615142Y-114781174D01*
X125615142Y-114781174D01*
G37*
D17*
X125135000Y-115267500D03*
D18*
X125135000Y-120015000D03*
D19*
X125135000Y-112395000D03*
D20*
X120650000Y-116855000D03*
D12*
G36*
X121400000Y-116355000D02*
G01*
X121400000Y-116855000D01*
X121399398Y-116855000D01*
X121399398Y-116879534D01*
X121394588Y-116928365D01*
X121385016Y-116976490D01*
X121370772Y-117023445D01*
X121351995Y-117068778D01*
X121328864Y-117112051D01*
X121301604Y-117152850D01*
X121270476Y-117190779D01*
X121235779Y-117225476D01*
X121197850Y-117256604D01*
X121157051Y-117283864D01*
X121113778Y-117306995D01*
X121068445Y-117325772D01*
X121021490Y-117340016D01*
X120973365Y-117349588D01*
X120924534Y-117354398D01*
X120900000Y-117354398D01*
X120900000Y-117355000D01*
X120400000Y-117355000D01*
X120400000Y-117354398D01*
X120375466Y-117354398D01*
X120326635Y-117349588D01*
X120278510Y-117340016D01*
X120231555Y-117325772D01*
X120186222Y-117306995D01*
X120142949Y-117283864D01*
X120102150Y-117256604D01*
X120064221Y-117225476D01*
X120029524Y-117190779D01*
X119998396Y-117152850D01*
X119971136Y-117112051D01*
X119948005Y-117068778D01*
X119929228Y-117023445D01*
X119914984Y-116976490D01*
X119905412Y-116928365D01*
X119900602Y-116879534D01*
X119900602Y-116855000D01*
X119900000Y-116855000D01*
X119900000Y-116355000D01*
X121400000Y-116355000D01*
X121400000Y-116355000D01*
G37*
D20*
X120650000Y-115555000D03*
D12*
G36*
X119900602Y-115555000D02*
G01*
X119900602Y-115530466D01*
X119905412Y-115481635D01*
X119914984Y-115433510D01*
X119929228Y-115386555D01*
X119948005Y-115341222D01*
X119971136Y-115297949D01*
X119998396Y-115257150D01*
X120029524Y-115219221D01*
X120064221Y-115184524D01*
X120102150Y-115153396D01*
X120142949Y-115126136D01*
X120186222Y-115103005D01*
X120231555Y-115084228D01*
X120278510Y-115069984D01*
X120326635Y-115060412D01*
X120375466Y-115055602D01*
X120400000Y-115055602D01*
X120400000Y-115055000D01*
X120900000Y-115055000D01*
X120900000Y-115055602D01*
X120924534Y-115055602D01*
X120973365Y-115060412D01*
X121021490Y-115069984D01*
X121068445Y-115084228D01*
X121113778Y-115103005D01*
X121157051Y-115126136D01*
X121197850Y-115153396D01*
X121235779Y-115184524D01*
X121270476Y-115219221D01*
X121301604Y-115257150D01*
X121328864Y-115297949D01*
X121351995Y-115341222D01*
X121370772Y-115386555D01*
X121385016Y-115433510D01*
X121394588Y-115481635D01*
X121399398Y-115530466D01*
X121399398Y-115555000D01*
X121400000Y-115555000D01*
X121400000Y-116055000D01*
X119900000Y-116055000D01*
X119900000Y-115555000D01*
X119900602Y-115555000D01*
X119900602Y-115555000D01*
G37*
D13*
X154305000Y-127000000D03*
X149225000Y-127000000D03*
D14*
X144145000Y-127000000D03*
D21*
X131274999Y-118915001D02*
X130175000Y-120015000D01*
X132715000Y-117475000D02*
X131274999Y-118915001D01*
X128905000Y-105410000D02*
X132715000Y-109220000D01*
X132715000Y-109220000D02*
X132715000Y-117475000D01*
D22*
X125135000Y-120015000D02*
X125135000Y-117142500D01*
D21*
X133985000Y-127000000D02*
X133985000Y-105410000D01*
D22*
X124847500Y-116855000D02*
X125135000Y-117142500D01*
X120650000Y-116855000D02*
X124847500Y-116855000D01*
X125135000Y-122595000D02*
X125135000Y-120015000D01*
X126365000Y-123825000D02*
X125135000Y-122595000D01*
X132931320Y-123825000D02*
X126365000Y-123825000D01*
X133985000Y-127000000D02*
X133985000Y-124878680D01*
X133985000Y-124878680D02*
X132931320Y-123825000D01*
X125135000Y-115267500D02*
X125135000Y-112395000D01*
X129237500Y-115267500D02*
X130175000Y-116205000D01*
X125135000Y-115267500D02*
X129237500Y-115267500D01*
X124847500Y-115555000D02*
X125135000Y-115267500D01*
X120650000Y-115555000D02*
X124847500Y-115555000D01*
M02*
