G04 #@! TF.GenerationSoftware,KiCad,Pcbnew,(5.1.4)-1*
G04 #@! TF.CreationDate,2019-09-09T12:01:52+02:00*
G04 #@! TF.ProjectId,SwitchRelay,53776974-6368-4526-956c-61792e6b6963,1.0*
G04 #@! TF.SameCoordinates,Original*
G04 #@! TF.FileFunction,Soldermask,Bot*
G04 #@! TF.FilePolarity,Negative*
%FSLAX46Y46*%
G04 Gerber Fmt 4.6, Leading zero omitted, Abs format (unit mm)*
G04 Created by KiCad (PCBNEW (5.1.4)-1) date 2019-09-09 12:01:52*
%MOMM*%
%LPD*%
G04 APERTURE LIST*
%ADD10C,0.203200*%
%ADD11C,0.254000*%
%ADD12C,0.100000*%
G04 APERTURE END LIST*
D10*
X122966238Y-110471857D02*
X123014619Y-110617000D01*
X123014619Y-110858904D01*
X122966238Y-110955666D01*
X122917857Y-111004047D01*
X122821095Y-111052428D01*
X122724333Y-111052428D01*
X122627571Y-111004047D01*
X122579190Y-110955666D01*
X122530809Y-110858904D01*
X122482428Y-110665380D01*
X122434047Y-110568619D01*
X122385666Y-110520238D01*
X122288904Y-110471857D01*
X122192142Y-110471857D01*
X122095380Y-110520238D01*
X122047000Y-110568619D01*
X121998619Y-110665380D01*
X121998619Y-110907285D01*
X122047000Y-111052428D01*
X122966238Y-111874904D02*
X123014619Y-111778142D01*
X123014619Y-111584619D01*
X122966238Y-111487857D01*
X122869476Y-111439476D01*
X122482428Y-111439476D01*
X122385666Y-111487857D01*
X122337285Y-111584619D01*
X122337285Y-111778142D01*
X122385666Y-111874904D01*
X122482428Y-111923285D01*
X122579190Y-111923285D01*
X122675952Y-111439476D01*
X122337285Y-112358714D02*
X123353285Y-112358714D01*
X122385666Y-112358714D02*
X122337285Y-112455476D01*
X122337285Y-112649000D01*
X122385666Y-112745761D01*
X122434047Y-112794142D01*
X122530809Y-112842523D01*
X122821095Y-112842523D01*
X122917857Y-112794142D01*
X122966238Y-112745761D01*
X123014619Y-112649000D01*
X123014619Y-112455476D01*
X122966238Y-112358714D01*
X122337285Y-113132809D02*
X122337285Y-113519857D01*
X121998619Y-113277952D02*
X122869476Y-113277952D01*
X122966238Y-113326333D01*
X123014619Y-113423095D01*
X123014619Y-113519857D01*
X123014619Y-113858523D02*
X122337285Y-113858523D01*
X121998619Y-113858523D02*
X122047000Y-113810142D01*
X122095380Y-113858523D01*
X122047000Y-113906904D01*
X121998619Y-113858523D01*
X122095380Y-113858523D01*
X123014619Y-114487476D02*
X122966238Y-114390714D01*
X122869476Y-114342333D01*
X121998619Y-114342333D01*
X123014619Y-115019666D02*
X122966238Y-114922904D01*
X122869476Y-114874523D01*
X121998619Y-114874523D01*
X123014619Y-115406714D02*
X122337285Y-115406714D01*
X121998619Y-115406714D02*
X122047000Y-115358333D01*
X122095380Y-115406714D01*
X122047000Y-115455095D01*
X121998619Y-115406714D01*
X122095380Y-115406714D01*
X123014619Y-116035666D02*
X122966238Y-115938904D01*
X122917857Y-115890523D01*
X122821095Y-115842142D01*
X122530809Y-115842142D01*
X122434047Y-115890523D01*
X122385666Y-115938904D01*
X122337285Y-116035666D01*
X122337285Y-116180809D01*
X122385666Y-116277571D01*
X122434047Y-116325952D01*
X122530809Y-116374333D01*
X122821095Y-116374333D01*
X122917857Y-116325952D01*
X122966238Y-116277571D01*
X123014619Y-116180809D01*
X123014619Y-116035666D01*
X122337285Y-116809761D02*
X123014619Y-116809761D01*
X122434047Y-116809761D02*
X122385666Y-116858142D01*
X122337285Y-116954904D01*
X122337285Y-117100047D01*
X122385666Y-117196809D01*
X122482428Y-117245190D01*
X123014619Y-117245190D01*
X122095380Y-118454714D02*
X122047000Y-118503095D01*
X121998619Y-118599857D01*
X121998619Y-118841761D01*
X122047000Y-118938523D01*
X122095380Y-118986904D01*
X122192142Y-119035285D01*
X122288904Y-119035285D01*
X122434047Y-118986904D01*
X123014619Y-118406333D01*
X123014619Y-119035285D01*
X121998619Y-119664238D02*
X121998619Y-119761000D01*
X122047000Y-119857761D01*
X122095380Y-119906142D01*
X122192142Y-119954523D01*
X122385666Y-120002904D01*
X122627571Y-120002904D01*
X122821095Y-119954523D01*
X122917857Y-119906142D01*
X122966238Y-119857761D01*
X123014619Y-119761000D01*
X123014619Y-119664238D01*
X122966238Y-119567476D01*
X122917857Y-119519095D01*
X122821095Y-119470714D01*
X122627571Y-119422333D01*
X122385666Y-119422333D01*
X122192142Y-119470714D01*
X122095380Y-119519095D01*
X122047000Y-119567476D01*
X121998619Y-119664238D01*
X123014619Y-120970523D02*
X123014619Y-120389952D01*
X123014619Y-120680238D02*
X121998619Y-120680238D01*
X122143761Y-120583476D01*
X122240523Y-120486714D01*
X122288904Y-120389952D01*
X123014619Y-121454333D02*
X123014619Y-121647857D01*
X122966238Y-121744619D01*
X122917857Y-121793000D01*
X122772714Y-121889761D01*
X122579190Y-121938142D01*
X122192142Y-121938142D01*
X122095380Y-121889761D01*
X122047000Y-121841380D01*
X121998619Y-121744619D01*
X121998619Y-121551095D01*
X122047000Y-121454333D01*
X122095380Y-121405952D01*
X122192142Y-121357571D01*
X122434047Y-121357571D01*
X122530809Y-121405952D01*
X122579190Y-121454333D01*
X122627571Y-121551095D01*
X122627571Y-121744619D01*
X122579190Y-121841380D01*
X122530809Y-121889761D01*
X122434047Y-121938142D01*
D11*
X120048261Y-107163809D02*
X120126880Y-107399666D01*
X120126880Y-107792761D01*
X120048261Y-107950000D01*
X119969642Y-108028619D01*
X119812404Y-108107238D01*
X119655166Y-108107238D01*
X119497928Y-108028619D01*
X119419309Y-107950000D01*
X119340690Y-107792761D01*
X119262071Y-107478285D01*
X119183452Y-107321047D01*
X119104833Y-107242428D01*
X118947595Y-107163809D01*
X118790357Y-107163809D01*
X118633119Y-107242428D01*
X118554500Y-107321047D01*
X118475880Y-107478285D01*
X118475880Y-107871380D01*
X118554500Y-108107238D01*
X119026214Y-108657571D02*
X120126880Y-108972047D01*
X119340690Y-109286523D01*
X120126880Y-109601000D01*
X119026214Y-109915476D01*
X120126880Y-110544428D02*
X119026214Y-110544428D01*
X118475880Y-110544428D02*
X118554500Y-110465809D01*
X118633119Y-110544428D01*
X118554500Y-110623047D01*
X118475880Y-110544428D01*
X118633119Y-110544428D01*
X119026214Y-111094761D02*
X119026214Y-111723714D01*
X118475880Y-111330619D02*
X119891023Y-111330619D01*
X120048261Y-111409238D01*
X120126880Y-111566476D01*
X120126880Y-111723714D01*
X120048261Y-112981619D02*
X120126880Y-112824380D01*
X120126880Y-112509904D01*
X120048261Y-112352666D01*
X119969642Y-112274047D01*
X119812404Y-112195428D01*
X119340690Y-112195428D01*
X119183452Y-112274047D01*
X119104833Y-112352666D01*
X119026214Y-112509904D01*
X119026214Y-112824380D01*
X119104833Y-112981619D01*
X120126880Y-113689190D02*
X118475880Y-113689190D01*
X120126880Y-114396761D02*
X119262071Y-114396761D01*
X119104833Y-114318142D01*
X119026214Y-114160904D01*
X119026214Y-113925047D01*
X119104833Y-113767809D01*
X119183452Y-113689190D01*
X120126880Y-116126380D02*
X119340690Y-115576047D01*
X120126880Y-115182952D02*
X118475880Y-115182952D01*
X118475880Y-115811904D01*
X118554500Y-115969142D01*
X118633119Y-116047761D01*
X118790357Y-116126380D01*
X119026214Y-116126380D01*
X119183452Y-116047761D01*
X119262071Y-115969142D01*
X119340690Y-115811904D01*
X119340690Y-115182952D01*
X120048261Y-117462904D02*
X120126880Y-117305666D01*
X120126880Y-116991190D01*
X120048261Y-116833952D01*
X119891023Y-116755333D01*
X119262071Y-116755333D01*
X119104833Y-116833952D01*
X119026214Y-116991190D01*
X119026214Y-117305666D01*
X119104833Y-117462904D01*
X119262071Y-117541523D01*
X119419309Y-117541523D01*
X119576547Y-116755333D01*
X120126880Y-118484952D02*
X120048261Y-118327714D01*
X119891023Y-118249095D01*
X118475880Y-118249095D01*
X120126880Y-119821476D02*
X119262071Y-119821476D01*
X119104833Y-119742857D01*
X119026214Y-119585619D01*
X119026214Y-119271142D01*
X119104833Y-119113904D01*
X120048261Y-119821476D02*
X120126880Y-119664238D01*
X120126880Y-119271142D01*
X120048261Y-119113904D01*
X119891023Y-119035285D01*
X119733785Y-119035285D01*
X119576547Y-119113904D01*
X119497928Y-119271142D01*
X119497928Y-119664238D01*
X119419309Y-119821476D01*
X119026214Y-120450428D02*
X120126880Y-120843523D01*
X119026214Y-121236619D02*
X120126880Y-120843523D01*
X120519976Y-120686285D01*
X120598595Y-120607666D01*
X120677214Y-120450428D01*
X119026214Y-122966238D02*
X120126880Y-123359333D01*
X119026214Y-123752428D01*
X118633119Y-124302761D02*
X118554500Y-124381380D01*
X118475880Y-124538619D01*
X118475880Y-124931714D01*
X118554500Y-125088952D01*
X118633119Y-125167571D01*
X118790357Y-125246190D01*
X118947595Y-125246190D01*
X119183452Y-125167571D01*
X120126880Y-124224142D01*
X120126880Y-125246190D01*
D12*
G36*
X163407585Y-127683802D02*
G01*
X163557410Y-127713604D01*
X163839674Y-127830521D01*
X164093705Y-128000259D01*
X164309741Y-128216295D01*
X164479479Y-128470326D01*
X164596396Y-128752590D01*
X164656000Y-129052240D01*
X164656000Y-129357760D01*
X164596396Y-129657410D01*
X164479479Y-129939674D01*
X164309741Y-130193705D01*
X164093705Y-130409741D01*
X163839674Y-130579479D01*
X163557410Y-130696396D01*
X163407585Y-130726198D01*
X163257761Y-130756000D01*
X162952239Y-130756000D01*
X162802415Y-130726198D01*
X162652590Y-130696396D01*
X162370326Y-130579479D01*
X162116295Y-130409741D01*
X161900259Y-130193705D01*
X161730521Y-129939674D01*
X161613604Y-129657410D01*
X161554000Y-129357760D01*
X161554000Y-129052240D01*
X161613604Y-128752590D01*
X161730521Y-128470326D01*
X161900259Y-128216295D01*
X162116295Y-128000259D01*
X162370326Y-127830521D01*
X162652590Y-127713604D01*
X162802415Y-127683802D01*
X162952239Y-127654000D01*
X163257761Y-127654000D01*
X163407585Y-127683802D01*
X163407585Y-127683802D01*
G37*
G36*
X120407585Y-127683802D02*
G01*
X120557410Y-127713604D01*
X120839674Y-127830521D01*
X121093705Y-128000259D01*
X121309741Y-128216295D01*
X121479479Y-128470326D01*
X121596396Y-128752590D01*
X121656000Y-129052240D01*
X121656000Y-129357760D01*
X121596396Y-129657410D01*
X121479479Y-129939674D01*
X121309741Y-130193705D01*
X121093705Y-130409741D01*
X120839674Y-130579479D01*
X120557410Y-130696396D01*
X120407585Y-130726198D01*
X120257761Y-130756000D01*
X119952239Y-130756000D01*
X119802415Y-130726198D01*
X119652590Y-130696396D01*
X119370326Y-130579479D01*
X119116295Y-130409741D01*
X118900259Y-130193705D01*
X118730521Y-129939674D01*
X118613604Y-129657410D01*
X118554000Y-129357760D01*
X118554000Y-129052240D01*
X118613604Y-128752590D01*
X118730521Y-128470326D01*
X118900259Y-128216295D01*
X119116295Y-128000259D01*
X119370326Y-127830521D01*
X119652590Y-127713604D01*
X119802415Y-127683802D01*
X119952239Y-127654000D01*
X120257761Y-127654000D01*
X120407585Y-127683802D01*
X120407585Y-127683802D01*
G37*
G36*
X134287585Y-125478802D02*
G01*
X134437410Y-125508604D01*
X134719674Y-125625521D01*
X134973705Y-125795259D01*
X135189741Y-126011295D01*
X135359479Y-126265326D01*
X135476396Y-126547590D01*
X135536000Y-126847240D01*
X135536000Y-127152760D01*
X135476396Y-127452410D01*
X135359479Y-127734674D01*
X135189741Y-127988705D01*
X134973705Y-128204741D01*
X134719674Y-128374479D01*
X134437410Y-128491396D01*
X134287585Y-128521198D01*
X134137761Y-128551000D01*
X133832239Y-128551000D01*
X133682415Y-128521198D01*
X133532590Y-128491396D01*
X133250326Y-128374479D01*
X132996295Y-128204741D01*
X132780259Y-127988705D01*
X132610521Y-127734674D01*
X132493604Y-127452410D01*
X132434000Y-127152760D01*
X132434000Y-126847240D01*
X132493604Y-126547590D01*
X132610521Y-126265326D01*
X132780259Y-126011295D01*
X132996295Y-125795259D01*
X133250326Y-125625521D01*
X133532590Y-125508604D01*
X133682415Y-125478802D01*
X133832239Y-125449000D01*
X134137761Y-125449000D01*
X134287585Y-125478802D01*
X134287585Y-125478802D01*
G37*
G36*
X154607585Y-125478802D02*
G01*
X154757410Y-125508604D01*
X155039674Y-125625521D01*
X155293705Y-125795259D01*
X155509741Y-126011295D01*
X155679479Y-126265326D01*
X155796396Y-126547590D01*
X155856000Y-126847240D01*
X155856000Y-127152760D01*
X155796396Y-127452410D01*
X155679479Y-127734674D01*
X155509741Y-127988705D01*
X155293705Y-128204741D01*
X155039674Y-128374479D01*
X154757410Y-128491396D01*
X154607585Y-128521198D01*
X154457761Y-128551000D01*
X154152239Y-128551000D01*
X154002415Y-128521198D01*
X153852590Y-128491396D01*
X153570326Y-128374479D01*
X153316295Y-128204741D01*
X153100259Y-127988705D01*
X152930521Y-127734674D01*
X152813604Y-127452410D01*
X152754000Y-127152760D01*
X152754000Y-126847240D01*
X152813604Y-126547590D01*
X152930521Y-126265326D01*
X153100259Y-126011295D01*
X153316295Y-125795259D01*
X153570326Y-125625521D01*
X153852590Y-125508604D01*
X154002415Y-125478802D01*
X154152239Y-125449000D01*
X154457761Y-125449000D01*
X154607585Y-125478802D01*
X154607585Y-125478802D01*
G37*
G36*
X145696000Y-128551000D02*
G01*
X142594000Y-128551000D01*
X142594000Y-125449000D01*
X145696000Y-125449000D01*
X145696000Y-128551000D01*
X145696000Y-128551000D01*
G37*
G36*
X149527585Y-125478802D02*
G01*
X149677410Y-125508604D01*
X149959674Y-125625521D01*
X150213705Y-125795259D01*
X150429741Y-126011295D01*
X150599479Y-126265326D01*
X150716396Y-126547590D01*
X150776000Y-126847240D01*
X150776000Y-127152760D01*
X150716396Y-127452410D01*
X150599479Y-127734674D01*
X150429741Y-127988705D01*
X150213705Y-128204741D01*
X149959674Y-128374479D01*
X149677410Y-128491396D01*
X149527585Y-128521198D01*
X149377761Y-128551000D01*
X149072239Y-128551000D01*
X148922415Y-128521198D01*
X148772590Y-128491396D01*
X148490326Y-128374479D01*
X148236295Y-128204741D01*
X148020259Y-127988705D01*
X147850521Y-127734674D01*
X147733604Y-127452410D01*
X147674000Y-127152760D01*
X147674000Y-126847240D01*
X147733604Y-126547590D01*
X147850521Y-126265326D01*
X148020259Y-126011295D01*
X148236295Y-125795259D01*
X148490326Y-125625521D01*
X148772590Y-125508604D01*
X148922415Y-125478802D01*
X149072239Y-125449000D01*
X149377761Y-125449000D01*
X149527585Y-125478802D01*
X149527585Y-125478802D01*
G37*
G36*
X130456000Y-128551000D02*
G01*
X127354000Y-128551000D01*
X127354000Y-125449000D01*
X130456000Y-125449000D01*
X130456000Y-128551000D01*
X130456000Y-128551000D01*
G37*
G36*
X139367585Y-125478802D02*
G01*
X139517410Y-125508604D01*
X139799674Y-125625521D01*
X140053705Y-125795259D01*
X140269741Y-126011295D01*
X140439479Y-126265326D01*
X140556396Y-126547590D01*
X140616000Y-126847240D01*
X140616000Y-127152760D01*
X140556396Y-127452410D01*
X140439479Y-127734674D01*
X140269741Y-127988705D01*
X140053705Y-128204741D01*
X139799674Y-128374479D01*
X139517410Y-128491396D01*
X139367585Y-128521198D01*
X139217761Y-128551000D01*
X138912239Y-128551000D01*
X138762415Y-128521198D01*
X138612590Y-128491396D01*
X138330326Y-128374479D01*
X138076295Y-128204741D01*
X137860259Y-127988705D01*
X137690521Y-127734674D01*
X137573604Y-127452410D01*
X137514000Y-127152760D01*
X137514000Y-126847240D01*
X137573604Y-126547590D01*
X137690521Y-126265326D01*
X137860259Y-126011295D01*
X138076295Y-125795259D01*
X138330326Y-125625521D01*
X138612590Y-125508604D01*
X138762415Y-125478802D01*
X138912239Y-125449000D01*
X139217761Y-125449000D01*
X139367585Y-125478802D01*
X139367585Y-125478802D01*
G37*
G36*
X150719549Y-118886116D02*
G01*
X150830734Y-118908232D01*
X151040203Y-118994997D01*
X151228720Y-119120960D01*
X151389040Y-119281280D01*
X151515003Y-119469797D01*
X151601768Y-119679266D01*
X151646000Y-119901636D01*
X151646000Y-120128364D01*
X151601768Y-120350734D01*
X151515003Y-120560203D01*
X151389040Y-120748720D01*
X151228720Y-120909040D01*
X151040203Y-121035003D01*
X150830734Y-121121768D01*
X150719549Y-121143884D01*
X150608365Y-121166000D01*
X150381635Y-121166000D01*
X150270451Y-121143884D01*
X150159266Y-121121768D01*
X149949797Y-121035003D01*
X149761280Y-120909040D01*
X149600960Y-120748720D01*
X149474997Y-120560203D01*
X149388232Y-120350734D01*
X149344000Y-120128364D01*
X149344000Y-119901636D01*
X149388232Y-119679266D01*
X149474997Y-119469797D01*
X149600960Y-119281280D01*
X149761280Y-119120960D01*
X149949797Y-118994997D01*
X150159266Y-118908232D01*
X150270451Y-118886116D01*
X150381635Y-118864000D01*
X150608365Y-118864000D01*
X150719549Y-118886116D01*
X150719549Y-118886116D01*
G37*
G36*
X155799549Y-118886116D02*
G01*
X155910734Y-118908232D01*
X156120203Y-118994997D01*
X156308720Y-119120960D01*
X156469040Y-119281280D01*
X156595003Y-119469797D01*
X156681768Y-119679266D01*
X156726000Y-119901636D01*
X156726000Y-120128364D01*
X156681768Y-120350734D01*
X156595003Y-120560203D01*
X156469040Y-120748720D01*
X156308720Y-120909040D01*
X156120203Y-121035003D01*
X155910734Y-121121768D01*
X155799549Y-121143884D01*
X155688365Y-121166000D01*
X155461635Y-121166000D01*
X155350451Y-121143884D01*
X155239266Y-121121768D01*
X155029797Y-121035003D01*
X154841280Y-120909040D01*
X154680960Y-120748720D01*
X154554997Y-120560203D01*
X154468232Y-120350734D01*
X154424000Y-120128364D01*
X154424000Y-119901636D01*
X154468232Y-119679266D01*
X154554997Y-119469797D01*
X154680960Y-119281280D01*
X154841280Y-119120960D01*
X155029797Y-118994997D01*
X155239266Y-118908232D01*
X155350451Y-118886116D01*
X155461635Y-118864000D01*
X155688365Y-118864000D01*
X155799549Y-118886116D01*
X155799549Y-118886116D01*
G37*
G36*
X145639549Y-118886116D02*
G01*
X145750734Y-118908232D01*
X145960203Y-118994997D01*
X146148720Y-119120960D01*
X146309040Y-119281280D01*
X146435003Y-119469797D01*
X146521768Y-119679266D01*
X146566000Y-119901636D01*
X146566000Y-120128364D01*
X146521768Y-120350734D01*
X146435003Y-120560203D01*
X146309040Y-120748720D01*
X146148720Y-120909040D01*
X145960203Y-121035003D01*
X145750734Y-121121768D01*
X145639549Y-121143884D01*
X145528365Y-121166000D01*
X145301635Y-121166000D01*
X145190451Y-121143884D01*
X145079266Y-121121768D01*
X144869797Y-121035003D01*
X144681280Y-120909040D01*
X144520960Y-120748720D01*
X144394997Y-120560203D01*
X144308232Y-120350734D01*
X144264000Y-120128364D01*
X144264000Y-119901636D01*
X144308232Y-119679266D01*
X144394997Y-119469797D01*
X144520960Y-119281280D01*
X144681280Y-119120960D01*
X144869797Y-118994997D01*
X145079266Y-118908232D01*
X145190451Y-118886116D01*
X145301635Y-118864000D01*
X145528365Y-118864000D01*
X145639549Y-118886116D01*
X145639549Y-118886116D01*
G37*
G36*
X130399549Y-118886116D02*
G01*
X130510734Y-118908232D01*
X130720203Y-118994997D01*
X130908720Y-119120960D01*
X131069040Y-119281280D01*
X131195003Y-119469797D01*
X131281768Y-119679266D01*
X131326000Y-119901636D01*
X131326000Y-120128364D01*
X131281768Y-120350734D01*
X131195003Y-120560203D01*
X131069040Y-120748720D01*
X130908720Y-120909040D01*
X130720203Y-121035003D01*
X130510734Y-121121768D01*
X130399549Y-121143884D01*
X130288365Y-121166000D01*
X130061635Y-121166000D01*
X129950451Y-121143884D01*
X129839266Y-121121768D01*
X129629797Y-121035003D01*
X129441280Y-120909040D01*
X129280960Y-120748720D01*
X129154997Y-120560203D01*
X129068232Y-120350734D01*
X129024000Y-120128364D01*
X129024000Y-119901636D01*
X129068232Y-119679266D01*
X129154997Y-119469797D01*
X129280960Y-119281280D01*
X129441280Y-119120960D01*
X129629797Y-118994997D01*
X129839266Y-118908232D01*
X129950451Y-118886116D01*
X130061635Y-118864000D01*
X130288365Y-118864000D01*
X130399549Y-118886116D01*
X130399549Y-118886116D01*
G37*
G36*
X125301823Y-119176313D02*
G01*
X125462242Y-119224976D01*
X125567579Y-119281280D01*
X125610078Y-119303996D01*
X125739659Y-119410341D01*
X125846004Y-119539922D01*
X125846005Y-119539924D01*
X125925024Y-119687758D01*
X125973687Y-119848177D01*
X125990117Y-120015000D01*
X125973687Y-120181823D01*
X125925024Y-120342242D01*
X125854114Y-120474906D01*
X125846004Y-120490078D01*
X125739659Y-120619659D01*
X125610078Y-120726004D01*
X125610076Y-120726005D01*
X125462242Y-120805024D01*
X125301823Y-120853687D01*
X125176804Y-120866000D01*
X125093196Y-120866000D01*
X124968177Y-120853687D01*
X124807758Y-120805024D01*
X124659924Y-120726005D01*
X124659922Y-120726004D01*
X124530341Y-120619659D01*
X124423996Y-120490078D01*
X124415886Y-120474906D01*
X124344976Y-120342242D01*
X124296313Y-120181823D01*
X124279883Y-120015000D01*
X124296313Y-119848177D01*
X124344976Y-119687758D01*
X124423995Y-119539924D01*
X124423996Y-119539922D01*
X124530341Y-119410341D01*
X124659922Y-119303996D01*
X124702421Y-119281280D01*
X124807758Y-119224976D01*
X124968177Y-119176313D01*
X125093196Y-119164000D01*
X125176804Y-119164000D01*
X125301823Y-119176313D01*
X125301823Y-119176313D01*
G37*
G36*
X130399549Y-115076116D02*
G01*
X130510734Y-115098232D01*
X130720203Y-115184997D01*
X130908720Y-115310960D01*
X131069040Y-115471280D01*
X131195003Y-115659797D01*
X131281768Y-115869266D01*
X131326000Y-116091636D01*
X131326000Y-116318364D01*
X131281768Y-116540734D01*
X131195003Y-116750203D01*
X131069040Y-116938720D01*
X130908720Y-117099040D01*
X130720203Y-117225003D01*
X130510734Y-117311768D01*
X130399549Y-117333884D01*
X130288365Y-117356000D01*
X130061635Y-117356000D01*
X129950451Y-117333884D01*
X129839266Y-117311768D01*
X129629797Y-117225003D01*
X129441280Y-117099040D01*
X129280960Y-116938720D01*
X129154997Y-116750203D01*
X129068232Y-116540734D01*
X129024000Y-116318364D01*
X129024000Y-116091636D01*
X129068232Y-115869266D01*
X129154997Y-115659797D01*
X129280960Y-115471280D01*
X129441280Y-115310960D01*
X129629797Y-115184997D01*
X129839266Y-115098232D01*
X129950451Y-115076116D01*
X130061635Y-115054000D01*
X130288365Y-115054000D01*
X130399549Y-115076116D01*
X130399549Y-115076116D01*
G37*
G36*
X155799549Y-111266116D02*
G01*
X155910734Y-111288232D01*
X156120203Y-111374997D01*
X156308720Y-111500960D01*
X156469040Y-111661280D01*
X156595003Y-111849797D01*
X156595004Y-111849799D01*
X156681768Y-112059267D01*
X156726000Y-112281635D01*
X156726000Y-112508365D01*
X156681768Y-112730733D01*
X156596131Y-112937481D01*
X156595003Y-112940203D01*
X156469040Y-113128720D01*
X156308720Y-113289040D01*
X156120203Y-113415003D01*
X155910734Y-113501768D01*
X155799549Y-113523884D01*
X155688365Y-113546000D01*
X155461635Y-113546000D01*
X155350451Y-113523884D01*
X155239266Y-113501768D01*
X155029797Y-113415003D01*
X154841280Y-113289040D01*
X154680960Y-113128720D01*
X154554997Y-112940203D01*
X154553870Y-112937481D01*
X154468232Y-112730733D01*
X154424000Y-112508365D01*
X154424000Y-112281635D01*
X154468232Y-112059267D01*
X154554996Y-111849799D01*
X154554997Y-111849797D01*
X154680960Y-111661280D01*
X154841280Y-111500960D01*
X155029797Y-111374997D01*
X155239266Y-111288232D01*
X155350451Y-111266116D01*
X155461635Y-111244000D01*
X155688365Y-111244000D01*
X155799549Y-111266116D01*
X155799549Y-111266116D01*
G37*
G36*
X150719549Y-111266116D02*
G01*
X150830734Y-111288232D01*
X151040203Y-111374997D01*
X151228720Y-111500960D01*
X151389040Y-111661280D01*
X151515003Y-111849797D01*
X151515004Y-111849799D01*
X151601768Y-112059267D01*
X151646000Y-112281635D01*
X151646000Y-112508365D01*
X151601768Y-112730733D01*
X151516131Y-112937481D01*
X151515003Y-112940203D01*
X151389040Y-113128720D01*
X151228720Y-113289040D01*
X151040203Y-113415003D01*
X150830734Y-113501768D01*
X150719549Y-113523884D01*
X150608365Y-113546000D01*
X150381635Y-113546000D01*
X150270451Y-113523884D01*
X150159266Y-113501768D01*
X149949797Y-113415003D01*
X149761280Y-113289040D01*
X149600960Y-113128720D01*
X149474997Y-112940203D01*
X149473870Y-112937481D01*
X149388232Y-112730733D01*
X149344000Y-112508365D01*
X149344000Y-112281635D01*
X149388232Y-112059267D01*
X149474996Y-111849799D01*
X149474997Y-111849797D01*
X149600960Y-111661280D01*
X149761280Y-111500960D01*
X149949797Y-111374997D01*
X150159266Y-111288232D01*
X150270451Y-111266116D01*
X150381635Y-111244000D01*
X150608365Y-111244000D01*
X150719549Y-111266116D01*
X150719549Y-111266116D01*
G37*
G36*
X145639549Y-111266116D02*
G01*
X145750734Y-111288232D01*
X145960203Y-111374997D01*
X146148720Y-111500960D01*
X146309040Y-111661280D01*
X146435003Y-111849797D01*
X146435004Y-111849799D01*
X146521768Y-112059267D01*
X146566000Y-112281635D01*
X146566000Y-112508365D01*
X146521768Y-112730733D01*
X146436131Y-112937481D01*
X146435003Y-112940203D01*
X146309040Y-113128720D01*
X146148720Y-113289040D01*
X145960203Y-113415003D01*
X145750734Y-113501768D01*
X145639549Y-113523884D01*
X145528365Y-113546000D01*
X145301635Y-113546000D01*
X145190451Y-113523884D01*
X145079266Y-113501768D01*
X144869797Y-113415003D01*
X144681280Y-113289040D01*
X144520960Y-113128720D01*
X144394997Y-112940203D01*
X144393870Y-112937481D01*
X144308232Y-112730733D01*
X144264000Y-112508365D01*
X144264000Y-112281635D01*
X144308232Y-112059267D01*
X144394996Y-111849799D01*
X144394997Y-111849797D01*
X144520960Y-111661280D01*
X144681280Y-111500960D01*
X144869797Y-111374997D01*
X145079266Y-111288232D01*
X145190451Y-111266116D01*
X145301635Y-111244000D01*
X145528365Y-111244000D01*
X145639549Y-111266116D01*
X145639549Y-111266116D01*
G37*
G36*
X131326000Y-113546000D02*
G01*
X129024000Y-113546000D01*
X129024000Y-111244000D01*
X131326000Y-111244000D01*
X131326000Y-113546000D01*
X131326000Y-113546000D01*
G37*
G36*
X125383228Y-111576703D02*
G01*
X125538100Y-111640853D01*
X125677481Y-111733985D01*
X125796015Y-111852519D01*
X125889147Y-111991900D01*
X125953297Y-112146772D01*
X125986000Y-112311184D01*
X125986000Y-112478816D01*
X125953297Y-112643228D01*
X125889147Y-112798100D01*
X125796015Y-112937481D01*
X125677481Y-113056015D01*
X125538100Y-113149147D01*
X125383228Y-113213297D01*
X125218816Y-113246000D01*
X125051184Y-113246000D01*
X124886772Y-113213297D01*
X124731900Y-113149147D01*
X124592519Y-113056015D01*
X124473985Y-112937481D01*
X124380853Y-112798100D01*
X124316703Y-112643228D01*
X124284000Y-112478816D01*
X124284000Y-112311184D01*
X124316703Y-112146772D01*
X124380853Y-111991900D01*
X124473985Y-111852519D01*
X124592519Y-111733985D01*
X124731900Y-111640853D01*
X124886772Y-111576703D01*
X125051184Y-111544000D01*
X125218816Y-111544000D01*
X125383228Y-111576703D01*
X125383228Y-111576703D01*
G37*
G36*
X129207585Y-103888802D02*
G01*
X129357410Y-103918604D01*
X129639674Y-104035521D01*
X129893705Y-104205259D01*
X130109741Y-104421295D01*
X130279479Y-104675326D01*
X130396396Y-104957590D01*
X130456000Y-105257240D01*
X130456000Y-105562760D01*
X130396396Y-105862410D01*
X130279479Y-106144674D01*
X130109741Y-106398705D01*
X129893705Y-106614741D01*
X129639674Y-106784479D01*
X129357410Y-106901396D01*
X129207585Y-106931198D01*
X129057761Y-106961000D01*
X128752239Y-106961000D01*
X128602415Y-106931198D01*
X128452590Y-106901396D01*
X128170326Y-106784479D01*
X127916295Y-106614741D01*
X127700259Y-106398705D01*
X127530521Y-106144674D01*
X127413604Y-105862410D01*
X127354000Y-105562760D01*
X127354000Y-105257240D01*
X127413604Y-104957590D01*
X127530521Y-104675326D01*
X127700259Y-104421295D01*
X127916295Y-104205259D01*
X128170326Y-104035521D01*
X128452590Y-103918604D01*
X128602415Y-103888802D01*
X128752239Y-103859000D01*
X129057761Y-103859000D01*
X129207585Y-103888802D01*
X129207585Y-103888802D01*
G37*
G36*
X140616000Y-106961000D02*
G01*
X137514000Y-106961000D01*
X137514000Y-103859000D01*
X140616000Y-103859000D01*
X140616000Y-106961000D01*
X140616000Y-106961000D01*
G37*
G36*
X134287585Y-103888802D02*
G01*
X134437410Y-103918604D01*
X134719674Y-104035521D01*
X134973705Y-104205259D01*
X135189741Y-104421295D01*
X135359479Y-104675326D01*
X135476396Y-104957590D01*
X135536000Y-105257240D01*
X135536000Y-105562760D01*
X135476396Y-105862410D01*
X135359479Y-106144674D01*
X135189741Y-106398705D01*
X134973705Y-106614741D01*
X134719674Y-106784479D01*
X134437410Y-106901396D01*
X134287585Y-106931198D01*
X134137761Y-106961000D01*
X133832239Y-106961000D01*
X133682415Y-106931198D01*
X133532590Y-106901396D01*
X133250326Y-106784479D01*
X132996295Y-106614741D01*
X132780259Y-106398705D01*
X132610521Y-106144674D01*
X132493604Y-105862410D01*
X132434000Y-105562760D01*
X132434000Y-105257240D01*
X132493604Y-104957590D01*
X132610521Y-104675326D01*
X132780259Y-104421295D01*
X132996295Y-104205259D01*
X133250326Y-104035521D01*
X133532590Y-103918604D01*
X133682415Y-103888802D01*
X133832239Y-103859000D01*
X134137761Y-103859000D01*
X134287585Y-103888802D01*
X134287585Y-103888802D01*
G37*
G36*
X120407585Y-101683802D02*
G01*
X120557410Y-101713604D01*
X120839674Y-101830521D01*
X121093705Y-102000259D01*
X121309741Y-102216295D01*
X121479479Y-102470326D01*
X121596396Y-102752590D01*
X121656000Y-103052240D01*
X121656000Y-103357760D01*
X121596396Y-103657410D01*
X121479479Y-103939674D01*
X121309741Y-104193705D01*
X121093705Y-104409741D01*
X120839674Y-104579479D01*
X120557410Y-104696396D01*
X120407585Y-104726198D01*
X120257761Y-104756000D01*
X119952239Y-104756000D01*
X119802415Y-104726198D01*
X119652590Y-104696396D01*
X119370326Y-104579479D01*
X119116295Y-104409741D01*
X118900259Y-104193705D01*
X118730521Y-103939674D01*
X118613604Y-103657410D01*
X118554000Y-103357760D01*
X118554000Y-103052240D01*
X118613604Y-102752590D01*
X118730521Y-102470326D01*
X118900259Y-102216295D01*
X119116295Y-102000259D01*
X119370326Y-101830521D01*
X119652590Y-101713604D01*
X119802415Y-101683802D01*
X119952239Y-101654000D01*
X120257761Y-101654000D01*
X120407585Y-101683802D01*
X120407585Y-101683802D01*
G37*
G36*
X163407585Y-101683802D02*
G01*
X163557410Y-101713604D01*
X163839674Y-101830521D01*
X164093705Y-102000259D01*
X164309741Y-102216295D01*
X164479479Y-102470326D01*
X164596396Y-102752590D01*
X164656000Y-103052240D01*
X164656000Y-103357760D01*
X164596396Y-103657410D01*
X164479479Y-103939674D01*
X164309741Y-104193705D01*
X164093705Y-104409741D01*
X163839674Y-104579479D01*
X163557410Y-104696396D01*
X163407585Y-104726198D01*
X163257761Y-104756000D01*
X162952239Y-104756000D01*
X162802415Y-104726198D01*
X162652590Y-104696396D01*
X162370326Y-104579479D01*
X162116295Y-104409741D01*
X161900259Y-104193705D01*
X161730521Y-103939674D01*
X161613604Y-103657410D01*
X161554000Y-103357760D01*
X161554000Y-103052240D01*
X161613604Y-102752590D01*
X161730521Y-102470326D01*
X161900259Y-102216295D01*
X162116295Y-102000259D01*
X162370326Y-101830521D01*
X162652590Y-101713604D01*
X162802415Y-101683802D01*
X162952239Y-101654000D01*
X163257761Y-101654000D01*
X163407585Y-101683802D01*
X163407585Y-101683802D01*
G37*
M02*
